<?xml version="1.0" encoding="UTF-8"?>
<svg width="256px" height="257px" viewBox="0 0 256 257" version="1.1" xmlns="http://www.w3.org/2000/svg" xmlns:xlink="http://www.w3.org/1999/xlink">
    <!-- Generator: Sketch 41 (35326) - http://www.bohemiancoding.com/sketch -->
    <title>default-location-lodging</title>
    <desc>Created with Sketch.</desc>
    <defs></defs>
    <g id="Page-1" stroke="none" stroke-width="1" fill="none" fill-rule="evenodd">
        <g id="Default-Location-Icons" transform="translate(-302.000000, -306.000000)">
            <g id="default-location-lodging" transform="translate(302.000000, 306.000000)">
                <rect id="Rectangle" fill="#1F61A8" x="0.0435042738" y="0.635694287" width="256" height="256"></rect>
                <g id="Lodging-Shapes" transform="translate(27.000000, 75.000000)">
                    <polygon id="Stroke-1" stroke="#FFFFFF" stroke-width="7" stroke-linecap="square" points="0.526318788 107.26631 199.972294 107.26631 199.972294 0.363267834 0.526318788 0.363267834"></polygon>
                    <path d="M32.4376748,20.3078653 L165.268694,20.7067573" id="Line" stroke="#FFFFFF" stroke-width="3" stroke-linecap="square"></path>
                    <path d="M53.5789481,84.4875346 L144.127421,84.4875346" id="Line-Copy" stroke="#FFFFFF" stroke-width="3" stroke-linecap="square"></path>
                    <path d="M46.2696535,63.8638131 L51.7839358,43.3575758 L47.3610219,43.3575758 L44.0007561,57.4879242 L43.9433157,57.4879242 L40.4394488,43.3575758 L36.2175764,43.3575758 L32.6562691,57.3156029 L32.5988286,57.3156029 L29.3534437,43.3575758 L24.8443691,43.3575758 L30.2724908,63.8638131 L34.8390058,63.8638131 L38.256712,49.905786 L38.3141525,49.905786 L41.7892991,63.8638131 L46.2696535,63.8638131 Z M53.8517917,43.3575758 L53.8517917,63.8638131 L69.4181511,63.8638131 L69.4181511,60.072744 L58.3608663,60.072744 L58.3608663,55.0467055 L68.2980625,55.0467055 L68.2980625,51.5428386 L58.3608663,51.5428386 L58.3608663,47.1486449 L69.1883894,47.1486449 L69.1883894,43.3575758 L53.8517917,43.3575758 Z M72.4624945,43.3575758 L72.4624945,63.8638131 L86.9662058,63.8638131 L86.9662058,60.072744 L76.9715691,60.072744 L76.9715691,43.3575758 L72.4624945,43.3575758 Z M103.16441,50.2504287 L107.529884,50.2504287 C107.395855,49.0633203 107.070363,48.0102561 106.553396,47.0912044 C106.03643,46.1721528 105.380658,45.4015013 104.586061,44.7792267 C103.791464,44.1569521 102.891573,43.6830732 101.88636,43.3575758 C100.881148,43.0320783 99.8137233,42.869332 98.6840557,42.869332 C97.1140091,42.869332 95.7019457,43.1469581 94.4478232,43.7022184 C93.1937006,44.2574788 92.1358498,45.0233437 91.2742388,45.9998361 C90.4126279,46.9763284 89.7520695,48.1203391 89.2925436,49.4319024 C88.8330178,50.7434657 88.6032583,52.1651024 88.6032583,53.6968551 C88.6032583,55.1903141 88.8330178,56.5832308 89.2925436,57.8756472 C89.7520695,59.1680636 90.4126279,60.2929276 91.2742388,61.2502731 C92.1358498,62.2076185 93.1937006,62.9591235 94.4478232,63.5048104 C95.7019457,64.0504973 97.1140091,64.3233367 98.6840557,64.3233367 C99.9477517,64.3233367 101.106122,64.1318704 102.159202,63.7489323 C103.212282,63.3659941 104.13132,62.810742 104.916344,62.0831595 C105.701367,61.3555769 106.333205,60.4748323 106.811878,59.4408992 C107.290551,58.4069661 107.587323,57.2485955 107.702205,55.9657525 L103.336731,55.9657525 C103.164409,57.34433 102.69053,58.4548341 101.91508,59.2972981 C101.139631,60.1397621 100.062633,60.5609878 98.6840557,60.5609878 C97.6692695,60.5609878 96.8076715,60.3647349 96.0992359,59.9722233 C95.3908002,59.5797116 94.8164015,59.0579662 94.3760226,58.4069713 C93.9356437,57.7559763 93.6149378,57.0236181 93.4138953,56.2098744 C93.2128527,55.3961308 93.1123329,54.558466 93.1123329,53.6968551 C93.1123329,52.7969504 93.2128527,51.9257791 93.4138953,51.0833151 C93.6149378,50.2408511 93.9356437,49.4893461 94.3760226,48.8287778 C94.8164015,48.1682094 95.3908002,47.6416773 96.0992359,47.2491657 C96.8076715,46.856654 97.6692695,46.6604011 98.6840557,46.6604011 C99.2393161,46.6604011 99.7706348,46.7513476 100.278028,46.9332432 C100.785421,47.1151389 101.240153,47.3688316 101.642238,47.6943291 C102.044323,48.0198265 102.379389,48.3979723 102.647446,48.8287778 C102.915503,49.2595832 103.087822,49.7334621 103.16441,50.2504287 Z M114.394016,53.6968551 C114.394016,52.7969504 114.494536,51.9257791 114.695579,51.0833151 C114.896621,50.2408511 115.217327,49.4893461 115.657706,48.8287778 C116.098085,48.1682094 116.672484,47.6416773 117.380919,47.2491657 C118.089355,46.856654 118.950953,46.6604011 119.965739,46.6604011 C120.980525,46.6604011 121.842123,46.856654 122.550559,47.2491657 C123.258994,47.6416773 123.833393,48.1682094 124.273772,48.8287778 C124.714151,49.4893461 125.034857,50.2408511 125.235899,51.0833151 C125.436942,51.9257791 125.537462,52.7969504 125.537462,53.6968551 C125.537462,54.558466 125.436942,55.3961308 125.235899,56.2098744 C125.034857,57.0236181 124.714151,57.7559763 124.273772,58.4069713 C123.833393,59.0579662 123.258994,59.5797116 122.550559,59.9722233 C121.842123,60.3647349 120.980525,60.5609878 119.965739,60.5609878 C118.950953,60.5609878 118.089355,60.3647349 117.380919,59.9722233 C116.672484,59.5797116 116.098085,59.0579662 115.657706,58.4069713 C115.217327,57.7559763 114.896621,57.0236181 114.695579,56.2098744 C114.494536,55.3961308 114.394016,54.558466 114.394016,53.6968551 Z M109.884942,53.6968551 C109.884942,55.1903141 110.114701,56.5832308 110.574227,57.8756472 C111.033753,59.1680636 111.694311,60.2929276 112.555922,61.2502731 C113.417533,62.2076185 114.475384,62.9591235 115.729506,63.5048104 C116.983629,64.0504973 118.395692,64.3233367 119.965739,64.3233367 C121.554932,64.3233367 122.971782,64.0504973 124.216332,63.5048104 C125.460881,62.9591235 126.513945,62.2076185 127.375556,61.2502731 C128.237167,60.2929276 128.897725,59.1680636 129.357251,57.8756472 C129.816777,56.5832308 130.046536,55.1903141 130.046536,53.6968551 C130.046536,52.1651024 129.816777,50.7434657 129.357251,49.4319024 C128.897725,48.1203391 128.237167,46.9763284 127.375556,45.9998361 C126.513945,45.0233437 125.460881,44.2574788 124.216332,43.7022184 C122.971782,43.1469581 121.554932,42.869332 119.965739,42.869332 C118.395692,42.869332 116.983629,43.1469581 115.729506,43.7022184 C114.475384,44.2574788 113.417533,45.0233437 112.555922,45.9998361 C111.694311,46.9763284 111.033753,48.1203391 110.574227,49.4319024 C110.114701,50.7434657 109.884942,52.1651024 109.884942,53.6968551 Z M133.1196,43.3575758 L133.1196,63.8638131 L137.341472,63.8638131 L137.341472,49.4749827 L137.398913,49.4749827 L142.424951,63.8638131 L145.900098,63.8638131 L150.926137,49.3313816 L150.983577,49.3313816 L150.983577,63.8638131 L155.205449,63.8638131 L155.205449,43.3575758 L148.858281,43.3575758 L144.320486,57.459204 L144.263045,57.459204 L139.466769,43.3575758 L133.1196,43.3575758 Z M159.16884,43.3575758 L159.16884,63.8638131 L174.735199,63.8638131 L174.735199,60.072744 L163.677914,60.072744 L163.677914,55.0467055 L173.615111,55.0467055 L173.615111,51.5428386 L163.677914,51.5428386 L163.677914,47.1486449 L174.505437,47.1486449 L174.505437,43.3575758 L159.16884,43.3575758 Z" id="WELCOME" fill="#FFFFFF"></path>
                </g>
            </g>
        </g>
    </g>
</svg>