<?xml version="1.0" encoding="UTF-8"?>
<svg width="142px" height="125px" viewBox="0 0 142 125" version="1.1" xmlns="http://www.w3.org/2000/svg" xmlns:xlink="http://www.w3.org/1999/xlink">
    <!-- Generator: Sketch 40.3 (33839) - http://www.bohemiancoding.com/sketch -->
    <title>Group 7</title>
    <desc>Created with Sketch.</desc>
    <defs>
        <polygon id="path-1" points="0 125.561677 141.993533 125.561677 141.993533 0.894792164 0 0.894792164"></polygon>
    </defs>
    <g id="Page-1" stroke="none" stroke-width="1" fill="none" fill-rule="evenodd">
        <g id="Food-&amp;-Drink-Location" transform="translate(-157.000000, -15.000000)">
            <g id="Group-7" transform="translate(157.000000, 14.000000)">
                <g id="Group-20" transform="translate(0.000000, 0.427042)">
                    <g id="Group-3">
                        <mask id="mask-2" fill="white">
                            <use xlink:href="#path-1"></use>
                        </mask>
                        <g id="Clip-2"></g>
                        <path d="M71.0778292,125.561677 C58.273364,125.561677 45.966931,121.723455 35.4870583,114.460703 C26.0708026,107.936783 18.7036323,99.0734503 14.0544471,88.7086642 L-0.000397366255,88.7086642 L-0.000397366255,50.0330242 L10.0158814,50.0330242 C12.8610238,36.8953076 19.9540114,24.9365491 30.2285782,16.0679296 C41.5641129,6.28337068 56.0719549,0.894792164 71.0778292,0.894792164 C86.1168174,0.894792164 100.648501,6.30451791 111.994633,16.1274062 C122.230787,24.9867738 129.298608,36.9257068 132.138453,50.0330242 L141.99446,50.0330242 L141.99446,88.7086642 L128.098562,88.7086642 C123.458649,99.0536247 116.110022,107.905062 106.720258,114.425017 C96.2284641,121.710238 83.9034874,125.561677 71.0778292,125.561677" id="Fill-1" fill="#FFFFFF" mask="url(#mask-2)"></path>
                    </g>
                    <path d="M19.8530804,50.960198 C20.2491221,51.172992 20.9365657,51.2285035 21.5551325,51.3078056 C22.2902601,51.4016465 22.9432653,51.2417205 23.5260691,51.1320193 C25.4215062,50.7791249 26.9103051,50.2425139 28.3726129,49.7085464 C29.1143632,49.4375975 29.7408774,49.129641 30.4773295,48.8586921 C31.6720774,48.4185654 32.9224565,47.9982642 34.1264763,47.5621025 C34.3860889,47.46694 34.5357635,47.3387349 34.7702096,47.2356422 C35.5516966,46.8880346 36.3358326,46.540427 37.1451353,46.1994279 C37.603431,46.0064594 38.2286206,45.8954365 38.9173888,45.8227429 C39.1862733,45.7949871 39.4432368,45.751371 39.7386123,45.7117199 C39.9121289,45.7672314 40.0829964,45.8161344 40.2247237,45.8729676 C40.7757383,46.0963352 41.6141811,46.3104509 42.3771243,46.2232185 C44.032817,46.0355369 43.899037,46.5628959 44.3705783,46.4769853 C44.4195868,46.5391053 44.5533668,46.5932951 44.6288664,46.6527717 C45.0619956,46.9884839 45.4885021,47.3268396 45.9189822,47.6625519 C45.9706398,47.7035246 46.0169992,47.7484625 46.1044198,47.7788616 C46.8951786,48.0445237 47.6793147,48.3141509 48.4978892,48.5705611 C48.7641246,48.6538283 49.154868,48.6908359 49.4793838,48.6088904 C49.9668198,48.4886155 50.4913432,48.3723058 50.866192,48.2150233 C51.4887325,47.954648 52.0265015,47.6691604 52.5589723,47.3836728 C52.9271984,47.1880609 53.4053624,47.0466388 54.0490957,47.0003792 C55.0716516,46.9276856 55.9935413,46.7690814 56.8253613,46.5721478 C57.8783819,46.3236679 59.0069021,46.3646406 60.1446941,46.389753 C60.3645701,46.3963615 60.5553059,46.4888806 60.7765064,46.5311751 C61.7328346,46.7109265 62.1063588,46.7783333 63.038845,46.4531947 C63.6600609,46.2351139 64.2124,45.9998509 64.7395726,45.7526927 C65.4164198,45.4368059 66.2522134,45.1618919 67.0072093,44.864509 C67.3873564,44.7164784 67.7290914,44.5565525 68.1118875,44.4098436 C68.5807797,44.2300921 69.0695402,44.0569492 69.5530025,43.8824845 C69.9053339,43.7556012 70.2669372,43.6326829 70.6205931,43.5057995 C71.0841871,43.3392651 71.5702985,43.1780174 71.9968049,43.0009094 C72.7504763,42.6889878 73.4697092,42.3664925 74.1995385,42.0479624 C74.2975556,42.0056679 74.358485,41.9501564 74.4723967,41.9131488 C75.5876713,41.5628978 76.191668,41.1029455 76.8089103,40.6416716 C77.2354167,40.3218197 77.8817992,39.9609951 79.0301877,40.0773049 C80.9203265,40.2689516 85.7032916,41.5298552 85.7032916,41.5298552 C86.0821141,41.584045 86.4039808,41.7677616 86.543059,41.9184356 C86.9443989,42.346667 87.8954288,42.6585886 88.4106804,43.0590643 C88.8318886,43.3868463 89.4809202,43.6762991 90.2650562,43.8771977 C91.4054974,44.1653287 91.9419418,44.6186725 92.9923133,44.9147337 C93.400276,45.0297218 93.9009575,45.1063805 94.4029635,45.2094732 C94.3592532,45.2570545 94.2943501,45.325783 94.2387188,45.3839379 C94.6003221,45.4883523 94.927487,45.5835148 95.2586255,45.6786774 C95.3328005,45.6998246 95.417572,45.7289021 95.4996944,45.7302238 C96.6600038,45.7619446 97.078563,46.1346645 97.8693218,46.3342415 C98.7938606,46.5642176 99.2442091,46.9329725 100.11709,47.1708788 C100.589956,47.3004056 101.05355,47.4338975 101.53039,47.5673893 C102.367508,47.3387349 103.26688,47.1748439 103.692062,46.8206278 C103.939754,46.6144423 104.584812,46.5999036 105.040458,46.766438 C105.7332,47.0215265 106.379582,47.2924754 107.049807,47.555494 C107.17299,47.604397 107.310744,47.6519783 107.45512,47.692951 C108.386282,47.9572914 109.279032,48.2348488 110.447288,48.3842011 C110.909558,48.442356 111.326792,48.5639526 111.693694,48.6829057 C113.183817,49.156075 114.644801,49.6384962 115.897829,50.1922893 C116.190555,50.3204943 116.579974,50.4235871 116.927007,50.5372534 C117.043568,50.5755828 117.219734,50.6006951 117.287286,50.645633 C117.717766,50.9430159 118.587998,51.0897248 119.198618,51.3249878 C119.831755,51.5681809 120.578803,51.5549639 121.390755,51.483592 C121.944419,51.434689 122.496758,51.3884294 123.051746,51.3421699 C118.831716,27.2594402 97.1421416,8.91289654 71.0086875,8.91289654 C45.072592,8.91289654 23.5075254,26.9911347 19.0596724,50.8148108 C19.3563726,50.8187759 19.6517481,50.8531402 19.8530804,50.960198" id="Fill-4" fill="#195FAB"></path>
                    <path d="M91.5354362,53.2624705 C92.1579766,52.9175063 92.742105,52.5619685 93.3818647,52.2209695 C93.8030729,51.9936367 94.3845522,51.8072768 94.6547613,51.5376496 C94.9249703,51.2706658 95.3408803,51.0195425 95.6932117,50.7631323 C95.8654038,50.6336055 96.0309731,50.502757 96.212437,50.3758736 C96.4058219,50.2384167 96.5237072,50.1115333 96.1554812,49.9806848 C95.7925533,49.8524797 95.4918795,49.9172431 95.1329253,49.9820065 C94.3567366,50.1247503 93.5196183,49.9872933 93.205699,49.6819802 C93.0454279,49.5286627 92.8838323,49.3727019 92.6877983,49.2233496 C92.4348084,49.0343463 92.1036699,49.0092339 91.642725,49.1466909 C91.4268227,49.2114543 91.2797972,49.3026517 91.0612458,49.3660934 C90.8016331,49.4427521 90.5234768,49.5260193 90.2082329,49.563027 C89.6943058,49.6225036 89.2174663,49.4890117 89.1340194,49.3026517 C88.9379854,48.8466646 89.4267459,48.4382587 89.8850416,48.0324962 C90.0625319,47.8752137 90.1274351,47.7536171 89.8943135,47.5963346 C89.5949643,47.3927925 89.4002548,47.1707466 89.1644842,46.9579526 C88.7551969,46.9857084 88.3763744,46.9989254 88.0227185,47.0398981 C87.8372809,47.0597237 87.6359486,47.1178785 87.5432298,47.1760334 C86.6531294,47.7443652 86.0451591,48.3444179 85.9802559,48.9986603 C85.9762822,49.0541718 85.959063,49.1083616 85.9299229,49.1625513 C85.8544233,49.2986866 85.6398455,49.3938492 85.2106899,49.3700585 C84.833192,49.3489113 84.5722548,49.2630007 84.5881495,49.1176135 C84.6106669,48.9312535 84.6742455,48.7422501 84.7060348,48.5558902 C84.7219294,48.4686579 84.7312013,48.3787821 84.6914647,48.2928715 C84.5550356,47.9968103 84.4040364,47.9333686 83.5245325,47.9201516 C82.9960353,47.9122214 82.7814576,47.824989 82.6503267,47.6756367 C82.5350905,47.5395014 82.4304507,47.4007227 82.2966707,47.2394751 C82.0383827,47.2156845 81.7416825,47.186607 81.4290877,47.1562079 C81.2992814,47.2156845 81.2012644,47.2579789 81.1098702,47.3002734 C80.4992507,47.5870827 79.7919388,47.7113227 78.7230235,47.5685789 C77.7137133,47.435087 77.571986,47.4601993 76.9944803,47.7800512 C76.4580359,48.0761124 76.0262312,48.3959642 75.5507163,48.7065642 C75.4738921,48.7541455 75.4288573,48.8096569 75.3308403,48.8519514 C74.6566422,49.150656 74.273846,49.5075155 73.7082614,49.8234023 C72.9969758,50.2225562 72.0327004,50.5767723 70.6339711,50.7234812 C69.5544595,50.8358259 68.6789292,50.751237 68.0285731,50.4287417 C67.5093478,50.1723316 67.0219119,49.9040261 66.6377912,49.6211819 C66.4894411,49.514124 66.6642822,49.3528764 66.7093171,49.2140977 C66.757001,49.0528501 66.8497198,48.8902807 66.8563426,48.7290331 C66.8563426,48.6774867 66.6430894,48.6259404 66.4881165,48.5585336 C65.4523152,49.0449199 64.4827415,49.4929768 63.5409835,49.9476422 C63.1913012,50.1181418 62.9171185,50.3058234 62.5979009,50.4829315 C62.5012084,50.538443 62.3886213,50.6217102 62.2535168,50.6296404 C61.2839432,50.6811868 60.2878784,50.7314114 59.3633396,50.5807374 C59.0202801,50.525226 58.7712639,50.3930558 58.5023794,50.2886413 C57.8692425,50.0428048 57.2864386,49.7811078 56.6188633,49.5484883 C56.1009626,49.3687368 55.6307459,49.3951709 54.9883371,49.5286627 C54.216122,49.6885887 53.77637,49.9066695 53.6359673,50.2106609 C53.4107931,50.7010123 52.4875788,51.0697671 51.6941709,51.4504173 C50.2398104,52.1469541 48.6728628,52.8144136 47.3906943,53.55721 C46.8198115,53.8876355 46.2012447,54.2074874 45.573406,54.5260175 L89.3353517,54.5260175 C89.5539031,54.381952 89.77113,54.2378865 90.0042515,54.0964644 C90.4784419,53.8109768 91.0334301,53.5426713 91.5354362,53.2624705" id="Fill-6" fill="#195FAB"></path>
                    <path d="M41.605439,52.9053467 C41.569676,52.7440991 41.275625,52.6661186 40.9060744,52.6225025 C39.9510708,52.5101578 39.0821633,52.3753442 38.6887707,52.0118762 C38.5602889,51.8902796 38.0516601,51.8691324 37.6900568,51.9471128 C37.5297858,51.9827988 37.3469973,52.0264149 37.2714977,52.0806047 C36.8648596,52.3793093 36.129732,52.5973901 35.7429622,52.9093118 C35.1667811,53.3732291 34.3707241,53.8067474 33.2342566,54.1464247 C32.9772931,54.2244051 32.8103992,54.3393932 32.6050933,54.4358774 C32.5454884,54.4649549 32.4898571,54.495354 32.4355504,54.5257532 L40.3762527,54.5257532 C40.4941381,54.4517379 40.6120234,54.3764009 40.7299087,54.3023856 C41.4160278,53.8662239 41.7206752,53.4023066 41.605439,52.9053467" id="Fill-8" fill="#195FAB"></path>
                    <path d="M115.032895,53.5248283 C114.679239,53.2670965 114.105707,53.0860233 113.481842,52.9075936 C112.750688,52.6987647 112.099007,52.4568932 111.427458,52.222952 C110.849953,52.023375 110.300263,51.8119027 109.718784,51.6096823 C109.453873,51.5184849 109.186313,51.4378611 108.724043,51.4550432 C108.45251,51.4629734 108.154485,51.3757411 107.831294,51.3255164 C106.28289,51.5369887 105.587499,51.4695819 104.254998,50.9620484 C104.150358,50.9223974 104.058964,50.8774595 103.967569,50.8378084 C102.892031,50.8206263 102.151605,50.9964127 101.669468,51.2937956 C101.333031,51.5026245 101.11448,51.7339223 100.837648,51.9559682 C100.380677,52.3194362 99.9581438,52.6881911 99.4521641,53.0424072 C98.8653866,53.4560998 98.1488027,53.8420368 97.6958052,54.2861286 C97.6123583,54.3680741 97.5103676,54.4473762 97.4004296,54.5253567 L119.589361,54.5253567 C119.521809,54.5213916 119.454257,54.5161047 119.389354,54.5081745 C118.009168,54.3403184 116.671368,54.1407414 115.578611,53.7904904 C115.354762,53.7177968 115.166675,53.6213126 115.032895,53.5248283" id="Fill-10" fill="#195FAB"></path>
                    <path d="M20.6177455,84.2184465 C29.2419178,103.31043 48.4744446,116.596177 70.8170245,116.596177 C93.1662273,116.596177 112.398754,103.31043 121.014979,84.2184465 L20.6177455,84.2184465 Z M70.9706728,107.101071 L68.5454141,107.101071 L59.4549987,95.3987226 L59.4549987,107.101071 L56.6045581,107.101071 L56.6045581,90.6511695 L59.2894295,90.6511695 L68.1215568,102.024414 L68.1215568,90.6511695 L70.9706728,90.6511695 L70.9706728,107.101071 Z M81.8386399,107.382593 C77.0344819,107.382593 73.4555365,103.646142 73.4555365,98.9223797 L73.4555365,98.8761202 C73.4555365,94.199939 76.9642805,90.369647 81.9565252,90.369647 C84.9950525,90.369647 86.8322092,91.4270084 88.4097532,92.9311052 L86.5487546,95.0696188 C85.2308232,93.8470446 83.8175238,93.024946 81.9326832,93.024946 C78.8014371,93.024946 76.4927392,95.6101949 76.4927392,98.8298606 L76.4927392,98.8761202 C76.4927392,102.095786 78.7775952,104.704825 81.9326832,104.704825 C83.9592511,104.704825 85.2533406,103.905196 86.6666399,102.588781 L88.526314,104.469562 C86.8083672,106.255182 84.9235266,107.382593 81.8386399,107.382593 L81.8386399,107.382593 Z" id="Fill-12" fill="#9E7B55"></path>
                    <path d="M137.75337,53.3617303 L128.372877,53.3617303 C126.111863,40.1870061 119.303655,28.1304417 109.115184,19.3107251 C98.5359699,10.1526529 84.9884297,5.10903857 70.9653746,5.10903857 C56.9741088,5.10903857 43.4477614,10.1341491 32.8791436,19.2565354 C22.6588835,28.0775736 15.8255085,40.1592504 13.5605208,53.3617303 L4.24095759,53.3617303 L4.24095759,54.6437811 L14.7671897,54.6437811 L14.7671897,54.1269957 C16.8851518,41.0117481 23.611238,28.993513 33.7401038,20.2504552 C44.0703019,11.3342544 57.2906772,6.42413193 70.9653746,6.42413193 C84.6705367,6.42413193 97.9134295,11.3527582 108.252899,20.3033232 C118.489054,29.1640125 125.235009,41.3672859 127.25098,54.6649284 L127.391383,54.6437811 L137.75337,54.6437811 L137.75337,53.3617303 Z" id="Fill-14" fill="#F58A3D"></path>
                    <path d="M137.75337,83.8703102 L124.045559,83.8703102 L124.045559,83.8716319 L124.021717,83.86238 C119.902353,94.3989873 112.786848,103.398455 103.443443,109.88669 C93.8854602,116.524277 82.6545653,120.033395 70.9653746,120.033395 C59.2973768,120.033395 48.0823765,116.536172 38.53499,109.919732 C29.2127776,103.460575 22.1025708,94.4994366 17.965988,84.0038021 L17.965988,83.8703102 L4.24095759,83.8703102 L4.24095759,85.152361 L17.0189318,85.152361 C21.2853208,95.601736 28.4471853,104.529832 37.7839677,110.999563 C47.5538794,117.76932 59.0271677,121.347167 70.9653746,121.347167 C82.9247743,121.347167 94.4166064,117.757424 104.19579,110.965198 C113.51138,104.49679 120.653376,95.5819104 124.913142,85.152361 L137.75337,85.152361 L137.75337,83.8703102 Z" id="Fill-16" fill="#F58A3D"></path>
                    <path d="M14.5116832,58.4329682 C21.7742138,58.4329682 23.1517501,61.5574714 23.1517501,65.1181363 C23.1517501,69.2405244 19.3953145,71.3023793 14.9183213,71.3023793 L12.539422,71.3023793 L12.539422,76.1450949 L14.4494291,76.1450949 L14.4494291,80.2688048 L4.36824724,80.2688048 L4.36824724,76.1450949 L6.12195698,76.1450949 L6.12195698,62.5249572 L4.36824724,62.5249572 L4.36824724,58.4329682 L14.5116832,58.4329682 Z M12.539422,67.9293961 L13.9474231,67.9293961 C15.7633869,67.9293961 17.0164151,66.9923095 17.0164151,65.3362171 C17.0164151,63.4937647 15.9210088,62.4945581 14.1037205,62.4945581 L12.539422,62.4945581 L12.539422,67.9293961 Z" id="Fill-18" fill="#F58A3D"></path>
                </g>
                <polygon id="Fill-21" fill="#F58A3D" points="33.9839542 58.8600101 33.9839542 62.9837199 32.3256124 62.9837199 32.3256124 76.540416 36.3641781 76.540416 36.3641781 72.572667 41.6226582 72.572667 41.6226582 80.6958466 24.0921836 80.6958466 24.0921836 76.540416 25.8127795 76.540416 25.8127795 62.9837199 24.0921836 62.9837199 24.0921836 58.8600101"></polygon>
                <path d="M55.1478134,80.6955823 L55.1478134,76.6035933 L58.1214376,76.6035933 L57.4644587,74.4796184 L51.0469937,74.4796184 L50.3900148,76.6035933 L52.8311682,76.6035933 L52.8311682,80.6955823 L42.8758189,80.6955823 L42.8758189,76.6035933 L45.0043775,76.6035933 L49.2310299,62.8896148 L47.9475369,62.8896148 L47.9475369,58.8597458 L59.9691907,58.8597458 L65.5098008,76.6035933 L67.7006134,76.6035933 L67.7006134,80.6955823 L55.1478134,80.6955823 Z M56.3067984,70.7299502 L54.2391693,63.9826622 L52.204654,70.7299502 L56.3067984,70.7299502 Z" id="Fill-22" fill="#F58A3D"></path>
                <g id="Group-27" transform="translate(63.578601, 58.260222)" fill="#F58A3D">
                    <path d="M12.4040526,10.4393297 C12.5298852,9.81416468 13.2186534,8.50303642 13.5617129,7.75363147 L15.2849579,4.59740741 L13.5617129,4.59740741 L13.5617129,0.599259259 L21.9832284,0.599259259 L21.9832284,4.59740741 L20.2930973,4.59740741 L14.5021464,14.7507212 L14.5021464,18.3748277 L16.2545316,18.3748277 L16.2545316,22.4350958 L6.23692829,22.4350958 L6.23692829,18.3748277 L8.02110277,18.3748277 L8.02110277,14.6886012 L1.94802184,4.59740741 L0.414188093,4.59740741 L0.414188093,0.599259259 L11.1205596,0.599259259 L11.1205596,4.59740741 L9.49268247,4.59740741 L11.3086463,7.90959229 C11.4967329,8.50303642 12.1537118,9.90800551 12.2782199,10.4393297 L12.4040526,10.4393297 Z" id="Fill-23"></path>
                    <path d="M27.3096582,11.4078728 C27.3096582,4.66058476 31.817116,0.00555078053 38.2981597,0.00555078053 C45.9673284,0.00555078053 49.5356774,4.59846477 49.5356774,11.6272753 C49.5356774,18.686485 45.5924796,22.9978765 38.5167111,22.9978765 C31.9734134,22.9978765 27.3096582,19.2178091 27.3096582,11.4078728 M41.7102112,11.6272753 C41.7102112,7.84720796 40.677059,4.81654558 38.2663704,4.81654558 C36.3563632,4.78614643 35.0410809,7.53396462 35.0410809,11.4078728 C35.0410809,15.5011835 36.5139852,18.0930408 38.5167111,18.0930408 C40.4889723,18.0930408 41.7102112,15.5011835 41.7102112,11.6272753" id="Fill-25"></path>
                </g>
                <polygon id="Fill-28" fill="#F58A3D" points="135.558584 62.8892182 135.558584 80.6951858 128.8272 80.6951858 120.844111 68.7932605 120.844111 76.6666385 123.2548 76.6666385 123.2548 80.6951858 113.643835 80.6951858 113.643835 76.6666385 115.490263 76.6666385 115.490263 62.8892182 113.6743 62.8892182 113.6743 58.860671 122.658751 58.860671 130.330569 70.3251129 130.330569 62.8892182 128.200685 62.8892182 128.200685 58.860671 137.623564 58.860671 137.623564 62.8892182"></polygon>
                <path d="M31.0255625,44.0200737 L30.7076695,42.8754799 C31.3858412,42.7895693 31.8626807,42.5847055 32.1673282,42.06792 C32.5103877,41.4890146 32.3567394,40.8664931 31.5302176,40.3801068 L27.5035729,38.0102953 L28.1618763,36.8974223 L32.2229595,39.2870593 C32.9527888,39.7166124 33.3686988,40.2558668 33.5157243,40.8281637 C33.6640744,41.3991389 33.54354,42.0256256 33.1806121,42.640217 C32.6203257,43.5865555 31.8176459,43.9420933 31.0255625,44.0200737" id="Fill-29" fill="#FEFEFE"></path>
                <path d="M30.9390691,32.9945689 L31.6688984,32.0905248 L39.2440238,34.1537014 L38.4122038,35.1846289 L36.6147838,34.6678435 L34.4941725,37.2927434 L35.3763256,38.943549 L34.5696721,39.9427556 L30.9390691,32.9945689 Z M35.4597725,34.3281661 L32.4596573,33.4981373 L33.9166669,36.239347 L35.4597725,34.3281661 Z" id="Fill-31" fill="#FEFEFE"></path>
                <path d="M37.0399657,31.407998 L37.0267201,31.3921376 C35.6690521,29.8853974 35.6902449,27.6358609 37.3009028,26.1938841 C38.2797484,25.3162741 39.1791207,25.1272707 40.1248523,25.1563481 L40.1447207,26.3828875 C39.3645582,26.3696705 38.6704919,26.5124143 38.063846,27.0569554 C37.0532112,27.9623212 37.0585094,29.4624528 37.9923201,30.4999888 L38.0055657,30.5158492 C38.9393764,31.5533852 40.4334735,31.7344583 41.4507311,30.8238058 C42.1037363,30.2382918 42.2904984,29.6065183 42.3646735,28.7738462 L43.5090883,28.8438964 C43.4733253,29.9157966 43.1925198,30.8238058 42.1977796,31.7146328 C40.6480512,33.1024198 38.4095547,32.9319202 37.0399657,31.407998" id="Fill-32" fill="#FEFEFE"></path>
                <polygon id="Fill-34" fill="#FEFEFE" points="41.3071494 23.081144 42.3667928 22.4097195 44.2940191 25.4337734 45.233128 20.589736 46.5417875 19.7597073 45.6755291 23.9402503 50.4863099 25.7020788 49.1961941 26.521534 45.4132674 25.1218517 45.0874271 26.6788165 46.198728 28.423463 45.1404092 29.0948875"></polygon>
                <g id="Group-39" transform="translate(48.735802, 14.965762)" fill="#FEFEFE">
                    <path d="M1.57367945,9.71820949 L1.904818,8.5947629 C2.76842733,8.86174668 3.53931786,8.89082412 4.34332225,8.53925142 C5.05460785,8.22865148 5.35528165,7.69600563 5.14202842,7.21094105 L5.1340811,7.19243722 C4.9287752,6.72587646 4.55657547,6.58974117 3.21877575,6.84086452 C1.67831923,7.11445681 0.712719232,7.04705002 0.182897558,5.84430132 L0.174950233,5.82579749 C-0.316459369,4.70631601 0.27826546,3.52339284 1.57765311,2.95506103 C2.53133213,2.53740324 3.41613432,2.49510878 4.3128575,2.73698023 L4.07708686,3.87364383 C3.29559989,3.69389238 2.60418261,3.71768301 2.00548412,3.97937998 C1.33261059,4.2741195 1.09154173,4.79090493 1.27962842,5.22045803 L1.28757575,5.23896186 C1.51010085,5.74253027 1.90746711,5.8350494 3.30089811,5.58128264 C4.83208274,5.31165546 5.75927067,5.49537202 6.23478562,6.57784585 L6.24273295,6.59634968 C6.78050195,7.81892391 6.13676861,8.96748283 4.76320593,9.56885718 C3.76184296,10.0063405 2.66643665,10.0737473 1.57367945,9.71820949" id="Fill-35"></path>
                    <path d="M7.01084192,4.6460464 L7.0055437,4.62622088 C6.52340598,2.67935403 7.62543506,0.676975696 9.75531819,0.152260055 C11.8852013,-0.372455586 13.7700419,0.872587573 14.2521796,2.81945442 L14.2574779,2.83927995 C14.738291,4.7861468 13.6362619,6.78852513 11.5077034,7.31324077 C9.37649569,7.83795641 7.49297964,6.59291325 7.01084192,4.6460464 M12.9845813,3.17367052 L12.9792831,3.153845 C12.6454954,1.8096742 11.3884935,0.93470756 10.0122817,1.27438494 C8.63474535,1.61274062 7.94597717,2.9476595 8.27844027,4.2918303 L8.28373849,4.31165583 C8.61620159,5.65582663 9.8705544,6.52154135 11.2480908,6.18186397 C12.6243026,5.84218659 13.3157198,4.51784132 12.9845813,3.17367052" id="Fill-37"></path>
                </g>
                <polygon id="Fill-40" fill="#FEFEFE" points="64.6804974 14.0260324 65.8421315 13.9639124 69.9297057 18.6810664 69.6647948 13.7590486 70.8979548 13.6929635 71.2807509 20.8116498 70.231704 20.868483 66.0249199 16.013872 66.2977781 21.0786335 65.0632936 21.1447186"></polygon>
                <g id="Group-47" transform="translate(75.499588, 13.644061)" fill="#FEFEFE">
                    <path d="M0.615255418,3.95122773 L0.619229081,3.9314022 C0.991428807,1.93959749 2.79017339,0.584853076 4.91740741,0.981363636 C6.21149684,1.22059167 6.9095369,1.81667922 7.46187599,2.5832663 L6.50024966,3.34588828 C6.03533114,2.722045 5.49888669,2.25944934 4.69620686,2.11009703 C3.3623808,1.86161708 2.17293114,2.78019988 1.91729218,4.15212642 L1.91331852,4.17195194 C1.65767956,5.54255678 2.42327188,6.83518121 3.76769438,7.08498286 C4.62997915,7.24490878 5.24457229,7.00700245 5.95188422,6.55894552 L6.59561756,7.50660575 C5.72008724,8.13177074 4.82866228,8.46351791 3.51337997,8.21900306 C1.46826831,7.83835292 0.240406584,5.96285797 0.615255418,3.95122773" id="Fill-41"></path>
                    <path d="M8.1440214,5.41910983 L8.15196872,5.400606 C8.85928066,3.52246765 10.9043923,2.496827 12.9587759,3.26737919 C15.0118348,4.03925308 15.8569004,6.13150713 15.1482639,8.00832378 L15.1416412,8.02682761 C14.4330047,9.90496596 12.387893,10.9306066 10.334834,10.1600544 C8.28177503,9.38818053 7.43538491,7.29592648 8.1440214,5.41910983 M13.9018584,7.58273578 L13.9098058,7.56423196 C14.3985663,6.26896413 13.8594727,4.8362393 12.5322694,4.336636 C11.2050661,3.83835439 9.87918738,4.5481083 9.39042689,5.84337612 L9.38380412,5.86320165 C8.89371907,7.15979118 9.43678628,8.58194239 10.7639896,9.080224 C12.0911929,9.5798273 13.4130979,8.87932531 13.9018584,7.58273578" id="Fill-43"></path>
                    <path d="M16.4251342,9.3107288 L18.5483945,5.79632354 L19.6239325,6.44263575 L17.5271632,9.91342485 C16.8410442,11.0474451 17.0635693,12.0017138 18.0251956,12.5806192 C18.9775501,13.1529161 19.9060626,12.9388004 20.5855588,11.8140321 L22.7088192,8.29830517 L23.7843572,8.94593909 L21.6928861,12.4074763 C20.5908571,14.2301032 19.0053657,14.5261644 17.4066288,13.5639654 C15.8158392,12.6070533 15.3548944,11.0804876 16.4251342,9.3107288" id="Fill-45"></path>
                </g>
                <polygon id="Fill-48" fill="#FEFEFE" points="101.462175 24.1739272 102.337705 24.9378708 101.965506 31.1630866 105.217286 27.4530695 106.147123 28.2659161 101.442307 33.6293823 100.651548 32.9394539 101.034344 26.5344867 97.6871956 30.35024 96.7573586 29.538715"></polygon>
                <polygon id="Fill-49" fill="#FEFEFE" points="108.22111 32.3471993 106.78132 30.6012312 107.680692 29.8637215 111.362953 34.3310738 110.464905 35.0685835 109.025115 33.3226153 104.406394 37.114578 103.60239 36.139162"></polygon>
                <polygon id="Fill-50" fill="#FEFEFE" points="109.943693 40.124754 112.232522 35.4935106 112.990167 36.7755614 111.281493 40.0837812 115.024683 40.2252033 115.754512 41.4623163 110.612593 41.1979759 108.158194 42.6399526 107.515785 41.5508703"></polygon>
            </g>
        </g>
    </g>
</svg>