<svg version="1" xmlns="http://www.w3.org/2000/svg" width="682.667" height="682.667" viewBox="0 0 512.000000 512.000000"><path d="M0 256v256h512V0H0v256zm239.6-111.7c2.2 2.6 2.4 3.6 2.4 13.5-.1 12-1.1 18.7-3.1 20.8-.8.7-4.8 2-8.9 2.9-4.1.8-8.4 1.7-9.6 2-2.1.5-2.1.6-2.7 67.7-.4 37-1.1 69.5-1.7 72.1-3.6 17.8-16.7 36.1-32.6 45.5-26.2 15.6-64 16-92.7 1-3.9-2-9.2-6.2-14.2-11.3-12.6-12.7-16.6-22.8-18-46.1l-.7-11.1 12.2-.6c6.8-.4 19.2-.7 27.7-.7H113v5.2c0 9.3 3.5 19.2 8.2 23.4 3.9 3.6 6.7 4.6 14.8 5.1 6.8.5 8.3.3 11.3-1.6 5-3.1 11.3-10.2 12.5-14.2.6-2.1 1.3-28 1.6-68.6.6-61.8.6-65.2-1.1-65.7-1-.3-5.4-1.2-9.8-2.1-11.4-2.1-11.5-2.3-11.5-20 0-7.8-.3-15.7-.6-17.5l-.7-3.2 49.7.4 49.8.3 2.4 2.8zm122.7-2.3c15.9 1.5 30.7 5.5 42.2 11.3 7 3.5 18.8 11.8 26.3 18.5l7.4 6.5-.4 24c-.4 30.3 1.8 27.7-23.3 27.7-16.1 0-18.4-.2-19.8-1.8-.9-1-2.4-6.8-3.7-14.7-1.1-7.2-2.3-13.8-2.6-14.7-.3-1-4.4-3.7-9.1-6l-8.6-4.3H339.4l-7.6 3.8c-21.6 10.6-33.2 38.1-31.4 74.2 1.3 26.3 7.1 43.1 19.1 55.2 11.5 11.4 29 15.8 47.7 11.8 8.7-1.8 19.6-7 20.9-9.9.6-1.2 2.1-8.7 3.3-16.7l2.2-14.4 22.4-.3 22.3-.2-.6 26.1-.6 26.2-4.8 4.9c-13.3 13.6-34.6 24.9-55.3 29.3-15.3 3.2-39.9 2.8-54.5-1-7.5-2-19.9-7.3-27.2-11.7-6.8-4.1-21.8-18.1-27.9-25.9-9.4-12.2-17.6-31.2-21.1-48.6-1.4-7-1.7-13.6-1.6-31.8.1-22.2.2-23.4 3-34.5 6-22.7 13.8-37.4 27.7-51.8 17.3-17.9 38-28.4 61.5-31.2 9.7-1.1 13.5-1.1 25.4 0z"/></svg>