<?xml version="1.0" encoding="UTF-8"?>
<svg width="48px" height="42px" viewBox="0 0 48 42" version="1.1" xmlns="http://www.w3.org/2000/svg" xmlns:xlink="http://www.w3.org/1999/xlink">
    <!-- Generator: Sketch 43.2 (39069) - http://www.bohemiancoding.com/sketch -->
    <title>check</title>
    <desc>Created with Sketch.</desc>
    <defs></defs>
    <g id="Page-1" stroke="none" stroke-width="1" fill="none" fill-rule="evenodd">
        <g id="check">
            <path d="M41.904,0.504 C41.334,0.194 40.692,0 40,0 L4,0 C3.308,0 2.666,0.194 2.098,0.504 L22,12.824 L41.904,0.504 Z" id="Fill-1" fill="#1F61A8"></path>
            <path d="M35,16 C27.832,16 22,21.832 22,29 C22,36.168 27.832,42 35,42 C42.168,42 48,36.168 48,29 C48,21.832 42.168,16 35,16 Z M43.194,25.8 L35.002,34.514 C34.818,34.708 34.564,34.822 34.296,34.828 L34.272,34.828 C34.012,34.828 33.762,34.728 33.576,34.546 L27.724,28.864 C27.33,28.484 27.318,27.846 27.704,27.452 C28.086,27.056 28.72,27.046 29.118,27.43 L34.24,32.4 L41.734,24.426 C42.11,24.024 42.748,24.004 43.146,24.384 C43.55,24.766 43.57,25.398 43.194,25.8 Z" id="Fill-3" fill="#7ED321"></path>
            <path d="M43.404,1.926 L22.494,14.85 C22.184,15.03 21.818,15.03 21.508,14.85 L0.596,1.926 C0.226,2.534 0,3.238 0,4 L0,26 C0,28.204 1.794,30 4,30 L20.05,30 C20.028,29.668 20,29.338 20,29 C20,20.73 26.73,14 35,14 C38.38,14 41.49,15.136 44,17.03 L44,4 C44,3.238 43.774,2.534 43.404,1.926 Z" id="Fill-4" fill="#1F61A8"></path>
        </g>
    </g>
</svg>