<?xml version="1.0" encoding="UTF-8"?><svg version="1.1" viewBox="0 0 35 32" xmlns="http://www.w3.org/2000/svg" xmlns:xlink="http://www.w3.org/1999/xlink"><g transform="matrix(1,0,0,1,-341,-231)"><g transform="matrix(1,0,0,1,341,231)"><path fill="rgba(0,0,0,0.2)" fill-rule="evenodd" stroke="none" d="M6.96,9.87692c1.10769,0 17.499,-3.61458 20.2654,-5.74258c2.7664,-2.128 -0.72174,-3.85309 -7.79098,-3.85309c-7.06924,0 -15.0426,1.72509 -17.809,3.85309c-2.7664,2.128 4.22695,5.74258 5.33464,5.74258Z" transform="matrix(1,0,0,1,6,22)"></path><path fill="#1F61A8" fill-rule="evenodd" stroke="none" d="M12.8,31.8769c1.10769,0 12.8,-12.0077 12.8,-19.0769c0,-7.06924 -5.73076,-12.8 -12.8,-12.8c-7.06924,0 -12.8,5.73076 -12.8,12.8c0,7.06924 11.6923,19.0769 12.8,19.0769Z"></path><path fill="#FFF" fill-rule="evenodd" stroke="none" d="M19.0661,6.04164c3.46065,3.46065 3.46065,9.07146 0,12.5321c-3.46065,3.46065 -9.07146,3.46065 -12.5321,0c-3.46065,-3.46065 -3.46065,-9.07146 -1.77636e-15,-12.5321c3.46065,-3.46065 9.07146,-3.46065 12.5321,-1.77636e-15"></path></g></g></svg>