<?xml version="1.0" encoding="UTF-8"?><svg version="1.1" viewBox="0 0 512 512" xmlns="http://www.w3.org/2000/svg" xmlns:xlink="http://www.w3.org/1999/xlink"><g transform="matrix(1,0,0,1,0,512)"><path fill="#006E75" stroke="none" d="M0,2560v-2560h2560h2560v2560v2560h-2560h-2560v-2560Zm4058,1280c230,-47 433,-150 602,-307l60,-55v-259v-259h-193h-193l-27,172c-26,170 -27,173 -59,201c-47,39 -161,94 -238,114c-82,21 -291,24 -370,4c-140,-34 -263,-114 -344,-222c-153,-203 -217,-495 -187,-849c35,-416 215,-685 512,-766c88,-24 288,-24 384,0c84,22 197,74 243,113c33,28 33,31 59,201l27,172h193h193v-258v-259l-57,-55c-169,-160 -390,-270 -633,-314c-138,-25 -384,-23 -510,3c-231,50 -390,134 -556,298c-200,196 -308,406 -360,700c-24,139 -25,490 -1,625c60,333 200,585 430,774c146,121 339,209 517,235c41,6 86,13 100,15c61,11 310,-4 408,-24Zm-1710,-167l-3,-156l-135,-26l-135,-26l-5,-815c-6,-814 -6,-815 -28,-890c-120,-389 -490,-606 -959,-561c-154,15 -258,42 -368,96c-242,117 -369,320 -377,598l-3,92l251,3l251,2l11,-82c30,-210 144,-311 352,-312c74,-1 93,3 142,27c72,35 149,119 180,195l23,57l3,796l3,795l-133,25l-133,24l-3,158l-3,157h536h536l-3,-157Z" transform="matrix(0.1,0,0,-0.1,0,0)"></path></g></svg>