<?xml version="1.0" encoding="UTF-8"?><svg version="1.1" viewBox="0 0 46 46" xmlns="http://www.w3.org/2000/svg" xmlns:xlink="http://www.w3.org/1999/xlink"><g stroke-linecap="round" stroke-width="1" fill-rule="evenodd" stroke="#F2F2F2" fill="none" stroke-linejoin="round"><path d="M8.625,4.79167h-7.66667v40.25h44.0833v-40.25h-7.66667"></path><path d="M8.625,0.958333h5.75v7.66667h-5.75Z"></path><path d="M31.625,0.958333h5.75v7.66667h-5.75Z"></path><path d="M14.375,4.79167h17.25"></path><path d="M0.958333,14.375h44.0833"></path><path d="M33.143,21.9707l-16.1728,7.03608l-3.55158,-1.77483l-4.14192,1.77483l5.3245,5.32642l8.87608,-3.55158l-3.54967,9.46833l4.73417,-2.36708l4.73417,-9.46642l5.55833,-2.07192c1.2075,-0.50025 1.7825,-1.88408 1.28033,-3.0935c-0.498333,-1.20558 -1.88408,-1.78058 -3.09158,-1.28033Z"></path><path d="M27.8242,24.2842l-7.87942,-3.25067l-4.37383,1.81125l7.97525,3.3005"></path></g></svg>