<?xml version="1.0" encoding="UTF-8"?><svg version="1.1" viewBox="0 0 45 47" xmlns="http://www.w3.org/2000/svg" xmlns:xlink="http://www.w3.org/1999/xlink"><g transform="matrix(1,0,0,1,1,0)"><path fill="none" fill-rule="evenodd" stroke="#F2F2F2" stroke-linecap="round" stroke-linejoin="round" stroke-width="1" d="M0.714286,14.375l5.27238,-11.5019c1.47238,-2.55108 5.12762,-2.55108 6.6,0l3.38286,5.48167c0.278095,-1.96842 3.0019,-2.25017 3.6781,-0.391l2.97143,6.41125h-21.9048Z"></path><path fill="none" fill-rule="evenodd" stroke="#F2F2F2" stroke-linecap="round" stroke-linejoin="round" stroke-width="2" d="M19.0476,18.6932c0,0 0.0057143,0.35075 0.0666667,0.94875"></path><path fill="none" fill-rule="evenodd" stroke="#F2F2F2" stroke-dasharray="1.905143011183966" stroke-linecap="round" stroke-linejoin="round" stroke-width="1" d="M19.7543,22.3929c0.749899,2.83092 2.26547,6.31925 5.32639,8.63458c5.38771,4.07483 14.9261,1.45475 16.5784,10.1353"></path><path fill="none" fill-rule="evenodd" stroke="#F2F2F2" stroke-linecap="round" stroke-linejoin="round" stroke-width="2" d="M41.9029,44.0833c0.0171429,0.306667 0.0266667,0.62675 0.0266667,0.958333"></path><path fill="none" fill-rule="evenodd" stroke="#F2F2F2" stroke-linejoin="round" stroke-width="1" d="M41.4342,17.4741l-3.68421,-5.68966h1.8421l-3.68421,-5.68966l-3.68421,5.68966h1.84211l-3.68421,5.68966h2.76316l-4.14474,5.68965h13.8158l-4.14474,-5.68965Z"></path><path fill="none" fill-rule="evenodd" stroke="#F2F2F2" stroke-linecap="round" stroke-linejoin="round" stroke-width="1" d="M35.9079,23.1638v4.74138"></path><path fill="none" fill-rule="evenodd" stroke="#F2F2F2" stroke-linejoin="round" stroke-width="1" d="M8.35488,37.9437c-0.632317,0.525556 -1.45018,0.843333 -2.34268,0.843333c-1.81091,0 -3.31293,-1.30472 -3.58451,-3.00972l-0.0404268,-0.298426c-1.22006,-0.497037 -2.07628,-1.67852 -2.07628,-3.05759c1.66533e-16,-1.3587 0.832378,-2.52593 2.02341,-3.03519l0.0497561,-0.275c0,-1.40657 1.15994,-2.5463 2.59146,-2.5463l0.259146,-0.25463c0,-1.82824 1.5072,-3.31019 3.3689,-3.31019c1.86171,0 3.3689,1.48194 3.3689,3.31019l0.259146,0.25463c1.43152,0 2.59146,1.13972 2.59146,2.5463l0.309939,0.400278c1.0511,0.560185 1.76323,1.65306 1.76323,2.90991c0,1.37093 -0.84689,2.54731 -2.05659,3.05046l-0.060122,0.306574c-0.271585,1.70398 -1.77463,3.0087 -3.58451,3.0087c-0.885244,0 -1.69482,-0.311667 -2.32402,-0.827037l-0.51622,-0.0162963Z"></path><path fill="none" fill-rule="evenodd" stroke="#F2F2F2" stroke-linecap="round" stroke-linejoin="round" stroke-width="1" d="M8.60366,29.6204v15.2778"></path><path fill="none" fill-rule="evenodd" stroke="#F2F2F2" stroke-linecap="round" stroke-linejoin="round" stroke-width="1" d="M8.60366,35.2222c2.28982,0 4.14634,-1.82417 4.14634,-4.07407"></path><path fill="none" fill-rule="evenodd" stroke="#F2F2F2" stroke-linecap="round" stroke-linejoin="round" stroke-width="1" d="M8.60366,33.1852c-1.71762,0 -3.10976,-1.36787 -3.10976,-3.05556"></path></g></svg>