<?xml version="1.0" encoding="UTF-8"?><svg version="1.1" viewBox="0 0 48 48" xmlns="http://www.w3.org/2000/svg" xmlns:xlink="http://www.w3.org/1999/xlink"><g transform="matrix(1,0,0,1,1,1)"><path fill="#F2F2F2" stroke="none" d="M14.0776,7.13793c-0.547241,0 -0.991379,0.442155 -0.991379,0.991379c0,0.545259 0.444138,0.991379 0.991379,0.991379c0.547241,0 0.991379,-0.446121 0.991379,-0.991379c0,-0.549224 -0.444138,-0.991379 -0.991379,-0.991379Z"></path><path fill="#F2F2F2" stroke="none" d="M18.0431,5.15517c-0.547241,0 -0.991379,0.442155 -0.991379,0.991379c0,0.545259 0.444138,0.991379 0.991379,0.991379c0.547241,0 0.991379,-0.446121 0.991379,-0.991379c0,-0.549224 -0.444138,-0.991379 -0.991379,-0.991379Z"></path><path fill="#F2F2F2" stroke="none" d="M27.9569,5.15517c-0.547241,0 -0.991379,0.442155 -0.991379,0.991379c0,0.545259 0.444138,0.991379 0.991379,0.991379c0.547241,0 0.991379,-0.446121 0.991379,-0.991379c0,-0.549224 -0.444138,-0.991379 -0.991379,-0.991379Z"></path><path fill="#F2F2F2" stroke="none" d="M23,7.13793c-0.547241,0 -0.991379,0.442155 -0.991379,0.991379c0,0.545259 0.444138,0.991379 0.991379,0.991379c0.547241,0 0.991379,-0.446121 0.991379,-0.991379c0,-0.549224 -0.444138,-0.991379 -0.991379,-0.991379Z"></path><path fill="#F2F2F2" stroke="none" d="M32.0057,7.13793c-0.547241,0 -0.991379,0.442155 -0.991379,0.991379c0,0.545259 0.444138,0.991379 0.991379,0.991379c0.547241,0 0.991379,-0.446121 0.991379,-0.991379c0,-0.549224 -0.444138,-0.991379 -0.991379,-0.991379Z"></path><path fill="none" fill-rule="evenodd" stroke="#F2F2F2" stroke-linecap="round" stroke-linejoin="round" stroke-width="1" d="M23,31.9224l11.8966,5.94828l5.94828,-5.94828"></path><path fill="none" fill-rule="evenodd" stroke="#F2F2F2" stroke-linecap="round" stroke-linejoin="round" stroke-width="1" d="M45.8017,35.8879c0,2.18897 -1.77457,3.96552 -3.96552,3.96552h-37.6724c-2.18897,0 -3.96552,-1.77655 -3.96552,-3.96552c-2.77556e-17,-2.19095 1.77655,-3.96552 3.96552,-3.96552h37.6724c2.19095,0 3.96552,1.77457 3.96552,3.96552Z"></path><path fill="none" fill-rule="evenodd" stroke="#F2F2F2" stroke-linecap="round" stroke-linejoin="round" stroke-width="1" d="M41.8362,23.9914c2.19095,0 3.96552,1.77457 3.96552,3.96552c0,2.18897 -1.77457,3.96552 -3.96552,3.96552h-37.6724c-2.18897,0 -3.96552,-1.77655 -3.96552,-3.96552c-2.77556e-17,-2.19095 1.77655,-3.96552 3.96552,-3.96552"></path><path fill="none" fill-rule="evenodd" stroke="#F2F2F2" stroke-linecap="round" stroke-linejoin="round" stroke-width="1" d="M4.16379,39.8534v1.98276c0,2.18897 1.77655,3.96552 3.96552,3.96552h29.7414c2.19095,0 3.96552,-1.77655 3.96552,-3.96552v-1.98276h-37.6724Z"></path><path fill="none" fill-rule="evenodd" stroke="#F2F2F2" stroke-linecap="round" stroke-linejoin="round" stroke-width="1" d="M41.8362,18.0431c0,-10.4035 -8.43466,-17.8448 -18.8362,-17.8448c-10.4035,8.60423e-16 -18.8362,7.44129 -18.8362,17.8448h37.6724Z"></path><path fill="none" fill-rule="evenodd" stroke="#F2F2F2" stroke-linecap="round" stroke-linejoin="round" stroke-width="1" d="M4.16379,18.0431c0,0 -3.96552,0.78319 -3.96552,2.97414c-2.77556e-17,2.18897 1.77655,2.97414 3.96552,2.97414c1.05681,0 2.26431,-0.319224 2.97414,-0.991379c1.01319,1.83009 2.71241,2.97414 4.9569,2.97414c2.43879,0 4.03888,-0.870431 4.9569,-2.97414c0.916034,2.10371 3.5075,2.97414 5.94828,2.97414c2.43879,0 5.03026,-0.870431 5.94828,-2.97414c0.916034,2.10371 2.51612,2.97414 4.9569,2.97414c2.2425,0 3.94172,-1.14405 4.9569,-2.97414c0.709828,0.672155 1.91733,0.991379 2.97414,0.991379c2.19095,0 3.96552,-0.785172 3.96552,-2.97414c0,-2.19095 -3.96552,-2.97414 -3.96552,-2.97414"></path></g></svg>