<?xml version="1.0" encoding="UTF-8"?><svg version="1.1" viewBox="0 0 44 40" xmlns="http://www.w3.org/2000/svg" xmlns:xlink="http://www.w3.org/1999/xlink"><g transform="matrix(1,0,0,1,1,1)"><path fill="none" fill-rule="evenodd" stroke="#F2F2F2" stroke-linecap="round" stroke-linejoin="round" stroke-width="1" d="M21.3291,1.76342c0,0 -20.2159,27.7821 0,27.7821c20.2165,0 0,-27.7821 0,-27.7821Z"></path><path fill="none" fill-rule="evenodd" stroke="#F2F2F2" stroke-linecap="round" stroke-linejoin="round" stroke-width="1" d="M21.1243,1.76342v36.1188"></path><path fill="none" fill-rule="evenodd" stroke="#F2F2F2" stroke-linecap="round" stroke-linejoin="round" stroke-width="1" d="M14.393,14.0112l6.93591,4.76553l6.93714,-4.76553"></path><path fill="none" fill-rule="evenodd" stroke="#F2F2F2" stroke-linecap="round" stroke-linejoin="round" stroke-width="1" d="M12.5261,20.1807l8.80287,5.0348l8.80308,-5.0348"></path><path fill="none" fill-rule="evenodd" stroke="#F2F2F2" stroke-linecap="round" stroke-linejoin="round" stroke-width="1" d="M17.5051,7.77027l3.82404,2.87799l3.82404,-2.87799"></path><path fill="none" fill-rule="evenodd" stroke="#F2F2F2" stroke-linejoin="round" stroke-width="1" d="M31.0031,27.805c0.606553,0.0639463 1.25939,0.0972474 1.95993,0.0972474c20.2163,0 0,-27.7821 0,-27.7821c0,-1.249e-15 -2.5675,3.52889 -4.95743,8.07112"></path><path fill="none" fill-rule="evenodd" stroke="#F2F2F2" stroke-linecap="round" stroke-linejoin="round" stroke-width="1" d="M32.8047,0.120476v37.762"></path><path fill="none" fill-rule="evenodd" stroke="#F2F2F2" stroke-linecap="round" stroke-linejoin="round" stroke-width="1" d="M32.963,17.1333l6.93714,-4.76451"></path><path fill="none" fill-rule="evenodd" stroke="#F2F2F2" stroke-linecap="round" stroke-linejoin="round" stroke-width="1" d="M32.963,23.5719l8.80349,-5.03418"></path><path fill="none" fill-rule="evenodd" stroke="#F2F2F2" stroke-linecap="round" stroke-linejoin="round" stroke-width="1" d="M29.139,6.12701l3.82404,2.87799l3.82465,-2.87799"></path><path fill="none" fill-rule="evenodd" stroke="#F2F2F2" stroke-linejoin="round" stroke-width="1" d="M10.9998,27.805c-0.605942,0.0639463 -1.25939,0.0972474 -1.95993,0.0972474c-20.2163,0 0,-27.7821 0,-27.7821c0,-1.249e-15 2.5675,3.52889 4.95743,8.07112"></path><path fill="none" fill-rule="evenodd" stroke="#F2F2F2" stroke-linecap="round" stroke-linejoin="round" stroke-width="1" d="M8.94675,0.120252v37.762"></path><path fill="none" fill-rule="evenodd" stroke="#F2F2F2" stroke-linecap="round" stroke-linejoin="round" stroke-width="1" d="M9.03997,17.1333l-6.93714,-4.76512"></path><path fill="none" fill-rule="evenodd" stroke="#F2F2F2" stroke-linecap="round" stroke-linejoin="round" stroke-width="1" d="M9.03998,23.5719l-8.80349,-5.03418"></path><path fill="none" fill-rule="evenodd" stroke="#F2F2F2" stroke-linecap="round" stroke-linejoin="round" stroke-width="1" d="M12.8639,6.12672l-3.82404,2.87799l-3.82465,-2.87799"></path><path fill="none" fill-rule="evenodd" stroke="#F2F2F2" stroke-linejoin="round" stroke-width="1" d="M0.0550689,37.6604h41.893"></path></g></svg>