<?xml version="1.0" encoding="UTF-8"?><svg version="1.1" viewBox="0 0 40 39" xmlns="http://www.w3.org/2000/svg" xmlns:xlink="http://www.w3.org/1999/xlink"><g transform="matrix(1,0,0,1,1,1)"><path fill="none" fill-rule="evenodd" stroke="#F2F2F2" stroke-linejoin="round" stroke-width="1" d="M21.2739,26.7177h16.4734v-13.497h-16.4734Z"></path><path fill="none" fill-rule="evenodd" stroke="#F2F2F2" stroke-linejoin="round" stroke-width="1" d="M29.8347,36.9882h7.9126v-10.2708h-7.9126Z"></path><path fill="none" fill-rule="evenodd" stroke="#F2F2F2" stroke-linejoin="round" stroke-width="1" d="M0.000287,26.7174v10.2708h5.18879l7.34619,-10.2708Z"></path><path fill="none" fill-rule="evenodd" stroke="#F2F2F2" stroke-linejoin="round" stroke-width="1" d="M12.5352,26.7174l-7.34619,10.2708h24.6455v-10.2708Z"></path><path fill="none" fill-rule="evenodd" stroke="#F2F2F2" stroke-linejoin="round" stroke-width="1" d="M15.6955,5.92435c0,-3.27196 -2.62128,-5.92435 -5.85558,-5.92435c-3.23287,0 -5.85415,2.65239 -5.85415,5.92435c0,1.48653 5.85415,15.7983 5.85415,15.7983c0,0 5.85558,-14.3117 5.85558,-15.7983Z"></path><path fill="none" fill-rule="evenodd" stroke="#F2F2F2" stroke-linejoin="round" stroke-width="1" d="M12.2338,5.94198c0,1.33708 -1.07117,2.42169 -2.39328,2.42169c-1.32211,0 -2.39328,-1.08461 -2.39328,-2.42169c0,-1.33708 1.07117,-2.42169 2.39328,-2.42169c1.32211,0 2.39328,1.08461 2.39328,2.42169Z"></path><path fill="none" fill-rule="evenodd" stroke="#F2F2F2" stroke-linejoin="round" stroke-width="1" d="M19.0687,1.98661h6.39906"></path><path fill="none" fill-rule="evenodd" stroke="#F2F2F2" stroke-linejoin="round" stroke-width="1" d="M19.0687,5.94198h12.3665"></path><path fill="none" fill-rule="evenodd" stroke="#F2F2F2" stroke-linejoin="round" stroke-width="1" d="M19.0687,9.42441h17.5546"></path><path fill="none" fill-rule="evenodd" stroke="#F2F2F2" stroke-linejoin="round" stroke-width="1" d="M3.50317,13.2198h-3.50317v13.497h21.2735v-13.497h-4.79947Z"></path></g></svg>