<?xml version="1.0" encoding="UTF-8"?><svg version="1.1" viewBox="0 0 48 46" xmlns="http://www.w3.org/2000/svg" xmlns:xlink="http://www.w3.org/1999/xlink"><g transform="matrix(1,0,0,1,1,1)"><path fill="none" fill-rule="evenodd" stroke="#1F61A8" stroke-linejoin="round" stroke-width="1" d="M14.2289,15.7147c-7.75058,0 -14.0342,6.37896 -14.0342,14.2472c6.38378e-16,7.86821 6.2836,14.2463 14.0342,14.2463c7.75058,0 14.0342,-6.37811 14.0342,-14.2463c0,-7.86821 -6.2836,-14.2472 -14.0342,-14.2472Z"></path><path fill="none" fill-rule="evenodd" stroke="#1F61A8" stroke-linejoin="round" stroke-width="1" d="M14.3129,15.0249l6.69175,-7.01321c0.621418,-0.81934 0.991927,-1.845 0.991927,-2.95981c0,-2.68047 -2.14109,-4.85406 -4.78233,-4.85406c-1.12993,-2.77556e-16 -2.16785,0.399057 -2.98582,1.06387c-0.817964,-0.664811 -1.85589,-1.06387 -2.98582,-1.06387c-2.64124,-5.55112e-17 -4.78149,2.17358 -4.78149,4.85406c0,1.11481 0.369673,2.14047 0.991927,2.95981l6.85985,7.01321Z"></path><path fill="none" fill-rule="evenodd" stroke="#1F61A8" stroke-linejoin="round" stroke-width="1" d="M25.432,42.8647c0.839709,0.411792 1.73295,0.743774 2.67218,0.985755c7.51222,1.92991 15.1465,-2.68811 17.0476,-10.3169c1.90189,-7.62708 -2.64793,-15.3756 -10.161,-17.3063c-3.35215,-0.861792 -6.72604,-0.419434 -9.60647,1.01123"></path><path fill="none" fill-rule="evenodd" stroke="#1F61A8" stroke-linejoin="round" stroke-width="1" d="M35.2393,15.5794l8.18131,-5.13255c0.801236,-0.63934 1.4076,-1.54104 1.67775,-2.62104c0.646509,-2.59896 -0.904109,-5.23953 -3.46338,-5.89755c-1.09564,-0.281887 -2.1988,-0.153679 -3.15309,0.28783c-0.631455,-0.849057 -1.54142,-1.49349 -2.63789,-1.77538c-2.55927,-0.658019 -5.16036,0.916132 -5.80855,3.51509c-0.269309,1.08 -0.158073,2.16594 0.247564,3.11604l4.95629,8.50755Z"></path></g></svg>