<?xml version="1.0" encoding="UTF-8"?><svg version="1.1" viewBox="0 0 40 30" xmlns="http://www.w3.org/2000/svg" xmlns:xlink="http://www.w3.org/1999/xlink"><!--Generated by IJSVG (https://github.com/iconjar/IJSVG)--><g fill="#4F5858" stroke="none"><path d="M38.5366,0.5c0.673518,0 1.21951,0.447715 1.21951,1c0,0.552285 -0.545994,1 -1.21951,1h-36.4878c-0.673518,0 -1.21951,-0.447715 -1.21951,-1c-1.11022e-16,-0.552285 0.545994,-1 1.21951,-1h36.4878Z"></path><path d="M38.6311,9.5c0.675206,0 1.22257,0.447715 1.22257,1c0,0.552285 -0.547363,1 -1.22257,1h-36.5793c-0.675206,0 -1.22257,-0.447715 -1.22257,-1c-1.11022e-16,-0.552285 0.547363,-1 1.22257,-1h36.5793Z"></path><path d="M38.6311,18.5c0.675206,0 1.22257,0.447715 1.22257,1c0,0.552285 -0.547363,1 -1.22257,1h-36.5793c-0.675206,0 -1.22257,-0.447715 -1.22257,-1c-1.11022e-16,-0.552285 0.547363,-1 1.22257,-1h36.5793Z"></path><path d="M38.6311,27.5c0.675206,0 1.22257,0.447715 1.22257,1c0,0.552285 -0.547363,1 -1.22257,1h-36.5793c-0.675206,0 -1.22257,-0.447715 -1.22257,-1c-1.11022e-16,-0.552285 0.547363,-1 1.22257,-1h36.5793Z"></path></g></svg>