<?xml version="1.0" encoding="UTF-8"?><svg version="1.1" viewBox="0 0 40 38" xmlns="http://www.w3.org/2000/svg" xmlns:xlink="http://www.w3.org/1999/xlink"><g transform="matrix(1,0,0,1,1,1)"><path fill="none" fill-rule="evenodd" stroke="#F2F2F2" stroke-linejoin="round" stroke-width="1" d="M11.7543,12.921c-6.40265,0 -11.5935,5.24492 -11.5935,11.7143c8.32667e-16,6.46942 5.1908,11.7136 11.5935,11.7136c6.40265,0 11.5935,-5.24423 11.5935,-11.7136c0,-6.46942 -5.1908,-11.7143 -11.5935,-11.7143Z"></path><path fill="none" fill-rule="evenodd" stroke="#F2F2F2" stroke-linejoin="round" stroke-width="1" d="M11.8237,12.3538l5.52796,-5.76642c0.513345,-0.673679 0.819418,-1.517 0.819418,-2.43362c0,-2.20394 -1.76873,-3.99111 -3.95062,-3.99111c-0.933418,8.32667e-17 -1.79084,0.328113 -2.46655,0.874736c-0.675709,-0.546623 -1.53313,-0.874736 -2.46655,-0.874736c-2.18189,-2.77556e-17 -3.94993,1.78717 -3.94993,3.99111c0,0.916623 0.305382,1.75994 0.819418,2.43362l5.66684,5.76642Z"></path><path fill="none" fill-rule="evenodd" stroke="#F2F2F2" stroke-linejoin="round" stroke-width="1" d="M21.009,35.2443c0.693673,0.338585 1.43156,0.611547 2.20745,0.810509c6.20575,1.58681 12.5124,-2.21023 14.0828,-8.48277c1.57113,-6.27115 -2.18742,-12.6421 -8.39385,-14.2296c-2.76916,-0.708585 -5.55629,-0.344868 -7.93578,0.831453"></path><path fill="none" fill-rule="evenodd" stroke="#F2F2F2" stroke-linejoin="round" stroke-width="1" d="M29.1108,12.8097l6.75847,-4.22009c0.661891,-0.525679 1.1628,-1.26708 1.38596,-2.15508c0.534073,-2.13692 -0.746873,-4.30806 -2.86105,-4.84909c-0.905091,-0.231774 -1.8164,-0.126358 -2.60473,0.23666c-0.521636,-0.698113 -1.27335,-1.22798 -2.17913,-1.45975c-2.11418,-0.541038 -4.26291,0.753264 -4.79836,2.89019c-0.222473,0.888 -0.130582,1.78089 0.204509,2.56208l4.09433,6.99509Z"></path></g></svg>