<?xml version="1.0" encoding="UTF-8"?><svg version="1.1" viewBox="0 0 46 46" xmlns="http://www.w3.org/2000/svg" xmlns:xlink="http://www.w3.org/1999/xlink"><g transform="matrix(1,0,0,1,1,1)"><path fill="none" fill-rule="evenodd" stroke="#1F61A8" stroke-linecap="round" stroke-linejoin="round" stroke-width="1" d="M3.98276,39.7787h36.0345v3.77049h-36.0345Z"></path><path fill="none" fill-rule="evenodd" stroke="#1F61A8" stroke-linecap="round" stroke-linejoin="round" stroke-width="1" d="M5.87931,24.6967h32.2414v15.082h-32.2414Z"></path><path fill="none" fill-rule="evenodd" stroke="#1F61A8" stroke-linecap="round" stroke-linejoin="round" stroke-width="1" d="M43.8103,43.5492h-43.6207"></path><path fill="none" fill-rule="evenodd" stroke="#1F61A8" stroke-linecap="round" stroke-linejoin="round" stroke-width="1" d="M38.1207,13.3852h-32.2414"></path><path fill="none" fill-rule="evenodd" stroke="#1F61A8" stroke-linecap="round" stroke-linejoin="round" stroke-width="1" d="M40.0172,24.6967h-36.0345"></path><path fill="none" fill-rule="evenodd" stroke="#1F61A8" stroke-linecap="round" stroke-linejoin="round" stroke-width="1" d="M9.67241,13.3852h24.6552v11.3115h-24.6552Z"></path><path fill="none" fill-rule="evenodd" stroke="#1F61A8" stroke-linecap="round" stroke-linejoin="round" stroke-width="1" d="M9.67241,12.4426c0,-6.76803 5.51897,-12.2541 12.3276,-12.2541c6.80862,-1.11022e-16 12.3276,5.48607 12.3276,12.2541v0.942623h-24.6552v-0.942623Z"></path><path fill="none" fill-rule="evenodd" stroke="#1F61A8" stroke-linecap="round" stroke-linejoin="round" stroke-width="1" d="M26.7414,33.1803c0,-2.60352 -2.12224,-4.71311 -4.74138,-4.71311c-2.61914,0 -4.74138,2.10959 -4.74138,4.71311v6.59836h9.48276v-6.59836Z"></path><path fill="none" fill-rule="evenodd" stroke="#1F61A8" stroke-linecap="round" stroke-linejoin="round" stroke-width="1" d="M9.67241,28.4672h3.7931v3.77049h-3.7931Z"></path><path fill="none" fill-rule="evenodd" stroke="#1F61A8" stroke-linecap="round" stroke-linejoin="round" stroke-width="1" d="M30.5345,28.4672h3.7931v3.77049h-3.7931Z"></path><path fill="none" fill-rule="evenodd" stroke="#1F61A8" stroke-linecap="round" stroke-linejoin="round" stroke-width="1" d="M24.8448,17.1557h5.72759"></path><path fill="none" fill-rule="evenodd" stroke="#1F61A8" stroke-linecap="round" stroke-linejoin="round" stroke-width="1" d="M24.8448,20.9262h5.72759"></path><path fill="none" fill-rule="evenodd" stroke="#1F61A8" stroke-linecap="round" stroke-linejoin="round" stroke-width="1" d="M13.4655,17.1557h5.72759"></path><path fill="none" fill-rule="evenodd" stroke="#1F61A8" stroke-linecap="round" stroke-linejoin="round" stroke-width="1" d="M13.4655,20.9262h5.72759"></path></g></svg>