<?xml version="1.0" encoding="UTF-8"?><svg version="1.1" viewBox="0 0 24 24" xmlns="http://www.w3.org/2000/svg" xmlns:xlink="http://www.w3.org/1999/xlink"><path d="M17.1527,15.0943h-1.09091l-0.377358,-0.377358c1.34477,-1.55746 2.15437,-3.58148 2.15437,-5.7976c0,-4.92624 -3.99314,-8.91938 -8.91938,-8.91938c-4.92624,0 -8.91938,3.99314 -8.91938,8.91938c0,4.92624 3.99314,8.91938 8.91938,8.91938c2.21612,0 4.24014,-0.809605 5.7976,-2.14751l0.377358,0.377358v1.08405l6.86106,6.84734l2.0446,-2.0446l-6.84734,-6.86106Zm-8.15266,0.65566c-3.7275,0 -6.75,-3.0225 -6.75,-6.75c0,-3.7275 3.0225,-6.75 6.75,-6.75c3.7275,0 6.75,3.0225 6.75,6.75c0,3.7275 -3.0225,6.75 -6.75,6.75Z" fill="#4F5858" stroke="none"></path></svg>