<?xml version="1.0" encoding="UTF-8"?><svg version="1.1" viewBox="0 0 47 48" xmlns="http://www.w3.org/2000/svg" xmlns:xlink="http://www.w3.org/1999/xlink"><g transform="matrix(1,0,0,1,1,1)"><path fill="none" fill-rule="evenodd" stroke="#1F61A8" stroke-linecap="round" stroke-linejoin="round" stroke-width="1" d="M37.3404,0c4.23064,0 7.65957,3.2176 7.65957,7.1875c0,3.9699 -3.42894,7.1875 -7.65957,7.1875v-14.375Z"></path><path fill="none" fill-rule="evenodd" stroke="#1F61A8" stroke-linecap="round" stroke-linejoin="round" stroke-width="1" d="M5.74468,3.83333c-0.00919149,2.40733 1.16426,3.7766 3.82979,3.83333c-2.47404,-0.0092 -3.70417,1.31867 -3.82979,3.83333c-0.0214468,-2.37207 -1.08306,-3.8364 -3.82979,-3.83333c2.45719,-0.0337333 3.8206,-1.22207 3.82979,-3.83333Z"></path><path fill="none" fill-rule="evenodd" stroke="#1F61A8" stroke-linecap="round" stroke-linejoin="round" stroke-width="1" d="M15.7979,0.958333c-0.0057446,1.50458 0.72766,2.36037 2.39362,2.39583c-1.54628,-0.00575 -2.31511,0.824167 -2.39362,2.39583c-0.0134042,-1.48254 -0.676915,-2.39775 -2.39362,-2.39583c1.53574,-0.0210833 2.38787,-0.763792 2.39362,-2.39583Z"></path><path fill="none" fill-rule="evenodd" stroke="#1F61A8" stroke-linecap="round" stroke-linejoin="round" stroke-width="1" d="M7.9379,30v15.7478h28.1667v-15.7478"></path><path fill="none" fill-rule="evenodd" stroke="#1F61A8" stroke-linecap="round" stroke-linejoin="round" stroke-width="1" d="M0.256061,31.8772l21.7652,-23.9583l21.7652,23.9583"></path><path fill="none" fill-rule="evenodd" stroke="#1F61A8" stroke-linecap="round" stroke-linejoin="round" stroke-width="1" d="M18.1804,23.5285h7.68184v7.56579h-7.68184Z"></path></g></svg>