<?xml version="1.0" encoding="UTF-8"?><svg version="1.1" viewBox="0 0 38 38" xmlns="http://www.w3.org/2000/svg" xmlns:xlink="http://www.w3.org/1999/xlink"><g transform="matrix(1,0,0,1,1,1)"><path fill="none" fill-rule="evenodd" stroke="#F2F2F2" stroke-linecap="round" stroke-linejoin="round" stroke-width="1" d="M3.25862,32.8607h29.4828v3.11475h-29.4828Z"></path><path fill="none" fill-rule="evenodd" stroke="#F2F2F2" stroke-linecap="round" stroke-linejoin="round" stroke-width="1" d="M4.81034,20.4016h26.3793v12.459h-26.3793Z"></path><path fill="none" fill-rule="evenodd" stroke="#F2F2F2" stroke-linecap="round" stroke-linejoin="round" stroke-width="1" d="M35.8448,35.9754h-35.6897"></path><path fill="none" fill-rule="evenodd" stroke="#F2F2F2" stroke-linecap="round" stroke-linejoin="round" stroke-width="1" d="M31.1897,11.0574h-26.3793"></path><path fill="none" fill-rule="evenodd" stroke="#F2F2F2" stroke-linecap="round" stroke-linejoin="round" stroke-width="1" d="M32.7414,20.4016h-29.4828"></path><path fill="none" fill-rule="evenodd" stroke="#F2F2F2" stroke-linecap="round" stroke-linejoin="round" stroke-width="1" d="M7.91379,11.0574h20.1724v9.34426h-20.1724Z"></path><path fill="none" fill-rule="evenodd" stroke="#F2F2F2" stroke-linecap="round" stroke-linejoin="round" stroke-width="1" d="M7.91379,10.2787c0,-5.59098 4.51552,-10.123 10.0862,-10.123c5.57069,5.55112e-17 10.0862,4.53197 10.0862,10.123v0.778689h-20.1724v-0.778689Z"></path><path fill="none" fill-rule="evenodd" stroke="#F2F2F2" stroke-linecap="round" stroke-linejoin="round" stroke-width="1" d="M21.8793,27.4098c0,-2.15074 -1.73638,-3.89344 -3.87931,-3.89344c-2.14293,0 -3.87931,1.74271 -3.87931,3.89344v5.45082h7.75862v-5.45082Z"></path><path fill="none" fill-rule="evenodd" stroke="#F2F2F2" stroke-linecap="round" stroke-linejoin="round" stroke-width="1" d="M7.91379,23.5164h3.10345v3.11475h-3.10345Z"></path><path fill="none" fill-rule="evenodd" stroke="#F2F2F2" stroke-linecap="round" stroke-linejoin="round" stroke-width="1" d="M24.9828,23.5164h3.10345v3.11475h-3.10345Z"></path><path fill="none" fill-rule="evenodd" stroke="#F2F2F2" stroke-linecap="round" stroke-linejoin="round" stroke-width="1" d="M20.3276,14.1721h4.68621"></path><path fill="none" fill-rule="evenodd" stroke="#F2F2F2" stroke-linecap="round" stroke-linejoin="round" stroke-width="1" d="M20.3276,17.2869h4.68621"></path><path fill="none" fill-rule="evenodd" stroke="#F2F2F2" stroke-linecap="round" stroke-linejoin="round" stroke-width="1" d="M11.0172,14.1721h4.68621"></path><path fill="none" fill-rule="evenodd" stroke="#F2F2F2" stroke-linecap="round" stroke-linejoin="round" stroke-width="1" d="M11.0172,17.2869h4.68621"></path></g></svg>