<?xml version="1.0" encoding="UTF-8"?><svg version="1.1" viewBox="0 0 18 33" xmlns="http://www.w3.org/2000/svg" xmlns:xlink="http://www.w3.org/1999/xlink"><!--Generated by IJSVG (https://github.com/iconjar/IJSVG)--><g fill="#4F5858" stroke="none"><path d="M15.2929,31.7071l-15,-15.0005c-0.390518,-0.390531 -0.390508,-1.0237 2.2914e-05,-1.41421l15,-14.9995l1.41419,1.41424l-14.2929,14.2924l14.2929,14.2934l-1.41422,1.41417l-14,-14.0005c-0.390518,-0.390531 -0.390508,-1.0237 2.292e-05,-1.41421l15,-14.9995l1.41419,1.41424l-14.2929,14.2924l14.2929,14.2934l-1.41424,1.41419l-0.999984,-1.00002Z"></path><path fill="#F2F2F2" d="M2.41421,15.9995l14.2929,14.2934l-1.41424,1.41419l-15,-15.0005c-0.390518,-0.390531 -0.390508,-1.0237 2.2914e-05,-1.41421l15,-14.9995l1.41419,1.41424l-14.2929,14.2924Z"></path></g></svg>