<svg width="350" height="354" xmlns="http://www.w3.org/2000/svg"><g fill-rule="nonzero" fill="none"><path d="M348.031 183.355c2.799-3.454 2.352-7.404.295-11.508-2.488-4.967-5.15-10.133-6.136-15.508-1.479-8.04-3.653-16.236.165-24.516 2.374-5.146.593-8.876-4.085-12.477-10.543-8.114-14.054-19.865-16.41-29.404 0-11.59-1.318-13.021-9.18-16.996-11.425-5.774-20.146-14.222-23.931-26.913-1.992-6.688-4.318-7.726-11.112-8.81-13.67-2.18-25.483-8.145-33.3-20.114-2.53-3.869-6.029-5.825-9.958-4.696-7.425 2.136-14.551 1.56-21.696-.47-6.449-1.829-13.214-2.826-18.077-8.471-3.806-4.418-7.377-4.325-12.448-1.376-3.132 1.826-6.452 3.943-9.905 4.473-6.394.968-12.946 1.114-19.435 1.09-2.705-.007-5.681-.836-8.062-2.148-5.186-2.857-10.044-1.944-13.56 1.913-6.372 6.986-14.875 9.582-23.174 12.598-3.742 1.361-8.04 2.186-11.955 1.826-6.989-.65-10.368.707-13.805 7.029-6.396 11.763-16.745 18.985-29.009 23.166-5.565 1.901-8.356 4.938-9.748 10.24-1.037 3.944-2.093 8.003-3.948 11.589-4.424 8.531-9.416 16.727-18.922 20.702-4.354 1.822-5.678 4.295-4.982 8.91.506 3.342 1.768 6.913 1.068 10.015-2.314 10.299-4.688 20.712-12.33 28.81-3.412 3.617-4.653 8.2-2.606 12.56 4.044 8.614 3.658 17.62 3.228 26.6-.187 3.94-1.341 8.06-3.016 11.65-3.18 6.806-2.672 10.291 2.318 16.059 8.153 9.42 11 20.951 10.318 32.975-.399 7.012.979 12.816 6.847 16.028 8.263 4.523 12.41 12.151 16.93 19.532 1.828 2.994 2.505 6.786 3.263 10.31.845 3.939 1.232 8.24 5.739 9.598 5.853 1.767 11.02 4.03 15.787 8.297 5.942 5.315 12.818 9.55 16.838 16.77 3.01 5.413 7.724 8.789 13.83 7.983 9.626-1.27 16.413 4.533 23.995 8.374 2.536 1.287 4.45 3.749 6.876 5.321 3.37 2.187 6.763 4.828 10.521 5.756 2.21.542 5.232-1.692 7.738-2.975 5.325-2.738 10.61-1.934 16.368-1.477 7.027.559 13.106 1.796 18.813 6.092 4.913 3.698 10.51 2.617 14.914-1.803 1.186-1.194 2.378-2.75 3.86-3.22 6.522-2.073 13.077-4.173 19.77-5.525 3.444-.698 7.402-.549 10.774.436 6.096 1.781 10.61.916 14.856-3.787 3.18-3.514 6.358-7.11 10-10.107 6.692-5.501 13.726-10.152 23.19-9.73 6.552.297 10.444-3.816 11.77-10.384.438-2.182.892-4.716 2.253-6.3 6.929-8.083 13.06-17.044 23.954-20.767 5.103-1.743 7.707-5.868 7.505-11.561-.108-2.949-.504-6.214.542-8.805 3.946-9.72 6.975-20.036 16.988-26.046 4.713-2.828 5.023-6.77 3.261-11.842-1.176-3.39-2.249-7.138-2.016-10.633.655-9.965 1.455-19.974 8.232-28.333Z" fill="#C7A934"/><path d="m71.72 205.994-17.058 1.573 1.668 5.942 15.39-7.515ZM44.4 220.305c-.118-.417.05-.712.441-.923l6.423-3.202-2.32-8.263-7.139.647c-.444.024-.741-.144-.859-.56l-1.394-4.97c-.144-.51.07-.82.62-.822l37.91-2.304c.491-.038.755.187.873.606l1.812 6.454c.115.417.01.747-.43.97l-33.583 17.718c-.487.237-.816.13-.974-.43l-1.38-4.92Z" fill="#FFF"/><path d="m55.195 207.934 1.4 4.986 12.909-6.305-14.309 1.319Zm.871 6.168-1.939-6.902 19.807-1.824-17.868 8.726Zm-6.816-6.629 2.506 8.927-6.73 3.352c-.28.15-.27.285-.228.44v.003l1.383 4.922c.048.175.103.232.12.24.019.009.1.009.27-.073l33.572-17.712c.245-.125.295-.238.223-.492l-1.812-6.453c-.07-.256-.173-.326-.441-.307l-37.916 2.304c-.184.002-.252.04-.261.055-.01.012-.029.086.014.245l1.395 4.966c.045.156.103.267.436.26l7.47-.677Zm-2.928 18.715a.872.872 0 0 1-.36-.074c-.276-.125-.47-.384-.58-.775l-1.383-4.919c-.166-.594.065-1.09.648-1.404l6.125-3.052-2.134-7.604-6.797.619c-.681.03-1.128-.271-1.296-.863l-1.394-4.97c-.137-.486-.01-.793.122-.968.13-.173.392-.379.896-.381l37.888-2.304c.658-.048 1.119.271 1.296.909l1.812 6.453c.178.638-.048 1.153-.64 1.455l-33.576 17.713c-.228.11-.437.165-.627.165Zm12.283 11.09 5.518 10.068c.254.465.115.815-.307 1.047l-4.236 2.316c-.466.254-.792.158-1.049-.307l-8.297-15.145c-.233-.422-.16-.794.305-1.048l32.53-17.78c.424-.23.818-.117 1.048.307l2.412 4.401c.255.463.116.815-.307 1.045l-27.617 15.095Z" fill="#FFF"/><path d="M83.486 216.726a.505.505 0 0 0-.218.065l-32.53 17.782c-.242.135-.273.242-.141.485l8.299 15.145c.07.127.141.209.197.225.057.017.16-.014.288-.081l4.236-2.318c.115-.063.192-.132.21-.197.03-.086-.03-.218-.069-.288l-5.714-10.432 27.98-15.292c.114-.064.189-.134.21-.199.03-.088-.03-.218-.07-.285l-2.411-4.401c-.041-.077-.11-.173-.204-.201a.268.268 0 0 0-.063-.008Zm-24.36 34.534a.834.834 0 0 1-.266-.038c-.279-.08-.511-.29-.691-.621l-8.3-15.145c-.352-.64-.17-1.257.47-1.609l32.53-17.78c.308-.17.622-.213.912-.127.29.084.533.29.701.597l2.41 4.399c.182.33.225.645.134.937-.089.276-.293.504-.605.674L59.17 237.443l5.319 9.704c.18.33.223.644.132.937-.089.276-.293.503-.605.673l-4.236 2.314c-.23.127-.449.19-.653.19Zm42.082.12c-.37.31-.754.379-1.126-.065l-7.764-9.231-7.394 6.204 5.93 7.052c.312.37.276.78-.132 1.117l-3.66 3.073c-.405.34-.813.307-1.125-.064l-5.93-7.053-7.47 6.266 7.764 9.234c.372.441.312.746-.093 1.084l-3.699 3.104c-.37.31-.715.348-1.087-.096l-11.429-13.59c-.28-.33-.244-.738.125-1.05l28.395-23.825c.37-.309.777-.273 1.058.06L105 247.19c.372.443.274.776-.096 1.086l-3.696 3.104Z" fill="#FFF"/><path d="M93.036 233.744c-.096 0-.192.062-.257.115l-28.394 23.826c-.274.227-.13.4-.075.465l11.43 13.592c.196.23.27.237.503.04l3.696-3.102c.178-.146.194-.22.194-.232.005-.039-.03-.13-.148-.269l-8.033-9.55 8.105-6.8 6.199 7.373c.141.165.28.228.54.01l3.66-3.071c.081-.067.177-.168.19-.276.007-.077-.03-.163-.109-.256l-6.199-7.374 8.03-6.736 8.031 9.55c.065.077.159.166.245.166.074 0 .178-.056.298-.154l3.696-3.102c.232-.194.24-.27.043-.503l-11.43-13.59c-.064-.076-.131-.117-.203-.122h-.012Zm-17.052 39.01c-.312 0-.612-.161-.88-.483l-11.43-13.587c-.43-.513-.357-1.184.175-1.635l28.397-23.825a1.29 1.29 0 0 1 .857-.307c.295.02.576.165.785.417l11.429 13.59c.492.585.441 1.177-.144 1.67l-3.699 3.102c-.273.23-.552.348-.828.348h-.002c-.326 0-.622-.156-.88-.463l-7.496-8.915-6.76 5.674 5.665 6.734c.228.27.332.575.298.88-.024.213-.125.525-.48.822l-3.66 3.07c-.576.485-1.248.44-1.711-.114l-5.664-6.736-6.833 5.734 7.495 8.915c.262.309.375.604.341.894-.04.367-.295.618-.485.777l-3.698 3.102c-.267.225-.533.335-.792.335Zm55.678-6.6c.453.275.51.647.261 1.062l-2.493 4.128c-.25.412-.608.534-1.061.26l-4.795-2.888-16.263 26.923c-.273.455-.605.537-1.06.264l-4.3-2.592c-.412-.249-.537-.604-.263-1.06l16.262-26.922-4.795-2.89c-.415-.25-.513-.646-.264-1.058l2.494-4.13c.25-.415.648-.511 1.06-.262l15.217 9.165Z" fill="#FFF"/><path d="M116.011 257.267c-.105 0-.19.065-.269.197l-2.496 4.13c-.043.075-.093.183-.07.278.025.094.118.166.193.211l5.15 3.107-16.473 27.278c-.041.067-.106.194-.082.282.017.065.089.137.202.207l4.3 2.59c.123.075.226.111.284.094.057-.014.132-.093.206-.215l16.476-27.278 5.15 3.105c.238.139.348.115.492-.123l2.494-4.128c.07-.117.098-.215.082-.283-.022-.088-.137-.167-.204-.208l-15.214-9.167a.421.421 0 0 0-.22-.077Zm-9.288 39.206c-.216 0-.446-.072-.686-.216l-4.299-2.59c-.304-.183-.499-.42-.576-.698-.079-.295-.024-.61.17-.93l16.05-26.568-4.443-2.676c-.297-.18-.494-.431-.566-.724-.075-.294-.017-.606.163-.903l2.494-4.133c.367-.604 1.022-.767 1.632-.403l15.213 9.17c.315.186.509.428.58.719.073.29.013.594-.177.908l-2.493 4.128c-.38.628-1.003.781-1.63.405l-4.442-2.675-16.047 26.565c-.194.324-.436.525-.717.595a.88.88 0 0 1-.226.026Zm33.975-6.544c1.195.379 2.044-.062 2.424-1.259l2.738-8.646c.38-1.194-.062-2.043-1.26-2.421l-4.558-1.441-3.904 12.324 4.56 1.443Zm8.277 2.006c-.977 3.083-2.767 4.742-5.285 5.01l-.638 13.053c-.038.595-.4.784-.907.623l-4.788-1.512c-.461-.147-.62-.449-.579-.892l.615-12.655-3.178-1.004-3.67 11.588c-.146.46-.508.65-.97.503l-4.787-1.512c-.46-.144-.65-.509-.504-.969l11.186-35.317c.147-.46.51-.648.97-.504l11.556 3.651c4.327 1.369 5.902 4.394 4.534 8.716l-3.555 11.221Z" fill="#FFF"/><path d="m136.658 288.217 4.164 1.316c.488.154.893.149 1.203-.012.31-.16.547-.489.7-.975l2.739-8.644c.154-.49.149-.892-.012-1.201-.16-.312-.49-.547-.977-.703l-4.161-1.313-3.656 11.532Zm4.82 2.258c-.284 0-.586-.05-.908-.153l-4.953-1.565 4.154-13.113 4.954 1.566c.705.22 1.197.594 1.464 1.107.266.513.29 1.13.067 1.831l-2.738 8.647c-.224.705-.598 1.196-1.112 1.462-.278.147-.59.218-.928.218Zm-7.532 3.565 3.876 1.223-.63 12.976c-.025.292.04.395.29.474l4.788 1.513c.153.05.25.04.283.017.033-.022.074-.106.084-.271l.657-13.4.353-.039c2.36-.252 4.02-1.839 4.932-4.722l3.555-11.22c.648-2.044.612-3.775-.104-5.15-.715-1.377-2.114-2.4-4.159-3.047l-11.556-3.654c-.242-.074-.372-.007-.449.235l-11.186 35.318c-.026.084-.048.201-.002.285.043.089.15.14.235.165l4.788 1.51c.242.077.372.01.449-.232l3.796-11.98Zm8.518 17.051c-.13 0-.278-.021-.444-.074l-4.788-1.515c-.437-.137-.94-.477-.869-1.321l.6-12.321-2.477-.782-3.544 11.192c-.214.676-.812.993-1.49.775l-4.789-1.513c-.333-.105-.583-.302-.725-.57-.139-.267-.156-.585-.05-.919l11.186-35.317c.214-.676.814-.993 1.49-.774l11.557 3.65c2.263.717 3.825 1.877 4.646 3.457.82 1.578.874 3.522.159 5.782l-3.555 11.219c-.977 3.085-2.753 4.85-5.282 5.25l-.622 12.707c-.033.523-.26.782-.444.909a.98.98 0 0 1-.56.165Zm23.249-27.364-4.515 16.507 6.159.528-1.644-17.035Zm3.825 30.579c-.432-.036-.652-.297-.712-.739l-.744-7.129-8.564-.73-1.9 6.903c-.132.422-.394.642-.826.606l-5.148-.44c-.53-.046-.746-.355-.557-.87l11.153-36.268c.137-.472.442-.64.874-.601l6.688.57c.432.036.704.254.759.743l4.821 37.634c.05.534-.165.807-.744.757l-5.1-.436Z" fill="#FFF"/><path d="m161.731 299.865 5.165.441-1.378-14.287-3.787 13.846Zm6.087 1.352-7.152-.611 5.244-19.168 1.908 19.78Zm-8.61 4.047 9.25.79.78 7.47c.044.32.173.357.336.37l5.1.436c.183.014.252-.017.267-.029.014-.014.045-.091.029-.278l-4.82-37.621c-.03-.269-.12-.358-.384-.381l-6.686-.571c-.264-.026-.367.05-.442.304l-11.152 36.274c-.065.175-.05.25-.044.262.01.017.075.06.238.074l5.146.441c.165.01.297-.002.396-.319l1.987-7.222Zm15.555 9.9c-.053 0-.105-.002-.16-.007l-5.098-.437c-.615-.052-1.001-.443-1.09-1.097l-.71-6.801-7.88-.674-1.807 6.573c-.201.645-.65.966-1.262.909l-5.148-.439c-.504-.043-.749-.27-.864-.453-.118-.185-.218-.501-.046-.973l11.144-36.248c.184-.63.652-.952 1.308-.894l6.686.573c.66.055 1.063.448 1.138 1.11l4.821 37.623c.039.422-.05.739-.261.954-.188.185-.444.28-.77.28Zm10.4-39.966c.48-.036.791.23.83.712l2.83 36.929c.035.484-.231.793-.711.83l-5.009.383c-.528.04-.792-.23-.828-.71l-2.832-36.933c-.036-.48.183-.786.713-.827l5.006-.384Z" fill="#FFF"/><path d="M185.249 275.61c-.02 0-.036 0-.055.003l-5.007.384c-.079.004-.22.026-.278.095-.043.053-.06.154-.05.286l2.829 36.93c.022.279.108.35.384.331l5.006-.383c.09-.007.204-.029.27-.106.062-.074.066-.191.062-.278l-2.832-36.93c-.005-.087-.032-.202-.104-.267a.356.356 0 0 0-.225-.064Zm-2.242 38.861c-.66 0-1.094-.41-1.147-1.098l-2.83-36.93c-.026-.358.053-.65.236-.873.194-.237.482-.374.859-.4l5.006-.384c.35-.022.653.065.883.259.228.199.365.484.392.834l2.83 36.93c.026.349-.063.653-.26.883-.197.23-.485.364-.833.39l-5.006.384c-.043.003-.087.005-.13.005Zm23.259-10.29 11.1-2.973c.51-.137.82.081.945.546l1.25 4.658c.137.51-.033.808-.547.947l-16.696 4.468c-.466.125-.81-.033-.946-.546l-9.6-35.773c-.125-.468.08-.823.547-.945l4.848-1.3c.514-.136.821.08.946.545l8.153 30.372Z" fill="#FFF"/><path d="M197.45 273.635a.677.677 0 0 0-.175.03l-4.85 1.296c-.084.022-.195.07-.243.151-.048.086-.033.204-.01.288l9.6 35.773c.022.079.07.213.15.256.06.031.163.031.29-.002l16.694-4.471c.29-.077.332-.146.252-.436l-1.248-4.658c-.033-.127-.084-.218-.144-.252-.079-.052-.218-.021-.292-.002l-11.504 3.08-8.258-30.772c-.053-.2-.12-.28-.262-.28Zm4.584 38.645c-.187 0-.357-.04-.51-.122-.27-.146-.454-.408-.553-.77l-9.6-35.773c-.091-.338-.06-.654.091-.915.154-.262.41-.449.747-.537l4.853-1.3c.705-.189 1.264.132 1.452.84l8.044 29.969 10.7-2.865c.362-.096.679-.064.94.094.25.15.423.4.514.745l1.25 4.658c.2.738-.1 1.256-.84 1.453l-16.694 4.47a1.549 1.549 0 0 1-.394.053Zm40.584-38.532c1.076-.736 1.186-1.688.502-2.682l-5.129-7.48c-.71-1.035-1.61-1.237-2.685-.5l-3.504 2.397 7.31 10.665 3.506-2.4Zm-19.399-9.174c-.273-.4-.199-.8.202-1.074l9.559-6.54c3.746-2.562 7.102-1.934 9.665 1.806l6.657 9.708c2.537 3.701 1.937 7.093-1.807 9.654l-4.78 3.27 6.875 10.027c.272.398.236.774-.201 1.071l-4.143 2.834c-.4.273-.801.199-1.075-.2l-20.952-30.556Z" fill="#FFF"/><path d="m232.378 265.59 6.842 9.98 3.163-2.165c.843-.575.972-1.263.396-2.105l-5.131-7.479c-.59-.863-1.24-.987-2.107-.393l-3.163 2.162Zm6.628 11.133-7.783-11.348 3.847-2.632c1.248-.856 2.408-.638 3.264.61l5.13 7.48c.842 1.227.618 2.416-.61 3.258l-3.848 2.632Zm-1.696-20.91c-1.275 0-2.643.496-4.095 1.49l-9.559 6.54c-.211.144-.238.288-.094.498l20.952 30.555c.144.21.288.237.5.093l4.142-2.833c.062-.046.175-.134.19-.225.01-.065-.024-.161-.099-.271l-7.109-10.37 5.122-3.505c1.764-1.206 2.803-2.596 3.086-4.133.281-1.527-.184-3.19-1.387-4.943l-6.655-9.708c-1.457-2.124-3.127-3.189-4.994-3.189Zm7.468 40.094c-.362 0-.705-.184-.948-.544l-20.954-30.554c-.4-.585-.278-1.249.31-1.65l9.559-6.539c3.919-2.687 7.557-2.004 10.243 1.913l6.658 9.706c1.33 1.942 1.84 3.812 1.516 5.564-.326 1.76-1.48 3.332-3.434 4.667l-4.435 3.035 6.638 9.685c.202.295.281.587.233.875-.048.3-.23.56-.54.774l-4.142 2.836c-.23.156-.47.232-.704.232Zm8.463-45.647 10.178 13.767 4.229-4.504-14.407-9.263Zm26.407 15.942c-.295.319-.638.328-1.022.103l-6.068-3.833-5.877 6.261 4.25 5.768c.252.369.262.71-.036 1.026l-3.535 3.766c-.362.386-.74.364-1.027-.103l-21.605-31.216c-.286-.4-.228-.744.07-1.06l4.59-4.89c.298-.317.637-.396 1.054-.137l32.573 19.532c.451.293.533.633.135 1.055l-3.502 3.728Z" fill="#FFF"/><path d="m254.918 251.833 8.54 11.55 3.547-3.78-12.087-7.77Zm8.463 12.842-11.82-15.987 16.73 10.756-4.91 5.23Zm-13.409-22.529c-.096 0-.18.055-.28.163l-4.592 4.888c-.182.194-.19.321-.034.537l21.608 31.218c.098.158.165.194.18.197.028 0 .09-.022.204-.14l3.535-3.765c.113-.12.182-.233-.005-.51l-4.447-6.03 6.35-6.764 6.358 4.015c.276.163.386.084.497-.034l3.501-3.73c.125-.134.147-.208.144-.23-.002-.017-.043-.089-.201-.194l-32.561-19.525a.51.51 0 0 0-.257-.096Zm16.886 37.83c-.03 0-.06 0-.086-.003-.216-.024-.528-.139-.794-.568l-21.59-31.194c-.382-.535-.346-1.098.107-1.58l4.591-4.89c.45-.482 1.008-.554 1.575-.206l32.568 19.53c.357.23.55.496.585.798.039.3-.084.601-.36.894l-3.501 3.73c-.42.448-.967.513-1.536.173l-5.789-3.654-5.41 5.76 4.047 5.49c.381.559.353 1.105-.067 1.554l-3.536 3.766c-.302.32-.592.4-.804.4Zm-5.085-55.675c2.287-3.916 5.59-4.784 9.511-2.5l4.42 2.577c.418.242.548.597.28 1.057l-2.533 4.33c-.242.417-.638.522-1.056.278l-3.252-1.894c-1.085-.633-1.987-.432-2.642.693l-1.167 1.999c-.61 1.04-.39 2.009.694 2.64l5.758 3.355 9.043-8.023c.705-.537 1.382-.642 2.177-.182l9.633 5.614c3.92 2.284 4.79 5.583 2.503 9.498l-2.726 4.667c-2.263 3.874-5.59 4.785-9.509 2.5l-4.38-2.553c-.46-.266-.52-.638-.278-1.055l2.53-4.334c.268-.458.597-.544 1.058-.278l3.211 1.872c1.126.657 2.033.348 2.64-.692l1.169-2c.631-1.083.432-1.984-.694-2.641l-5.549-3.232-9.021 7.978c-.687.604-1.407.688-2.199.225l-9.842-5.734c-3.922-2.284-4.766-5.626-2.503-9.5l2.724-4.665Z" fill="#FFF"/><path d="M281.383 242.954c-.091 0-.156.07-.245.225l-2.532 4.332c-.064.115-.093.213-.076.278.021.091.139.17.206.21l4.38 2.554c1.846 1.076 3.55 1.417 5.06 1.014 1.504-.398 2.81-1.532 3.88-3.366l2.729-4.667c1.077-1.85 1.428-3.548 1.032-5.046-.396-1.498-1.536-2.805-3.387-3.886l-9.636-5.614c-.607-.352-1.104-.307-1.716.158l-9.244 8.199-6.015-3.505c-1.27-.74-1.584-1.94-.845-3.205l1.17-2.002c.38-.654.856-1.057 1.415-1.198.547-.137 1.15-.02 1.793.357l3.254 1.894c.075.043.183.093.276.067.096-.027.168-.12.212-.195l2.53-4.334c.14-.237.112-.347-.128-.489l-4.42-2.577c-1.854-1.076-3.553-1.426-5.055-1.03-1.5.393-2.808 1.531-3.888 3.382h-.003l-2.724 4.667c-1.07 1.837-1.416 3.529-1.024 5.032.393 1.51 1.53 2.824 3.379 3.9l9.845 5.734c.626.367 1.156.312 1.716-.18l9.242-8.174 5.806 3.383c.657.383 1.06.858 1.202 1.416.137.547.02 1.148-.355 1.789l-1.171 2.001c-.75 1.285-1.92 1.592-3.207.842l-3.213-1.87c-.106-.063-.18-.096-.243-.096Zm5.523 9.605c-1.32 0-2.732-.431-4.21-1.292l-4.38-2.553c-.324-.19-.523-.436-.595-.733-.067-.28-.01-.58.168-.887l2.532-4.334c.386-.657.962-.813 1.625-.427l3.21 1.872c.884.513 1.56.336 2.074-.544l1.17-2.002c.26-.445.35-.839.266-1.17-.084-.33-.358-.635-.814-.9l-5.287-3.081-8.796 7.779c-.835.73-1.735.824-2.683.273l-9.843-5.736c-2.045-1.19-3.312-2.673-3.763-4.406-.449-1.724-.074-3.627 1.111-5.66l2.724-4.665c1.195-2.047 2.676-3.315 4.397-3.768 1.718-.449 3.631-.075 5.68 1.12l4.422 2.576c.633.37.796.99.427 1.62l-2.53 4.335c-.175.3-.425.498-.715.577-.293.08-.607.024-.91-.153l-3.254-1.894c-.446-.261-.838-.352-1.169-.268-.333.086-.638.36-.905.812l-1.166 2.002c-.509.868-.324 1.563.545 2.071l5.496 3.203 8.82-7.822c.9-.683 1.761-.753 2.659-.23l9.636 5.614c2.05 1.194 3.32 2.67 3.773 4.389.451 1.719.074 3.627-1.121 5.677l-2.724 4.664c-1.188 2.033-2.664 3.294-4.385 3.752-.482.127-.977.19-1.485.19Zm-16.87-48.346c1.368-4.324 4.4-5.897 8.726-4.53l4.88 1.54c.46.147.664.464.504.97l-1.512 4.782c-.147.458-.512.647-.97.503l-3.593-1.136c-1.197-.376-2.03.017-2.421 1.258l-.701 2.208c-.363 1.15.062 2.045 1.26 2.421l6.355 2.007 7.054-9.812c.568-.678 1.207-.932 2.08-.657l10.637 3.356c4.327 1.37 5.902 4.394 4.534 8.719l-1.63 5.149c-1.353 4.279-4.397 5.895-8.726 4.528l-4.834-1.527c-.506-.158-.65-.508-.504-.966l1.515-4.785c.16-.503.463-.661.97-.503l3.544 1.122c1.243.39 2.06-.11 2.424-1.261l.698-2.208c.377-1.194-.016-2.028-1.26-2.419l-6.124-1.932-7.04 9.764c-.537.74-1.221.98-2.095.705l-10.867-3.433c-4.327-1.366-5.887-4.437-4.534-8.714l1.63-5.149Z" fill="#FFF"/><path d="M293.323 218.09c-.122 0-.175.08-.237.276l-1.515 4.785c-.084.261-.031.364.233.448l4.836 1.525c4.075 1.29 6.914-.185 8.206-4.258l1.63-5.149c1.305-4.133-.13-6.892-4.266-8.196l-10.636-3.358c-.67-.214-1.148-.06-1.637.527l-7.212 10.032-6.641-2.097c-1.4-.441-1.973-1.542-1.531-2.941l.698-2.206c.23-.724.607-1.222 1.119-1.481.504-.257 1.118-.274 1.828-.048l3.59 1.134c.243.074.373.007.45-.233l1.514-4.782c.082-.264.029-.367-.235-.451l-4.88-1.539c-4.137-1.306-6.897.127-8.205 4.257l-1.63 5.152c-1.288 4.073.185 6.906 4.265 8.194l10.865 3.432c.691.22 1.198.05 1.634-.551l7.217-10.008 6.408 2.023c1.443.458 1.987 1.5 1.531 2.941l-.698 2.208c-.218.688-.583 1.177-1.08 1.446-.518.282-1.145.311-1.867.083l-3.543-1.121a.819.819 0 0 0-.21-.044Zm5.995 8.319c-.904 0-1.884-.163-2.93-.492l-4.834-1.527c-.698-.223-.996-.79-.772-1.488l1.512-4.785c.23-.727.76-1.005 1.49-.772l3.545 1.12c.497.155.907.148 1.219-.02.302-.165.533-.491.684-.97l.698-2.206c.317-1 .012-1.587-.988-1.901l-5.837-1.843-6.867 9.521c-.65.897-1.512 1.187-2.556.858l-10.867-3.43c-4.531-1.434-6.237-4.71-4.805-9.236l1.63-5.152c1.433-4.523 4.714-6.233 9.247-4.799l4.88 1.541c.7.22.995.791.775 1.487l-1.515 4.784c-.213.676-.809.993-1.488.775l-3.593-1.134c-.494-.156-.897-.158-1.2-.005-.307.156-.542.491-.7.992l-.701 2.208c-.303.957.031 1.597.991 1.899l6.065 1.918 6.88-9.568c.725-.867 1.551-1.124 2.545-.812l10.634 3.358c4.531 1.431 6.238 4.71 4.805 9.234l-1.63 5.152c-1.101 3.48-3.297 5.293-6.317 5.293ZM75.475 116.269c.602-.248 1.313-.658 1.771-1.348.593-.897.427-1.884-.533-2.517l-8.68-5.734 2.721-4.111 8.743 5.774c3.485 2.302 3.708 5.461 1.618 8.616-.874 1.323-2.09 2.54-3.607 3.061l-2.033-3.742Zm6.173-20.334 3.113 5.164 2.436-2.798-5.55-2.366Zm11.482 4.998-2.002-.899-4.107 4.713 1.17 1.856-3.512 4.03-8.347-15.21 4.073-4.675L96.64 96.9l-3.511 4.032Zm-1.58-10.281c-3.247-3.843-2.486-8.922 1.323-12.132 3.36-2.834 6.61-2.316 8.805-1.23l-1.97 4.25c-1.138-.702-2.818-.724-4.032.3-1.718 1.448-1.764 3.85-.298 5.585 1.464 1.733 3.845 2.09 5.561.643 1.215-1.024 1.476-2.68.975-3.917l4.51-1.247c.671 2.273.68 5.65-2.68 8.481-3.808 3.213-8.963 3.088-12.194-.733Zm27.881-10.555-6.113-3.008-.139 1.512 2.343 3.862-4.222 2.556-8.448-13.926 4.222-2.553 3.168 5.217.49-7.432 5.162-3.126-1.34 9.661 10.018 4.123-5.14 3.114Zm5.71-9.747a7.59 7.59 0 0 0 5.657-.086c.859-.357 1.548-.988 1.3-1.575-.244-.585-.996-.614-2.599-.264-2.666.585-6.7 1.582-8.275-2.179-1.063-2.546.084-5.748 4.21-7.472 2.457-1.026 4.96-1.249 7.257-.568l-1.087 4.236c-1.723-.446-3.622-.235-4.814.264-1.128.472-1.208.98-1.047 1.364.245.585.939.532 2.652.134 2.66-.607 6.636-1.422 8.088 2.047 1.385 3.31-.271 6.252-4.308 7.935-3.201 1.337-5.784 1.304-7.987.532l.953-4.368Zm20.647-13.714c-2.304.556-3.374 2.673-2.842 4.878.536 2.208 2.456 3.6 4.76 3.045 2.304-.556 3.374-2.673 2.841-4.879-.535-2.205-2.455-3.6-4.76-3.044Zm-1.02-4.221c4.891-1.182 9.47 1.23 10.646 6.09 1.179 4.865-1.795 9.096-6.688 10.277-4.892 1.18-9.47-1.23-10.647-6.093-1.176-4.862 1.795-9.095 6.689-10.274Zm25.942 13.007-6.564-8.33.566 8.718-4.925.319-1.056-16.243 5.071-.329 6.19 7.815-.533-8.182 4.925-.32 1.056 16.245-4.73.307Zm16.368-7.844c.837-4.96 5.208-7.666 10.123-6.841 4.341.728 6.05 3.54 6.64 5.918l-4.523 1.244c-.2-1.32-1.27-2.613-2.837-2.876-2.218-.374-4.085 1.146-4.46 3.385-.379 2.238.889 4.283 3.106 4.655 1.567.264 3.003-.61 3.624-1.793l3.869 2.632c-1.3 1.985-3.876 4.176-8.215 3.447-4.918-.825-8.158-4.835-7.327-9.77Zm28.622 2.43c-2.237-.776-4.286.425-5.03 2.568-.747 2.143.115 4.353 2.352 5.13 2.239.78 4.286-.424 5.032-2.567.747-2.143-.115-4.353-2.354-5.13Zm1.428-4.103c4.752 1.65 7.3 6.151 5.657 10.876-1.644 4.725-6.437 6.678-11.189 5.03-4.754-1.65-7.303-6.152-5.66-10.877 1.645-4.725 6.438-6.678 11.192-5.03Zm13.109 5.408 4.382 2.428-4.584 8.24c-.758 1.366-.657 2.845 1.116 3.83 1.75.97 3.063.273 3.821-1.093l4.582-8.24 4.38 2.434-4.652 8.364c-1.97 3.543-5.436 5-10.243 2.332-4.81-2.666-5.426-6.388-3.465-9.907l4.663-8.388Zm17.107 30.554.79-10.571-5.477 6.812-3.847-3.087 10.204-12.693 3.963 3.181-.72 9.939 5.14-6.394 3.848 3.088-10.205 12.69-3.696-2.965Zm8.496 8.026 8.856-8.088-2.952-3.222 3.175-2.9 9.219 10.07-3.176 2.898-2.935-3.205-8.858 8.088-3.329-3.641Zm10.366 12.544 5.359-3.627 4.706-10.552 3.108 4.586-2.851 5.585 6.223-.616 3.113 4.588-11.532.492-5.36 3.627-2.766-4.083Z" fill="#FFF"/><path d="M175 331.508c-85.295 0-154.689-69.312-154.689-154.508 0-85.195 69.394-154.507 154.69-154.507 85.293 0 154.687 69.312 154.687 154.507 0 85.196-69.394 154.508-154.687 154.508Zm0-304.611C92.135 26.897 24.718 94.23 24.718 177c0 82.768 67.417 150.104 150.284 150.104 82.862 0 150.28-67.336 150.28-150.104 0-82.77-67.418-150.103-150.28-150.103Z" fill="#3E4229"/><path d="M175 266.76c-49.552 0-89.867-40.265-89.867-89.76 0-11.067 2.013-21.672 5.7-31.47.285 1.808.59 3.613.91 5.413.227 1.287.472 2.572.717 3.855.002.007.002.017.005.024A85.18 85.18 0 0 0 89.539 177c0 29.975 15.547 56.387 39.01 71.62.01.015.019.03.026.044 2.58 1.7 5.251 3.27 8.016 4.689a84.565 84.565 0 0 0 17.014 6.518l.329-.137-.33.137a84.814 84.814 0 0 0 18.6 2.745l-.182-.31c.06.103.123.206.183.31 1.032.038 2.069.064 3.113.064.117 0 .232-.005.348-.005a84.91 84.91 0 0 0 23.748-3.473c.97-.288 1.932-.585 2.884-.906a84.687 84.687 0 0 0 11.535-4.84 85.606 85.606 0 0 0 21.869-15.965l-.096-.367c.03.122.064.244.096.367a85.574 85.574 0 0 0 13.075-16.996l-.353.146.353-.146a84.607 84.607 0 0 0 7.471-16.649 84.562 84.562 0 0 0 2.74-10.87c-.004-.022-.011-.046-.016-.068A85.382 85.382 0 0 0 260.46 177c0-31.232-16.88-58.598-42.005-73.48a355.208 355.208 0 0 0-5.498-7.877c30.636 14.316 51.91 45.402 51.91 81.357 0 49.495-40.313 89.76-89.866 89.76Zm-55.972-159.94c12.92-10.3 28.733-17.122 46.008-19.035l-.792.328-11.03 4.565-.142 1.81.142-1.81-10.954 4.53-.631.264h-.003l-3.861 1.596-.091 1.151.09-1.15-3.462 1.433-14.024 5.801-1.25.518Z" fill="#3E4229"/><path d="M141.629 97.472h-.003l-1.044 13.309.648-.163c.044.173.092.345.137.518l10.745-4.445 1.102-14.013-10.954 4.53-.631.264Z" fill="#FFF"/><path d="m140.582 110.781-.057.705.842-.35c-.045-.173-.093-.345-.137-.518l-.648.163Zm-6.28-10.28-1.102 14.015 3.463-1.434 1.102-14.014-3.463 1.434Zm60.662 142.259 11.587-4.795.639-8.119c-.514-1.687-1.02-3.38-1.55-5.063l-9.572 3.963-1.104 14.014Z" fill="#FFF"/><path d="m207.655 223.952-2.016.831c.53 1.683 1.037 3.376 1.55 5.063l.466-5.894Zm-15.451 6.39-3.46 1.434-.16 1.975a595.29 595.29 0 0 0 2.924 5.456l.696-8.865Zm-4.046 8.858-.519 6.59 3.339-1.381a545.273 545.273 0 0 1-2.82-5.21Z" fill="#FFF"/><path d="m191.105 244.356.403-5.149a595.29 595.29 0 0 1-2.923-5.456l-.427 5.449c.933 1.74 1.867 3.478 2.82 5.209l.127-.053Zm-59.088-96.517 11.587-4.794.785-9.982a577.525 577.525 0 0 1-1.03-3.476l-10.24 4.238-1.102 14.014Z" fill="#FFF"/><path d="m144.706 129.03-1.347.557c.339 1.16.684 2.318 1.03 3.476l.317-4.032Zm-15.45 6.392-3.462 1.433-.783 9.955c.348 1.165.691 2.33 1.049 3.493l2.095-.868 1.102-14.013Z" fill="#FFF"/><path d="m124.692 150.869 1.368-.566c-.358-1.162-.7-2.328-1.049-3.493l-.32 4.059Z" fill="#FFF"/><path fill="#C7A934" d="m132.017 147.839 1.101-14.014-3.861 1.597-1.102 14.013z"/><path d="M232.06 213.855a530.02 530.02 0 0 0-38.018-91.678l18.776-7.77c17.188 28.465 29.89 59.14 37.968 91.7l-18.725 7.748Zm-23.685 9.797a566.14 566.14 0 0 0-38.018-91.675l20.947-8.668a526.886 526.886 0 0 1 38.02 91.675l-20.949 8.668ZM164.407 120.88a572.175 572.175 0 0 0-8.901-15.591l20.71-8.57a537.197 537.197 0 0 1 9.05 15.531l-20.859 8.63Zm31.217-32.191a340.823 340.823 0 0 1 10.414 14.968l-18.024 7.455a531.477 531.477 0 0 0-9.044-15.532l16.654-6.891Zm-53.06 162.19c-17.188-28.464-29.889-59.138-37.967-91.697l18.727-7.747a529.807 529.807 0 0 0 38.018 91.675l-18.777 7.769Zm-40.792-104.085a353.019 353.019 0 0 1-3.274-17.922l16.654-6.89a526.35 526.35 0 0 0 4.6 17.37l-17.98 7.442Zm113.8-33.525 7.29-3.015c-.29-.458-.57-.916-.862-1.372a310.41 310.41 0 0 0-6.223-9.255l-6.963 2.879a344.013 344.013 0 0 0-10.387-14.978l6.432-2.66a443.536 443.536 0 0 0-2.193-2.779c-.23-.29-.468-.58-.701-.87-.511-.64-1.027-1.278-1.546-1.913-.117-.141-.228-.285-.345-.427l-.041-.04a207.876 207.876 0 0 0-3.44-4.11l-4.984 2.062-5.381 2.227-21.984 9.095-11.03 4.565-1.102 14.013.64-.266a563.345 563.345 0 0 1 8.91 15.59l-15.557 6.436a560.223 560.223 0 0 1-4.738-17.315l-.842.35.057-.705 1.044-13.31-3.861 1.597-1.102 14.014 1.954-.808a568.895 568.895 0 0 0 4.742 17.313l1.347-.556-.317 4.032-.785 9.982 3.403-1.41a565.872 565.872 0 0 0 38.021 91.677l-20.95 8.669a527.086 527.086 0 0 1-38.018-91.678l-1.368.566.32-4.059.782-9.955-3.293 1.362a527.977 527.977 0 0 1-4.594-17.373l15.293-6.328 1.102-14.014-14.024 5.801-21.984 9.095-5.45 2.256-4.918 2.035c.058.916.137 1.829.21 2.742.064.837.117 1.678.191 2.515 0 .021-.002.043 0 .065l.053.568c.033.364.07.728.103 1.093.043.462.086.923.132 1.385.038.377.072.753.11 1.13.123 1.19.25 2.38.387 3.569l6.586-2.723c.95 6.026 2.05 11.998 3.297 17.909l-7.253 3.001c.228 1.287.473 2.572.718 3.855.218 1.15.446 2.301.68 3.447.246 1.215.489 2.428.75 3.639.044.196.09.39.135.587l.228.993 7.589-3.14c8.116 32.539 20.82 63.21 37.968 91.696l-3.219 1.333a84.565 84.565 0 0 0 17.014 6.518l13.764-5.696c1.584 2.829 3.199 5.64 4.836 8.44 1.032.039 2.069.065 3.113.065.117 0 .232-.005.348-.005a565.407 565.407 0 0 1-5.55-9.636l17.523-7.25.519-6.59.427-5.448.158-1.975-.981.405a563.005 563.005 0 0 1-38.019-91.675l17.88-7.398a563.119 563.119 0 0 1 38.016 91.675l2.016-.831-.465 5.894-.639 8.12 2.727-1.13a557.245 557.245 0 0 1 4.555 16.62c.9-.458 1.79-.937 2.673-1.426a565.382 565.382 0 0 0-4.483-16.328l20.859-8.632c.976 3.462 1.91 6.938 2.82 10.42a84.93 84.93 0 0 0 2.4-2.516c-.8-3.02-1.623-6.036-2.472-9.04l13.147-5.44a84.607 84.607 0 0 0 7.471-16.648l-2.707 1.12c-8.12-32.542-20.82-63.214-37.968-91.697Z" fill="#C7A934"/><path d="m194.964 242.76 1.104-14.014-3.864 1.596-.696 8.865-.403 5.15-.127.052c2.736 4.972 5.548 9.9 8.436 14.793.97-.288 1.932-.585 2.884-.906a574.001 574.001 0 0 1-8.577-15.023l1.243-.513Zm-3.072-25.518a2.936 2.936 0 0 1-3.833-1.587 2.911 2.911 0 0 1 .346-2.836 2.924 2.924 0 0 1 1.24-.992 2.94 2.94 0 0 1 1.582-.178 2.927 2.927 0 0 1 2.254 1.765 2.927 2.927 0 0 1-1.589 3.828Zm4.14-4.886a5.692 5.692 0 0 0-5.947-3.464l-1.474-3.557-2.825 1.17 1.474 3.555a5.68 5.68 0 0 0-1.75 6.652 5.696 5.696 0 0 0 7.44 3.078 5.687 5.687 0 0 0 3.082-7.434Z" fill="#C7A934"/><path d="m187.64 245.79-17.523 7.249a565.407 565.407 0 0 0 5.549 9.636 84.91 84.91 0 0 0 23.748-3.473 566.885 566.885 0 0 1-8.436-14.793l-3.339 1.38Z" fill="#C7A934"/><path d="M175.666 262.675a565.407 565.407 0 0 1-5.55-9.636l17.523-7.25 3.339-1.38c2.736 4.972 5.548 9.9 8.436 14.793a84.91 84.91 0 0 1-23.748 3.473Z" fill="#3E4229"/><path d="M238.102 234.974a85.574 85.574 0 0 0 10.675-14.48l-13.147 5.44c.85 3.004 1.672 6.02 2.472 9.04Z" fill="#C7A934"/><path d="M238.102 234.974c-.8-3.02-1.623-6.036-2.472-9.04l13.147-5.44a85.574 85.574 0 0 1-10.675 14.48Z" fill="#3E4229"/><path d="M153.605 259.87a84.814 84.814 0 0 0 18.6 2.746 524.728 524.728 0 0 1-4.836-8.44l-13.764 5.695Z" fill="#C7A934"/><path d="M172.205 262.616a84.814 84.814 0 0 1-18.6-2.745l13.764-5.696c1.584 2.829 3.199 5.64 4.836 8.44Z" fill="#3E4229"/><path d="M212.023 235.702a565.382 565.382 0 0 1 4.483 16.328 85.606 85.606 0 0 0 19.196-14.54 551.011 551.011 0 0 0-2.82-10.42l-20.859 8.632Z" fill="#C7A934"/><path d="M216.506 252.03a565.382 565.382 0 0 0-4.483-16.328l20.859-8.632c.976 3.462 1.91 6.938 2.82 10.42a85.606 85.606 0 0 1-19.196 14.54Z" fill="#3E4229"/><path d="m206.551 237.965-11.587 4.795-1.243.513a573.999 573.999 0 0 0 8.577 15.023 84.687 84.687 0 0 0 11.535-4.84 557.245 557.245 0 0 0-4.555-16.62l-2.727 1.13Z" fill="#C7A934"/><path d="M202.298 258.296a574.001 574.001 0 0 1-8.577-15.023l1.243-.513 11.587-4.795 2.727-1.129a557.245 557.245 0 0 1 4.555 16.62 84.687 84.687 0 0 1-11.535 4.84Z" fill="#3E4229"/><path d="M170.357 131.977a566.14 566.14 0 0 1 38.018 91.675l20.95-8.668a526.886 526.886 0 0 0-38.021-91.675l-20.947 8.668Z" fill="#C7A934"/><path d="M208.375 223.652a566.14 566.14 0 0 0-38.018-91.675l20.947-8.668a526.886 526.886 0 0 1 38.02 91.675l-20.949 8.668Z" fill="#3E4229"/><path d="M256.385 183.49a278.994 278.994 0 0 0-6.38-19.056 284.342 284.342 0 0 0-8.258-19.74 284.646 284.646 0 0 0-3.23-6.758 296.426 296.426 0 0 0-15.655-27.682l-7.29 3.015c17.149 28.483 29.85 59.155 37.969 91.697l2.707-1.12a84.562 84.562 0 0 0 2.74-10.87 283.749 283.749 0 0 0-2.183-8.036l-.42-1.45Z" fill="#C7A934"/><path d="M253.54 204.966c-8.118-32.542-20.82-63.214-37.967-91.697l7.289-3.015a296.426 296.426 0 0 1 15.655 27.682 284.646 284.646 0 0 1 3.23 6.758c3 6.474 5.755 13.06 8.259 19.74a278.994 278.994 0 0 1 6.379 19.056l.42 1.45c.77 2.668 1.493 5.348 2.184 8.035a84.562 84.562 0 0 1-2.741 10.871l-2.707 1.12Z" fill="#3E4229"/><path d="M194.042 122.177a530.02 530.02 0 0 1 38.019 91.678l18.725-7.748c-8.079-32.56-20.78-63.235-37.968-91.7l-18.776 7.77Z" fill="#C7A934"/><path d="M232.06 213.855a530.02 530.02 0 0 0-38.018-91.678l18.776-7.77c17.188 28.465 29.89 59.14 37.968 91.7l-18.725 7.748Z" fill="#3E4229"/><path d="M185.51 216.712a5.68 5.68 0 0 1 1.75-6.652l-1.474-3.555 2.825-1.17 1.474 3.557a5.692 5.692 0 0 1 5.947 3.464 5.687 5.687 0 0 1-3.082 7.434 5.696 5.696 0 0 1-7.44-3.078Zm10.558 12.034 9.571-3.963a563.119 563.119 0 0 0-38.016-91.675l-17.88 7.398a563.005 563.005 0 0 0 38.019 91.675l.981-.405 3.461-1.434 3.864-1.596Z" fill="#C7A934"/><path d="M187.762 232.181a563.005 563.005 0 0 1-38.019-91.675l17.88-7.398a563.119 563.119 0 0 1 38.016 91.675l-9.571 3.963-3.864 1.596-3.46 1.434-.982.405Zm-2.686-17.643a5.693 5.693 0 0 0 7.874 5.252 5.693 5.693 0 0 0 3.519-5.25c0-.726-.14-1.467-.437-2.184l-.022-.052a5.698 5.698 0 0 0-5.236-3.455h-.003c-.228 0-.458.015-.686.043l-1.474-3.557-2.825 1.17 1.474 3.555a5.697 5.697 0 0 0-2.184 4.478Z" fill="#3E4229"/><path d="m128.155 149.435-2.095.868a527.086 527.086 0 0 0 38.018 91.678l20.95-8.669a565.872 565.872 0 0 1-38.02-91.677l-3.404 1.41-11.587 4.794-3.862 1.596Z" fill="#C7A934"/><path d="M164.078 241.98a527.086 527.086 0 0 1-38.018-91.677l2.095-.868 3.862-1.596 11.587-4.794 3.403-1.41a565.872 565.872 0 0 0 38.021 91.677l-20.95 8.669Z" fill="#3E4229"/><path d="M104.597 159.182c8.078 32.559 20.779 63.233 37.968 91.697l18.777-7.77a529.807 529.807 0 0 1-38.018-91.674l-18.727 7.747Z" fill="#C7A934"/><path d="M142.565 250.879c-17.19-28.464-29.89-59.138-37.968-91.697l18.727-7.747a529.807 529.807 0 0 0 38.018 91.675l-18.777 7.769Z" fill="#3E4229"/><path d="m101.842 160.323-7.59 3.14a281.021 281.021 0 0 0 9.418 32.708 282.12 282.12 0 0 0 5.784 14.97 282.041 282.041 0 0 0 3.723 8.445 287.56 287.56 0 0 0 6.545 13.372 295.196 295.196 0 0 0 6.124 11.108c.89 1.537 1.808 3.069 2.73 4.598 2.58 1.7 5.25 3.27 8.015 4.689l3.219-1.333c-17.148-28.486-29.852-59.157-37.968-91.697Z" fill="#C7A934"/><path d="M136.591 253.353a85.773 85.773 0 0 1-8.016-4.689 312.409 312.409 0 0 1-2.729-4.598 295.196 295.196 0 0 1-6.124-11.108 287.56 287.56 0 0 1-6.545-13.372 282.041 282.041 0 0 1-3.723-8.445c-2.08-4.953-4-9.943-5.784-14.97a281.021 281.021 0 0 1-9.418-32.707l7.59-3.14c8.116 32.539 20.82 63.21 37.968 91.696l-3.219 1.333Z" fill="#3E4229"/><path d="m115.152 121.983-16.654 6.89a353.019 353.019 0 0 0 3.274 17.92l17.98-7.44a526.35 526.35 0 0 1-4.6-17.37Z" fill="#C7A934"/><path d="M101.772 146.794a353.019 353.019 0 0 1-3.274-17.922l16.654-6.89a526.35 526.35 0 0 0 4.6 17.37l-17.98 7.442Z" fill="#3E4229"/><path d="m146.105 128.45 15.557-6.436a563.345 563.345 0 0 0-8.91-15.589l-.64.266-10.745 4.445a560.223 560.223 0 0 0 4.738 17.315Z" fill="#C7A934"/><path d="M146.105 128.45a560.223 560.223 0 0 1-4.738-17.314l10.745-4.445.64-.266a563.345 563.345 0 0 1 8.91 15.59l-15.557 6.436Z" fill="#3E4229"/><path d="M117.907 120.844a527.977 527.977 0 0 0 4.594 17.373l3.293-1.362 3.463-1.433 3.861-1.597 10.241-4.238a568.895 568.895 0 0 1-4.742-17.313l-1.954.808-3.463 1.434-15.293 6.328Z" fill="#C7A934"/><path d="M122.5 138.217a527.977 527.977 0 0 1-4.593-17.373l15.293-6.328 3.463-1.434 1.954-.808a568.895 568.895 0 0 0 4.742 17.313l-10.24 4.238-3.862 1.597-3.463 1.433-3.293 1.362Z" fill="#3E4229"/><path d="m91.742 150.943 7.253-3.001a352.634 352.634 0 0 1-3.297-17.91l-6.586 2.724c.197 1.752.413 3.5.64 5.242.157 1.201.315 2.4.485 3.599.45 3.128.956 6.242 1.505 9.346Z" fill="#C7A934"/><path d="M91.742 150.943a289.138 289.138 0 0 1-1.505-9.346c-.17-1.199-.328-2.398-.484-3.599-.228-1.742-.444-3.49-.641-5.242l6.586-2.723c.95 6.026 2.05 11.998 3.297 17.909l-7.253 3.001Z" fill="#3E4229"/><path d="m176.215 96.72-20.71 8.569a572.176 572.176 0 0 1 8.902 15.591l20.859-8.63a537.197 537.197 0 0 0-9.05-15.53Z" fill="#C7A934"/><path d="M164.407 120.88a572.175 572.175 0 0 0-8.901-15.591l20.71-8.57a537.197 537.197 0 0 1 9.05 15.531l-20.859 8.63Z" fill="#3E4229"/><path d="M206.038 103.657a340.823 340.823 0 0 0-10.414-14.968L178.97 95.58a531.475 531.475 0 0 1 9.044 15.532l18.024-7.455Z" fill="#C7A934"/><path d="M188.014 111.112a531.477 531.477 0 0 0-9.044-15.532l16.654-6.891a340.823 340.823 0 0 1 10.414 14.968l-18.024 7.455Z" fill="#3E4229"/><path d="m204.86 84.868-6.433 2.66a344.013 344.013 0 0 1 10.387 14.978l6.963-2.88a319.83 319.83 0 0 0-10.918-14.758Z" fill="#C7A934"/><path d="M208.814 102.506a344.013 344.013 0 0 0-10.387-14.978l6.432-2.66a319.83 319.83 0 0 1 10.918 14.76l-6.963 2.878Z" fill="#3E4229"/><path d="M193.48 213.414a2.927 2.927 0 0 0-2.253-1.765l.168.405-2.825 1.165-.165-.4a2.911 2.911 0 0 0-.346 2.836 2.936 2.936 0 0 0 3.833 1.587 2.927 2.927 0 0 0 1.589-3.828Z" fill="#C7A934"/><path d="M190.771 217.467a2.935 2.935 0 0 1-2.697-1.779l-.015-.033a2.889 2.889 0 0 1-.22-1.103c0-.625.201-1.232.566-1.733l.165.4 2.825-1.165-.168-.405a2.927 2.927 0 0 1 2.48 2.889 2.932 2.932 0 0 1-1.827 2.709l-.01.004c-.002.003-.007.003-.01.003-.002.002-.004.002-.006.005-.003 0-.003.002-.003.002-.355.139-.72.206-1.077.206h-.003Z" fill="#3E4229"/><path d="m191.395 212.054-.168-.405a2.94 2.94 0 0 0-1.581.178 2.924 2.924 0 0 0-1.241.992l.165.4 2.825-1.165Z" fill="#C7A934"/><path d="m188.57 213.22-.165-.401a2.924 2.924 0 0 1 1.24-.992 2.877 2.877 0 0 1 1.1-.216c.163 0 .324.014.482.038l.168.405-2.825 1.165Z" fill="#3E4229"/><path d="M225.52 107.746a49.51 49.51 0 0 0-.506-.805 316.435 316.435 0 0 0-6.295-9.364 335.65 335.65 0 0 0-5.582-7.767 348.033 348.033 0 0 0-5.45-7.148 471.16 471.16 0 0 0-2.213-2.802l-.45-.556-.26-.326a239.62 239.62 0 0 0-1.566-1.935l-.144-.18-.206-.254a5.22 5.22 0 0 0-.118-.136 236.554 236.554 0 0 0-3.412-4.076 3.588 3.588 0 0 0-4.095-.978l-4.987 2.064-5.38 2.225-21.985 9.095-11.03 4.564L140.89 93.9l-.634.261-3.864 1.6-3.463 1.43-14.023 5.804-21.984 9.095-5.45 2.253-4.919 2.035a3.584 3.584 0 0 0-2.208 3.534c.099 1.57.226 3.231.396 5.214l.012.187.032.347.024.235c.074.842.153 1.678.237 2.515l.041.412a295.94 295.94 0 0 0 .46 4.336c.36 3.18.733 6.104 1.14 8.944.438 3.06.937 6.154 1.522 9.464a296.63 296.63 0 0 0 2.177 11.078c.067.311.14.623.214.937.05.22.103.439.151.662 6.144 27.543 16.409 54.066 30.547 79.054a86.296 86.296 0 0 0 7.277 5.367 312.409 312.409 0 0 1-2.729-4.598 295.196 295.196 0 0 1-6.124-11.108 287.56 287.56 0 0 1-6.545-13.372 276.02 276.02 0 0 1-3.723-8.445c-2.08-4.953-4-9.943-5.784-14.97a281.021 281.021 0 0 1-9.418-32.707c-.074-.331-.15-.662-.227-.993-.046-.196-.091-.39-.135-.587-.261-1.21-.504-2.424-.75-3.639-.234-1.146-.462-2.297-.68-3.447-.245-1.283-.49-2.568-.718-3.855a288.22 288.22 0 0 1-1.505-9.349c-.168-1.197-.33-2.396-.484-3.596-.228-1.742-.444-3.49-.641-5.242a294.808 294.808 0 0 1-.387-3.57c-.038-.376-.074-.752-.11-1.129-.046-.462-.089-.923-.132-1.385-.034-.365-.07-.729-.103-1.093l-.053-.568c-.002-.022 0-.044 0-.065-.074-.837-.127-1.678-.192-2.515-.072-.913-.151-1.826-.209-2.742l4.918-2.035 5.45-2.256 21.984-9.095 14.024-5.801 3.463-1.434 3.861-1.596.634-.264 10.954-4.53 11.03-4.565 21.984-9.095 5.38-2.227 4.986-2.061a214.945 214.945 0 0 1 3.439 4.106l.04.043c.118.142.229.286.346.427.519.635 1.035 1.273 1.546 1.913.233.29.47.58.7.87.737.926 1.47 1.853 2.194 2.779a319.83 319.83 0 0 1 10.918 14.76A310.41 310.41 0 0 1 222 108.88c.293.456.571.914.864 1.372a296.943 296.943 0 0 1 15.653 27.682 284.646 284.646 0 0 1 3.23 6.758c3 6.474 5.755 13.06 8.259 19.74a278.994 278.994 0 0 1 6.379 19.056l.42 1.45c.77 2.668 1.493 5.348 2.184 8.035.559-3.059.945-6.175 1.166-9.337-7.658-26.328-19.14-51.592-34.267-75.31-.125-.194-.245-.388-.367-.582Z" fill="#FFF"/><path d="m141.629 97.472.63-.264 10.955-4.53-10.954 4.53-.634.264h.003Zm-7.327 3.03 3.463-1.434-3.463 1.434Zm18.912-7.824 11.03-4.565 21.984-9.095 5.38-2.227 4.986-2.061-4.985 2.061-5.381 2.227-21.984 9.095-11.03 4.565Zm-60.37 24.976 5.45-2.256 21.984-9.095 14.024-5.801-14.024 5.801-21.984 9.095-5.45 2.256-4.918 2.035c.058.916.137 1.829.21 2.742-.073-.913-.152-1.826-.21-2.742l4.918-2.035Zm1.18 44.817c.078.331.154.662.229.993l-.228-.993Zm-4.912-29.715a294.808 294.808 0 0 1-.387-3.57c-.038-.376-.072-.752-.11-1.129.036.377.072.753.11 1.13.123 1.19.25 2.38.387 3.569Zm48.653-33.688 3.861-1.596-3.861 1.596Zm100.752 38.868Zm17.868 45.554.42 1.45-.42-1.45Zm-136.663 49.468Zm8.853 15.706Zm-34.322-85.2Zm15.201 47.677Z" fill="#FFF"/><path d="m73.37 176.62-.4-.063a11.5 11.5 0 0 1-7.743-4.962 14.201 14.201 0 0 1-3.098 3.267c-.303.23-.627.456-.994.69l-.502.32-.398-.44a14.211 14.211 0 0 1-3.574-7.599c-.146.113-.302.216-.453.324a14.199 14.199 0 0 1-2.971 5.658 15.78 15.78 0 0 1-.83.882l-.423.414-.483-.345a14.226 14.226 0 0 1-.952-.748 14.19 14.19 0 0 1-2.501-2.816 11.506 11.506 0 0 1-7.762 4.19l-.405.04-.236-.328a11.467 11.467 0 0 1-1.9-8.99c-.828.15-1.678.226-2.54.226a13.983 13.983 0 0 1-3.156-.357l-.578-.132.034-.592a14.192 14.192 0 0 1 2.909-7.877c-.423-.06-.848-.127-1.27-.218a18.227 18.227 0 0 1-1.375-.362l-.57-.173.078-.59a16.696 16.696 0 0 1 3.682-8.53c-.186-.075-.373-.15-.555-.233-.406-.183-.82-.394-1.27-.643l-.518-.288.2-.558c.172-.487.345-.918.525-1.319 2.81-6.206 8.947-9.886 15.362-9.886 2.314 0 4.666.48 6.907 1.492.24.11.49.232.744.364-.902-2.373-1.137-5.375-.804-6.312.137-.177.691-.28 1.315-.28.879 0 1.894.206 2.088.712-.266 1.893-.516 3.823.276 6.134a16.786 16.786 0 0 1 6.034-1.124c6.758 0 13.15 4.096 15.722 10.765.159.41.305.851.452 1.348l.165.568-.533.259c-.463.223-.888.41-1.303.57-.187.072-.379.137-.569.202a16.69 16.69 0 0 1 3.192 8.723l.044.592-.576.141c-.5.123-.956.214-1.395.283-.427.067-.854.113-1.279.147a14.194 14.194 0 0 1 2.455 8.028v.594l-.585.098a13.603 13.603 0 0 1-2.32.199c-.901 0-1.784-.086-2.646-.244a11.472 11.472 0 0 1-2.46 8.462l-.257.316Zm-5.901-10.373a14.355 14.355 0 0 1-1.426 4.003 10.076 10.076 0 0 0 6.742 4.847 10.062 10.062 0 0 0 1.838-7.604 14.395 14.395 0 0 1-4.183-2.004c-.137.202-.286.393-.432.59l.945 4.274-2.167-3.797a14.04 14.04 0 0 1-1.317-.31Zm-6.684-3.042a16.67 16.67 0 0 1-2.83 3.528l.002.032c.048.647.147 1.292.293 1.93a12.79 12.79 0 0 0 2.63 5.343c.137-.099.27-.195.397-.29a12.84 12.84 0 0 0 3.163-3.527c.153-.249.295-.503.43-.76.148-.283.29-.57.417-.863.391-.908.667-1.86.842-2.828a13.482 13.482 0 0 1-2.095-1.086 11.416 11.416 0 0 1-1.442-1.07 21.659 21.659 0 0 1-.555-.498c-.328.892-.58 1.82-.724 2.774-.024.15-.036.306-.053.46a12.225 12.225 0 0 0 .062 3.385 12.339 12.339 0 0 1-.597-2.556c-.058-.44-.101-.884-.113-1.33-.015-.424-.003-.849.024-1.275.031-.456.08-.914.149-1.37Zm-17.652.748a14.353 14.353 0 0 1-3.855 1.795 10.06 10.06 0 0 0 1.275 8.198c2.69-.385 5.11-1.839 6.712-4.032-.739-1.38-1.25-2.86-1.507-4.382-.24.046-.482.075-.725.108l-2.383 3.675 1.186-4.21c-.252-.376-.492-.76-.703-1.152Zm7.497-.36c-.019.012-.038.029-.06.04a14.197 14.197 0 0 1-1.404.785c-.656.317-1.337.58-2.035.788a13.008 13.008 0 0 0 1.382 4.066c.128.237.252.48.396.71a12.883 12.883 0 0 0 2.933 3.284c.115-.125.226-.245.327-.365a12.786 12.786 0 0 0 2.164-3.562l-.463.252-.367-.468a16.845 16.845 0 0 1-1.349-1.996c-.153.61-.345 1.21-.588 1.785.173-.786.257-1.58.274-2.37a16.749 16.749 0 0 1-1.21-2.949Zm5.73-7.82a16.736 16.736 0 0 1-3.685 3.301c-.4.266-.816.518-1.243.75-.022.013-.04.025-.063.037.03.424.084.843.15 1.263a15.11 15.11 0 0 0 .993 3.553 15.152 15.152 0 0 0 1.735 3.102c.211-.123.41-.245.598-.37.04-.026.076-.055.115-.081.557-.37 1.08-.77 1.57-1.199.115-.098.22-.201.33-.302.12-.11.243-.218.358-.33.267-.262.519-.53.761-.808a15.379 15.379 0 0 0 2.33-3.529c.118-.247.226-.496.33-.748.112-.273.215-.549.311-.83.072-.203.127-.41.19-.615.144-.48.269-.964.367-1.456.012-.062.031-.124.04-.187-.1-.06-.2-.115-.302-.175-.201-.124-.4-.258-.595-.393-.07-.048-.137-.1-.204-.15-.122-.09-.245-.176-.365-.27a14.008 14.008 0 0 1-1.44-1.28c-.163-.17-.314-.352-.47-.531-.18.35-.353.707-.528 1.062-.06.117-.12.234-.178.354-.192.389-.374.782-.556 1.175-.178.381-.358.762-.526 1.146-.3.685-.586 1.38-.84 2.083-.25.705-.49 1.417-.624 2.16.017-.755.144-1.508.288-2.254.144-.745.32-1.483.511-2.217.2-.76.413-1.51.641-2.26Zm16.285 3.88a12.295 12.295 0 0 1-.372 1.86 13.27 13.27 0 0 1-1.104 2.771 12.994 12.994 0 0 0 3.87 1.87c.26.076.52.155.784.215a12.826 12.826 0 0 0 4.402.223 12.823 12.823 0 0 0-2.74-7.376 16.752 16.752 0 0 1-4.643-.765c.727.583 1.404 1.22 2 1.92a12.694 12.694 0 0 1 2.083 3.359 12.38 12.38 0 0 0-2.576-2.858c-.652-.534-1.128-.891-1.704-1.22Zm-9.794-1.66c-.029.13-.07.254-.1.381a17.107 17.107 0 0 1-.824 2.599c.35.427.74.817 1.142 1.191.185.17.365.346.56.504a12.186 12.186 0 0 0 5.323 2.498 12.088 12.088 0 0 0 1.101-1.781 12.06 12.06 0 0 0 1.167-3.64c.091-.606.134-1.22.132-1.836a16.942 16.942 0 0 1-2.957-1.606c-.266.535-.57 1.05-.907 1.544-.04.06-.077.125-.118.185-.089.127-.185.247-.278.369l.07.364.686 3.54-1.303-2.152-.759-1.249a5.437 5.437 0 0 1-.192-.038 1.378 1.378 0 0 1-.105-.02c-.053-.011-.106-.018-.159-.03-.026-.005-.055-.015-.084-.02a13.453 13.453 0 0 1-2.395-.803Zm-26.746-.465a12.837 12.837 0 0 0-3.153 7.209 12.86 12.86 0 0 0 6.062-.376c.307-.094.612-.193.91-.308a12.994 12.994 0 0 0 2.606-1.388c-.399-.977-.682-1.998-.842-3.042a13.041 13.041 0 0 1-.137-1.73 13.89 13.89 0 0 0-2.486 1.43 12.363 12.363 0 0 0-2.736 2.71 12.714 12.714 0 0 1 2.272-3.237 14.6 14.6 0 0 1 2.007-1.733 16.798 16.798 0 0 1-4.503.465Zm9.54-2.582c-.84.528-1.723.988-2.644 1.362a11.968 11.968 0 0 0 .081 3.162 12.218 12.218 0 0 0 1.86 4.78c.221-.031.437-.07.653-.11a12.13 12.13 0 0 0 3.506-1.263c.404-.22.793-.465 1.167-.732-.11-.54-.202-1.08-.26-1.63-.184.08-.367.158-.556.23-.415.16-.857.307-1.349.45l-.569.166-.259-.532c-.094-.192-.175-.374-.257-.554l-.81 1.18.491-1.94a16.702 16.702 0 0 1-1.054-4.569Zm10.872-15.691c-.804.333-1.579.734-2.316 1.198a15.341 15.341 0 0 0-4.639 4.528 15.576 15.576 0 0 0-1.233 2.244A15.382 15.382 0 0 0 47 154.134c.066 1.627.393 3.234.968 4.758.014.043.028.089.045.132.082.209.17.424.271.647.23-.076.452-.153.663-.235.33-.128.654-.268.974-.42.238-.11.473-.224.701-.347.142-.074.278-.156.418-.235.1-.057.204-.11.302-.17.331-.2.654-.413.97-.637a15.254 15.254 0 0 0 2.083-1.77 15.423 15.423 0 0 0 2.407-3.188c.106-.182.202-.369.298-.556.028-.055.06-.108.086-.163.134-.266.257-.537.374-.81a15.44 15.44 0 0 0 1.26-6.393 17.44 17.44 0 0 0-.036-.792 15.232 15.232 0 0 0-.362-2.344 15.632 15.632 0 0 0-.566-1.91c-.135.16-.257.323-.39.486-.59.731-1.149 1.467-1.67 2.213a49.51 49.51 0 0 0-1.672 2.574c-.065.108-.135.216-.2.324a44.683 44.683 0 0 0-1.744 3.193c-.53 1.09-1.028 2.205-1.364 3.38.15-.806.377-1.597.639-2.376.127-.383.261-.764.403-1.143a44.68 44.68 0 0 1 1.447-3.385c.915-1.915 1.913-3.792 3.211-5.712Zm13.284 11.379c0 .043.003.084.003.127-.015.388-.048.774-.096 1.16a12.373 12.373 0 0 1-.34 1.789c-.06.227-.126.453-.198.678-.065.204-.13.405-.204.604a15.642 15.642 0 0 0 3.034 1.67c.235.1.475.19.717.274 1.08.386 2.213.647 3.377.78.365.042.735.074 1.107.09a16.17 16.17 0 0 0 3.045-.172c.221-.036.451-.077.69-.127a13.03 13.03 0 0 0-.09-.696 15.328 15.328 0 0 0-3.096-7.105c-1.312.326-2.66.49-4.013.49-.88 0-1.756-.07-2.616-.204.706.421 1.407.855 2.096 1.306a33.81 33.81 0 0 1 1.872 1.302c.604.458 1.204.927 1.725 1.476-.597-.46-1.253-.827-1.913-1.182a34.96 34.96 0 0 0-2.023-.982 63.9 63.9 0 0 0-3.077-1.278Zm-9.59-5.022c-.002.074 0 .15-.005.225a17.931 17.931 0 0 1-.144 1.546l-.007.044a16.866 16.866 0 0 1-1.469 4.847c-.05.11-.1.22-.153.328.04.058.079.118.12.175.218.3.45.585.696.863a12.065 12.065 0 0 0 2.407 2.102c.033.022.065.046.098.067.173.113.35.219.528.322.05.028.099.06.147.086a12.046 12.046 0 0 0 3.098 1.201l.115.024c.12.029.24.06.363.084.064-.089.124-.18.19-.271l.011-.02.07-.098a11.92 11.92 0 0 0 1.464-2.88l.057-.174a11.588 11.588 0 0 0 .492-2.157 12 12 0 0 0 .113-1.81c-.005-.264-.017-.53-.04-.796-.145-.048-.284-.11-.428-.165-.28-.103-.564-.204-.837-.321-.27-.115-.533-.24-.795-.37a16.646 16.646 0 0 1-3.379-2.18 16.004 16.004 0 0 1-.746-.655c-.05-.048-.101-.101-.152-.151-.139-.132-.27-.276-.405-.415l1.92 7.076-.576-1.131-.144-.28-2.609-5.116Zm-23.832 2.407a15.315 15.315 0 0 0-3.622 7.606c.236.065.461.12.682.168a15.862 15.862 0 0 0 3.031.342c.065.003.13.003.195.003.307 0 .612-.01.914-.029a15.376 15.376 0 0 0 4.152-.82 15.406 15.406 0 0 0 1.574-.65 15.593 15.593 0 0 0 2.03-1.162c-.028-.113-.062-.225-.088-.338a13.944 13.944 0 0 1-.307-2.157 13.405 13.405 0 0 1-.029-1.163c.005-.237.031-.472.05-.71-1.312.41-2.63.856-3.921 1.352-.7.269-1.392.554-2.074.868-.679.314-1.356.645-1.977 1.072.55-.518 1.176-.957 1.804-1.379a34.304 34.304 0 0 1 1.944-1.193c.682-.391 1.368-.768 2.062-1.132a16.69 16.69 0 0 1-6.42-.678Zm23.052-8.834c.055.137.118.266.178.4a15.313 15.313 0 0 0 1.958 3.301c.328.42.677.82 1.046 1.204a14.857 14.857 0 0 0 2.98 2.38c.606.374 1.235.705 1.885.993.118.05.233.11.35.158.1.04.197.084.298.122a15.397 15.397 0 0 0 10.13.37 16.07 16.07 0 0 0 1.006-.346c.21-.08.425-.17.648-.269-.077-.232-.153-.45-.235-.661-2.36-6.11-8.213-9.865-14.407-9.865-1.524 0-3.067.228-4.584.703-.243.074-.483.16-.723.25 2.172.507 4.241 1.238 6.267 2.068a46.94 46.94 0 0 1 3.348 1.539c1.087.563 2.162 1.17 3.137 1.91-1.042-.642-2.156-1.138-3.284-1.591a46.32 46.32 0 0 0-7.279-2.194 32.764 32.764 0 0 0-2.719-.472Zm-12.898 8.755-.019.004-.021.101c.014-.036.026-.072.04-.105Zm2.158-11.946c-5.875 0-11.496 3.366-14.069 9.052-.093.204-.185.42-.273.645a13.729 13.729 0 0 0 1.615.707 16.467 16.467 0 0 0 1.536.482 15.447 15.447 0 0 0 8.606-.278c.281-.091.562-.194.838-.302.113-.043.22-.1.333-.146a16.759 16.759 0 0 1 7.424-7.611c-2.139.21-4.167.59-6.144 1.069a43.758 43.758 0 0 0-3.502 1.002c-1.152.388-2.292.817-3.367 1.4 1.015-.683 2.121-1.228 3.24-1.729a46.87 46.87 0 0 1 3.43-1.347c2.008-.693 4.046-1.302 6.326-1.726a15.335 15.335 0 0 0-5.993-1.218Zm228.223 40.625-.254-.316a11.461 11.461 0 0 1-2.46-8.462c-.864.158-1.745.244-2.645.244a13.56 13.56 0 0 1-2.323-.199l-.586-.098v-.594c0-.441.017-.837.046-1.209a14.243 14.243 0 0 1 2.41-6.82 16.994 16.994 0 0 1-1.28-.146c-.439-.07-.892-.16-1.394-.283l-.576-.141.043-.592a16.714 16.714 0 0 1 3.192-8.723c-.19-.065-.379-.13-.566-.202a17.37 17.37 0 0 1-1.303-.57l-.533-.26.165-.567c.144-.497.29-.938.452-1.348 2.572-6.669 8.961-10.765 15.722-10.765 2.006 0 4.051.362 6.031 1.124.792-2.31.545-4.24.279-6.134.194-.506 1.21-.712 2.085-.712.624 0 1.179.103 1.318.28.331.937.096 3.939-.804 6.312.244-.127.491-.249.741-.364a16.773 16.773 0 0 1 6.91-1.492c6.413 0 12.552 3.68 15.36 9.886.182.4.353.832.526 1.319l.199.558-.519.288c-.413.232-.836.446-1.267.643-.182.083-.37.158-.557.234a16.727 16.727 0 0 1 3.447 7.13c.091.431.17.889.235 1.4l.077.59-.567.172c-.492.149-.94.266-1.375.362-.425.091-.847.158-1.27.218a14.217 14.217 0 0 1 2.794 6.671c.05.37.089.765.113 1.206l.036.592-.58.132a14.017 14.017 0 0 1-3.156.357c-.862 0-1.71-.076-2.54-.225a11.456 11.456 0 0 1-1.898 8.99l-.238.328-.403-.041a11.496 11.496 0 0 1-7.762-4.19 14.19 14.19 0 0 1-2.5 2.816c-.289.25-.6.492-.956.748l-.48.345-.422-.414a14.204 14.204 0 0 1-3.804-6.54c-.149-.108-.307-.21-.451-.323a14.215 14.215 0 0 1-3.576 7.599l-.399.438-.499-.318c-.367-.235-.694-.46-.996-.69a14.252 14.252 0 0 1-3.098-3.268 11.495 11.495 0 0 1-7.743 4.962l-.4.062Zm2.933-11.13a14.395 14.395 0 0 1-4.183 2.004 10.062 10.062 0 0 0 1.838 7.604 10.087 10.087 0 0 0 6.742-4.847 14.355 14.355 0 0 1-1.426-4.003c-.432.124-.87.225-1.317.309l-2.17 3.797.948-4.274c-.146-.197-.297-.388-.432-.59Zm8.4-2.373c-.18.17-.367.336-.554.499a11.372 11.372 0 0 1-1.443 1.069 13.444 13.444 0 0 1-2.093 1.086c.173.968.45 1.92.843 2.828.125.293.269.58.415.863a12.849 12.849 0 0 0 3.991 4.576 12.79 12.79 0 0 0 2.63-5.343c.146-.635.243-1.28.291-1.93l.005-.03a16.67 16.67 0 0 1-2.83-3.53c.07.456.118.914.147 1.37.029.426.04.85.026 1.275-.014.446-.055.89-.113 1.33a12.494 12.494 0 0 1-.597 2.556c.182-1.132.192-2.273.062-3.385-.019-.154-.029-.31-.053-.46a13.956 13.956 0 0 0-.727-2.774Zm16.282 2.416a14.29 14.29 0 0 1-1.51 4.382 10.09 10.09 0 0 0 6.713 4.032 10.052 10.052 0 0 0 1.277-8.198 14.319 14.319 0 0 1-3.855-1.795c-.216.395-.452.78-.705 1.153l1.188 4.21-2.383-3.676c-.243-.033-.488-.062-.725-.108Zm-8.575 3.807a12.778 12.778 0 0 0 2.162 3.562c.103.12.211.24.329.365a12.871 12.871 0 0 0 2.93-3.284c.144-.23.269-.473.399-.71a12.906 12.906 0 0 0 1.38-4.066 13.851 13.851 0 0 1-2.748-1.16 14.122 14.122 0 0 1-.69-.412c-.02-.012-.04-.029-.062-.04a16.568 16.568 0 0 1-1.21 2.948c.02.79.104 1.584.277 2.37a12.345 12.345 0 0 1-.588-1.785 16.923 16.923 0 0 1-1.351 1.997l-.365.467-.463-.252Zm-3.84-14.814c-.154.18-.305.362-.47.532-.272.278-.555.543-.85.796-.192.167-.387.328-.588.484-.12.093-.243.18-.365.268-.067.05-.135.103-.204.151-.197.135-.394.269-.595.393-.101.06-.202.116-.305.175.012.063.031.125.043.187.096.492.223.976.367 1.456.063.206.118.412.19.616.096.28.199.556.31.829.105.252.213.501.33.748a15.369 15.369 0 0 0 3.09 4.336c.117.113.24.221.357.331.113.1.218.204.331.302.497.433 1.021.834 1.57 1.199.04.026.077.055.117.081.188.125.384.247.596.37a15.332 15.332 0 0 0 2.731-6.655c.065-.42.117-.839.146-1.263a1.322 1.322 0 0 0-.06-.036 16.17 16.17 0 0 1-1.245-.75 16.778 16.778 0 0 1-3.682-3.301c.228.75.442 1.5.638 2.26.195.734.37 1.472.514 2.217.142.746.271 1.499.286 2.254-.132-.743-.372-1.455-.624-2.16a34.607 34.607 0 0 0-.838-2.083c-.168-.384-.348-.765-.526-1.146a65.802 65.802 0 0 0-.556-1.175c-.06-.12-.118-.237-.178-.354-.175-.355-.348-.712-.53-1.062Zm-14.672 3.926c-1.503.472-3.066.73-4.641.765a12.82 12.82 0 0 0-2.739 7.376 13.473 13.473 0 0 0 1.56.096c.97 0 1.923-.11 2.84-.319.266-.06.525-.139.787-.216a13.025 13.025 0 0 0 3.866-1.87 13.517 13.517 0 0 1-1.476-4.63c-.573.328-1.049.685-1.701 1.22a12.39 12.39 0 0 0-2.578 2.857 12.819 12.819 0 0 1 2.083-3.359c.598-.7 1.275-1.337 2-1.92Zm4.448-2.148c-.93.633-1.92 1.17-2.957 1.606a12.036 12.036 0 0 0 2.02 6.717c.125.182.25.365.382.54.432-.084.86-.197 1.277-.326a11.481 11.481 0 0 0 1.366-.518 12.187 12.187 0 0 0 2.678-1.654c.194-.158.374-.333.562-.504.403-.374.792-.764 1.142-1.191a17.116 17.116 0 0 1-.826-2.599c-.028-.127-.072-.251-.098-.38-.771.341-1.573.61-2.395.802-.029.005-.058.015-.087.02-.05.012-.105.019-.156.03-.036.008-.07.015-.105.02a5.437 5.437 0 0 1-.192.038l-.759 1.25-1.303 2.152.684-3.54.072-.365c-.093-.122-.19-.242-.278-.37-.043-.06-.08-.124-.12-.184-.337-.494-.64-1.01-.907-1.544Zm26.846 1.59c-.012.58-.05 1.157-.137 1.73a12.735 12.735 0 0 1-.34 1.57c-.14.5-.305.99-.505 1.472a13.079 13.079 0 0 0 2.61 1.388c.297.115.6.214.906.307a13.083 13.083 0 0 0 3.823.578 12.8 12.8 0 0 0 1.755-.122c.158-.024.32-.048.487-.08-.019-.17-.036-.33-.06-.486a12.816 12.816 0 0 0-3.093-6.722 16.798 16.798 0 0 1-4.502-.465 14.6 14.6 0 0 1 2.006 1.733 12.645 12.645 0 0 1 2.27 3.237 12.352 12.352 0 0 0-2.734-2.71 13.89 13.89 0 0 0-2.486-1.43Zm-8.46 2.622a16.93 16.93 0 0 1-.257 1.63 12.028 12.028 0 0 0 4.673 1.994c.216.041.432.08.65.11a12.344 12.344 0 0 0 1.256-2.473 12.218 12.218 0 0 0 .604-2.306 11.968 11.968 0 0 0 .082-3.162 17.225 17.225 0 0 1-2.645-1.362 16.785 16.785 0 0 1-1.051 4.57l.49 1.939-.81-1.18c-.08.18-.162.362-.258.554l-.257.532-.571-.165c-.492-.144-.934-.29-1.347-.45a14.38 14.38 0 0 1-.559-.23ZM292.43 139.7c-.014.036-.026.075-.04.11a15.632 15.632 0 0 0-.526 1.801 14.946 14.946 0 0 0-.394 3.941 15.34 15.34 0 0 0 1.256 5.588c.117.273.24.544.372.81l.086.163c.096.187.194.374.298.556a15.435 15.435 0 0 0 2.41 3.188c.633.645 1.329 1.237 2.082 1.77.312.222.636.436.968.637.1.06.204.113.304.17.137.08.276.161.416.235.23.123.465.238.703.348a14.183 14.183 0 0 0 1.637.654c.098-.223.19-.438.268-.647.017-.043.032-.089.048-.132.574-1.524.9-3.13.968-4.758.098-2.4-.372-4.76-1.33-6.909a15.377 15.377 0 0 0-5.873-6.772 15.501 15.501 0 0 0-2.313-1.198c1.298 1.92 2.294 3.797 3.21 5.712a44.68 44.68 0 0 1 1.448 3.385c.142.379.274.76.403 1.143.262.78.49 1.57.639 2.376-.339-1.175-.833-2.29-1.364-3.38a46.67 46.67 0 0 0-1.744-3.193c-.065-.108-.135-.216-.202-.324a47.989 47.989 0 0 0-1.673-2.574 39.906 39.906 0 0 0-1.67-2.213c-.13-.163-.252-.326-.387-.487Zm-19.893 10.006a15.304 15.304 0 0 0-3.187 7.8c.237.051.468.092.69.128.709.11 1.412.168 2.11.18.116.002.23.004.346.004.197 0 .394-.005.59-.012.372-.016.742-.048 1.107-.09a15.133 15.133 0 0 0 3.377-.78c.242-.084.482-.175.717-.273a15.49 15.49 0 0 0 3.031-1.67 13.614 13.614 0 0 1-.398-1.282 11.222 11.222 0 0 1-.163-.682 14.379 14.379 0 0 1-.274-2.268c0-.043.003-.084.003-.127a63.985 63.985 0 0 0-3.08 1.278c-.684.306-1.358.633-2.02.982-.66.355-1.318.722-1.916 1.182.521-.549 1.121-1.018 1.726-1.476.61-.456 1.236-.887 1.872-1.302.691-.45 1.39-.885 2.098-1.306-.862.134-1.736.203-2.619.203a16.63 16.63 0 0 1-4.01-.489Zm16.13-4.643c-.134.139-.266.283-.405.415-.05.05-.101.103-.154.15-.242.228-.492.444-.746.655a16.846 16.846 0 0 1-3.377 2.181c-.262.13-.526.255-.795.37-.276.117-.556.218-.84.32-.141.056-.283.118-.427.166-.07.869-.046 1.743.072 2.606.043.319.096.638.163.952a12.743 12.743 0 0 0 .39 1.378 11.035 11.035 0 0 0 .489 1.199c.28.586.605 1.148.974 1.682l.07.099.012.019c.062.091.122.182.19.27.122-.023.24-.054.36-.083.038-.007.076-.017.115-.024a11.364 11.364 0 0 0 .823-.225 11.921 11.921 0 0 0 2.275-.976c.05-.026.098-.058.149-.086.177-.103.355-.209.528-.322.033-.021.065-.045.098-.067a11.968 11.968 0 0 0 2.407-2.102c.243-.278.478-.563.696-.863.041-.057.08-.117.12-.175l-.156-.328a16.937 16.937 0 0 1-1.466-4.847l-.007-.044a15.239 15.239 0 0 1-.125-1.198c-.01-.115-.014-.233-.02-.348-.004-.074-.004-.15-.004-.225l-2.609 5.115-.144.28-.576 1.132 1.92-7.076Zm16.659 4.046c.019.238.045.473.05.71.01.388-.005.777-.029 1.163a13.945 13.945 0 0 1-.31 2.157c-.026.113-.06.225-.088.338a15.916 15.916 0 0 0 2.841 1.522c.252.103.507.2.764.29 1.34.464 2.738.74 4.154.82.302.02.607.029.914.029.063 0 .13 0 .195-.003a15.827 15.827 0 0 0 3.029-.343c.22-.047.448-.102.684-.167a15.295 15.295 0 0 0-3.624-7.606 16.664 16.664 0 0 1-4.93.743c-.5 0-.994-.022-1.488-.065.694.364 1.38.74 2.06 1.132.66.378 1.312.771 1.943 1.193.631.422 1.255.86 1.807 1.379-.621-.427-1.298-.758-1.977-1.072-.682-.314-1.375-.6-2.076-.868a64.099 64.099 0 0 0-3.92-1.352Zm-20.307-12.137c-6.194 0-12.05 3.754-14.41 9.865-.079.21-.158.429-.232.661.22.099.437.19.648.269a16.07 16.07 0 0 0 2.565.738 15.38 15.38 0 0 0 8.57-.762c.1-.038.198-.082.298-.122.118-.048.23-.108.348-.158.65-.288 1.282-.619 1.887-.993a14.857 14.857 0 0 0 2.98-2.38 15.494 15.494 0 0 0 1.046-1.203 15.208 15.208 0 0 0 1.957-3.302c.06-.134.125-.263.18-.4-.905.113-1.814.28-2.72.472a47.512 47.512 0 0 0-3.84.995c-1.16.357-2.31.75-3.438 1.199-1.128.453-2.244.949-3.284 1.591.975-.74 2.048-1.347 3.137-1.91a46.885 46.885 0 0 1 3.346-1.54c2.028-.829 4.094-1.56 6.269-2.068-.24-.089-.48-.175-.723-.25a15.343 15.343 0 0 0-4.584-.702Zm18.735 10.968.038.105c-.007-.034-.012-.067-.02-.1l-.018-.005Zm-8.168-9.397a16.759 16.759 0 0 1 7.424 7.61c.11.046.22.104.33.147a15.462 15.462 0 0 0 5.62 1.062 15.48 15.48 0 0 0 4.622-.71 16.812 16.812 0 0 0 1.723-.654c.206-.094.415-.194.631-.307a15.42 15.42 0 0 0-.271-.645c-2.573-5.686-8.196-9.052-14.069-9.052-2.004 0-4.042.394-5.995 1.218 2.282.424 4.32 1.033 6.329 1.726 1.161.408 2.306.851 3.427 1.347 1.118.501 2.227 1.046 3.24 1.729-1.073-.583-2.215-1.012-3.365-1.4a44.045 44.045 0 0 0-3.502-1.002c-1.98-.48-4.008-.858-6.144-1.07Z" fill="#3E4229"/></g></svg>