<svg xmlns="http://www.w3.org/2000/svg" viewBox="0 0 1440 401" preserveAspectRatio="none">
  <path fill="#474B26" fill-rule="evenodd" d="M1506.3 100.038a43.849 43.849 0 0 0-4.003-3.384c-5.638-14.968-3.875-30.5-5.7-45.76-.21-1.75-.24-3.41.924-5.016 4.958-6.865 4.145-14.48 4.08-21.884-.031-3.9-1.675-7.109-7.52-9.319-13.157-4.973-27.313-6.624-41.156-9.363-2.77-.546-5.7-.526-8.7-.265-21.12 1.82-42.239 3.599-63.177-1.42-4.143-.994-8.87-.817-13.012.525-6.038 1.957-12.378 2.715-18.555 1.828-16.284-2.336-32.708-1.33-49.035-1.54-11.93-.159-24.215-1.88-35.79.484-6.912 1.412-12.447 2.353-19.97 1.14-11.008-1.78-22.745-1.696-34.258-1.412-8.218.202-16.5 1.249-24.722-.177-4.82-.836-9.734-.312-14.57-.51-16.326-.666-32.608.433-49.02-.741-22.095-1.582-112.007 2.84-123.805 3.559-1.277-.006-2.555-.014-3.83-.019-.643-.006-1.284-.013-1.928-.017-10.777 1.206-21.588 1.905-32.43 2.17-6.508.164-20.668-1.174-20.95-1.231-14.439-2.915-26.825 4.015-38.97-2.515-11.296-6.069-22.654-5.617-34.22-.645-15.141 1.736-30.397 1.58-45.648 1.491-1.907-.009-3.813-.02-5.719-.023-13.344-.036-26.67.172-39.902 1.935l-2.654-.005-3.303-.03c-10.278-.442-20.294.763-30.278 2.191-1.997.284-3.993.578-5.987.87-1.995.29-3.993.58-5.988.855-2 .275-3.999.535-6.003.772-17.022-3.34-33.671-1.157-50.239 2.106-1.892.37-3.786.77-5.433 1.47-.822.353-1.581.78-2.25 1.319-.078.06-.14.14-.213.205a6.917 6.917 0 0 0-1.467 1.754c-.316 0-.63.001-.945.003-.668 0-1.334.001-2 .006h-.002c-3.157 1.092-6.31 2.191-9.504 3.195-.577.18-1.153.35-1.731.524a114.75 114.75 0 0 1-3.185.906c-4.142 1.116-8.383 1.997-12.828 2.391l-.955-.023-3.51-.082a1.512 1.512 0 0 0-1.025-.02c-4.593.537-8.734-.942-12.78-2.14-5.517-1.633-10.49-1.283-15.403 1.069-7.248 2.066-14.563 3.424-22.191 1.196-1.987-.65-4.017-1.935-5.952-1.851-2.125.091-4.25.096-6.377.044-7.487-.177-14.99-1.046-22.476-1.342-7.407-.292-14.799-.022-22.14 2.044-3.23.513-6.387.146-9.532-.345-1.508-.239-3.017-.5-4.526-.712a42.978 42.978 0 0 0-2.803-.31c-1.874-.14-3.763-.121-5.678.215-6.43-.819-12.754-1.749-19.105-3.147-6.762-1.485-14.526-4.333-21.402-2.148-10.79 3.425-21.544 4.64-32.789 3.133-3.813-.51-6.353 3.599-9.403 1.695a19.733 19.733 0 0 0-8.452-2.93 22.977 22.977 0 0 0-2.426-.135l-.044-.002c-2.902-.01-5.861.474-8.901 1.182a1.788 1.788 0 0 0-.542-.098 1.891 1.891 0 0 0-.547.075c-1.776-1.187-2.545-3.708-5.4-3.414-5.18.531-10.094-.938-15.136-1.244-.386-.026-.775-.04-1.165-.05a23.4 23.4 0 0 0-2.348.06 122.2 122.2 0 0 0-10.467-1.417c-.871-.075-1.742-.145-2.614-.203-1.738-.116-3.48-.19-5.218-.22-7.826-.137-15.64.606-23.487 2.392-7.348 1.671-15.008 3.302-22.671.56-7.457-1.908-15.125-4.033-22.925-2.799-18.381 2.911-36.284 2.493-53.916-2.762-2.004-.596-4.332-.931-6.45-.797-7.21.456-13.887-1.19-20.824-2.319-17.718-2.877-35.685-6.676-53.24.838-1.027.44-2.61 1.031-3.4.719-7.51-2.96-15.408-.553-23.087-1.064-5.797-.387-11.612-.17-16.93 1.416-3.189.948-6.202 2.391-8.921 4.492-1.143.102-2.281.22-3.424.346-3.42.37-6.843.771-10.273.84-13.789.288-27.758 1.071-39.891-5.764-2.722-1.086-5.395-1.728-8.01-1.793-3.36-.079-6.626.794-9.765 2.903-.982.084-1.68.382-2.226.942a3.757 3.757 0 0 0-.503.65C14.779 21.654 10.187 28.96-.496 32.92c-3.862 1.43-6.67 5.486-6.663 9.709.005 1.47.854 3.546-1.256 4.21-10.37 3.253-13.663 11.595-20.663 17.247a54.717 54.717 0 0 0-9.996 5.242c-4.065 2.697-7.583 5.815-10.78 9.183-.303.324-.606.647-.904.974a100.18 100.18 0 0 0-4.786 5.643c-1.65 1.05-3.02 2.162-4.175 3.321-.28.284-.544.573-.8.863-.75.851-1.386 1.727-1.913 2.629a15.598 15.598 0 0 0-1.424 3.158 16.99 16.99 0 0 0-.721 3.315c-.338 2.984.036 6.13.814 9.361.15 1.544-.331 3.321 2.322 3.945l1.495 2.306-.043-.036-.05-.048c2 6.69 8.52 12.318 8.6 19.28.087 7.438 3.3 14.653 1.691 22.197-1.114 5.224.769 10.228 3.724 15.025 2.219 3.603 5.55 7.613 3.71 11.469-1.101 2.309-1.856 4.7-2.438 7.13-.11.462-.213.925-.314 1.389-.057.266-.108.533-.16.798h-6.157c-.625 1.411-1.253 2.823-1.877 4.23-.336.659-.677 1.315-1.021 1.972-1.034 1.968-2.085 3.93-2.961 5.943-3.814 8.743-4.77 18.39-14.362 25.236-2.485 1.774-3.314 5.1-3.254 8.348.29 14.582.068 29.171.215 43.756.035 3.401 2.126 7.119.972 10.14-1.161 3.044-1.366 5.685-.722 8.012 1.073 3.873 4.501 6.863 9.776 9.373.174.22.35.44.526.66l.98 1.232c-.006-.001-.01-.005-.019-.006-2.478 4.15.53 6.987 3.972 9.447 7.683 5.491 14.75 11.593 23.564 15.994 2.246 1.122 3.28 2.43 4.254 4.255 6.007 11.258 12.204 22.454 18.38 33.654.851 1.545 1.576 3.266 3.342 3.954.483.19 1.04.3 1.702.311.424.005.895-.031 1.41-.117.15.592.427.92.785 1.088.221.1.472.145.74.153.177.006.364-.002.553-.017.175-.015.354-.035.532-.052.027-.002.052-.007.077-.008.335-.037.668-.065.98-.048 3.52 3.53 8.186 4.829 13.76 4.628 19.579-.697 38.321-5.707 57.774-7.013 12.073-.811 24.164-2.399 36.087 1.053 4.152 1.2 8.469 2.421 12.814 2.734 6.669.478 12.257.811 17.712 5.428a77.822 77.822 0 0 0 4.336 3.438c4.59 3.357 9.993 6.285 16.617 7.2.086.263.172.51.26.743 2.03 5.377 5.164 2.947 8.185 1.32.13-.072.262-.14.393-.204.262-.136.52-.26.78-.371.645-.278 1.278-.461 1.883-.466 7.112-2.322 14.408-5.618 22.103-3.247 5.422 1.67 10.4 1.438 15.519.646 10.591-1.635 21.192-1.407 31.742-.347 4.608.462 8.838-.029 12.624-1.617 10.22-4.292 21.462-3.807 31.536-2.014 11.529 2.054 22.884 2.43 34.222 1.847 18.824-.97 37.677-2.882 56.151 1.095 16.446 3.54 33.256 3.302 49.923 4.652 5.281.428 9.666-2.732 14.725-2.043 9.701 1.325 19.219-.495 28.82-.697 4.095-.087 7.741-1.489 12.396-1.236 14.321.778 28.844.739 41.412-6.693 8.047-4.76 13.82.065 24.175-.778 6.035-.494 11.955-.923 17.726-2.67 7.185-2.179 15.923-1.255 23.22-3.042 9.38-2.298 18.984-.7 29.15-.447 3.088 1.708 7.014 2.133 10.373 3.425 1.528.586 2.936 1.353 4.099 2.499 3.57 3.3 15.004 4.456 16.993 6.047.796.64 4.054.696 4.91 1.269 2.968 1.987 6.26 3.632 10.346 4.439-.068.367-.063.68.017.936.08.249.234.443.434.6.02.015.032.034.05.05.06.04.129.068.193.1.068.037.128.08.202.108.442.179 1.012.258 1.667.27 13.99.05 27.984.093 41.975.142 14.022.048 28.041.101 42.064.166 5.692.027 13.24.35 15.45-3.21 9.535-4.46 18.79-7.246 30.87-5.435 15.321 2.297 26.025 6.175 39.86-.349 9.289-4.382 18.472-2.589 27.778-6.948 5.261-2.464 11.862-5.06 16.942-3.337 5.167 1.75 9.619 1.534 14.488 1.304 14.397-.685 27.65-5.129 39.393 2.339 13.076 8.318 28.232 4.147 44.299 7.87 5.66 1.312 12.051 1.792 16.504-.88 2.877-1.73 5.603-3.623 8.397-5.443.486.13.976.268 1.454.368 1.433.304 2.765.273 3.63-1.326 4.922 1.572 9.782 2.154 14.482.926a20.004 20.004 0 0 0 4.643-1.86c5.133-2.83 10.329-2.864 15.478-.223 2.926 1.5 5.526 1.632 8.722.361 6.386-2.543 12.658-3.458 19.546-.143 11.631 5.597 23.222 5.218 36.575 5.96 4.286.238 8.132-1.738 12.025-.941 2.891.592 5.502.66 7.9.327a19.848 19.848 0 0 0 1.84-.352 20.714 20.714 0 0 0 1.73-.486 21.809 21.809 0 0 0 2.336-.914c2.744-1.252 5.238-1.429 7.638-3.435 5.998-2.709 10.985 1.359 16.648-1.77 1.886-1.041 3.85 1.151 5.948.33 3.586-1.4 8.968-.59 10.664-4.711 2.609-.283 5.215-.598 7.829-.838 9.997-.919 18.39.62 28.107-.998 23.279-3.881 45.227.793 67.183 6.172 8.678 2.128 15.669-2.845 23.877-.101 14.209 4.75 28.018.713 41.452 6.74 6.548 5.687 14.198 8.33 23.047 7.67 2.041-.15 4.147-.476 6.315-.986.777.015 1.554.029 2.338.05 1.555.06 3.12.126 4.685.193l-.123.008.001.002c2.239.58 4.48.627 6.721.211.32-.06.64-.127.958-.205l2.095-.016c.554.138 1.108.24 1.662.311 1.668.209 3.343.114 5.023-.282 1.625.229 3.054.254 4.295.087 3.709-.5 5.726-2.737 6.236-6.52 6.159-4.1 14.885-6.932 17.663-12.74 4.53-9.468 12.809-15.347 23.026-20.116 4.792-2.238 8.92-6.724 15.895-4.077 1.346.511 2.563-.439 3.815-1.097 9.374-4.933 19.771-8.45 28.887-13.873 3.941-2.344 9.505-3.026 9.046-7.976-.573-6.18.244-12.068 3.389-17.77.21-.382.173-.844.075-1.33-.102-.486-.266-.996-.32-1.467-1.574-3.251-3.536-6.336-5.749-9.31a94.183 94.183 0 0 0-4.224-5.254c-2.45-2.855-5.218-5.824-5.603-9.216-1.214-10.708-5.4-20.99-3.725-32.205 1.585-10.625 1.138-21.34 7.76-31.11 2.804-2.332 7.669-4.96 6.204-7.879-3.86-7.696.158-15.892-3.329-23.56h-.737c-.437-2.588-.983-5.17-1.772-7.73-.95-3.077.214-6.168 3.403-8.352 2.858-1.96 2.79-4.317 2.115-6.803-1.926-7.077-2.927-14.138.031-21.205 1.132-1.861 2.306-3.708 3.384-5.586.68-1.187 1.497-2.31 2.378-3.406.66-.826 1.359-1.637 2.055-2.447.39-.45.775-.904 1.158-1.36 1.21-1.43 2.374-2.884 3.296-4.445a16.39 16.39 0 0 0 .93-1.816c4.255-10.611 2.205-19.964-6.22-28.04"/>
</svg>
