<?xml version="1.0" encoding="utf-8"?>
<!-- Generator: Adobe Illustrator 21.1.0, SVG Export Plug-In . SVG Version: 6.00 Build 0)  -->
<svg version="1.1" id="Layer_1" xmlns="http://www.w3.org/2000/svg" xmlns:xlink="http://www.w3.org/1999/xlink" x="0px" y="0px"
	 viewBox="0 0 24 24" style="enable-background:new 0 0 24 24;" xml:space="preserve">
<style type="text/css">
	.st0{display:none;}
	.st1{display:inline;}
	.st2{fill:#CCCCCC;}
	.st3{fill:none;stroke:#CCCCCC;stroke-width:5.000000e-02;stroke-miterlimit:10;}
	.st4{fill:#FFFFFF;}
	.st5{fill:#1B60AA;}
	.st6{fill-rule:evenodd;clip-rule:evenodd;fill:#F5893D;}
	.st7{fill:#D2AF1F;}
	.st8{fill:#9D7B55;}
	.st9{fill:#F5893D;}
	.st10{fill:#007078;}
	.st11{fill:none;}
	.st12{fill:#D2AF1F;stroke:#FFFFFF;stroke-width:0.75;stroke-linejoin:round;stroke-miterlimit:10;}
	.st13{fill-rule:evenodd;clip-rule:evenodd;fill:#D2AF1F;}
	.st14{fill:#FFFFFF;stroke:#FFFFFF;stroke-width:2;stroke-linejoin:round;stroke-miterlimit:10;}
</style>
<g>
	<path class="st4" d="M20.3,11.4c0-0.1,0-0.2-0.1-0.3c0-0.1,0-0.2,0-0.3c-0.3-1.8-1.1-3.4-2.1-4.3c-2.1-2-2.5-2.8-2.6-3.1
		c0,0,0,0,0.1,0c0.4-0.1,0.6-0.5,0.6-0.9V0.9c0-0.5-0.4-0.9-0.9-0.9H8.8C8.3,0,7.9,0.4,7.9,0.9v1.5c0,0.4,0.2,0.7,0.6,0.9
		c0,0,0,0,0.1,0C8.5,3.6,8.1,4.4,5.9,6.4c-1,1-1.8,2.5-2.1,4.3c0,0.1,0,0.2,0,0.3c0,0.1-0.1,0.2-0.1,0.3c-0.1,0.8-0.1,1.6,0,2.4
		c0,0.1,0.1,0.2,0.1,0.3c0,0.1,0,0.2,0,0.3c0.3,2.4,1.5,5.9,5.3,9.3C9.2,23.9,9.4,24,9.7,24h4.7c0.2,0,0.4-0.1,0.6-0.2
		c3.7-3.4,4.9-6.9,5.3-9.3c0-0.1,0-0.2,0-0.3c0.1-0.1,0.1-0.2,0.1-0.3C20.4,13,20.3,12.1,20.3,11.4z"/>
	<g>
		<path class="st7" d="M17.9,12.2c-0.6,0-0.9-0.3-1.2-0.5c-0.2-0.2-0.4-0.4-0.8-0.4c-0.4,0-0.6,0.2-0.8,0.4
			c-0.3,0.2-0.6,0.5-1.2,0.5c-0.6,0-0.9-0.3-1.2-0.5c-0.2-0.2-0.4-0.4-0.8-0.4c-0.4,0-0.6,0.2-0.8,0.4c-0.3,0.2-0.6,0.5-1.2,0.5
			c-0.6,0-0.9-0.3-1.2-0.5c-0.2-0.2-0.4-0.4-0.8-0.4c-0.4,0-0.6,0.2-0.8,0.4c-0.3,0.2-0.6,0.5-1.2,0.5c-0.6,0-0.9-0.3-1.2-0.5
			c-0.1-0.1-0.2-0.1-0.2-0.2c-0.1,0.7-0.1,1.4,0,2.2c0.3,0.1,0.5,0.3,0.6,0.4c0.2,0.2,0.4,0.4,0.8,0.4c0.4,0,0.6-0.2,0.8-0.4
			c0.3-0.2,0.6-0.5,1.2-0.5c0.6,0,0.9,0.3,1.2,0.5c0.2,0.2,0.4,0.4,0.8,0.4c0.4,0,0.6-0.2,0.8-0.4c0.3-0.2,0.6-0.5,1.2-0.5
			s0.9,0.3,1.2,0.5c0.2,0.2,0.4,0.4,0.8,0.4s0.6-0.2,0.8-0.4c0.3-0.2,0.6-0.5,1.2-0.5c0.6,0,0.9,0.3,1.2,0.5
			c0.2,0.2,0.4,0.4,0.8,0.4c0.4,0,0.6-0.2,0.8-0.4c0.2-0.2,0.4-0.3,0.6-0.4c0.1-0.8,0.1-1.5,0-2.2c-0.1,0.1-0.2,0.1-0.2,0.2
			C18.8,11.9,18.5,12.2,17.9,12.2z"/>
		<path class="st7" d="M17.9,15c-0.6,0-0.9-0.3-1.2-0.5c-0.2-0.2-0.4-0.4-0.8-0.4c-0.4,0-0.6,0.2-0.8,0.4C14.9,14.7,14.6,15,14,15
			c-0.6,0-0.9-0.3-1.2-0.5c-0.2-0.2-0.4-0.4-0.8-0.4c-0.4,0-0.6,0.2-0.8,0.4C10.9,14.7,10.6,15,10,15c-0.6,0-0.9-0.3-1.2-0.5
			c-0.2-0.2-0.4-0.4-0.8-0.4c-0.4,0-0.6,0.2-0.8,0.4C7,14.7,6.7,15,6.1,15c-0.6,0-0.9-0.3-1.2-0.5c-0.1-0.1-0.1-0.1-0.2-0.2
			c0.4,2.8,1.8,5.9,5,8.8H12h2.3c3.1-2.8,4.6-6,5-8.8c-0.1,0.1-0.1,0.1-0.2,0.2C18.8,14.7,18.5,15,17.9,15z"/>
		<path class="st7" d="M6.1,11.7c0.4,0,0.6-0.2,0.8-0.4c0.3-0.2,0.6-0.5,1.2-0.5c0.6,0,0.9,0.3,1.2,0.5c0.2,0.2,0.4,0.4,0.8,0.4
			c0.4,0,0.6-0.2,0.8-0.4c0.3-0.2,0.6-0.5,1.2-0.5s0.9,0.3,1.2,0.5c0.2,0.2,0.4,0.4,0.8,0.4s0.6-0.2,0.8-0.4
			c0.3-0.2,0.6-0.5,1.2-0.5c0.6,0,0.9,0.3,1.2,0.5c0.2,0.2,0.4,0.4,0.8,0.4c0.4,0,0.6-0.2,0.8-0.4c0.1-0.1,0.3-0.3,0.5-0.4
			c-0.3-1.7-1-3-1.8-3.8c-2.6-2.5-3.8-4.1-2.2-4.7V0.9H12H8.8v1.5C10.3,3,9.1,4.6,6.6,7.1C5.7,7.9,5,9.2,4.7,10.9
			C5,11,5.1,11.2,5.3,11.3C5.5,11.5,5.7,11.7,6.1,11.7z"/>
	</g>
</g>
</svg>
