<?xml version="1.0" encoding="utf-8"?>
<!-- Generator: Adobe Illustrator 21.1.0, SVG Export Plug-In . SVG Version: 6.00 Build 0)  -->
<svg version="1.1" id="Layer_1" xmlns="http://www.w3.org/2000/svg" xmlns:xlink="http://www.w3.org/1999/xlink" x="0px" y="0px"
	 viewBox="0 0 24 24" style="enable-background:new 0 0 24 24;" xml:space="preserve">
<style type="text/css">
	.st0{fill:#FFFFFF;}
	.st1{fill:#D2AF1F;}
</style>
<g>
	<path class="st0" d="M12,0c-1.6,0-3.2,0.3-4.6,0.9c0,0,0,0,0,0C7,1.1,6.6,1.2,6.3,1.4c0,0-0.1,0-0.1,0.1C5.9,1.6,5.7,1.8,5.4,2
		C5.3,2,5.3,2.1,5.2,2.1C5,2.3,4.7,2.5,4.5,2.7c0,0-0.1,0.1-0.2,0.1c-0.6,0.5-1.1,1-1.6,1.6c0,0-0.1,0.1-0.1,0.1
		C2.4,4.7,2.3,5,2.1,5.2C2,5.3,2,5.3,2,5.4C1.8,5.7,1.6,5.9,1.5,6.2c0,0,0,0.1-0.1,0.1C1.2,6.7,1.1,7,0.9,7.3c0,0,0,0,0,0
		C0.3,8.8,0,10.4,0,12c0,6.6,5.4,12,12,12s12-5.4,12-12S18.6,0,12,0z"/>
	<g>
		<path class="st1" d="M20.4,19.5c1.8-2,2.9-4.6,2.9-7.5c0-2.9-1.1-5.5-2.9-7.5L20,4.1c0,0,0,0,0,0l-0.5-0.4c-2-1.8-4.6-2.9-7.5-2.9
			c-2.9,0-5.5,1.1-7.5,2.9L4,4c0,0,0,0,0,0L3.6,4.5c-1.8,2-2.9,4.6-2.9,7.5c0,2.9,1.1,5.5,2.9,7.5L4,20c0,0,0,0,0,0l0.5,0.4
			c2,1.8,4.6,2.9,7.5,2.9c2.9,0,5.5-1.1,7.5-2.9L20,20c0,0,0,0,0,0L20.4,19.5z M21.8,12c0,2.5-0.9,4.7-2.4,6.4L12.9,12l6.4-6.4
			C20.8,7.3,21.8,9.6,21.8,12z M12,2.3c2.5,0,4.7,0.9,6.4,2.4L12,11.1L5.6,4.7C7.3,3.2,9.5,2.3,12,2.3z M2.2,12
			c0-2.5,0.9-4.7,2.4-6.4l6.4,6.4l-6.4,6.4C3.2,16.7,2.2,14.5,2.2,12z M12,21.8c-2.5,0-4.7-0.9-6.4-2.4l6.4-6.4l6.4,6.4
			C16.7,20.9,14.5,21.8,12,21.8z"/>
		<path class="st1" d="M7.4,13.5c-0.1,0-0.1,0-0.2-0.1c0-0.1-0.1-0.1-0.1-0.2V13c0-0.2-0.1-0.5-0.2-0.6c-0.1-0.2-0.3-0.3-0.5-0.4
			c0.2-0.1,0.4-0.2,0.5-0.4c0.1-0.2,0.2-0.3,0.2-0.5c0-0.4-0.1-0.7-0.4-0.9C6.4,10,6.1,9.9,5.6,9.9H4.2H3.8v0.5l0.4,0.1v3l-0.4,0.1
			v0.5h1.7v-0.5L5,13.5v-1.1h0.7c0.2,0,0.3,0.1,0.5,0.2c0.1,0.1,0.2,0.3,0.2,0.5v0.2c0,0.2,0.1,0.4,0.2,0.6C6.6,14,6.8,14.1,7,14.1
			h0.4v-0.5L7.4,13.5z M6.1,11.6c-0.1,0.1-0.3,0.1-0.5,0.1H5v-1.2h0.6c0.2,0,0.4,0.1,0.5,0.2c0.1,0.1,0.2,0.3,0.2,0.4
			C6.3,11.4,6.2,11.5,6.1,11.6z"/>
		<path class="st1" d="M16.5,13.6v0.5h1.7v-0.5l-0.4-0.1v-1.1h0.7c0.2,0,0.3,0.1,0.5,0.2c0.1,0.1,0.2,0.3,0.2,0.5v0.2
			c0,0.2,0.1,0.4,0.2,0.6c0.1,0.1,0.3,0.2,0.6,0.2h0.4v-0.5l-0.1,0c-0.1,0-0.1,0-0.2-0.1c0-0.1-0.1-0.1-0.1-0.2V13
			c0-0.2-0.1-0.5-0.2-0.6c-0.1-0.2-0.3-0.3-0.5-0.4c0.2-0.1,0.4-0.2,0.5-0.4c0.1-0.2,0.2-0.3,0.2-0.5c0-0.4-0.1-0.7-0.4-0.9
			c-0.3-0.2-0.6-0.3-1.1-0.3H17h-0.4v0.5l0.4,0.1v3L16.5,13.6z M17.8,10.6h0.6c0.2,0,0.4,0.1,0.5,0.2c0.1,0.1,0.2,0.3,0.2,0.4
			c0,0.2-0.1,0.3-0.2,0.4c-0.1,0.1-0.3,0.1-0.5,0.1h-0.6V10.6z"/>
	</g>
</g>
</svg>
