<?xml version="1.0" encoding="utf-8"?>
<!-- Generator: Adobe Illustrator 21.1.0, SVG Export Plug-In . SVG Version: 6.00 Build 0)  -->
<svg version="1.1" id="Layer_1" xmlns="http://www.w3.org/2000/svg" xmlns:xlink="http://www.w3.org/1999/xlink" x="0px" y="0px"
	 viewBox="0 0 24 24" style="enable-background:new 0 0 24 24;" xml:space="preserve">
<style type="text/css">
	.st0{display:none;}
	.st1{display:inline;}
	.st2{fill:#CCCCCC;}
	.st3{fill:none;stroke:#CCCCCC;stroke-width:5.000000e-02;stroke-miterlimit:10;}
	.st4{fill:#FFFFFF;}
	.st5{fill:#1B60AA;}
	.st6{fill-rule:evenodd;clip-rule:evenodd;fill:#F5893D;}
	.st7{fill:#D2AF1F;}
	.st8{fill:#9D7B55;}
	.st9{fill:#F5893D;}
	.st10{fill:#007078;}
	.st11{fill:none;}
	.st12{fill:#D2AF1F;stroke:#FFFFFF;stroke-width:0.75;stroke-linejoin:round;stroke-miterlimit:10;}
	.st13{fill-rule:evenodd;clip-rule:evenodd;fill:#D2AF1F;}
	.st14{fill:#FFFFFF;stroke:#FFFFFF;stroke-width:2;stroke-linejoin:round;stroke-miterlimit:10;}
</style>
<g>
	<path class="st4" d="M23.6,6.5c-0.3-0.4-0.7-0.7-1.2-0.9c0,0,0,0,0,0l-8.3-2l-0.3-1.9c-0.2-1.1-1.2-1.9-2.3-1.7L1.8,1.6
		C0.7,1.7,0,2.8,0.1,3.9l2.4,14.9c0.2,1,1,1.7,2,1.7c0.1,0,0.2,0,0.3,0l2.6-0.4c0,0.3,0.1,0.6,0.3,0.8c0.3,0.4,0.7,0.7,1.2,0.9
		l9.1,2.2c0.2,0,0.3,0.1,0.5,0.1c0.4,0,0.7-0.1,1-0.3c0.4-0.3,0.7-0.7,0.9-1.2l3.5-14.6C24,7.4,23.9,6.9,23.6,6.5z"/>
	<g>
		<path class="st7" d="M9.7,12.1C9.4,12,9.2,12,9,11.9l0.4,1.3L9.7,12.1z"/>
		<path class="st7" d="M8.2,13.7l0-1.7c-0.6,0.6-1.5,0.7-2.2,0.2c-0.7-0.5-0.9-1.6-0.4-2.3l0.2-0.3l2-2.7l2.7,1.9l0.9-3.9
			c0.1-0.4,0.3-0.7,0.7-1c0.4-0.2,0.8-0.3,1.2-0.2l0,0l-0.3-1.9c-0.1-0.6-0.7-1-1.3-0.9L2,2.5C1.4,2.6,1,3.1,1.1,3.7l2.4,14.9
			c0.1,0.6,0.7,1,1.3,0.9L8,19.1l1.3-5.5L8.2,13.7z M3.8,4.4C3.7,4.6,3.4,4.7,3.2,4.6L3.4,5L3,5l0-0.5C2.9,4.8,2.6,4.8,2.4,4.6
			C2.2,4.5,2.2,4.2,2.3,4l0.1-0.1l0.5-0.7l0.7,0.5l0.1,0.1C3.9,3.9,4,4.2,3.8,4.4z"/>
		<path class="st7" d="M22.2,6.5l-9.1-2.2c-0.5-0.1-1.1,0.2-1.2,0.7L8.4,19.7c-0.1,0.5,0.2,1.1,0.7,1.2l9.1,2.2
			c0.5,0.1,1.1-0.2,1.2-0.7l3.5-14.6C23.1,7.2,22.7,6.6,22.2,6.5z M18.4,21.5L18.4,21.5L17.6,22l-0.5-0.7l-0.1-0.1
			C17,21,17,20.7,17.2,20.6c0.2-0.1,0.5-0.1,0.6,0.1l0.1,0.1l0.1-0.1c0.2-0.1,0.5-0.1,0.6,0.1C18.7,21.1,18.6,21.3,18.4,21.5z
			 M18.2,14.4l-0.3,0.2l-2.7,1.6L15,16.3l-1.7-2.8l-0.2-0.3c-0.5-0.8-0.2-1.8,0.6-2.3c0.2-0.1,0.5-0.2,0.7-0.2
			c0.6-0.1,1.3,0.2,1.6,0.8l0.2,0.3l0.3-0.2c0.8-0.5,1.8-0.2,2.3,0.6C19.2,12.9,19,13.9,18.2,14.4z M13.5,5.5c0.1,0,0.1,0.1,0.1,0.1
			l0.1,0.1l0.1-0.1c0.2-0.1,0.5-0.1,0.6,0.1c0.1,0.2,0.1,0.5-0.1,0.6l-0.1,0.1l-0.4,0.3l-0.3,0.2L13,6.1l-0.1-0.1
			c-0.1-0.2-0.1-0.5,0.1-0.6C13.2,5.4,13.4,5.4,13.5,5.5z"/>
	</g>
</g>
</svg>
