<?xml version="1.0" encoding="utf-8"?>
<!-- Generator: Adobe Illustrator 21.1.0, SVG Export Plug-In . SVG Version: 6.00 Build 0)  -->
<svg version="1.1" id="Layer_1" xmlns="http://www.w3.org/2000/svg" xmlns:xlink="http://www.w3.org/1999/xlink" x="0px" y="0px"
	 viewBox="0 0 24 24" style="enable-background:new 0 0 24 24;" xml:space="preserve">
<style type="text/css">
	.st0{display:none;}
	.st1{display:inline;}
	.st2{fill:#CCCCCC;}
	.st3{fill:none;stroke:#CCCCCC;stroke-width:5.000000e-02;stroke-miterlimit:10;}
	.st4{fill:#FFFFFF;}
	.st5{fill:#1B60AA;}
	.st6{fill-rule:evenodd;clip-rule:evenodd;fill:#F5893D;}
	.st7{fill:#D2AF1F;}
	.st8{fill:#9D7B55;}
	.st9{fill:#F5893D;}
	.st10{fill:#007078;}
	.st11{fill:none;}
	.st12{fill:#D2AF1F;stroke:#FFFFFF;stroke-width:0.75;stroke-linejoin:round;stroke-miterlimit:10;}
	.st13{fill-rule:evenodd;clip-rule:evenodd;fill:#D2AF1F;}
	.st14{fill:#FFFFFF;stroke:#FFFFFF;stroke-width:2;stroke-linejoin:round;stroke-miterlimit:10;}
</style>
<g>
	<g>
		<path class="st11" d="M10.9,11.7c0,0-0.2-0.7-0.5-1.5c-0.4,1.1-0.6,2.1-0.8,3.2c0,0,0,0,0,0c0.6-0.4,1.3-0.7,2-1.1
			C11.3,12.2,11.1,12,10.9,11.7z"/>
		<path class="st4" d="M23.3,10.8l-0.2-0.6C23,10,22.8,9.8,22.5,9.7c-0.2-0.1-0.4-0.2-0.6-0.2c-0.5-0.3-1.2-0.5-1.9-0.5
			c-1.9,0.1-2.9-0.8-3.8-3.2c-0.1-0.2-0.3-0.4-0.5-0.5c-0.2-0.1-0.5-0.1-0.7,0l-2.5,1.1c-0.2,0.1-0.4,0.3-0.5,0.6
			C11.5,5.3,10.3,4.3,8.4,4c0,0-0.1,0-0.1,0c0-0.1,0-0.3,0.1-0.4c0.1-0.2,0.1-0.5,0.1-0.7c0-0.3,0.1-0.7,0.2-1.1
			c0-0.2,0.1-0.4,0.1-0.6c0.1-0.5-0.2-1-0.7-1.1L7.7,0c-0.4-0.1-0.9,0.1-1,0.5L6.5,0.9L6.4,0.7C6.1,0.4,5.7,0.3,5.3,0.5L4.9,0.7
			C4.5,0.9,4.3,1.4,4.5,1.9l0.3,0.7C5,3,5.1,3.3,5.3,3.7c0,0,0,0,0,0.1C3,4,2.2,6,1.6,7.4C1.4,8.1,1.2,8.8,0.9,9.5
			c-0.1,0.3-0.2,0.6-0.3,0.9c-0.2,0.5,0.1,1,0.6,1.2l0.5,0.2c0.5,0.2,1-0.1,1.2-0.5l0.4-1c0.5,3.1,0.2,6.1-0.2,9
			c0,0.3,0,0.5,0.2,0.7c0.2,0.2,0.4,0.3,0.6,0.4l0.6,0.1c0.5,0.1,0.9-0.3,1-0.8l0.1-0.7c0.1-0.5,0.2-1.1,0.2-1.6
			c0.1-0.5,0.2-1.1,0.3-1.6c0.9,0.2,0.9,0.4,1,1.6c0,0.4,0,0.9,0.1,1.3c0,0.5,0,1,0.1,1.5c0,0.6,0.4,1.2,0.9,1.7
			c0.2,0.2,0.4,0.2,0.6,0.2c0.1,0,0.3,0,0.4-0.1c0.3-0.2,0.5-0.5,0.5-0.9l0-0.9c-0.1-1.6-0.2-3.1-0.1-4.6c0.5,0.4,1,0.6,1.4,0.5
			c0.3-0.1,0.4-0.1,0.4-0.1c0.1,0.1,0.2,0.5,0.3,0.8l0,0.1c0.1,0.4,0.3,0.7,0.4,1.1c0.4,0.7,0.5,1,0.3,1.5c-0.1,0.1-0.1,0.2-0.2,0.4
			c-0.2,0.4-0.5,0.8-0.6,1.2c-0.1,0.5,0.1,1.1,0.6,1.3c0.1,0.1,0.2,0.1,0.4,0.1c0.1,0.1,0.1,0.2,0.2,0.3l0.3,0.2
			c0.4,0.3,0.8,0.2,1.2,0l0.3-0.3c0.3-0.3,0.6-0.5,0.9-0.8l0,0l-0.2,0.7c-0.1,0.5,0.2,1,0.7,1.1l0.3,0.1c0.2,0.1,0.4,0.1,0.6,0
			c0.1,0.1,0.3,0.2,0.5,0.3L18,24c0.1,0,0.1,0,0.2,0c0.4,0,0.8-0.3,0.9-0.7c0.1-0.3,0.2-0.7,0.3-1c0.2-0.7,0.3-1.4,0.6-2
			c0.2-0.4,0.7-0.8,1.2-1.2c0.2-0.2,0.5-0.4,0.7-0.6c0.3-0.3,0.4-0.7,0.2-1l-0.2-0.5c-0.1-0.2-0.2-0.3-0.3-0.4l-0.7-0.1
			c0.2-0.1,0.4-0.3,0.4-0.6c0.1-0.3,0.1-0.6,0.2-0.9c0.2-0.7,0.3-1.4,0.4-2.1c0-0.2,0-0.3,0-0.5c0-0.1,0-0.3,0-0.4
			c0.1,0,0.2,0,0.4,0c0.3,0,0.6-0.1,0.8-0.4C23.4,11.4,23.4,11.1,23.3,10.8z"/>
	</g>
	<g>
		<g>
			<g>
				<path class="st7" d="M18.2,23.1c0.3-1.1,0.4-2.3,1-3.2c0.4-0.8,1.3-1.3,2.1-2c-0.1-0.2-0.1-0.2-0.2-0.5c-1.4,0-2.9,0-4.3,0
					c-2.5,0-3.5-1-3.6-3.5c0-0.3,0-0.7-0.1-1.3c-1.1,0.6-2,1-2.9,1.6c-0.1,0.1-0.2,0.4-0.2,0.5c0.2,0.2,0.5,0.5,0.7,0.4
					c1.4-0.5,1.6,0.3,1.9,1.5c0.3,1.1,1.3,1.9,0.7,3.2c-0.2,0.4-0.7,0.9-0.8,1.4c-0.1,0.3,0.3,0.4,0.5,0.2c0.3-0.4,0.7-0.9,1-1.3
					c0.1,0.1,0.1,0.1,0.2,0.1c-0.3,0.6-0.6,1.1-0.8,1.7c0.2,0.1,0.1,0.1,0.3,0.2c0.4-0.4,0.8-0.7,1.2-1.1c0.4-0.4,0.7-0.8,1.4-1
					c0.4-0.1,0.7,0.5,0.5,0.9c-0.2,0.7-0.3,1.2-0.4,1.7c0.3,0.1,0.2,0.1,0.4,0.1l1-2.3c0.1,0,0.1,0,0.2,0.1
					c-0.1,0.8-0.2,1.6-0.4,2.4C18,23,17.8,23,18.2,23.1z"/>
				<path class="st7" d="M11.2,7.5c-0.4-1.6-1.4-2.3-2.9-2.6C6.9,4.7,7.6,3.6,7.6,2.8c0-0.6,0.2-1.2,0.3-1.8C7.8,1,7.6,1,7.5,0.9
					c-0.2,0.5-0.4,1-0.7,1.6C6.3,2.1,6,1.7,5.7,1.3C5.6,1.4,5.5,1.5,5.3,1.5c0.3,0.6,0.5,1.2,0.8,1.8c0.2,0.6,0.5,1.3-0.4,1.3
					c-2,0.1-2.6,1.5-3.2,3c-0.4,1-0.6,2-1,2.9c0.2,0.1,0.4,0.1,0.5,0.2C2.5,9.6,3,8.4,3.5,7.2c1.4,4,1.2,8.1,0.5,12.2
					c0.2,0,0.4,0,0.6,0.1C4.8,18.6,4.9,17.8,5,17c0.1-0.9,0.3-1.7,0.4-2.5c2.2,0.3,2.5,0.6,2.6,2.6c0.1,0.9,0,1.8,0.1,2.8
					c0,0.4,0.2,0.7,0.6,1.1c-0.2-4.4-0.6-8.7,1.6-12.7c0.1,0.1,0.5,0.2,0.6,0.4c0.4,1,0.9,2.8,0.9,2.8l0.6-0.2L11.2,7.5z M9.8,7.3
					C9.3,9.3,8.7,11.4,8,13.4c-0.1,0.3-0.6,0.7-0.7,0.6c-0.7-0.3-1.8-0.6-1.9-1.1c-0.5-2.1-0.8-4.3-1-6.4c0-0.3,0.7-0.7,1.1-0.9
					C5.7,5.5,6.3,6,6.4,6.3c0.2,0.8,0.1,1.6,0.2,2.4c0.2,0,0.4,0,0.7,0c0-0.6,0-1.3,0-1.9c0-0.7,0.1-1.4,1-1.1C9,5.9,10.2,6,9.8,7.3
					z"/>
			</g>
		</g>
		<path class="st7" d="M15.1,14.1c0.4-0.6,0.9-1.2,1.3-1.8c0.1,0,0.2,0.1,0.2,0.1c-0.2,0.6-0.4,1.1-0.6,1.7c0.1,0.1,0.2,0.1,0.3,0.2
			c0.3-0.4,0.6-0.9,1-1.2c0.4-0.3,0.9-0.5,1.4-0.7c0.2,0.5,0.5,1,0.5,1.5c0,0.5-0.2,1-0.3,1.5c0.1,0,0.2,0.1,0.3,0.1
			c0.3-0.8,0.5-1.7,0.8-2.5c0.1,0,0.2,0,0.4,0.1c-0.1,0.9-0.2,1.8-0.4,2.8c0.1,0,0.3,0.1,0.4,0.1c0.2-1,0.5-1.9,0.6-2.9
			c0.1-0.8-0.2-1.7,1.4-1.7c-0.1-0.2-0.2-0.4-0.2-0.6c-0.7-0.2-1.4-0.7-2.1-0.7c-2.6,0.2-3.8-1.4-4.7-3.8c-0.8,0.4-1.6,0.7-2.3,1.1
			c0,0.1,0.1,0.3,0.1,0.4c1-0.3,1.8-0.3,2.3,0.8c0.5,1.3,1.3,2.5,0.1,3.9c-0.4,0.5-0.7,1-1,1.5C14.8,13.9,14.9,14,15.1,14.1z"/>
	</g>
</g>
</svg>
