<?xml version="1.0" encoding="utf-8"?>
<!-- Generator: Adobe Illustrator 21.1.0, SVG Export Plug-In . SVG Version: 6.00 Build 0)  -->
<svg version="1.1" id="Layer_1" xmlns="http://www.w3.org/2000/svg" xmlns:xlink="http://www.w3.org/1999/xlink" x="0px" y="0px"
	 viewBox="0 0 24 24" style="enable-background:new 0 0 24 24;" xml:space="preserve">
<style type="text/css">
	.st0{display:none;}
	.st1{display:inline;}
	.st2{fill:#CCCCCC;}
	.st3{fill:none;stroke:#CCCCCC;stroke-width:5.000000e-02;stroke-miterlimit:10;}
	.st4{fill:#FFFFFF;}
	.st5{fill:#1B60AA;}
	.st6{fill-rule:evenodd;clip-rule:evenodd;fill:#F5893D;}
	.st7{fill:#D2AF1F;}
	.st8{fill:#9D7B55;}
	.st9{fill:#F5893D;}
	.st10{fill:#007078;}
	.st11{fill:none;}
	.st12{fill:#D2AF1F;stroke:#FFFFFF;stroke-width:0.75;stroke-linejoin:round;stroke-miterlimit:10;}
	.st13{fill-rule:evenodd;clip-rule:evenodd;fill:#D2AF1F;}
	.st14{fill:#FFFFFF;stroke:#FFFFFF;stroke-width:2;stroke-linejoin:round;stroke-miterlimit:10;}
</style>
<g>
	<path class="st4" d="M19.2,13.7c0.8-0.6,1-1.3,1-1.7c0-0.9-0.7-1.7-2-2.4c1-0.7,1.3-1.5,1.3-2.2c0-1.6-1.4-3-3.7-3.8
		c0-0.1,0-0.1,0-0.2c0-1.5-2-2.7-4.5-2.7S6.8,1.9,6.8,3.4c0,0.3,0.1,0.5,0.2,0.7c-1.6,0.8-2.5,2-2.5,3.3c0,0.5,0.1,1.2,0.8,1.8
		C3.4,9.9,2.3,10.9,2.3,12c0,0.9,0.7,1.7,1.9,2.3C2.3,15,0,16.3,0,18.1c0,3.2,7.6,5.2,13,5.2c5.4,0,11-2,11-5.2
		C24,16.3,22.2,14.7,19.2,13.7z M7.7,6.2L7.3,6c0,0,0,0,0,0L7.7,6.2L7.7,6.2z"/>
	<g>
		<path class="st7" d="M18,14.3c-1.6,0.8-4,1.2-6.7,1.2c-2.1,0-4.1-0.3-5.6-0.8c-2.8,0.8-4.8,2.1-4.8,3.3c0,2.1,6.1,4.3,12.1,4.3
			c5.5,0,10.1-2,10.1-4.3C23.1,16.5,21,15.1,18,14.3z M5.3,16.4c-0.2,0.2-0.4,0.2-0.6,0.3c-0.5,0.3-0.8,0.8-0.7,1.4
			c0,0.4,0.2,0.7,0.4,1c0.1,0.1,0.5,0.5,0.3,0.6C4.3,20,3.2,19.2,3,19c-0.4-0.4-0.6-1-0.4-1.5c0.2-0.4,0.5-0.6,0.8-0.8
			c0.5-0.3,0.9-0.5,1.4-0.8c0.2-0.1,0.4-0.2,0.6,0C5.5,16,5.4,16.3,5.3,16.4z"/>
		<path class="st7" d="M5.7,14c0.2,0.1,0.4,0.1,0.7,0.2c0.3,0.1,0.5,0.1,0.8,0.2c1.2,0.3,2.5,0.4,4.1,0.4c2.1,0,4-0.3,5.3-0.8
			c0.3-0.1,0.5-0.2,0.7-0.3c0.2-0.1,0.4-0.2,0.6-0.3c0.9-0.5,1.4-1,1.4-1.5c0-0.7-0.8-1.4-2.3-1.9c-1.1,0.4-2.7,0.6-5,0.6
			c-2.7,0-4.5-0.4-5.6-0.9c-1.9,0.6-3.1,1.4-3.1,2.2C3.3,12.7,4.2,13.4,5.7,14z M4.7,11.3C4.9,11.1,5.1,11,5.3,11c0.1,0,0.1,0,0.2,0
			c0.1,0,0.1,0,0.2,0.1c0,0.1,0,0.1,0,0.2c0,0.1-0.1,0.1-0.1,0.1c-0.1,0.2-0.1,0.4,0,0.6c0.1,0.2,0.2,0.3,0.4,0.5
			C5.9,12.5,6,12.6,6,12.7c0,0.1-0.2,0.1-0.3,0.1c-0.4-0.1-0.7-0.1-1-0.4c-0.2-0.1-0.3-0.4-0.3-0.6C4.4,11.6,4.5,11.4,4.7,11.3z"/>
		<path class="st7" d="M6.5,9C6.6,9.1,6.8,9.2,7,9.2c0.2,0.1,0.5,0.2,0.7,0.2c1.4,0.4,3,0.5,4.3,0.5c1,0,2.4-0.1,3.6-0.3
			c0.3-0.1,0.5-0.1,0.8-0.2c0.2-0.1,0.4-0.1,0.6-0.2c1-0.4,1.6-1,1.6-1.8c0-1.3-1.4-2.5-3.4-3.1c-0.6,0.5-1.8,0.5-3.2,0.5
			c-0.1,0-0.2,0-0.3,0H11c-1.2,0-2.3,0-3-0.2C6.4,5.3,5.4,6.3,5.4,7.4C5.4,8.1,5.8,8.6,6.5,9z M6.4,7.2c0.1-0.4,0.4-0.8,0.7-1.2
			c0.1-0.2,0.8-0.4,0.6,0c0,0.1-0.1,0.2-0.2,0.3c-0.3,0.4-0.5,1-0.3,1.5c0,0.1,0,0.1,0,0.2c0,0.1-0.1,0.2-0.2,0.2
			c-0.1,0-0.2,0-0.3,0C6.5,8.1,6.3,7.6,6.4,7.2z"/>
		<path class="st7" d="M8,3.8C8.1,3.9,8.3,3.9,8.5,4C8.9,4,9.3,4.1,9.7,4.1c0.4,0,0.8,0,1.3,0h0.4h0.4c0.8,0,1.7,0,2.3-0.1
			c0.3,0,0.6-0.1,0.8-0.2c0,0,0.1,0,0.1-0.1c0,0,0.1-0.1,0.1-0.3c0,0,0,0,0-0.1c0-0.8-1.5-1.7-3.6-1.7S7.7,2.5,7.7,3.4
			c0,0.2,0.1,0.3,0.1,0.3C7.9,3.7,7.9,3.8,8,3.8z M8.4,2.9C8.4,2.8,9,2.4,9.1,2.5c0,0.1-0.1,0.3-0.2,0.4C8.8,3,8.7,3.1,8.6,3.2
			c0,0.1,0,0.2,0,0.2c-0.1,0.1-0.2,0.1-0.3,0C8.2,3.4,8.2,3.3,8.2,3.2C8.2,3.1,8.3,3,8.4,2.9z"/>
	</g>
</g>
</svg>
