<?xml version="1.0" encoding="utf-8"?>
<!-- Generator: Adobe Illustrator 21.1.0, SVG Export Plug-In . SVG Version: 6.00 Build 0)  -->
<svg version="1.1" id="Layer_1" xmlns="http://www.w3.org/2000/svg" xmlns:xlink="http://www.w3.org/1999/xlink" x="0px" y="0px"
	 viewBox="0 0 24 24" style="enable-background:new 0 0 24 24;" xml:space="preserve">
<style type="text/css">
	.st0{display:none;}
	.st1{display:inline;}
	.st2{fill:#CCCCCC;}
	.st3{fill:none;stroke:#CCCCCC;stroke-width:5.000000e-02;stroke-miterlimit:10;}
	.st4{fill:#FFFFFF;}
	.st5{fill:#1B60AA;}
	.st6{fill-rule:evenodd;clip-rule:evenodd;fill:#F5893D;}
	.st7{fill:#D2AF1F;}
	.st8{fill:#9D7B55;}
	.st9{fill:#F5893D;}
	.st10{fill:#007078;}
	.st11{fill:none;}
	.st12{fill:#D2AF1F;stroke:#FFFFFF;stroke-width:0.75;stroke-linejoin:round;stroke-miterlimit:10;}
	.st13{fill-rule:evenodd;clip-rule:evenodd;fill:#D2AF1F;}
	.st14{fill:#FFFFFF;stroke:#FFFFFF;stroke-width:2;stroke-linejoin:round;stroke-miterlimit:10;}
</style>
<g>
	<g>
		<path class="st4" d="M10.1,9.7c-0.4-0.2-0.8-0.2-1.2,0C8.7,9.7,8.5,9.8,8.3,9.9c0.1-0.6,0.1-1.2-0.2-1.7C7.5,6.9,5.9,6.3,4.6,6.9
			C3.7,7.3,3.2,8.1,3.1,9L2.5,8.5C2.2,8.2,1.7,8.1,1.3,8.1C0.8,8.2,0.4,8.5,0.2,8.9c-0.3,0.5-0.2,1.1,0.1,1.6
			C0.6,11,1.5,12.3,1.9,13l-0.3,1.3c-0.2,0.8-0.1,1.4,0,2c0,0,0.9,3.6,1.1,4.8c0.2,0.8,0.9,1.2,1.5,1.2c0,0,0,0,0,0
			c0.7,0,1.2-0.4,1.4-1c0.3,0.2,0.6,0.2,1,0.2c0.5-0.1,1-0.4,1.2-0.9l0.3-0.7c0.2-0.6,0.5-1.3,0.7-1.7c0.3-0.7,0.1-1.5-0.4-2.1
			c-0.2-0.2-0.6-0.7-0.9-1l0.1-0.6c1.4-1,2.3-1.6,2.7-1.9c0.5-0.4,0.7-1.1,0.5-1.7C10.8,10.2,10.5,9.9,10.1,9.7z"/>
		<path class="st4" d="M23.8,4.7c-0.2-0.5-0.7-0.8-1.2-0.9c-0.5-0.1-1,0.1-1.4,0.4l-1.4,1.2c0.1-1.3-0.6-2.7-1.9-3.3
			c-0.4-0.2-0.9-0.3-1.4-0.3c-1.3,0-2.4,0.7-3,1.9c-0.4,0.8-0.4,1.7-0.1,2.5c0,0.1,0.1,0.2,0.1,0.3c-0.6-0.3-1.1-0.5-1.5-0.6
			c-0.5-0.2-1-0.2-1.4,0c-0.4,0.2-0.8,0.6-0.9,1c-0.2,0.7,0,1.5,0.6,2c0.8,0.6,2.7,2,3.7,2.7l0.3,1.1c-0.4,0.5-1,1.1-1.4,1.5
			c-0.7,0.8-0.9,1.6-0.5,2.5c0.2,0.5,0.6,1.4,0.9,2.2l0.5,1.1c0.2,0.5,0.7,0.9,1.4,1c0.6,0.1,1.2-0.1,1.5-0.5c0,0,0,0,0,0
			c0.1,0.9,0.8,1.7,1.7,1.7c0,0,0,0,0,0c0.7,0,1.5-0.4,1.7-1.4c0.4-1.6,1.5-6.5,1.5-6.5c0.2-0.7,0.3-1.4,0-2.5l-0.4-1.9
			c0.6-0.9,1.8-2.7,2.4-3.5C24.1,5.9,24.1,5.2,23.8,4.7z"/>
	</g>
	<g>
		<path class="st7" d="M5.7,11c-0.7,0-1.3-0.4-1.6-1C3.8,9.2,4.1,8.2,5,7.8c0.2-0.1,0.5-0.2,0.7-0.2c0.7,0,1.3,0.4,1.6,1
			C7.5,9,7.5,9.5,7.3,9.9c-0.2,0.4-0.5,0.8-0.9,1C6.2,11,6,11,5.7,11"/>
		<path class="st7" d="M4.3,21.3c-0.2,0-0.5-0.1-0.6-0.5C3.4,19.6,2.6,16,2.6,16c-0.1-0.5-0.2-0.9,0-1.5l0.4-1.7
			C2.6,12.3,1.5,10.6,1,10C0.9,9.8,0.9,9.5,1,9.3C1.2,9,1.6,8.9,1.9,9.2L4,11.1c0.1,0.1,0.2,0.1,0.3,0.2l1.9,0.5c0.1,0,0.2,0,0.3,0
			l0.7-0.3c0.7-0.3,1.6-0.7,2-0.9c0.4-0.1,0.7,0,0.8,0.4c0.1,0.3,0,0.5-0.2,0.7c-0.7,0.5-2.5,1.8-3,2.1l-0.3,1.4
			c0.3,0.3,0.9,1,1.2,1.3c0.3,0.3,0.5,0.6,0.3,1.1c-0.2,0.5-0.5,1.3-0.8,1.9l-0.2,0.5c-0.2,0.4-0.7,0.5-1,0.2
			C6,20.1,5.9,19.9,6,19.7c0.1-0.5,0.3-1.5,0.4-1.9l-1.3-0.6c0,0.9-0.1,2.9-0.2,3.5C4.9,21,4.6,21.3,4.3,21.3"/>
		<path class="st7" d="M16.6,7.4c-0.3,0-0.7-0.1-1-0.2c-0.6-0.3-1-0.7-1.2-1.3c-0.2-0.6-0.2-1.2,0.1-1.8c0.4-0.8,1.2-1.4,2.1-1.4
			c0.3,0,0.7,0.1,1,0.2c1.2,0.5,1.7,1.9,1.1,3.1C18.3,6.9,17.5,7.4,16.6,7.4"/>
		<path class="st7" d="M18.5,21.3c-0.4,0-0.8-0.3-0.8-0.8c0-0.8-0.2-3.5-0.2-4.7l-1.8,0.8c0.1,0.6,0.4,2,0.5,2.6
			c0.1,0.3,0,0.5-0.2,0.7c-0.3,0.4-1.1,0.3-1.3-0.2L14.5,19c-0.4-0.8-0.8-2-1.1-2.6c-0.3-0.7,0-1.2,0.4-1.6c0.4-0.5,1.3-1.4,1.7-1.8
			L15,11c-0.6-0.4-3.1-2.2-4-2.9c-0.3-0.2-0.4-0.6-0.3-1c0.2-0.5,0.7-0.7,1.2-0.5c0.6,0.2,1.8,0.8,2.8,1.2l0.9,0.4
			c0.1,0.1,0.3,0.1,0.4,0l2.6-0.6c0.2,0,0.3-0.1,0.4-0.2l2.9-2.6c0.4-0.3,1-0.2,1.2,0.2c0.1,0.3,0.1,0.6-0.1,0.8
			c-0.6,0.9-2.2,3.2-2.6,3.8l0.5,2.3c0.2,0.8,0.1,1.4,0,2c0,0-1.2,4.9-1.5,6.5C19.2,21.1,18.8,21.3,18.5,21.3"/>
	</g>
</g>
</svg>
