<?xml version="1.0" encoding="utf-8"?>
<!-- Generator: Adobe Illustrator 21.1.0, SVG Export Plug-In . SVG Version: 6.00 Build 0)  -->
<svg version="1.1" id="Layer_1" xmlns="http://www.w3.org/2000/svg" xmlns:xlink="http://www.w3.org/1999/xlink" x="0px" y="0px"
	 viewBox="0 0 24 24" style="enable-background:new 0 0 24 24;" xml:space="preserve">
<style type="text/css">
	.st0{display:none;}
	.st1{display:inline;}
	.st2{fill:#CCCCCC;}
	.st3{fill:none;stroke:#CCCCCC;stroke-width:5.000000e-02;stroke-miterlimit:10;}
	.st4{fill:#FFFFFF;}
	.st5{fill:#1B60AA;}
	.st6{fill-rule:evenodd;clip-rule:evenodd;fill:#F5893D;}
	.st7{fill:#D2AF1F;}
	.st8{fill:#9D7B55;}
	.st9{fill:#F5893D;}
	.st10{fill:#007078;}
	.st11{fill:none;}
	.st12{fill:#D2AF1F;stroke:#FFFFFF;stroke-width:0.75;stroke-linejoin:round;stroke-miterlimit:10;}
	.st13{fill-rule:evenodd;clip-rule:evenodd;fill:#D2AF1F;}
	.st14{fill:#FFFFFF;stroke:#FFFFFF;stroke-width:2;stroke-linejoin:round;stroke-miterlimit:10;}
</style>
<g>
	<path class="st4" d="M19.4,13.9l-0.1-0.4c-0.1-0.3-0.3-0.5-0.6-0.6v-0.1c0-0.4-0.3-0.8-0.7-0.9l-0.3-0.1c-0.1-0.1-0.1-0.3-0.2-0.4
		c-0.2-0.2-0.3-0.3-0.3-0.4c0,0,0-0.1,0-0.1c0,0,0-0.1,0-0.1c-0.1-2.5-1-4.3-2.7-5.2V5.2c0-0.3-0.1-0.5-0.4-0.7c0,0,0,0,0,0
		c-0.1-0.3-0.3-0.8-0.6-1.1l-0.4-2.5c0-0.4-0.4-0.8-0.8-0.8c-0.5,0-0.9,0.3-1,0.8l-0.4,2.5c-0.4,0.4-0.6,0.8-0.7,1.2c0,0,0,0,0,0
		C9.8,4.7,9.7,4.9,9.7,5.2v0.5C8,6.6,7.1,8.4,7,10.9c0,0,0,0.1,0,0.1c0,0,0,0.1,0,0.1c0,0-0.1,0.1-0.2,0.3c-0.1,0.1-0.2,0.2-0.2,0.3
		l-0.4,0.1c-0.4,0.1-0.8,0.5-0.8,0.9V13c-0.3,0.1-0.5,0.3-0.6,0.6l-0.1,0.4c0,0.1-0.1,0.2-0.1,0.3c0,0.3,0.1,0.7,0.5,0.8l0.6,0.4v4
		c-0.3,0.2-0.5,0.5-0.5,0.8v1.6c0,0.4,0.2,0.7,0.6,0.9l3.4,1.2C9.2,24,9.3,24,9.4,24h5c0.1,0,0.2,0,0.3-0.1l3.6-1.3
		c0.4-0.1,0.6-0.5,0.6-0.9v-1.5c0-0.4-0.2-0.7-0.5-0.8v-4l0.6-0.4C19.4,14.8,19.5,14.4,19.4,13.9z"/>
	<g>
		<path class="st7" d="M12.4,3.8L12,0.9v0l-0.4,2.9C11.2,4,11,4.5,10.9,4.7h2.1C13,4.5,12.8,4,12.4,3.8z"/>
		<path class="st7" d="M14.4,19.7H9.5L6,20.2v1.6l3.4,1.2h5l3.6-1.3v-1.5L14.4,19.7z M9.6,22.7H9.2v-2.6h0.5V22.7z M14.2,22.7v-2.6
			h0.5v2.6H14.2z"/>
		<polygon class="st7" points="7.9,19.5 7.9,14.9 6.6,15.1 6.6,19.7 		"/>
		<path class="st7" d="M9.5,14.6l-1.2,0.2v4.6l1.2-0.2l4.9,0l1.2,0.2v-4.6l-1.3-0.2H9.5z M11.9,18.8c-1.1,0-2-0.9-2-2s0.9-2,2-2
			s2,0.9,2,2S13,18.8,11.9,18.8z"/>
		<path class="st7" d="M11.9,15.3c-0.9,0-1.6,0.7-1.6,1.6c0,0.9,0.7,1.6,1.6,1.6c0.9,0,1.6-0.7,1.6-1.6C13.5,16,12.8,15.3,11.9,15.3
			z M11.6,17.5l-0.3-0.4l0.5-0.4l-0.4-1.1l0.4-0.2l0.6,1.4L11.6,17.5z"/>
		<polygon class="st7" points="8.9,12.9 9.3,12.9 10.1,12.9 10.1,12.2 9.3,12.2 8.9,12.3 		"/>
		<path class="st7" d="M13.5,10.6l2.6,0.4c0-1-0.2-3.6-2.7-4.7h0c0,0,0,0,0,0V5.2h-2.8v1.1c0,0,0,0,0,0c0,0,0,0,0,0h0
			C8.1,7.3,7.9,10,7.9,10.9l2.5-0.4L13.5,10.6z"/>
		<polygon class="st7" points="17.4,19.7 17.4,15.1 16.1,14.9 16.1,19.5 		"/>
		<polygon class="st7" points="15.3,13 17.2,13.2 17.2,13.2 17.7,13.3 17.7,12.9 15.3,12.4 		"/>
		<path class="st7" d="M8,12l0.4-0.1v0l0.8-0.1h1.2v0l2.6,0v0l1.3,0l0.1,0l1.2,0.2l0,0l1,0.2c-0.2-0.2-0.5-0.5-0.6-0.8L13.5,11h-3.1
			l-2.5,0.4c-0.1,0.3-0.3,0.5-0.5,0.7L8,12L8,12z"/>
		<polygon class="st7" points="6.6,13.2 8.5,13 8.5,12.4 6.3,12.8 6.3,13.3 6.6,13.2 		"/>
		<polygon class="st7" points="6.2,14.7 9.5,14.2 14.4,14.2 17.8,14.7 18.5,14.3 18.4,13.9 15.3,13.5 15.3,13.5 14.4,13.4 
			13.2,13.4 10.6,13.4 9.3,13.4 5.6,13.8 5.5,14.2 5.5,14.2 5.5,14.3 		"/>
		<polygon class="st7" points="15.3,13 17.2,13.2 17.2,13.2 		"/>
		<polygon class="st7" points="14.5,11.8 15.7,12 15.8,12 		"/>
		<polygon class="st7" points="6.6,13.2 8.5,13 6.6,13.2 		"/>
		<polygon class="st7" points="8,12 8.5,11.9 8,12 		"/>
		<rect x="10.6" y="12.2" class="st7" width="2.6" height="0.7"/>
		<polygon class="st7" points="13.6,12.2 13.6,12.9 14.4,12.9 14.5,12.9 14.8,12.9 14.8,12.3 14.4,12.2 		"/>
	</g>
</g>
</svg>
