<?xml version="1.0" encoding="utf-8"?>
<!-- Generator: Adobe Illustrator 21.1.0, SVG Export Plug-In . SVG Version: 6.00 Build 0)  -->
<svg version="1.1" id="Layer_1" xmlns="http://www.w3.org/2000/svg" xmlns:xlink="http://www.w3.org/1999/xlink" x="0px" y="0px"
	 viewBox="0 0 24 24" style="enable-background:new 0 0 24 24;" xml:space="preserve">
<style type="text/css">
	.st0{display:none;}
	.st1{display:inline;}
	.st2{fill:#CCCCCC;}
	.st3{fill:none;stroke:#CCCCCC;stroke-width:5.000000e-02;stroke-miterlimit:10;}
	.st4{fill:#FFFFFF;}
	.st5{fill:#1B60AA;}
	.st6{fill-rule:evenodd;clip-rule:evenodd;fill:#F5893D;}
	.st7{fill:#D2AF1F;}
	.st8{fill:#9D7B55;}
	.st9{fill:#F5893D;}
	.st10{fill:#007078;}
	.st11{fill:none;}
	.st12{fill:#D2AF1F;stroke:#FFFFFF;stroke-width:0.75;stroke-linejoin:round;stroke-miterlimit:10;}
	.st13{fill-rule:evenodd;clip-rule:evenodd;fill:#D2AF1F;}
	.st14{fill:#FFFFFF;stroke:#FFFFFF;stroke-width:2;stroke-linejoin:round;stroke-miterlimit:10;}
</style>
<g>
	<path class="st4" d="M23.7,21.1l-2.3-2.3c0,0,0,0,0,0c1.8-2.5,1.6-5.7-0.4-7.1c-1.7-1.2-4.1-0.9-5.9,0.8L15,12.3l0.2-0.1
		c0.3-0.3,0.5-0.7,0.3-1.1c-0.2-0.5,0-1.1,0.4-1.4c0.4-0.3,0.9-0.2,1.3,0.1c0.3,0.3,0.8,0.3,1.1,0l3.2-2.4c0.4-0.3,0.5-0.8,0.2-1.2
		l-2.8-4.4c-0.2-0.4-0.7-0.5-1.1-0.4L9.9,4.7C9.6,4.8,9.4,5,9.3,5.2c0,0,0,0,0,0c0,0,0,0,0,0c-0.2-0.1-0.5-0.1-0.7,0L8.1,5.4
		L5.2,2.6c-0.4-0.4-0.9-0.4-1.3,0L3.3,3.2C3.1,3.4,3,3.6,3,3.9c0,0.2,0.1,0.5,0.3,0.7l2,2L0.6,8.5C0.3,8.6,0.1,8.8,0,9.1
		C0,9.3,0,9.6,0.1,9.8l5.4,8.4c0.1,0.2,0.4,0.4,0.6,0.4c0.3,0,0.5,0,0.7-0.2l5.9-4.5l0.7,0.7c-1,2.3-0.6,4.7,1.1,6
		c1.4,1,3.2,1,4.9,0l1.4,1.4c0.1,0.1,0.3,0.2,0.5,0.3l1.6,0.3c0.1,0,0.1,0,0.2,0c0.3,0,0.7-0.2,0.8-0.5C24.1,21.8,24,21.3,23.7,21.1
		z"/>
	<path class="st9" d="M10.2,5.5c0.2,0.3,0.1,0.7-0.2,0.9C9.6,6.7,9.2,6.6,9,6.3c0-0.1-0.1-0.1-0.1-0.2l-1,0.4L4.6,3.2L3.9,3.9l3,3
		l-6,2.5l5.4,8.4l6.5-5l1.8,1.8c-1.2,2-1,4.3,0.5,5.4c1.2,0.9,3,0.7,4.4-0.4l2,2l1.6,0.3l-2.9-2.9c0.2-0.2,0.4-0.4,0.5-0.6
		c1.5-2.1,1.4-4.7-0.2-5.8c-1.5-1.1-3.9-0.5-5.4,1.4l-1.6-1.6l1-0.8c-0.4-0.9-0.1-2,0.8-2.6c0.8-0.5,1.7-0.4,2.4,0.1L21,6.6
		l-2.8-4.4L10.2,5.5z M6.2,13.2c0.1,0.2,0.1,0.5-0.1,0.7c-0.2,0.1-0.5,0.1-0.7-0.1c-0.1-0.2-0.1-0.5,0.1-0.7C5.7,12.9,6,13,6.2,13.2
		z M6.3,10.8c0.2,0.3,0.1,0.8-0.2,1c-0.3,0.2-0.8,0.1-1-0.2c-0.2-0.3-0.1-0.8,0.2-1C5.6,10.4,6,10.5,6.3,10.8z M17.7,12.8
		c0.5-0.3,1.2-0.3,1.4,0.1c0.3,0.4,0,1-0.5,1.3c-0.5,0.3-1.2,0.3-1.4-0.1C16.9,13.8,17.1,13.2,17.7,12.8z M19,6.1
		c-0.1,0.5-0.6,0.8-1.1,0.7c-0.5-0.1-0.8-0.6-0.7-1.1c0.1-0.5,0.6-0.8,1.1-0.7C18.8,5.2,19.1,5.7,19,6.1z"/>
</g>
</svg>
