<?xml version="1.0" encoding="utf-8"?>
<!-- Generator: Adobe Illustrator 21.1.0, SVG Export Plug-In . SVG Version: 6.00 Build 0)  -->
<svg version="1.1" id="Layer_1" xmlns="http://www.w3.org/2000/svg" xmlns:xlink="http://www.w3.org/1999/xlink" x="0px" y="0px"
	 viewBox="0 0 24 24" style="enable-background:new 0 0 24 24;" xml:space="preserve">
<style type="text/css">
	.st0{display:none;}
	.st1{display:inline;}
	.st2{fill:#CCCCCC;}
	.st3{fill:none;stroke:#CCCCCC;stroke-width:5.000000e-02;stroke-miterlimit:10;}
	.st4{fill:#FFFFFF;}
	.st5{fill:#1B60AA;}
	.st6{fill-rule:evenodd;clip-rule:evenodd;fill:#F5893D;}
	.st7{fill:#D2AF1F;}
	.st8{fill:#9D7B55;}
	.st9{fill:#F5893D;}
	.st10{fill:#007078;}
	.st11{fill:none;}
	.st12{fill:#D2AF1F;stroke:#FFFFFF;stroke-width:0.75;stroke-linejoin:round;stroke-miterlimit:10;}
	.st13{fill-rule:evenodd;clip-rule:evenodd;fill:#D2AF1F;}
	.st14{fill:#FFFFFF;stroke:#FFFFFF;stroke-width:2;stroke-linejoin:round;stroke-miterlimit:10;}
</style>
<g>
	<path class="st4" d="M23.3,9.5C23.3,9.5,23.3,9.5,23.3,9.5c-0.6-0.8-1.4-1.2-2.4-1.2h-1.3V7.9c0-0.5-0.4-0.9-0.9-0.9h-5
		c0,0,0.1,0,0.1-0.1c1.2-2,0.4-3.2-0.1-3.9c-0.4-0.6-0.4-0.6,0-1.3c0.1-0.2,0.2-0.5,0.1-0.7s-0.2-0.4-0.4-0.6l-0.5-0.3
		c-0.4-0.3-1-0.1-1.3,0.3c-1.2,2-0.4,3.2,0.1,3.9C11.9,4.9,12,5,11.6,5.6c-0.3,0.4-0.1,1,0.3,1.3L12,7h-1.7c0,0,0.1,0,0.1-0.1
		c1.2-2,0.4-3.2-0.1-3.9c-0.4-0.6-0.4-0.6,0-1.3c0.1-0.2,0.2-0.5,0.1-0.7c-0.1-0.2-0.2-0.4-0.4-0.6L9.5,0.1C9-0.1,8.5,0,8.2,0.4
		C7,2.4,7.8,3.6,8.3,4.3C8.7,4.9,8.7,5,8.4,5.6c-0.3,0.4-0.1,1,0.3,1.3L8.8,7H7.1c0,0,0.1,0,0.1-0.1C8.3,4.9,7.5,3.7,7,3
		C6.6,2.4,6.6,2.3,7,1.7C7.1,1.5,7.1,1.2,7.1,1C7,0.8,6.9,0.6,6.7,0.4L6.2,0.1C5.8-0.1,5.2,0,4.9,0.4C3.7,2.4,4.5,3.6,5,4.3
		C5.4,4.9,5.5,5,5.1,5.6C4.8,6.1,5,6.6,5.4,6.9L5.5,7H1.1C0.6,7,0.1,7.4,0.1,7.9v5.5c0,2.9,1.3,5.6,3.5,7.4H1.1
		c-0.5,0-0.9,0.4-0.9,0.9v1.4c0,0.5,0.4,0.9,0.9,0.9h17.5c0.5,0,0.9-0.4,0.9-0.9v-1.4c0-0.5-0.4-0.9-0.9-0.9H16
		c1.2-1,2.2-2.4,2.8-3.9c2.3-0.7,4.2-2.5,4.9-4.8C24,11.2,23.8,10.2,23.3,9.5z"/>
	<g>
		<path class="st9" d="M22.5,10c-0.4-0.5-1-0.8-1.7-0.8h-2.3V7.9H1.1v5.5c0,3.9,2.6,7.2,6.1,8.4H1.1v1.4h17.5v-1.4h-6.1
			c2.7-0.8,4.8-2.9,5.7-5.6c2.2-0.5,4-2.1,4.7-4.3C23,11.2,22.9,10.5,22.5,10z M21.3,11.3c-0.4,1.4-1.4,2.4-2.7,2.9
			c0-0.3,0.1-0.6,0.1-0.9v-2.5h2.3c0.2,0,0.3,0.1,0.3,0.2C21.2,11.1,21.3,11.2,21.3,11.3z"/>
		<path class="st9" d="M12.4,6.1l0.5,0.3c0.9-1.4,0.4-2.2-0.1-2.9c-0.4-0.6-0.8-1.1-0.1-2.3l-0.5-0.3c-0.9,1.5-0.4,2.2,0.1,2.9
			C12.7,4.5,13.1,5,12.4,6.1z"/>
		<path class="st9" d="M9.1,6.1l0.5,0.3c0.9-1.4,0.4-2.2-0.1-2.9C9.1,2.9,8.7,2.4,9.4,1.2L9,0.9C8.1,2.4,8.6,3.1,9.1,3.8
			C9.5,4.5,9.8,5,9.1,6.1z"/>
		<path class="st9" d="M5.9,6.1l0.5,0.3c0.9-1.4,0.4-2.2-0.1-2.9C5.8,2.9,5.5,2.4,6.2,1.2L5.7,0.9C4.8,2.4,5.3,3.1,5.8,3.8
			C6.2,4.5,6.6,5,5.9,6.1z"/>
	</g>
</g>
</svg>
