<?xml version="1.0" encoding="utf-8"?>
<!-- Generator: Adobe Illustrator 21.1.0, SVG Export Plug-In . SVG Version: 6.00 Build 0)  -->
<svg version="1.1" id="Layer_1" xmlns="http://www.w3.org/2000/svg" xmlns:xlink="http://www.w3.org/1999/xlink" x="0px" y="0px"
	 viewBox="0 0 24 24" style="enable-background:new 0 0 24 24;" xml:space="preserve">
<style type="text/css">
	.st0{display:none;}
	.st1{display:inline;}
	.st2{fill:#CCCCCC;}
	.st3{fill:none;stroke:#CCCCCC;stroke-width:5.000000e-02;stroke-miterlimit:10;}
	.st4{fill:#FFFFFF;}
	.st5{fill:#1B60AA;}
	.st6{fill-rule:evenodd;clip-rule:evenodd;fill:#F5893D;}
	.st7{fill:#D2AF1F;}
	.st8{fill:#9D7B55;}
	.st9{fill:#F5893D;}
	.st10{fill:#007078;}
	.st11{fill:none;}
	.st12{fill:#D2AF1F;stroke:#FFFFFF;stroke-width:0.75;stroke-linejoin:round;stroke-miterlimit:10;}
	.st13{fill-rule:evenodd;clip-rule:evenodd;fill:#D2AF1F;}
	.st14{fill:#FFFFFF;stroke:#FFFFFF;stroke-width:2;stroke-linejoin:round;stroke-miterlimit:10;}
</style>
<g>
	<path class="st4" d="M24,11.2c-0.1-2-1.5-3.7-3.5-4.1L23,2.8C23.1,2.5,23.1,2.3,23,2c-0.1-0.2-0.2-0.4-0.4-0.6l-1-0.5
		c-0.2-0.1-0.5-0.1-0.7-0.1c-0.2,0.1-0.4,0.2-0.5,0.5L18,5.8l0.8-4.1c0-0.2,0-0.5-0.1-0.7c-0.1-0.2-0.4-0.3-0.6-0.4L17,0.4
		c-0.2,0-0.5,0-0.7,0.1C16.1,0.7,16,0.9,16,1.1l-0.9,4.9c-0.6,0-1.2,0.1-1.8,0.3c-1.4-1.6-3.5-2.6-5.7-2.6c-4.1,0-7.4,3.2-7.6,7.3
		c0,0.2,0,0.3,0.1,0.4C0,11.7,0,11.9,0,12.1c0.2,6.5,5.5,11.6,12,11.6c6.5,0,11.8-5.1,12-11.6c0-0.2,0-0.3-0.1-0.4
		C24,11.5,24,11.3,24,11.2z"/>
	<g>
		<path class="st9" d="M15.8,12L15.8,12h-0.9h-14C1.1,18,6,22.7,12,22.7c6,0,10.9-4.7,11.1-10.7h-6.4H15.8z"/>
		<g>
			<path class="st9" d="M19.7,7.9c-0.2,0-0.5,0-0.7,0.1l2.8-5l0.4-0.7l-1-0.5L20.6,3l-2.7,5l-1.7,3.2h0h0.9h2.3h3.6
				C23,9.4,21.5,7.9,19.7,7.9z M19.2,10.5L19.2,10.5c0,0.3-0.1,0.5-0.3,0.5c0,0,0,0,0,0c0,0-0.1,0-0.1-0.1c-0.1-0.1-0.1-0.4-0.1-0.5
				c0-0.1,0-0.3,0.1-0.3c0.1-0.2,0.2-0.2,0.2-0.2C19.2,9.9,19.2,10.2,19.2,10.5z M19.8,9c-0.1,0.1-0.3,0.2-0.5,0.2
				c-0.1,0-0.1,0-0.1-0.1c0,0,0-0.1,0-0.1c0-0.2,0.2-0.4,0.3-0.4c0.2-0.2,0.5-0.3,0.6-0.2v0C20.2,8.6,20,8.8,19.8,9z M21,10.3
				c-0.3,0-0.6-0.1-0.6-0.3s0.3-0.3,0.6-0.3c0.3,0,0.6,0.1,0.6,0.3S21.3,10.3,21,10.3z"/>
			<polygon class="st9" points="17.9,1.5 16.9,1.3 16.6,3 15.8,7 15.1,11.2 16,11.2 16.8,7.3 17.6,3 			"/>
			<path class="st9" d="M17.5,7.7c-0.2-0.2-0.5-0.3-0.8-0.4l-0.6,3L17.5,7.7z"/>
			<path class="st9" d="M15.1,7c-0.8,0-1.5,0.2-2.1,0.6c-1.2-1.7-3.2-2.8-5.4-2.8c-3.6,0-6.5,2.9-6.7,6.4h9.8h3.5h0.3L15.3,7
				C15.2,7,15.2,7,15.1,7z M3,10.6c0,0-0.1,0-0.1,0c-0.2,0-0.3-0.1-0.4-0.1C2.2,10.4,2,10.2,2,10.1c0.1-0.2,0.4-0.1,0.6,0
				C2.9,10.1,3.2,10.3,3,10.6C3.1,10.5,3.1,10.5,3,10.6z M4,9.3C3.9,9.3,3.9,9.3,4,9.3c-0.1,0-0.1,0-0.1,0C3.7,9.2,3.6,8.9,3.6,8.8
				c0-0.3,0-0.6,0.2-0.6c0,0,0.1,0,0.1,0C4,8.4,4.1,8.6,4.1,8.7C4.2,9,4.1,9.3,4,9.3z M4.9,6.8c0,0.1-0.1,0.4-0.3,0.4
				c0,0-0.1,0-0.1,0c0,0,0,0-0.1,0c0,0-0.1,0-0.1-0.1c-0.1-0.2,0-0.4,0-0.5c0.1-0.3,0.3-0.5,0.4-0.5C5,6.2,5,6.5,4.9,6.8z M5.7,9.1
				C5.5,9.1,5.5,8.8,5.6,8.5C5.7,8.3,5.8,8,6,8l0,0c0.2,0.1,0.2,0.4,0.1,0.6C6,8.9,5.9,9.1,5.7,9.1C5.7,9.1,5.7,9.1,5.7,9.1z
				 M6.4,10.5c-0.1,0.1-0.3,0.2-0.5,0.2c-0.1,0-0.1,0-0.1-0.1l0,0c-0.1-0.1,0.1-0.4,0.3-0.6c0.2-0.2,0.5-0.3,0.6-0.2
				c0,0,0,0.1,0,0.1C6.7,10.2,6.5,10.4,6.4,10.5z M7.2,7.6c-0.3,0-0.6-0.1-0.6-0.3S6.9,7,7.2,7c0.3,0,0.6,0.1,0.6,0.3
				S7.5,7.6,7.2,7.6z M8,6.5C7.9,6.6,7.9,6.6,8,6.5c-0.2,0-0.4-0.1-0.5-0.3c0-0.1-0.2-0.3-0.2-0.5c0-0.1,0-0.1,0.1-0.1
				c0,0,0.1,0,0.1,0c0.2,0,0.3,0.3,0.4,0.4C7.9,6,8.1,6.3,8,6.4C8,6.5,8,6.5,8,6.5z M9.2,10.5c0,0-0.1,0.1-0.1,0.1c0,0,0,0,0,0
				c-0.2,0-0.4-0.2-0.5-0.2C8.4,10.2,8.3,10,8.2,9.9c0-0.1,0-0.1,0-0.1h0c0,0,0.1-0.1,0.1-0.1c0,0,0,0,0,0c0.2,0,0.4,0.2,0.5,0.2
				C9.1,10.1,9.3,10.3,9.2,10.5z M9.8,8.6C9.7,8.7,9.4,8.8,9.3,8.9c-0.1,0-0.2,0-0.3,0c-0.2,0-0.3,0-0.3-0.2c0-0.2,0.2-0.3,0.5-0.4
				h0c0.1,0,0.4-0.1,0.5,0c0.1,0,0.1,0.1,0.1,0.1C9.8,8.5,9.8,8.5,9.8,8.6z M10.5,7c-0.1,0.2-0.2,0.5-0.4,0.5c0,0,0,0-0.1,0
				C9.9,7.4,9.9,7.1,10,6.9c0-0.1,0.1-0.4,0.3-0.4c0.1,0,0.1,0,0.1,0c0,0,0.1,0,0.1,0.1C10.6,6.6,10.6,6.9,10.5,7z M11.5,9.8
				C11.5,9.9,11.5,9.9,11.5,9.8c-0.1,0-0.1,0-0.1,0c-0.2,0-0.3-0.3-0.4-0.4c-0.1-0.2-0.2-0.5-0.1-0.6l0,0c0.2-0.1,0.4,0.1,0.5,0.4
				c0,0.1,0.2,0.3,0.1,0.5C11.6,9.8,11.5,9.8,11.5,9.8z M13.3,10.5c-0.1,0.1-0.4,0.2-0.5,0.2c-0.1,0-0.1,0-0.2,0
				c-0.2,0-0.4-0.1-0.4-0.2c0-0.2,0.3-0.3,0.5-0.3c0.1,0,0.4,0,0.5,0.1c0.1,0,0.1,0.1,0.1,0.1C13.4,10.4,13.4,10.5,13.3,10.5z
				 M13.8,8.9c-0.1,0.2-0.3,0.4-0.4,0.4c0,0,0,0-0.1,0c-0.2-0.1-0.1-0.4,0-0.6c0.1-0.2,0.3-0.5,0.5-0.4C14,8.3,14,8.6,13.8,8.9z"/>
		</g>
	</g>
</g>
</svg>
