<?xml version="1.0" encoding="utf-8"?>
<!-- Generator: Adobe Illustrator 21.1.0, SVG Export Plug-In . SVG Version: 6.00 Build 0)  -->
<svg version="1.1" id="Layer_1" xmlns="http://www.w3.org/2000/svg" xmlns:xlink="http://www.w3.org/1999/xlink" x="0px" y="0px"
	 viewBox="0 0 24 24" style="enable-background:new 0 0 24 24;" xml:space="preserve">
<style type="text/css">
	.st0{display:none;}
	.st1{display:inline;}
	.st2{fill:#CCCCCC;}
	.st3{fill:none;stroke:#CCCCCC;stroke-width:5.000000e-02;stroke-miterlimit:10;}
	.st4{fill:#FFFFFF;}
	.st5{fill:#1B60AA;}
	.st6{fill-rule:evenodd;clip-rule:evenodd;fill:#F5893D;}
	.st7{fill:#D2AF1F;}
	.st8{fill:#9D7B55;}
	.st9{fill:#F5893D;}
	.st10{fill:#007078;}
	.st11{fill:none;}
	.st12{fill:#D2AF1F;stroke:#FFFFFF;stroke-width:0.75;stroke-linejoin:round;stroke-miterlimit:10;}
	.st13{fill-rule:evenodd;clip-rule:evenodd;fill:#D2AF1F;}
	.st14{fill:#FFFFFF;stroke:#FFFFFF;stroke-width:2;stroke-linejoin:round;stroke-miterlimit:10;}
</style>
<g>
	<path class="st4" d="M23.5,14.7v-3.4c0-0.4-0.2-0.7-0.6-0.9L21,9.7l-1-4.5c-0.1-0.4-0.5-0.7-0.9-0.7H1.6C1.1,4.6,0.6,5,0.6,5.5v9.2
		C0.3,14.8,0,15.1,0,15.5v1.1c0,0.5,0.4,0.9,0.9,0.9h1.1c0.1,0,0.1,0,0.2,0c0.1,0,0.1,0,0.2,0h1.1c0.4,1.1,1.4,1.9,2.7,1.9
		s2.3-0.8,2.7-1.9H15c0.4,1.1,1.4,1.9,2.7,1.9c1.2,0,2.3-0.8,2.7-1.9h1.3c0.1,0,0.1,0,0.2,0c0.1,0,0.1,0,0.2,0h1.1
		c0.5,0,0.9-0.4,0.9-0.9v-1.1C24,15.2,23.8,14.9,23.5,14.7z"/>
	<g>
		<circle class="st9" cx="6.2" cy="16.6" r="1.9"/>
		<polygon class="st9" points="22.6,15.5 22.6,15.5 22,15.5 22,16.6 22.6,16.6 23.1,16.6 23.1,15.5 		"/>
		<path class="st9" d="M22.6,11.3l-2.4-0.8l-1.1-5H1.6v9.7h0.7c0.1,0,0.2,0.1,0.2,0.2v1.3H4c0-1.2,1-2.2,2.2-2.2
			c1.2,0,2.2,1,2.2,2.2h7c0-1.2,1-2.2,2.2-2.2s2.2,1,2.2,2.2h1.5h0.3v-1.3c0-0.1,0.1-0.2,0.2-0.2h0.8V11.3z M14,12.2H4.3V7
			c0,0.6,0.5,1.1,1.1,1.1c0.4,0,0.7-0.2,0.9-0.5C6.5,8,6.9,8.2,7.3,8.2C7.7,8.2,8,8,8.2,7.7C8.4,8,8.8,8.2,9.1,8.2S9.9,8,10.1,7.7
			C10.3,8,10.6,8.2,11,8.2c0.4,0,0.7-0.2,0.9-0.5c0.2,0.3,0.5,0.5,0.9,0.5C13.5,8.2,14,7.7,14,7V12.2z M16.5,10.1V6.8h2.1l0.7,3.3
			H16.5z"/>
		<polygon class="st9" points="1.6,15.5 0.9,15.5 0.9,16.6 1.6,16.6 2.1,16.6 2.1,15.5 1.6,15.5 		"/>
		<circle class="st9" cx="17.7" cy="16.6" r="1.9"/>
	</g>
</g>
</svg>
