<?xml version="1.0" encoding="utf-8"?>
<!-- Generator: Adobe Illustrator 21.1.0, SVG Export Plug-In . SVG Version: 6.00 Build 0)  -->
<svg version="1.1" id="Layer_1" xmlns="http://www.w3.org/2000/svg" xmlns:xlink="http://www.w3.org/1999/xlink" x="0px" y="0px"
	 viewBox="0 0 24 24" style="enable-background:new 0 0 24 24;" xml:space="preserve">
<style type="text/css">
	.st0{display:none;}
	.st1{display:inline;}
	.st2{fill:#CCCCCC;}
	.st3{fill:none;stroke:#CCCCCC;stroke-width:5.000000e-02;stroke-miterlimit:10;}
	.st4{fill:#FFFFFF;}
	.st5{fill:#1B60AA;}
	.st6{fill-rule:evenodd;clip-rule:evenodd;fill:#F5893D;}
	.st7{fill:#D2AF1F;}
	.st8{fill:#9D7B55;}
	.st9{fill:#F5893D;}
	.st10{fill:#007078;}
	.st11{fill:none;}
	.st12{fill:#D2AF1F;stroke:#FFFFFF;stroke-width:0.75;stroke-linejoin:round;stroke-miterlimit:10;}
	.st13{fill-rule:evenodd;clip-rule:evenodd;fill:#D2AF1F;}
	.st14{fill:#FFFFFF;stroke:#FFFFFF;stroke-width:2;stroke-linejoin:round;stroke-miterlimit:10;}
</style>
<g>
	<path class="st4" d="M21.2,11.9c0-1.8-1.2-3.3-2.8-3.8c0.1-1.4-0.4-2.3-0.8-2.8c-0.5-0.6-1.3-1.1-2.2-1.2c-0.2-1.9-1.5-3.4-3.6-4
		c-0.3-0.1-0.6,0-0.9,0.2c-0.2,0.2-0.3,0.5-0.3,0.8c0.2,1.1-0.2,1.3-1.4,1.9C8.5,3.4,7.7,3.8,7.2,4.6c-0.7,1-0.8,2.2-0.4,3.4
		c0,0,0,0,0,0c-0.1,0-0.1,0-0.2,0C4.7,8,2.8,9.6,2.8,11.9c0,1.2,0.5,2,1,2.5c-0.1,0.2-0.1,0.5,0,0.8L7,23.4C7.2,23.8,7.5,24,7.9,24
		h8.2c0.4,0,0.7-0.2,0.9-0.6l3.3-8.3c0.1-0.3,0.1-0.6-0.1-0.8C20.6,13.9,21.2,13.1,21.2,11.9z"/>
	<g>
		<path class="st6" d="M9.2,18.9l0-4.2h1.9l0.9,4.2l0.9-4.2h1.9l0,4.2l1.8-4.2h2.8l-3.3,8.3H7.9l-3.3-8.3h2.8L9.2,18.9L9.2,18.9z
			 M19.3,13.8H4.7c0,0-1-0.6-1-2c0-1.7,1.5-2.9,2.9-3c0.7,1.4,2.9,2.2,4.9,2c-2.3-0.5-5.3-3.4-3.6-5.7c1.2-1.6,4.1-1.4,3.6-4.2
			c2,0.5,3.2,2,2.9,4c0,0,0,0,0,0c1.9-0.1,3.6,1.2,2.9,4l0,0c1.6,0,2.9,1.3,2.9,3C20.3,13.1,19.3,13.8,19.3,13.8L19.3,13.8z"/>
	</g>
</g>
</svg>
