<?xml version="1.0" encoding="utf-8"?>
<!-- Generator: Adobe Illustrator 21.1.0, SVG Export Plug-In . SVG Version: 6.00 Build 0)  -->
<svg version="1.1" id="Layer_1" xmlns="http://www.w3.org/2000/svg" xmlns:xlink="http://www.w3.org/1999/xlink" x="0px" y="0px"
	 viewBox="0 0 24 24" style="enable-background:new 0 0 24 24;" xml:space="preserve">
<style type="text/css">
	.st0{display:none;}
	.st1{display:inline;}
	.st2{fill:#CCCCCC;}
	.st3{fill:none;stroke:#CCCCCC;stroke-width:5.000000e-02;stroke-miterlimit:10;}
	.st4{fill:#FFFFFF;}
	.st5{fill:#1B60AA;}
	.st6{fill-rule:evenodd;clip-rule:evenodd;fill:#F5893D;}
	.st7{fill:#D2AF1F;}
	.st8{fill:#9D7B55;}
	.st9{fill:#F5893D;}
	.st10{fill:#007078;}
	.st11{fill:none;}
	.st12{fill:#D2AF1F;stroke:#FFFFFF;stroke-width:0.75;stroke-linejoin:round;stroke-miterlimit:10;}
	.st13{fill-rule:evenodd;clip-rule:evenodd;fill:#D2AF1F;}
	.st14{fill:#FFFFFF;stroke:#FFFFFF;stroke-width:2;stroke-linejoin:round;stroke-miterlimit:10;}
</style>
<g>
	<path class="st4" d="M17.8,8.4l-0.7-7l0-0.5c0-0.5-0.4-0.9-0.9-0.9H7.8C7.3,0,6.9,0.4,6.9,0.9l-0.7,7l0,0.4c0,0,0,0.1,0,0.2
		c0,2.8,1.9,5.1,4.6,5.7v7.2c-0.6,0.1-1.3,0.2-1.9,0.3c-0.4,0.1-0.7,0.5-0.7,0.9v0.6c0,0.5,0.4,0.9,0.9,0.9h5.7
		c0.5,0,0.9-0.4,0.9-0.9v-0.6c0-0.4-0.3-0.8-0.7-0.9c-0.6-0.1-1.2-0.2-1.9-0.3V14C15.9,13.5,17.8,11.2,17.8,8.4z M8.5,8.3L8.5,8.3
		C8.4,8.3,8.4,8.3,8.5,8.3L8.5,8.3C8.4,8.3,8.5,8.3,8.5,8.3z"/>
	<g>
		<path class="st9" d="M12.4,13.2c2.5-0.2,4.4-2.3,4.4-4.8c0,0,0,0,0,0c0,0,0,0,0-0.1l0-0.1l0-0.3l-0.6-6.5l0-0.5H7.8l0,0.5L7.2,7.9
			l0,0.3l0,0.1c0,0,0,0,0,0.1c0,0,0,0,0,0c0,2.5,1.9,4.6,4.4,4.8l0.2,0v8.9l-0.2,0c-0.8,0-1.6,0.1-2.4,0.3v0.6h5.7v-0.6
			c-0.8-0.2-1.6-0.3-2.4-0.3l-0.2,0v-8.9L12.4,13.2z M12,12.9c-0.1,0-0.2,0-0.4,0c-2.3-0.2-4.1-2.1-4.1-4.5l0,0c0,0,0,0,0-0.1l0-0.1
			l0-0.3l0,0l0.2-2.2l0-0.1c0.1-0.5,0.4-1.1,0.8-1.4c0.5-0.4,1.2-0.3,1.8-0.1c0.9,0.3,1.2,1.3,1.7,2c0.8,1.2,2.8,2.1,4.3,0.6
			l0.1,1.2l0,0l0,0.3l0,0.1c0,0,0,0,0,0.1l0,0c0,2.4-1.8,4.3-4.1,4.5C12.2,12.9,12.1,12.9,12,12.9z"/>
		<path class="st9" d="M11.7,12.2c-1.4-0.1-2.6-1-3.2-2.2c0-0.1-0.1-0.1-0.2-0.1c-0.1,0-0.1,0.1-0.1,0.2c0.6,1.3,1.9,2.2,3.4,2.4
			c0,0,0,0,0,0c0.1,0,0.1-0.1,0.1-0.1C11.8,12.3,11.7,12.2,11.7,12.2z"/>
		<path class="st9" d="M8.1,8.3l0-0.1C8.2,8.1,8.1,8,8,8C8,8,7.9,8.1,7.9,8.1l0,0.2c0,0,0,0.1,0,0.1c0,0.2,0,0.4,0,0.6
			C7.9,9,8,9.1,8,9.1c0,0,0,0,0,0c0.1,0,0.1-0.1,0.1-0.1c0-0.2,0-0.4,0-0.5C8.1,8.4,8.1,8.3,8.1,8.3z"/>
	</g>
</g>
</svg>
