<?xml version="1.0" encoding="utf-8"?>
<!-- Generator: Adobe Illustrator 21.1.0, SVG Export Plug-In . SVG Version: 6.00 Build 0)  -->
<svg version="1.1" id="Layer_1" xmlns="http://www.w3.org/2000/svg" xmlns:xlink="http://www.w3.org/1999/xlink" x="0px" y="0px"
	 viewBox="0 0 24 24" style="enable-background:new 0 0 24 24;" xml:space="preserve">
<style type="text/css">
	.st0{display:none;}
	.st1{display:inline;}
	.st2{fill:#CCCCCC;}
	.st3{fill:none;stroke:#CCCCCC;stroke-width:5.000000e-02;stroke-miterlimit:10;}
	.st4{fill:#FFFFFF;}
	.st5{fill:#1B60AA;}
	.st6{fill-rule:evenodd;clip-rule:evenodd;fill:#F5893D;}
	.st7{fill:#D2AF1F;}
	.st8{fill:#9D7B55;}
	.st9{fill:#F5893D;}
	.st10{fill:#007078;}
	.st11{fill:none;}
	.st12{fill:#D2AF1F;stroke:#FFFFFF;stroke-width:0.75;stroke-linejoin:round;stroke-miterlimit:10;}
	.st13{fill-rule:evenodd;clip-rule:evenodd;fill:#D2AF1F;}
	.st14{fill:#FFFFFF;stroke:#FFFFFF;stroke-width:2;stroke-linejoin:round;stroke-miterlimit:10;}
</style>
<g>
	<path class="st4" d="M24,15.4c-0.6-2.5-2-4.8-4.1-6.4c-1.9-1.5-4.2-2.3-6.7-2.4c-0.4,0-0.9,0-1.2,0c0,0-0.1,0-0.1,0
		c-1.6,0.1-3.1,0.6-4.4,1.4c0,0,0,0,0,0C7.2,7.6,6.7,7.5,6.3,7.7C3.1,9.2,0.7,12.2,0,15.6c0,0.1,0,0.2,0,0.3
		c0.1,0.8,0.8,1.5,1.6,1.5h20.8c0.8,0,1.5-0.6,1.6-1.5C24,15.8,24,15.6,24,15.4z"/>
	<g>
		<path class="st9" d="M19.3,9.8c-1.7-1.3-3.8-2.1-6.1-2.2c-0.1,0-0.2,0-0.3,0c-0.3,0-0.6,0-1,0c0,0,0,0,0,0
			C7.5,8,3.8,11.4,2.8,15.8H2.1c0-0.2,0-0.4,0-0.6C2,14.2,2.4,13.3,3,12.6c0.3-0.3,0.5-0.8,0.6-1.2c0.3-0.9,1-1.5,1.8-1.9
			c0.4-0.2,0.7-0.4,1-0.8c0.1-0.1,0.2-0.2,0.3-0.2c-2.9,1.4-5.1,4.1-5.8,7.3c0,0.3,0.3,0.6,0.7,0.6H2h0.7h0h0.4h0.3H7h13.6h0.3h0.4
			h0H22h0.4c0.4,0,0.6-0.3,0.7-0.6c0-0.1,0-0.1,0-0.2C22.5,13.3,21.2,11.2,19.3,9.8z M7.4,13.1C7.2,13.1,7,13,7,12.7
			c0-0.2,0.2-0.4,0.4-0.4c0.2,0,0.4,0.2,0.4,0.4C7.8,13,7.6,13.1,7.4,13.1z M8.2,12.3c-0.2,0-0.3-0.1-0.3-0.3s0.1-0.3,0.3-0.3
			s0.3,0.1,0.3,0.3S8.3,12.3,8.2,12.3z M19.1,13c0.2,0,0.3,0.1,0.3,0.3c0,0.2-0.1,0.3-0.3,0.3c-0.2,0-0.3-0.1-0.3-0.3
			C18.8,13.2,18.9,13,19.1,13z M13.9,10.7c-0.2,0-0.4-0.2-0.4-0.4c0-0.2,0.2-0.4,0.4-0.4c0.2,0,0.4,0.2,0.4,0.4
			C14.4,10.5,14.2,10.7,13.9,10.7z M15.8,12.3c-0.2,0-0.3-0.1-0.3-0.3s0.1-0.3,0.3-0.3s0.3,0.1,0.3,0.3S16,12.3,15.8,12.3z
			 M19.1,15.1c-0.3,0-0.6-0.3-0.6-0.6s0.3-0.6,0.6-0.6c0.1,0,0.2,0,0.2,0.1c0.1,0,0.2,0.1,0.3,0.3c0,0.1,0.1,0.2,0.1,0.2
			C19.7,14.8,19.4,15.1,19.1,15.1z M20.2,14.3c-0.2,0-0.4-0.2-0.4-0.4s0.2-0.4,0.4-0.4c0.2,0,0.4,0.2,0.4,0.4S20.4,14.3,20.2,14.3z"
			/>
	</g>
</g>
</svg>
