<?xml version="1.0" encoding="utf-8"?>
<!-- Generator: Adobe Illustrator 21.1.0, SVG Export Plug-In . SVG Version: 6.00 Build 0)  -->
<svg version="1.1" id="Layer_1" xmlns="http://www.w3.org/2000/svg" xmlns:xlink="http://www.w3.org/1999/xlink" x="0px" y="0px"
	 viewBox="0 0 24 24" style="enable-background:new 0 0 24 24;" xml:space="preserve">
<style type="text/css">
	.st0{display:none;}
	.st1{display:inline;}
	.st2{fill:#CCCCCC;}
	.st3{fill:none;stroke:#CCCCCC;stroke-width:5.000000e-02;stroke-miterlimit:10;}
	.st4{fill:#FFFFFF;}
	.st5{fill:#1B60AA;}
	.st6{fill-rule:evenodd;clip-rule:evenodd;fill:#F5893D;}
	.st7{fill:#D2AF1F;}
	.st8{fill:#9D7B55;}
	.st9{fill:#F5893D;}
	.st10{fill:#007078;}
	.st11{fill:none;}
	.st12{fill:#D2AF1F;stroke:#FFFFFF;stroke-width:0.75;stroke-linejoin:round;stroke-miterlimit:10;}
	.st13{fill-rule:evenodd;clip-rule:evenodd;fill:#D2AF1F;}
	.st14{fill:#FFFFFF;stroke:#FFFFFF;stroke-width:2;stroke-linejoin:round;stroke-miterlimit:10;}
</style>
<g>
	<path class="st4" d="M21,3.7c-0.2-0.2-0.4-0.3-0.7-0.3c-0.2,0-0.5,0.1-0.7,0.3l-0.5,0.5c-2-2.1-4.9-3.4-8-3.4C5,0.8,0,5.8,0,12
		c0,6.2,5,11.2,11.2,11.2s11.2-5,11.2-11.2c0-0.1,0-0.1,0-0.2h0.7c0.3,0,0.5-0.1,0.7-0.3c0.2-0.2,0.3-0.4,0.3-0.7
		C23.9,8.2,22.8,5.7,21,3.7z"/>
	<g>
		<path class="st9" d="M17.5,17.8c1.3-1.4,2.2-3.3,2.2-5.4h-7.7L17.5,17.8z M16.3,13.3c0.3,0,0.6,0.3,0.6,0.6c0,0.3-0.3,0.6-0.6,0.6
			c-0.3,0-0.6-0.3-0.6-0.6C15.7,13.6,16,13.3,16.3,13.3z"/>
		<path class="st9" d="M4.3,5.6L3.7,5c-1.6,1.7-2.6,4-2.7,6.6h0.9C1.9,9.3,2.9,7.2,4.3,5.6z"/>
		<path class="st9" d="M11.6,20.6c2.1-0.1,4-0.9,5.4-2.2l-5.4-5.4V20.6z M13.3,15.6c0.3,0,0.6,0.3,0.6,0.6c0,0.3-0.3,0.6-0.6,0.6
			s-0.6-0.3-0.6-0.6C12.7,15.8,13,15.6,13.3,15.6z M12.9,18.1c0.3,0,0.6,0.3,0.6,0.6s-0.3,0.6-0.6,0.6s-0.6-0.3-0.6-0.6
			S12.6,18.1,12.9,18.1z"/>
		<path class="st9" d="M1.8,12.4H1c0.1,2.5,1.1,4.8,2.7,6.6l0.6-0.6C2.9,16.7,1.9,14.7,1.8,12.4z"/>
		<path class="st9" d="M17.5,5.1l0.6-0.6c-1.7-1.6-4-2.6-6.6-2.7v0.9C13.9,2.7,15.9,3.6,17.5,5.1z"/>
		<path class="st9" d="M10.8,2.6V1.8C8.3,1.8,6,2.9,4.2,4.5l0.6,0.6C6.4,3.6,8.5,2.7,10.8,2.6z"/>
		<path class="st9" d="M5.4,18.3c1.4,1.3,3.3,2.2,5.4,2.2v-7.7L5.4,18.3z M7.6,18.6c-0.3,0-0.6-0.3-0.6-0.6s0.3-0.6,0.6-0.6
			c0.3,0,0.6,0.3,0.6,0.6S8,18.6,7.6,18.6z"/>
		<path class="st9" d="M22.2,10.9h0.9C23,8.4,22,6.1,20.4,4.3l-0.6,0.6C21.2,6.5,22.1,8.6,22.2,10.9z"/>
		<path class="st9" d="M13.8,10.9h7.7c-0.1-2.1-0.9-4-2.2-5.4L13.8,10.9z M16.8,10.2c-0.3,0-0.6-0.3-0.6-0.6s0.3-0.6,0.6-0.6
			s0.6,0.3,0.6,0.6S17.1,10.2,16.8,10.2z M18.3,8.5c-0.3,0-0.6-0.3-0.6-0.6c0-0.3,0.3-0.6,0.6-0.6s0.6,0.3,0.6,0.6
			C18.9,8.3,18.7,8.5,18.3,8.5z M19.8,9.1c0.3,0,0.6,0.3,0.6,0.6s-0.3,0.6-0.6,0.6s-0.6-0.3-0.6-0.6S19.5,9.1,19.8,9.1z"/>
		<path class="st9" d="M11.6,21.3v0.9c2.5-0.1,4.8-1.1,6.6-2.7l-0.6-0.6C15.9,20.3,13.9,21.2,11.6,21.3z"/>
		<path class="st9" d="M17,5.6c-1.4-1.3-3.3-2.2-5.4-2.2v7.7L17,5.6z M15,5.1c0.3,0,0.6,0.3,0.6,0.6S15.3,6.2,15,6.2
			S14.4,6,14.4,5.7S14.6,5.1,15,5.1z M12.4,6.4c0.3,0,0.6,0.3,0.6,0.6c0,0.3-0.3,0.6-0.6,0.6s-0.6-0.3-0.6-0.6
			C11.9,6.6,12.1,6.4,12.4,6.4z"/>
		<path class="st9" d="M10.8,3.4c-2.1,0.1-4,0.9-5.4,2.2l5.4,5.4V3.4z M8,6.9c-0.3,0-0.6-0.3-0.6-0.6S7.7,5.8,8,5.8S8.6,6,8.6,6.4
			S8.4,6.9,8,6.9z M9.7,8.4c-0.3,0-0.6-0.3-0.6-0.6c0-0.3,0.3-0.6,0.6-0.6s0.6,0.3,0.6,0.6C10.3,8.1,10.1,8.4,9.7,8.4z"/>
		<path class="st9" d="M20.5,12.4c-0.1,2.3-1,4.4-2.5,6l0.6,0.6c1.6-1.7,2.6-4,2.7-6.6H20.5z"/>
		<path class="st9" d="M4.9,18.9l-0.6,0.6c1.7,1.6,4,2.6,6.6,2.7v-0.9C8.5,21.2,6.4,20.3,4.9,18.9z"/>
		<path class="st9" d="M4.9,6.2c-1.3,1.4-2.2,3.3-2.2,5.4h7.7L4.9,6.2z M6.2,10.5c-0.3,0-0.6-0.3-0.6-0.6c0-0.3,0.3-0.6,0.6-0.6
			c0.3,0,0.6,0.3,0.6,0.6C6.8,10.2,6.5,10.5,6.2,10.5z"/>
		<path class="st9" d="M2.6,12.4c0.1,2.1,0.9,4,2.2,5.4l5.4-5.4H2.6z M4.1,14.1c-0.3,0-0.6-0.3-0.6-0.6s0.3-0.6,0.6-0.6
			c0.3,0,0.6,0.3,0.6,0.6S4.4,14.1,4.1,14.1z M6,15.7c-0.3,0-0.6-0.3-0.6-0.6s0.3-0.6,0.6-0.6s0.6,0.3,0.6,0.6S6.3,15.7,6,15.7z
			 M7.2,13.9c-0.3,0-0.6-0.3-0.6-0.6s0.3-0.6,0.6-0.6s0.6,0.3,0.6,0.6S7.5,13.9,7.2,13.9z"/>
	</g>
</g>
</svg>
