<?xml version="1.0" encoding="utf-8"?>
<!-- Generator: Adobe Illustrator 21.1.0, SVG Export Plug-In . SVG Version: 6.00 Build 0)  -->
<svg version="1.1" id="Layer_1" xmlns="http://www.w3.org/2000/svg" xmlns:xlink="http://www.w3.org/1999/xlink" x="0px" y="0px"
	 viewBox="0 0 24 24" style="enable-background:new 0 0 24 24;" xml:space="preserve">
<style type="text/css">
	.st0{display:none;}
	.st1{display:inline;}
	.st2{fill:#CCCCCC;}
	.st3{fill:none;stroke:#CCCCCC;stroke-width:5.000000e-02;stroke-miterlimit:10;}
	.st4{fill:#FFFFFF;}
	.st5{fill:#1B60AA;}
	.st6{fill-rule:evenodd;clip-rule:evenodd;fill:#F5893D;}
	.st7{fill:#D2AF1F;}
	.st8{fill:#9D7B55;}
	.st9{fill:#F5893D;}
	.st10{fill:#007078;}
	.st11{fill:none;}
	.st12{fill:#D2AF1F;stroke:#FFFFFF;stroke-width:0.75;stroke-linejoin:round;stroke-miterlimit:10;}
	.st13{fill-rule:evenodd;clip-rule:evenodd;fill:#D2AF1F;}
	.st14{fill:#FFFFFF;stroke:#FFFFFF;stroke-width:2;stroke-linejoin:round;stroke-miterlimit:10;}
</style>
<g>
	<path class="st4" d="M22.4,10.6c0.8-1.4,0.8-3.2,0-4.6c-0.8-1.4-2.3-2.3-4-2.3c-1,0-1.9-0.5-2.4-1.4C15.2,0.9,13.7,0,12,0
		c-1.7,0-3.2,0.9-4,2.3C7.5,3.2,6.6,3.7,5.6,3.7c-1.7,0-3.2,0.9-4,2.3c-0.8,1.4-0.8,3.2,0,4.6c0.5,0.9,0.5,1.9,0,2.8
		c-0.8,1.4-0.8,3.2,0,4.6c0.8,1.4,2.3,2.3,4,2.3c1,0,1.9,0.5,2.4,1.4c0.8,1.4,2.3,2.3,4,2.3c1.7,0,3.2-0.9,4-2.3
		c0.5-0.9,1.4-1.4,2.4-1.4c1.7,0,3.2-0.9,4-2.3c0.8-1.4,0.8-3.2,0-4.6C21.9,12.5,21.9,11.5,22.4,10.6z"/>
	<g>
		<path class="st9" d="M11.3,8.9c-0.5,0.1-1.1,0.4-1.5,0.8c-0.1,0.1-0.1,0.3,0,0.4c0.1,0.1,0.1,0.1,0.2,0.1c0.1,0,0.2,0,0.2-0.1
			c0.3-0.3,0.7-0.5,1.2-0.6c0.2,0,0.3-0.2,0.2-0.4C11.6,9,11.5,8.9,11.3,8.9z"/>
		<path class="st9" d="M9.5,12c0-0.3,0.1-0.6,0.2-0.9c0.1-0.2,0-0.3-0.2-0.4c-0.2-0.1-0.3,0-0.4,0.2c-0.1,0.4-0.2,0.8-0.2,1.1
			c0,0.7,0.2,1.3,0.6,1.8C9.5,13.9,9.6,14,9.7,14c0.1,0,0.1,0,0.2-0.1c0.1-0.1,0.2-0.3,0.1-0.4C9.7,13,9.5,12.5,9.5,12z"/>
		<path class="st9" d="M21.6,10.2c1.4-2.5-0.4-5.5-3.2-5.5c-1.3,0-2.5-0.7-3.2-1.8c-1.4-2.5-5-2.5-6.4,0C8.1,3.9,6.9,4.6,5.6,4.6
			c-2.8,0-4.6,3.1-3.2,5.5c0.7,1.1,0.7,2.5,0,3.7c-1.4,2.5,0.4,5.5,3.2,5.5c1.3,0,2.5,0.7,3.2,1.8c1.4,2.5,5,2.5,6.4,0
			c0.7-1.1,1.9-1.8,3.2-1.8c2.8,0,4.6-3.1,3.2-5.5C20.9,12.7,20.9,11.3,21.6,10.2z M12,16.4c-2.4,0-4.4-1.9-4.4-4.4S9.6,7.7,12,7.7
			s4.4,1.9,4.4,4.4S14.4,16.4,12,16.4z"/>
	</g>
</g>
</svg>
