<?xml version="1.0" encoding="utf-8"?>
<!-- Generator: Adobe Illustrator 21.1.0, SVG Export Plug-In . SVG Version: 6.00 Build 0)  -->
<svg version="1.1" id="Layer_1" xmlns="http://www.w3.org/2000/svg" xmlns:xlink="http://www.w3.org/1999/xlink" x="0px" y="0px"
	 viewBox="0 0 24 24" style="enable-background:new 0 0 24 24;" xml:space="preserve">
<style type="text/css">
	.st0{display:none;}
	.st1{display:inline;}
	.st2{fill:#CCCCCC;}
	.st3{fill:none;stroke:#CCCCCC;stroke-width:5.000000e-02;stroke-miterlimit:10;}
	.st4{fill:#FFFFFF;}
	.st5{fill:#1B60AA;}
	.st6{fill-rule:evenodd;clip-rule:evenodd;fill:#F5893D;}
	.st7{fill:#D2AF1F;}
	.st8{fill:#9D7B55;}
	.st9{fill:#F5893D;}
	.st10{fill:#007078;}
	.st11{fill:none;}
	.st12{fill:#D2AF1F;stroke:#FFFFFF;stroke-width:0.75;stroke-linejoin:round;stroke-miterlimit:10;}
	.st13{fill-rule:evenodd;clip-rule:evenodd;fill:#D2AF1F;}
	.st14{fill:#FFFFFF;stroke:#FFFFFF;stroke-width:2;stroke-linejoin:round;stroke-miterlimit:10;}
</style>
<g>
	<path class="st4" d="M23.6,3.7l-0.4-0.3c-0.2-0.1-0.4-0.2-0.5-0.2c-0.1-0.2-0.2-0.4-0.3-0.5L22,2.4c-0.2-0.2-0.5-0.2-0.7-0.2
		c0-0.2-0.1-0.5-0.3-0.6l-0.4-0.3C20.3,1.1,20.1,1,19.9,1c0-0.2-0.2-0.4-0.3-0.5l-0.4-0.3c-0.4-0.3-0.9-0.3-1.2,0.1
		c0,0-3.3,3.3-4.9,5c-0.7,0.8-1,2-0.8,3.2l0.1,0.4c0.1,0.3,0.2,0.7,0.1,0.8l-1,1.2C9.7,8.8,8,6.8,6.6,5C4.7,2.8,3.2,1,2.9,0.7
		C2.6,0.2,2.1,0,1.6,0C1,0,0.7,0.2,0.5,0.4C0.2,0.8,0,1.2,0,1.8c0,2.7,3.5,9.5,5.9,13.4c0.1,0.2,0.4,0.4,0.6,0.4
		c0.3,0,0.5,0,0.7-0.2C8,14.7,8.2,14.9,8,15.1l-4.2,5.2c-0.5,0.7-0.6,1.6-0.3,2.4C4,23.5,4.8,24,5.6,24c0.7,0,1.4-0.3,1.8-0.9
		l3.8-4.7c0.1-0.1,0.1-0.2,0.2-0.3l4.1,4.9c0.4,0.6,1.1,0.9,1.8,0.9c0.9,0,1.7-0.5,2.1-1.3c0.4-0.8,0.3-1.7-0.3-2.4
		c-0.9-1.1-2.7-3.3-4.7-5.7l1.7-2c0.1,0,0.4,0,0.7,0l0.5,0c1.2,0,2.4-0.6,2.9-1.5c1.2-2,3.6-6,3.6-6.1C24.1,4.5,24,4,23.6,3.7z"/>
	<g>
		<path class="st6" d="M11.5,12.4l1.7-2.1c0.4-0.5,0.2-0.9-0.1-2c-0.2-0.8,0-1.7,0.5-2.3c1.6-1.7,4.9-5,4.9-5L19,1.3l-3.4,4.4
			l0.7,0.6L19.9,2l0.4,0.3l-3.3,4.5l0.7,0.6l3.6-4.2l0.4,0.3l-3.3,4.5l0.7,0.6l3.4-4.4l0.4,0.3c0,0-2.4,4-3.6,6
			c-0.4,0.7-1.3,1.1-2.2,1.1c-1.1,0-1.6-0.1-2,0.4l-2.1,2.6c2.3,2.7,4.2,5.1,5.1,6.3c0.7,0.9,0.1,2.2-1.1,2.2
			c-0.4,0-0.8-0.2-1.1-0.5l-7.7-9.3c0,0-0.9,0.7-1.8,1.4C3.8,9.9,0.9,3.9,0.9,1.8c0-0.1,0-0.9,0.7-0.9c0.2,0,0.5,0.1,0.6,0.3
			C2.7,1.8,7.2,7.3,11.5,12.4 M8.7,15.7l1.8,2.2l-3.8,4.7c-0.3,0.3-0.7,0.5-1.1,0.5c-1.1,0-1.8-1.3-1.1-2.2L8.7,15.7L8.7,15.7z"/>
	</g>
</g>
</svg>
