<?xml version="1.0" encoding="utf-8"?>
<!-- Generator: Adobe Illustrator 21.1.0, SVG Export Plug-In . SVG Version: 6.00 Build 0)  -->
<svg version="1.1" id="Layer_1" xmlns="http://www.w3.org/2000/svg" xmlns:xlink="http://www.w3.org/1999/xlink" x="0px" y="0px"
	 viewBox="0 0 24 24" style="enable-background:new 0 0 24 24;" xml:space="preserve">
<style type="text/css">
	.st0{display:none;}
	.st1{display:inline;}
	.st2{fill:#CCCCCC;}
	.st3{fill:none;stroke:#CCCCCC;stroke-width:5.000000e-02;stroke-miterlimit:10;}
	.st4{fill:#FFFFFF;}
	.st5{fill:#1B60AA;}
	.st6{fill-rule:evenodd;clip-rule:evenodd;fill:#F5893D;}
	.st7{fill:#D2AF1F;}
	.st8{fill:#9D7B55;}
	.st9{fill:#F5893D;}
	.st10{fill:#007078;}
	.st11{fill:none;}
	.st12{fill:#D2AF1F;stroke:#FFFFFF;stroke-width:0.75;stroke-linejoin:round;stroke-miterlimit:10;}
	.st13{fill-rule:evenodd;clip-rule:evenodd;fill:#D2AF1F;}
	.st14{fill:#FFFFFF;stroke:#FFFFFF;stroke-width:2;stroke-linejoin:round;stroke-miterlimit:10;}
</style>
<g>
	<path class="st4" d="M16.4,4.8H6.3C5.3,4.8,4.5,4,4.5,3c0-0.5-0.4-0.9-0.9-0.9H2.7c-0.2,0-0.3,0.1-0.5,0.1C2.1,2.2,1.9,2.1,1.8,2.1
		H0.9C0.4,2.1,0,2.5,0,3c0,1.8,1,3.3,2.6,4.1c0,0.6,0.2,1.2,0.5,1.6l0.9,1c1.1,1.3,2.5,2.3,4.1,2.7L8,12.6c-0.2,0.2-0.3,0.4-0.3,0.7
		c0,0.2,0.1,0.5,0.3,0.7L9.2,15c0.2,0.2,0.4,0.3,0.7,0.3s0.5-0.1,0.7-0.3l0.4-0.4l0.5,0.4c0.3,0.3,0.8,0.3,1.2,0.1l-1.1,1.2
		c-0.1,0.1-0.2,0.2-0.2,0.3l-1.5-0.4c-0.2-0.1-0.5,0-0.7,0.1c-0.2,0.1-0.4,0.3-0.4,0.6l-0.1,0.4c-0.2,0.7-0.1,1.3,0.2,1.9
		c0.1,0.3,0.3,0.5,0.5,0.7c0.2,0.9,0.9,1.7,1.8,2l0.4,0.1c0.1,0,0.2,0,0.3,0c0.2,0,0.3,0,0.4-0.1c0.2-0.1,0.4-0.3,0.4-0.6l0.4-1.3
		c0,0,0,0,0.1,0h3.4c4.2,0,7.6-3.4,7.6-7.6S20.6,4.8,16.4,4.8z"/>
	<g>
		<path class="st9" d="M16.4,5.7H6.8H6.3C4.8,5.7,3.6,4.5,3.6,3H2.7c0,1.1,0.5,2,1.2,2.6C2.7,5.4,1.8,4.3,1.8,3H0.9
			c0,1.7,1.2,3.1,2.8,3.5c0,0,0,0.1-0.1,0.1C3.4,7.1,3.5,7.7,3.9,8.1l0.9,1C6,10.8,8,11.7,10,11.9l-1.3,1.3l1.1,1.1l0.6-0.6
			l-0.5-0.5l1.3-1.3h1l-1.3,1.3l1.1,1.1l0.6-0.6l-0.5-0.5l1.3-1.3h2.8c0.2,0,0.3,0.2,0.3,0.2c0,0.1,0.1,0.2-0.1,0.4l-4.3,4.3
			c-0.2,0.2-0.3,0.5-0.3,0.7L9.5,17l-0.1,0.4c-0.1,0.4-0.1,0.9,0.1,1.2c0.1,0.3,0.4,0.5,0.6,0.6c0,0.7,0.4,1.4,1.2,1.6l0.4,0.1
			l0.6-2.2C12.5,19,12.7,19,13,19h3.4c3.7,0,6.7-3,6.7-6.7S20.1,5.7,16.4,5.7z M22.1,13.6l-4.8-1c0-0.2,0-0.5-0.1-0.7
			c0-0.1-0.1-0.1-0.1-0.2l4-2.7c0.7,1,1.1,2.1,1.1,3.4C22.2,12.8,22.2,13.2,22.1,13.6z M4.5,7.6C4.4,7.4,4.3,7.2,4.4,6.9
			C4.5,6.7,4.7,6.6,5,6.6h1.3h0.5h8.7l-3.6,4.5h-1.4c-2,0-3.9-0.9-5.2-2.5L4.5,7.6z M13,11.1l3.6-4.5c1.6,0.1,3,0.7,4,1.8l-4.2,2.8
			c-0.1,0-0.2,0-0.2,0H13z M13,18.2c-0.3,0-0.4-0.2-0.4-0.3c0-0.1-0.1-0.3,0.1-0.4l2.8-2.8l2.3,3.3c-0.5,0.1-0.9,0.2-1.4,0.2H13z
			 M18.7,17.7L16.1,14l0.7-0.7l5,1.1C21.3,15.9,20.1,17.1,18.7,17.7z"/>
		<circle class="st9" cx="7.6" cy="7.8" r="0.6"/>
	</g>
</g>
</svg>
