<?xml version="1.0" encoding="utf-8"?>
<!-- Generator: Adobe Illustrator 21.1.0, SVG Export Plug-In . SVG Version: 6.00 Build 0)  -->
<svg version="1.1" id="Layer_1" xmlns="http://www.w3.org/2000/svg" xmlns:xlink="http://www.w3.org/1999/xlink" x="0px" y="0px"
	 viewBox="0 0 24 24" style="enable-background:new 0 0 24 24;" xml:space="preserve">
<style type="text/css">
	.st0{display:none;}
	.st1{display:inline;}
	.st2{fill:#CCCCCC;}
	.st3{fill:none;stroke:#CCCCCC;stroke-width:5.000000e-02;stroke-miterlimit:10;}
	.st4{fill:#FFFFFF;}
	.st5{fill:#1B60AA;}
	.st6{fill-rule:evenodd;clip-rule:evenodd;fill:#F5893D;}
	.st7{fill:#D2AF1F;}
	.st8{fill:#9D7B55;}
	.st9{fill:#F5893D;}
	.st10{fill:#007078;}
	.st11{fill:none;}
	.st12{fill:#D2AF1F;stroke:#FFFFFF;stroke-width:0.75;stroke-linejoin:round;stroke-miterlimit:10;}
	.st13{fill-rule:evenodd;clip-rule:evenodd;fill:#D2AF1F;}
	.st14{fill:#FFFFFF;stroke:#FFFFFF;stroke-width:2;stroke-linejoin:round;stroke-miterlimit:10;}
</style>
<g>
	<path class="st4" d="M23.2,1.8c-0.9-0.9-2.3-1-3.4-0.3c-0.6-0.5-1.4-0.7-2.2-0.4c-0.8,0.3-1.4,1-1.4,1.9l-0.1,2.2l-0.3,0.3
		c-0.7-0.6-1.6-1-2.5-0.9c-0.9,0.1-1.8,0.5-2.4,1.3L10.9,6c-0.1,0.1-0.1,0.2-0.1,0.2c-0.1,0.1-0.1,0.1-0.2,0.2L6,12.3
		c-0.1,0.1-0.1,0.2-0.1,0.2c-0.1,0.1-0.1,0.1-0.2,0.2l-4,5.2c-0.1,0.1-0.1,0.2-0.1,0.2c-0.1,0.1-0.1,0.1-0.2,0.2l-0.9,1.1
		c-0.7,0.9-0.6,2.1,0.2,2.9c0.4,0.4,1,0.6,1.6,0.6c0.5,0,1-0.2,1.3-0.5l3.1-2.4C6.7,20.1,6.8,20,6.8,20c0.1,0,0.2-0.1,0.2-0.1l6.5-5
		c0.1-0.1,0.1-0.1,0.2-0.2c0.1,0,0.2-0.1,0.2-0.1l3.2-2.5c0.7-0.6,1.2-1.4,1.3-2.4c0-0.7-0.1-1.4-0.5-2l1.2-0.1
		c0.8,0,1.5-0.5,1.8-1.2l0.6,0c1.1-0.1,1.9-0.7,2.3-1.7C24.2,3.6,24,2.6,23.2,1.8z"/>
	<path class="st9" d="M16.8,7.8l-0.6-0.6l0.4-0.4l2.5-0.2c0.5,0,0.9-0.3,1.1-0.8c0-0.1,0.1-0.2,0.1-0.4l1.2-0.1
		c0.7,0,1.3-0.5,1.5-1.1c0.2-0.6,0.1-1.3-0.4-1.8c-0.7-0.7-1.8-0.7-2.4,0L19.6,3c0-0.2-0.1-0.5-0.3-0.7C19,1.9,18.4,1.8,18,2
		c-0.5,0.2-0.8,0.6-0.8,1.1L17,5.6l-1.2,1.2l-0.6-0.6c-1-1-2.6-0.9-3.5,0.2l-0.1,0.2l1.2,1.2c0.1,0.1,0.1,0.3,0,0.4s-0.3,0.1-0.4,0
		L11.3,7l-4.5,5.9L8,14.1c0.1,0.1,0.1,0.3,0,0.4c-0.1,0.1-0.3,0.1-0.4,0l-1.2-1.2l-4,5.2l0.4,0.4c0.1,0.1,0.1,0.3,0,0.4
		c-0.1,0.1-0.3,0.1-0.4,0l-0.3-0.3L1.2,20c-0.4,0.5-0.3,1.2,0.1,1.7s1.2,0.5,1.7,0.1l3.1-2.4l-0.9-0.9c-0.1-0.1-0.1-0.3,0-0.4
		c0.1-0.1,0.3-0.1,0.4,0l1,1l6.5-5l-0.8-0.8c-0.1-0.1-0.1-0.3,0-0.4s0.3-0.1,0.4,0l0.9,0.9l3.2-2.5C17.7,10.4,17.8,8.8,16.8,7.8z
		 M19.1,6.1l-1.9,0.1l1.3-1.3c0.3-0.3,0.7-0.3,1,0c0.2,0.2,0.3,0.5,0.2,0.8C19.6,5.9,19.3,6.1,19.1,6.1z M20.5,2.9
		c0.5-0.5,1.2-0.5,1.7,0c0.3,0.3,0.4,0.8,0.3,1.2c-0.2,0.4-0.6,0.7-1,0.8l-1.3,0.1c-0.1-0.2-0.1-0.3-0.3-0.4
		c-0.2-0.2-0.4-0.3-0.7-0.3l0.1-0.1L20.5,2.9z M17.7,3.1c0-0.3,0.2-0.5,0.5-0.6c0.3-0.1,0.6,0,0.8,0.2c0.3,0.3,0.3,0.7,0,1l-0.8,0.8
		L17.6,5L17.7,3.1z M10.7,11.8c-0.1-0.1-0.1-0.3,0-0.4c0.1-0.1,0.3-0.1,0.4,0l0.8,0.8c0.1,0.1,0.1,0.3,0,0.4s-0.3,0.1-0.4,0
		L10.7,11.8z M8.8,15.7l-0.4-0.4c-0.1-0.1-0.1-0.3,0-0.4s0.3-0.1,0.4,0l0.4,0.4c0.1,0.1,0.1,0.3,0,0.4S8.9,15.8,8.8,15.7z M15,10.8
		l-0.7-0.7c-0.1-0.1-0.1-0.3,0-0.4c0.1-0.1,0.3-0.1,0.4,0l0.7,0.7c0.1,0.1,0.1,0.3,0,0.4S15.1,10.9,15,10.8z"/>
</g>
</svg>
