<?xml version="1.0" encoding="utf-8"?>
<!-- Generator: Adobe Illustrator 21.1.0, SVG Export Plug-In . SVG Version: 6.00 Build 0)  -->
<svg version="1.1" id="Layer_1" xmlns="http://www.w3.org/2000/svg" xmlns:xlink="http://www.w3.org/1999/xlink" x="0px" y="0px"
	 viewBox="0 0 24 24" style="enable-background:new 0 0 24 24;" xml:space="preserve">
<style type="text/css">
	.st0{display:none;}
	.st1{display:inline;}
	.st2{fill:#CCCCCC;}
	.st3{fill:none;stroke:#CCCCCC;stroke-width:5.000000e-02;stroke-miterlimit:10;}
	.st4{fill:#FFFFFF;}
	.st5{fill:#1B60AA;}
	.st6{fill-rule:evenodd;clip-rule:evenodd;fill:#F5893D;}
	.st7{fill:#D2AF1F;}
	.st8{fill:#9D7B55;}
	.st9{fill:#F5893D;}
	.st10{fill:#007078;}
	.st11{fill:none;}
	.st12{fill:#D2AF1F;stroke:#FFFFFF;stroke-width:0.75;stroke-linejoin:round;stroke-miterlimit:10;}
	.st13{fill-rule:evenodd;clip-rule:evenodd;fill:#D2AF1F;}
	.st14{fill:#FFFFFF;stroke:#FFFFFF;stroke-width:2;stroke-linejoin:round;stroke-miterlimit:10;}
</style>
<g>
	<path class="st4" d="M23,8.8h-4.5l-0.3-1.4c-0.2-0.6-0.7-1.1-1.4-1.1h-6.6V5.2H7.2v1.2C6.5,6.4,6,6.8,5.8,7.5L5.5,8.8l-3.7,0L1,8.8
		l-1,4.1l0.8,0v5.9h5.1h1.5h9.3h1.5h5.1v-5.8l0.8,0L23,8.8z"/>
	<g>
		<path class="st5" d="M6.8,12L6.8,12v5.9h4.1v-2c0-0.6,0.5-1.1,1.1-1.1c0.6,0,1.1,0.5,1.1,1.1v2h4.1V12v0v-0.8H6.8V12z M15.3,12.1
			H16v0.7h-0.7V12.1z M15.3,13H16v0.7h-0.7V13z M15.3,15H16v0.7h-0.7V15z M15.3,15.9H16v0.7h-0.7V15.9z M14.3,12.1h0.7v0.7h-0.7
			V12.1z M14.3,13h0.7v0.7h-0.7V13z M14.3,15h0.7v0.7h-0.7V15z M14.3,15.9h0.7v0.7h-0.7V15.9z M9,12.1h0.7v0.7H9V12.1z M9,13h0.7
			v0.7H9V13z M9,15h0.7v0.7H9V15z M9,15.9h0.7v0.7H9V15.9z M8,12.1h0.7v0.7H8V12.1z M8,13h0.7v0.7H8V13z M8,15h0.7v0.7H8V15z
			 M8,15.9h0.7v0.7H8V15.9z"/>
		<path class="st5" d="M1.7,12.4v5.5h4.8v-5.5h0H1.7z M4,16H3.3v-0.7H4V16z M4,15H3.3v-0.7H4V15z M4.9,16H4.2v-0.7h0.7V16z M4.9,15
			H4.2v-0.7h0.7V15z"/>
		<path class="st5" d="M6.5,11.2c-0.2,0-0.4-0.1-0.6-0.3c-0.2-0.2-0.2-0.5-0.2-0.7l0.1-0.3l-4.1,0c0,0,0,0,0,0L1.1,12l5.3,0
			L6.5,11.2z"/>
		<path class="st5" d="M17.6,12.4v5.5h4.8v-5.5H17.6L17.6,12.4z M20,14.3h0.7V15H20V14.3z M20,15.2h0.7V16H20V15.2z M19.1,14.3h0.7
			V15h-0.7V14.3z M19.1,15.2h0.7V16h-0.7V15.2z"/>
		<path class="st5" d="M17.6,11.2l0,0.8l5.3,0l-0.5-2.3h-4.1l0.1,0.4c0.1,0.3,0,0.5-0.2,0.7C18,11,17.8,11.1,17.6,11.2z"/>
		<path class="st5" d="M17.9,10.6c0.1-0.1,0.1-0.3,0.1-0.4l-0.1-0.5l0-0.2l0-0.2l-0.4-1.7c-0.1-0.2-0.3-0.4-0.5-0.4H9.2V6.5h0.2V6.1
			H8.1v0.3h0.2v0.8h-1c-0.2,0-0.4,0.2-0.5,0.4L6.3,9.4l0,0.2l0,0.2L6,10.2c0,0.2,0,0.3,0.1,0.4c0.1,0.1,0.2,0.2,0.3,0.2
			c0,0,0.1,0,0.1,0h0.1h0.2h10.4h0.2h0.1c0,0,0.1,0,0.1,0C17.7,10.8,17.8,10.7,17.9,10.6z"/>
	</g>
</g>
</svg>
