<?xml version="1.0" encoding="utf-8"?>
<!-- Generator: Adobe Illustrator 21.1.0, SVG Export Plug-In . SVG Version: 6.00 Build 0)  -->
<svg version="1.1" id="Layer_1" xmlns="http://www.w3.org/2000/svg" xmlns:xlink="http://www.w3.org/1999/xlink" x="0px" y="0px"
	 viewBox="0 0 24 24" style="enable-background:new 0 0 24 24;" xml:space="preserve">
<style type="text/css">
	.st0{display:none;}
	.st1{display:inline;}
	.st2{fill:#CCCCCC;}
	.st3{fill:none;stroke:#CCCCCC;stroke-width:5.000000e-02;stroke-miterlimit:10;}
	.st4{fill:#FFFFFF;}
	.st5{fill:#1B60AA;}
	.st6{fill-rule:evenodd;clip-rule:evenodd;fill:#F5893D;}
	.st7{fill:#D2AF1F;}
	.st8{fill:#9D7B55;}
	.st9{fill:#F5893D;}
	.st10{fill:#007078;}
	.st11{fill:none;}
	.st12{fill:#D2AF1F;stroke:#FFFFFF;stroke-width:0.75;stroke-linejoin:round;stroke-miterlimit:10;}
	.st13{fill-rule:evenodd;clip-rule:evenodd;fill:#D2AF1F;}
	.st14{fill:#FFFFFF;stroke:#FFFFFF;stroke-width:2;stroke-linejoin:round;stroke-miterlimit:10;}
</style>
<g>
	<path class="st4" d="M23.1,18.4h-0.3L14.1,6c0.2,0.1,0.4,0.2,0.6,0.2c0.4,0,0.7-0.2,0.9-0.5c0,0.3,0,0.6,0.1,0.8
		c0.4,1.4,1.7,2.3,3.1,2.3c0.3,0,0.6,0,0.9-0.1c0.2-0.1,0.5-0.2,0.7-0.3c0.2-0.1,0.3-0.2,0.3-0.4c0.2,0.1,0.4,0.2,0.6,0.2
		c0.4,0,0.7-0.2,0.9-0.5c0.3-0.2,0.5-0.5,0.5-0.9c0-0.4-0.2-0.7-0.5-0.9c-0.2-0.3-0.5-0.5-0.9-0.5c-0.2,0-0.4,0.1-0.5,0.2
		c0,0,0,0,0,0c0.3-0.2,0.5-0.5,0.5-0.9s-0.2-0.7-0.5-0.9c-0.2-0.3-0.5-0.5-0.9-0.5c-0.1,0-0.2,0-0.3,0c0-0.1,0-0.2,0-0.3
		c-0.1-0.4-0.5-0.7-0.9-0.7c-0.3,0-0.5,0-0.7,0.1c-0.9,0.3-1.6,0.9-2,1.7c-0.1-0.1-0.2-0.2-0.3-0.3c-0.2-0.3-0.5-0.5-0.9-0.5
		s-0.7,0.2-0.9,0.5c-0.2,0.1-0.3,0.2-0.4,0.4c0-0.1-0.1-0.3-0.2-0.4c-0.2-0.2-0.4-0.3-0.7-0.3h-0.4c-0.3,0-0.5,0.1-0.7,0.3
		c-0.2,0.2-0.3,0.4-0.3,0.7l0,0.4L7.9,9.8L7.2,8.4c0.2-0.1,0.4-0.2,0.5-0.4c0.2-0.3,0.2-0.6,0-0.9L5.8,3.5l0-0.1
		c0-0.4-0.3-0.8-0.7-0.9c-0.1,0-0.2,0-0.3,0c-0.1,0-0.2,0-0.3,0C4.1,2.6,3.8,2.9,3.7,3.3l0,0.2L1.8,7c-0.2,0.3-0.2,0.6,0,0.9
		c0.1,0.2,0.3,0.4,0.5,0.4l-1.1,2.2c-0.1,0.3-0.1,0.6,0,0.9c0.1,0.2,0.2,0.3,0.4,0.4l-1.3,2.5c-0.1,0.3-0.1,0.6,0,0.9
		c0.1,0.1,0.2,0.2,0.3,0.3l-0.7,1.1C0,17,0,17.3,0.1,17.6c0.2,0.3,0.5,0.5,0.8,0.5H2l-0.2,0.3H1.4c-0.3,0-0.5,0.1-0.7,0.3
		c-0.2,0.2-0.3,0.4-0.3,0.7l0.1,1.3c0,0.5,0.4,0.9,0.9,0.9h0.3c0.3,0,0.6-0.2,0.7-0.4h9.8c0.5,0,0.9-0.4,0.9-0.9v-7.3
		c1.7,3.3,3.8,6,6.5,8.1c0.2,0.1,0.4,0.2,0.6,0.2H22c0.2,0.2,0.4,0.4,0.7,0.4H23c0.5,0,0.9-0.4,0.9-0.9l0.1-1.3
		c0-0.3-0.1-0.5-0.3-0.7C23.6,18.5,23.3,18.4,23.1,18.4z M19.7,6.2c0.2,0,0.4-0.1,0.5-0.2c0,0,0,0,0,0c-0.2,0.1-0.4,0.4-0.5,0.7
		c0,0,0,0-0.1,0c-0.6,0-1.2-0.4-1.3-1c0,0,0,0,0,0c-0.1-0.2,0-0.5,0-0.7c0.1,0.3,0.3,0.5,0.5,0.6C19,5.9,19.4,6.2,19.7,6.2z"/>
	<g>
		<polygon class="st5" points="12.3,5.1 1.6,20.3 12.3,20.3 		"/>
		<path class="st5" d="M12.3,5.1l10.6,15.2l-2.7,0c-3.9-3-6.4-7.1-8-12L12.3,5.1z"/>
		<polygon class="st5" points="1.4,19.3 1.9,19.3 1.8,20.6 1.5,20.6 		"/>
		<polygon class="st5" points="22.7,19.3 23.1,19.3 23,20.6 22.7,20.6 		"/>
		<polygon class="st5" points="12.1,4.5 12.5,4.5 12.4,5.8 12.2,5.8 		"/>
		<g>
			<polygon class="st5" points="6.3,11 7.4,11 5.7,7.5 6.9,7.5 4.8,3.7 4.9,3.4 4.8,3.6 4.7,3.4 4.6,3.8 2.6,7.5 3.8,7.5 2.1,11 
				3.2,11 1.3,14.8 2.3,14.8 0.9,17.2 3.4,17.2 6.9,12.1 			"/>
		</g>
		<g>
			<path class="st5" d="M17.5,5.9c-0.3-1,0.2-2.1,1.1-2.6c-0.2,0-0.4,0-0.5,0.1c-1.2,0.3-1.9,1.6-1.6,2.8c0.3,1.2,1.6,1.9,2.8,1.6
				c0.2-0.1,0.3-0.1,0.5-0.2C18.7,7.6,17.8,7,17.5,5.9z"/>
		</g>
		<g>
			<path class="st5" d="M19.8,4.4C19.8,4.3,19.8,4.3,19.8,4.4C19.7,4.3,19.7,4.3,19.8,4.4c-0.1,0.2-0.3,0.4-0.5,0.4c0,0,0,0,0,0
				s0,0,0,0c0.2,0,0.4,0.2,0.4,0.4c0,0,0,0,0,0s0,0,0,0c0-0.2,0.2-0.4,0.4-0.4c0,0,0,0,0,0s0,0,0,0C19.9,4.7,19.8,4.6,19.8,4.4z"/>
			<path class="st5" d="M21.5,6.8c-0.2,0-0.4-0.2-0.4-0.4c0,0,0,0,0,0s0,0,0,0c0,0.2-0.2,0.4-0.4,0.4c0,0,0,0,0,0s0,0,0,0
				c0.2,0,0.4,0.2,0.4,0.4c0,0,0,0,0,0s0,0,0,0C21.2,7.1,21.3,6.9,21.5,6.8C21.6,6.9,21.6,6.9,21.5,6.8C21.6,6.8,21.6,6.8,21.5,6.8z
				"/>
			<path class="st5" d="M14.7,4.4C14.7,4.3,14.6,4.3,14.7,4.4C14.6,4.3,14.6,4.3,14.7,4.4c-0.1,0.2-0.3,0.4-0.5,0.4c0,0,0,0,0,0
				s0,0,0,0c0.2,0,0.4,0.2,0.4,0.4c0,0,0,0,0,0s0,0,0,0c0-0.2,0.2-0.4,0.4-0.4c0,0,0,0,0,0s0,0,0,0C14.8,4.7,14.7,4.6,14.7,4.4z"/>
		</g>
	</g>
</g>
</svg>
