<?xml version="1.0" encoding="utf-8"?>
<!-- Generator: Adobe Illustrator 21.1.0, SVG Export Plug-In . SVG Version: 6.00 Build 0)  -->
<svg version="1.1" id="Layer_1" xmlns="http://www.w3.org/2000/svg" xmlns:xlink="http://www.w3.org/1999/xlink" x="0px" y="0px"
	 viewBox="0 0 24 24" style="enable-background:new 0 0 24 24;" xml:space="preserve">
<style type="text/css">
	.st0{display:none;}
	.st1{display:inline;}
	.st2{fill:#CCCCCC;}
	.st3{fill:none;stroke:#CCCCCC;stroke-width:5.000000e-02;stroke-miterlimit:10;}
	.st4{fill:#FFFFFF;}
	.st5{fill:#1B60AA;}
	.st6{fill-rule:evenodd;clip-rule:evenodd;fill:#F5893D;}
	.st7{fill:#D2AF1F;}
	.st8{fill:#9D7B55;}
	.st9{fill:#F5893D;}
	.st10{fill:#007078;}
	.st11{fill:none;}
	.st12{fill:#D2AF1F;stroke:#FFFFFF;stroke-width:0.75;stroke-linejoin:round;stroke-miterlimit:10;}
	.st13{fill-rule:evenodd;clip-rule:evenodd;fill:#D2AF1F;}
	.st14{fill:#FFFFFF;stroke:#FFFFFF;stroke-width:2;stroke-linejoin:round;stroke-miterlimit:10;}
</style>
<g class="st0">
	<g class="st1">
		<g id="XMLID_10_">
			<g>
				<rect x="23" y="23" class="st2" width="1" height="1"/>
				<rect x="23" y="22" class="st2" width="1" height="1"/>
				<rect x="23" y="21" class="st2" width="1" height="1"/>
				<rect x="23" y="20" class="st2" width="1" height="1"/>
				<rect x="23" y="19" class="st2" width="1" height="1"/>
				<rect x="23" y="18" class="st2" width="1" height="1"/>
				<rect x="23" y="17" class="st2" width="1" height="1"/>
				<rect x="23" y="16" class="st2" width="1" height="1"/>
				<rect x="23" y="15" class="st2" width="1" height="1"/>
				<rect x="23" y="14" class="st2" width="1" height="1"/>
				<rect x="23" y="13" class="st2" width="1" height="1"/>
				<rect x="23" y="12" class="st2" width="1" height="1"/>
				<rect x="23" y="11" class="st2" width="1" height="1"/>
				<rect x="23" y="10" class="st2" width="1" height="1"/>
				<rect x="23" y="9" class="st2" width="1" height="1"/>
				<rect x="23" y="8" class="st2" width="1" height="1"/>
				<rect x="23" y="7" class="st2" width="1" height="1"/>
				<rect x="23" y="6" class="st2" width="1" height="1"/>
				<rect x="23" y="5" class="st2" width="1" height="1"/>
				<rect x="23" y="4" class="st2" width="1" height="1"/>
				<rect x="23" y="3" class="st2" width="1" height="1"/>
				<rect x="23" y="2" class="st2" width="1" height="1"/>
				<rect x="23" y="1" class="st2" width="1" height="1"/>
				<rect x="23" class="st2" width="1" height="1"/>
				<rect x="22" y="23" class="st2" width="1" height="1"/>
				<rect x="22" y="22" class="st2" width="1" height="1"/>
				<rect x="22" y="21" class="st2" width="1" height="1"/>
				<rect x="22" y="20" class="st2" width="1" height="1"/>
				<rect x="22" y="19" class="st2" width="1" height="1"/>
				<rect x="22" y="18" class="st2" width="1" height="1"/>
				<rect x="22" y="17" class="st2" width="1" height="1"/>
				<rect x="22" y="16" class="st2" width="1" height="1"/>
				<rect x="22" y="15" class="st2" width="1" height="1"/>
				<rect x="22" y="14" class="st2" width="1" height="1"/>
				<rect x="22" y="13" class="st2" width="1" height="1"/>
				<rect x="22" y="12" class="st2" width="1" height="1"/>
				<path class="st2" d="M23,11v1h-1c0,0,0,0,0,0v-1H23z"/>
				<rect x="22" y="10" class="st2" width="1" height="1"/>
				<rect x="22" y="9" class="st2" width="1" height="1"/>
				<rect x="22" y="8" class="st2" width="1" height="1"/>
				<rect x="22" y="7" class="st2" width="1" height="1"/>
				<rect x="22" y="6" class="st2" width="1" height="1"/>
				<rect x="22" y="5" class="st2" width="1" height="1"/>
				<rect x="22" y="4" class="st2" width="1" height="1"/>
				<rect x="22" y="3" class="st2" width="1" height="1"/>
				<rect x="22" y="2" class="st2" width="1" height="1"/>
				<rect x="22" y="1" class="st2" width="1" height="1"/>
				<rect x="22" class="st2" width="1" height="1"/>
				<rect x="21" y="23" class="st2" width="1" height="1"/>
				<rect x="21" y="22" class="st2" width="1" height="1"/>
				<rect x="21" y="1" class="st2" width="1" height="1"/>
				<rect x="21" class="st2" width="1" height="1"/>
				<rect x="20" y="23" class="st2" width="1" height="1"/>
				<rect x="20" y="22" class="st2" width="1" height="1"/>
				<rect x="20" y="1" class="st2" width="1" height="1"/>
				<rect x="20" class="st2" width="1" height="1"/>
				<rect x="19" y="23" class="st2" width="1" height="1"/>
				<rect x="19" y="22" class="st2" width="1" height="1"/>
				<rect x="19" y="1" class="st2" width="1" height="1"/>
				<rect x="19" class="st2" width="1" height="1"/>
				<rect x="18" y="23" class="st2" width="1" height="1"/>
				<rect x="18" y="22" class="st2" width="1" height="1"/>
				<rect x="18" y="1" class="st2" width="1" height="1"/>
				<rect x="18" class="st2" width="1" height="1"/>
				<rect x="17" y="23" class="st2" width="1" height="1"/>
				<rect x="17" y="22" class="st2" width="1" height="1"/>
				<rect x="17" y="1" class="st2" width="1" height="1"/>
				<rect x="17" class="st2" width="1" height="1"/>
				<rect x="16" y="23" class="st2" width="1" height="1"/>
				<rect x="16" y="22" class="st2" width="1" height="1"/>
				<rect x="16" y="1" class="st2" width="1" height="1"/>
				<rect x="16" class="st2" width="1" height="1"/>
				<rect x="15" y="23" class="st2" width="1" height="1"/>
				<rect x="15" y="22" class="st2" width="1" height="1"/>
				<rect x="15" y="1" class="st2" width="1" height="1"/>
				<rect x="15" class="st2" width="1" height="1"/>
				<rect x="14" y="23" class="st2" width="1" height="1"/>
				<rect x="14" y="22" class="st2" width="1" height="1"/>
				<rect x="14" y="1" class="st2" width="1" height="1"/>
				<rect x="14" class="st2" width="1" height="1"/>
				<rect x="13" y="23" class="st2" width="1" height="1"/>
				<rect x="13" y="22" class="st2" width="1" height="1"/>
				<rect x="13" y="1" class="st2" width="1" height="1"/>
				<rect x="13" class="st2" width="1" height="1"/>
				<rect x="12" y="23" class="st2" width="1" height="1"/>
				<rect x="12" y="22" class="st2" width="1" height="1"/>
				<path class="st2" d="M13,1v1h-0.8c-0.1,0-0.2,0-0.2,0V1H13z"/>
				<rect x="12" class="st2" width="1" height="1"/>
				<rect x="11" y="23" class="st2" width="1" height="1"/>
				<rect x="11" y="22" class="st2" width="1" height="1"/>
				<rect x="11" y="1" class="st2" width="1" height="1"/>
				<rect x="11" class="st2" width="1" height="1"/>
				<rect x="10" y="23" class="st2" width="1" height="1"/>
				<rect x="10" y="22" class="st2" width="1" height="1"/>
				<rect x="10" y="1" class="st2" width="1" height="1"/>
				<rect x="10" class="st2" width="1" height="1"/>
				<rect x="9" y="23" class="st2" width="1" height="1"/>
				<rect x="9" y="22" class="st2" width="1" height="1"/>
				<rect x="9" y="1" class="st2" width="1" height="1"/>
				<rect x="9" class="st2" width="1" height="1"/>
				<rect x="8" y="23" class="st2" width="1" height="1"/>
				<rect x="8" y="22" class="st2" width="1" height="1"/>
				<rect x="8" y="1" class="st2" width="1" height="1"/>
				<rect x="8" class="st2" width="1" height="1"/>
				<rect x="7" y="23" class="st2" width="1" height="1"/>
				<rect x="7" y="22" class="st2" width="1" height="1"/>
				<rect x="7" y="1" class="st2" width="1" height="1"/>
				<rect x="7" class="st2" width="1" height="1"/>
				<rect x="6" y="23" class="st2" width="1" height="1"/>
				<rect x="6" y="22" class="st2" width="1" height="1"/>
				<rect x="6" y="1" class="st2" width="1" height="1"/>
				<rect x="6" class="st2" width="1" height="1"/>
				<rect x="5" y="23" class="st2" width="1" height="1"/>
				<rect x="5" y="22" class="st2" width="1" height="1"/>
				<rect x="5" y="1" class="st2" width="1" height="1"/>
				<rect x="5" class="st2" width="1" height="1"/>
				<rect x="4" y="23" class="st2" width="1" height="1"/>
				<rect x="4" y="22" class="st2" width="1" height="1"/>
				<rect x="4" y="1" class="st2" width="1" height="1"/>
				<rect x="4" class="st2" width="1" height="1"/>
				<rect x="3" y="23" class="st2" width="1" height="1"/>
				<rect x="3" y="22" class="st2" width="1" height="1"/>
				<rect x="3" y="1" class="st2" width="1" height="1"/>
				<rect x="3" class="st2" width="1" height="1"/>
				<rect x="2" y="23" class="st2" width="1" height="1"/>
				<rect x="2" y="22" class="st2" width="1" height="1"/>
				<rect x="2" y="1" class="st2" width="1" height="1"/>
				<rect x="2" class="st2" width="1" height="1"/>
				<rect x="1" y="23" class="st2" width="1" height="1"/>
				<rect x="1" y="22" class="st2" width="1" height="1"/>
				<rect x="1" y="21" class="st2" width="1" height="1"/>
				<rect x="1" y="20" class="st2" width="1" height="1"/>
				<rect x="1" y="19" class="st2" width="1" height="1"/>
				<rect x="1" y="18" class="st2" width="1" height="1"/>
				<rect x="1" y="17" class="st2" width="1" height="1"/>
				<rect x="1" y="16" class="st2" width="1" height="1"/>
				<rect x="1" y="15" class="st2" width="1" height="1"/>
				<rect x="1" y="14" class="st2" width="1" height="1"/>
				<rect x="1" y="13" class="st2" width="1" height="1"/>
				<rect x="1" y="12" class="st2" width="1" height="1"/>
				<rect x="1" y="11" class="st2" width="1" height="1"/>
				<rect x="1" y="10" class="st2" width="1" height="1"/>
				<rect x="1" y="9" class="st2" width="1" height="1"/>
				<rect x="1" y="8" class="st2" width="1" height="1"/>
				<rect x="1" y="7" class="st2" width="1" height="1"/>
				<rect x="1" y="6" class="st2" width="1" height="1"/>
				<rect x="1" y="5" class="st2" width="1" height="1"/>
				<rect x="1" y="4" class="st2" width="1" height="1"/>
				<rect x="1" y="3" class="st2" width="1" height="1"/>
				<rect x="1" y="2" class="st2" width="1" height="1"/>
				<rect x="1" y="1" class="st2" width="1" height="1"/>
				<rect x="1" class="st2" width="1" height="1"/>
				<rect y="23" class="st2" width="1" height="1"/>
				<rect y="22" class="st2" width="1" height="1"/>
				<rect y="21" class="st2" width="1" height="1"/>
				<rect y="20" class="st2" width="1" height="1"/>
				<rect y="19" class="st2" width="1" height="1"/>
				<rect y="18" class="st2" width="1" height="1"/>
				<rect y="17" class="st2" width="1" height="1"/>
				<rect y="16" class="st2" width="1" height="1"/>
				<rect y="15" class="st2" width="1" height="1"/>
				<rect y="14" class="st2" width="1" height="1"/>
				<rect y="13" class="st2" width="1" height="1"/>
				<rect y="12" class="st2" width="1" height="1"/>
				<rect y="11" class="st2" width="1" height="1"/>
				<rect y="10" class="st2" width="1" height="1"/>
				<rect y="9" class="st2" width="1" height="1"/>
				<rect y="8" class="st2" width="1" height="1"/>
				<rect y="7" class="st2" width="1" height="1"/>
				<rect y="6" class="st2" width="1" height="1"/>
				<rect y="5" class="st2" width="1" height="1"/>
				<rect y="4" class="st2" width="1" height="1"/>
				<rect y="3" class="st2" width="1" height="1"/>
				<rect y="2" class="st2" width="1" height="1"/>
				<rect y="1" class="st2" width="1" height="1"/>
				<rect class="st2" width="1" height="1"/>
			</g>
			<g>
				<polyline class="st3" points="0,1 0,0 1,0 				"/>
				<polyline class="st3" points="1,1 1,0 2,0 				"/>
				<polyline class="st3" points="2,1 2,0 3,0 				"/>
				<polyline class="st3" points="3,1 3,0 4,0 				"/>
				<polyline class="st3" points="4,1 4,0 5,0 				"/>
				<polyline class="st3" points="5,1 5,0 6,0 				"/>
				<polyline class="st3" points="6,1 6,0 7,0 				"/>
				<polyline class="st3" points="7,1 7,0 8,0 				"/>
				<polyline class="st3" points="8,1 8,0 9,0 				"/>
				<polyline class="st3" points="9,1 9,0 10,0 				"/>
				<polyline class="st3" points="10,1 10,0 11,0 				"/>
				<polyline class="st3" points="11,1 11,0 12,0 				"/>
				<polyline class="st3" points="12,1 12,0 13,0 				"/>
				<polyline class="st3" points="13,1 13,0 14,0 				"/>
				<polyline class="st3" points="14,1 14,0 15,0 				"/>
				<polyline class="st3" points="15,1 15,0 16,0 				"/>
				<polyline class="st3" points="16,1 16,0 17,0 				"/>
				<polyline class="st3" points="17,1 17,0 18,0 				"/>
				<polyline class="st3" points="18,1 18,0 19,0 				"/>
				<polyline class="st3" points="19,1 19,0 20,0 				"/>
				<polyline class="st3" points="20,1 20,0 21,0 				"/>
				<polyline class="st3" points="21,1 21,0 22,0 				"/>
				<polyline class="st3" points="22,1 22,0 23,0 				"/>
				<polyline class="st3" points="23,1 23,0 24,0 24,1 				"/>
				<polyline class="st3" points="0,2 0,1 1,1 				"/>
				<polyline class="st3" points="1,2 1,1 2,1 				"/>
				<polyline class="st3" points="2,2 2,1 3,1 				"/>
				<polyline class="st3" points="3,2 3,1 4,1 				"/>
				<polyline class="st3" points="4,2 4,1 5,1 				"/>
				<polyline class="st3" points="5,2 5,1 6,1 				"/>
				<polyline class="st3" points="6,2 6,1 7,1 				"/>
				<polyline class="st3" points="7,2 7,1 8,1 				"/>
				<polyline class="st3" points="8,2 8,1 9,1 				"/>
				<polyline class="st3" points="9,2 9,1 10,1 				"/>
				<polyline class="st3" points="10,2 10,1 11,1 				"/>
				<polyline class="st3" points="11,2 11,1 12,1 				"/>
				<polyline class="st3" points="12,2 12,1 13,1 				"/>
				<polyline class="st3" points="13,2 13,1 14,1 				"/>
				<polyline class="st3" points="14,2 14,1 15,1 				"/>
				<polyline class="st3" points="15,2 15,1 16,1 				"/>
				<polyline class="st3" points="16,2 16,1 17,1 				"/>
				<polyline class="st3" points="17,2 17,1 18,1 				"/>
				<polyline class="st3" points="18,2 18,1 19,1 				"/>
				<polyline class="st3" points="19,2 19,1 20,1 				"/>
				<polyline class="st3" points="20,2 20,1 21,1 				"/>
				<polyline class="st3" points="21,2 21,1 22,1 				"/>
				<polyline class="st3" points="22,2 22,1 23,1 				"/>
				<polyline class="st3" points="23,2 23,1 24,1 24,2 				"/>
				<polyline class="st3" points="0,3 0,2 1,2 				"/>
				<polyline class="st3" points="1,3 1,2 2,2 				"/>
				<polyline class="st3" points="2,3 2,2 3,2 				"/>
				<polyline class="st3" points="3,3 3,2 4,2 				"/>
				<polyline class="st3" points="4,3 4,2 5,2 				"/>
				<polyline class="st3" points="5,3 5,2 6,2 				"/>
				<polyline class="st3" points="6,3 6,2 7,2 				"/>
				<polyline class="st3" points="7,3 7,2 8,2 				"/>
				<polyline class="st3" points="8,3 8,2.8 8,2 9,2 				"/>
				<polyline class="st3" points="9,3 9,2.5 9,2 10,2 				"/>
				<polyline class="st3" points="10,3 10,2.2 10,2 11,2 				"/>
				<polyline class="st3" points="11,3 11,2 11,2 12,2 				"/>
				<line class="st3" x1="12.2" y1="2" x2="13" y2="2"/>
				<line class="st3" x1="12" y1="3" x2="12" y2="2"/>
				<polyline class="st3" points="13,3 13,2 13,2 14,2 				"/>
				<polyline class="st3" points="14,3 14,2.2 14,2 15,2 				"/>
				<polyline class="st3" points="15,3 15,2.5 15,2 16,2 				"/>
				<polyline class="st3" points="16,3 16,2.8 16,2 17,2 				"/>
				<polyline class="st3" points="17,3 17,2 18,2 				"/>
				<polyline class="st3" points="18,3 18,2 19,2 				"/>
				<polyline class="st3" points="19,3 19,2 20,2 				"/>
				<polyline class="st3" points="20,3 20,2 21,2 				"/>
				<polyline class="st3" points="21,3 21,2 22,2 				"/>
				<polyline class="st3" points="22,3 22,2 23,2 				"/>
				<polyline class="st3" points="23,3 23,2 24,2 24,3 				"/>
				<polyline class="st3" points="0,4 0,3 1,3 				"/>
				<polyline class="st3" points="1,4 1,3 2,3 				"/>
				<polyline class="st3" points="2,4 2,3 3,3 				"/>
				<polyline class="st3" points="3,4 3,3 4,3 				"/>
				<polyline class="st3" points="4,4 4,3 5,3 				"/>
				<polyline class="st3" points="5,4 5,3 6,3 				"/>
				<polyline class="st3" points="6,4 6,3 7,3 				"/>
				<polyline class="st3" points="7,4 7,3.3 7,3 7.7,3 8,3 				"/>
				<polyline class="st3" points="8,4 8,3 9,3 				"/>
				<polyline class="st3" points="9,4 9,3 10,3 				"/>
				<polyline class="st3" points="10,4 10,3 11,3 				"/>
				<polyline class="st3" points="11,4 11,3 12,3 				"/>
				<polyline class="st3" points="12,4 12,3 13,3 				"/>
				<polyline class="st3" points="13,4 13,3 14,3 				"/>
				<polyline class="st3" points="14,4 14,3 15,3 				"/>
				<polyline class="st3" points="15,4 15,3 16,3 				"/>
				<polyline class="st3" points="16,4 16,3 16.4,3 17,3 				"/>
				<polyline class="st3" points="17,4 17,3.3 17,3 18,3 				"/>
				<polyline class="st3" points="18,4 18,3 19,3 				"/>
				<polyline class="st3" points="19,4 19,3 20,3 				"/>
				<polyline class="st3" points="20,4 20,3 21,3 				"/>
				<polyline class="st3" points="21,4 21,3 22,3 				"/>
				<polyline class="st3" points="22,4 22,3 23,3 				"/>
				<polyline class="st3" points="23,4 23,3 24,3 24,4 				"/>
				<polyline class="st3" points="0,5 0,4 1,4 				"/>
				<polyline class="st3" points="1,5 1,4 2,4 				"/>
				<polyline class="st3" points="2,5 2,4 3,4 				"/>
				<polyline class="st3" points="3,5 3,4 4,4 				"/>
				<polyline class="st3" points="4,5 4,4 5,4 				"/>
				<polyline class="st3" points="5,5 5,4.9 5,4 6,4 				"/>
				<line class="st3" x1="6" y1="4" x2="7" y2="4"/>
				<line class="st3" x1="6" y1="5" x2="6" y2="4"/>
				<polyline class="st3" points="7,5 7,4 8,4 				"/>
				<polyline class="st3" points="8,5 8,4 9,4 				"/>
				<polyline class="st3" points="9,5 9,4 10,4 				"/>
				<polyline class="st3" points="10,5 10,4 11,4 				"/>
				<polyline class="st3" points="11,5 11,4 12,4 				"/>
				<polyline class="st3" points="12,5 12,4 13,4 				"/>
				<polyline class="st3" points="13,5 13,4 14,4 				"/>
				<polyline class="st3" points="14,5 14,4 15,4 				"/>
				<polyline class="st3" points="15,5 15,4 16,4 				"/>
				<polyline class="st3" points="16,5 16,4 17,4 				"/>
				<polyline class="st3" points="17,5 17,4 18,4 				"/>
				<line class="st3" x1="18" y1="4" x2="19" y2="4"/>
				<line class="st3" x1="18" y1="5" x2="18" y2="4"/>
				<polyline class="st3" points="19,5 19,4.9 19,4 20,4 				"/>
				<polyline class="st3" points="20,5 20,4 21,4 				"/>
				<polyline class="st3" points="21,5 21,4 22,4 				"/>
				<polyline class="st3" points="22,5 22,4 23,4 				"/>
				<polyline class="st3" points="23,5 23,4 24,4 24,5 				"/>
				<polyline class="st3" points="0,6 0,5 1,5 				"/>
				<polyline class="st3" points="1,6 1,5 2,5 				"/>
				<polyline class="st3" points="2,6 2,5 3,5 				"/>
				<polyline class="st3" points="3,6 3,5 4,5 				"/>
				<polyline class="st3" points="4,6 4,5 4.9,5 5,5 				"/>
				<polyline class="st3" points="5,6 5,5 6,5 				"/>
				<polyline class="st3" points="6,6 6,5 7,5 				"/>
				<polyline class="st3" points="7,6 7,5 8,5 				"/>
				<polyline class="st3" points="8,6 8,5 9,5 				"/>
				<polyline class="st3" points="9,6 9,5 10,5 				"/>
				<polyline class="st3" points="10,6 10,5 11,5 				"/>
				<polyline class="st3" points="11,6 11,5 12,5 				"/>
				<polyline class="st3" points="12,6 12,5 13,5 				"/>
				<polyline class="st3" points="13,6 13,5 14,5 				"/>
				<polyline class="st3" points="14,6 14,5 15,5 				"/>
				<polyline class="st3" points="15,6 15,5 16,5 				"/>
				<polyline class="st3" points="16,6 16,5 17,5 				"/>
				<polyline class="st3" points="17,6 17,5 18,5 				"/>
				<polyline class="st3" points="18,6 18,5 19,5 				"/>
				<polyline class="st3" points="19,6 19,5 19.1,5 20,5 				"/>
				<polyline class="st3" points="20,6 20,5 21,5 				"/>
				<polyline class="st3" points="21,6 21,5 22,5 				"/>
				<polyline class="st3" points="22,6 22,5 23,5 				"/>
				<polyline class="st3" points="23,6 23,5 24,5 24,6 				"/>
				<polyline class="st3" points="0,7 0,6 1,6 				"/>
				<polyline class="st3" points="1,7 1,6 2,6 				"/>
				<polyline class="st3" points="2,7 2,6 3,6 				"/>
				<polyline class="st3" points="3,7 3,6 4,6 				"/>
				<line class="st3" x1="4" y1="6" x2="5" y2="6"/>
				<line class="st3" x1="4" y1="7" x2="4" y2="6"/>
				<polyline class="st3" points="5,7 5,6 6,6 				"/>
				<polyline class="st3" points="6,7 6,6 7,6 				"/>
				<polyline class="st3" points="7,7 7,6 8,6 				"/>
				<polyline class="st3" points="8,7 8,6 9,6 				"/>
				<polyline class="st3" points="9,7 9,6 10,6 				"/>
				<polyline class="st3" points="10,7 10,6 11,6 				"/>
				<polyline class="st3" points="11,7 11,6 12,6 				"/>
				<polyline class="st3" points="12,7 12,6 13,6 				"/>
				<polyline class="st3" points="13,7 13,6 14,6 				"/>
				<polyline class="st3" points="14,7 14,6 15,6 				"/>
				<polyline class="st3" points="15,7 15,6 16,6 				"/>
				<polyline class="st3" points="16,7 16,6 17,6 				"/>
				<polyline class="st3" points="17,7 17,6 18,6 				"/>
				<polyline class="st3" points="18,7 18,6 19,6 				"/>
				<polyline class="st3" points="19,7 19,6 20,6 				"/>
				<line class="st3" x1="20" y1="6" x2="21" y2="6"/>
				<line class="st3" x1="20" y1="7" x2="20" y2="6"/>
				<polyline class="st3" points="21,7 21,6 22,6 				"/>
				<polyline class="st3" points="22,7 22,6 23,6 				"/>
				<polyline class="st3" points="23,7 23,6 24,6 24,7 				"/>
				<polyline class="st3" points="0,8 0,7 1,7 				"/>
				<polyline class="st3" points="1,8 1,7 2,7 				"/>
				<polyline class="st3" points="2,8 2,7 3,7 				"/>
				<polyline class="st3" points="3,8 3,7.7 3,7 3.3,7 4,7 				"/>
				<polyline class="st3" points="4,8 4,7 5,7 				"/>
				<polyline class="st3" points="5,8 5,7 6,7 				"/>
				<polyline class="st3" points="6,8 6,7 7,7 				"/>
				<polyline class="st3" points="7,8 7,7 8,7 				"/>
				<polyline class="st3" points="8,8 8,7 9,7 				"/>
				<polyline class="st3" points="9,8 9,7 10,7 				"/>
				<polyline class="st3" points="10,8 10,7 11,7 				"/>
				<polyline class="st3" points="11,8 11,7 12,7 				"/>
				<polyline class="st3" points="12,8 12,7 13,7 				"/>
				<polyline class="st3" points="13,8 13,7 14,7 				"/>
				<polyline class="st3" points="14,8 14,7 15,7 				"/>
				<polyline class="st3" points="15,8 15,7 16,7 				"/>
				<polyline class="st3" points="16,8 16,7 17,7 				"/>
				<polyline class="st3" points="17,8 17,7 18,7 				"/>
				<polyline class="st3" points="18,8 18,7 19,7 				"/>
				<polyline class="st3" points="19,8 19,7 20,7 				"/>
				<polyline class="st3" points="20,8 20,7 20.7,7 21,7 				"/>
				<polyline class="st3" points="21,8 21,7.7 21,7 22,7 				"/>
				<polyline class="st3" points="22,8 22,7 23,7 				"/>
				<polyline class="st3" points="23,8 23,7 24,7 24,8 				"/>
				<polyline class="st3" points="0,9 0,8 1,8 				"/>
				<polyline class="st3" points="1,9 1,8 2,8 				"/>
				<polyline class="st3" points="2,9 2,8 2.8,8 3,8 				"/>
				<polyline class="st3" points="3,9 3,8 4,8 				"/>
				<polyline class="st3" points="4,9 4,8 5,8 				"/>
				<polyline class="st3" points="5,9 5,8 6,8 				"/>
				<polyline class="st3" points="6,9 6,8 7,8 				"/>
				<polyline class="st3" points="7,9 7,8 8,8 				"/>
				<polyline class="st3" points="8,9 8,8 9,8 				"/>
				<polyline class="st3" points="9,9 9,8 10,8 				"/>
				<polyline class="st3" points="10,9 10,8 11,8 				"/>
				<polyline class="st3" points="11,9 11,8 12,8 				"/>
				<polyline class="st3" points="12,9 12,8 13,8 				"/>
				<polyline class="st3" points="13,9 13,8 14,8 				"/>
				<polyline class="st3" points="14,9 14,8 15,8 				"/>
				<polyline class="st3" points="15,9 15,8 16,8 				"/>
				<polyline class="st3" points="16,9 16,8 17,8 				"/>
				<polyline class="st3" points="17,9 17,8 18,8 				"/>
				<polyline class="st3" points="18,9 18,8 19,8 				"/>
				<polyline class="st3" points="19,9 19,8 20,8 				"/>
				<polyline class="st3" points="20,9 20,8 21,8 				"/>
				<polyline class="st3" points="21,9 21,8 21.2,8 22,8 				"/>
				<polyline class="st3" points="22,9 22,8 23,8 				"/>
				<polyline class="st3" points="23,9 23,8 24,8 24,9 				"/>
				<polyline class="st3" points="0,10 0,9 1,9 				"/>
				<polyline class="st3" points="1,10 1,9 2,9 				"/>
				<polyline class="st3" points="2,10 2,9 2.5,9 3,9 				"/>
				<polyline class="st3" points="3,10 3,9 4,9 				"/>
				<polyline class="st3" points="4,10 4,9 5,9 				"/>
				<polyline class="st3" points="5,10 5,9 6,9 				"/>
				<polyline class="st3" points="6,10 6,9 7,9 				"/>
				<polyline class="st3" points="7,10 7,9 8,9 				"/>
				<polyline class="st3" points="8,10 8,9 9,9 				"/>
				<polyline class="st3" points="9,10 9,9 10,9 				"/>
				<polyline class="st3" points="10,10 10,9 11,9 				"/>
				<polyline class="st3" points="11,10 11,9 12,9 				"/>
				<polyline class="st3" points="12,10 12,9 13,9 				"/>
				<polyline class="st3" points="13,10 13,9 14,9 				"/>
				<polyline class="st3" points="14,10 14,9 15,9 				"/>
				<polyline class="st3" points="15,10 15,9 16,9 				"/>
				<polyline class="st3" points="16,10 16,9 17,9 				"/>
				<polyline class="st3" points="17,10 17,9 18,9 				"/>
				<polyline class="st3" points="18,10 18,9 19,9 				"/>
				<polyline class="st3" points="19,10 19,9 20,9 				"/>
				<polyline class="st3" points="20,10 20,9 21,9 				"/>
				<polyline class="st3" points="21,10 21,9 21.5,9 22,9 				"/>
				<polyline class="st3" points="22,10 22,9 23,9 				"/>
				<polyline class="st3" points="23,10 23,9 24,9 24,10 				"/>
				<polyline class="st3" points="0,11 0,10 1,10 				"/>
				<polyline class="st3" points="1,11 1,10 2,10 				"/>
				<polyline class="st3" points="2,11 2,10 2.2,10 3,10 				"/>
				<polyline class="st3" points="3,11 3,10 4,10 				"/>
				<polyline class="st3" points="4,11 4,10 5,10 				"/>
				<polyline class="st3" points="5,11 5,10 6,10 				"/>
				<polyline class="st3" points="6,11 6,10 7,10 				"/>
				<polyline class="st3" points="7,11 7,10 8,10 				"/>
				<polyline class="st3" points="8,11 8,10 9,10 				"/>
				<polyline class="st3" points="9,11 9,10 10,10 				"/>
				<polyline class="st3" points="10,11 10,10 11,10 				"/>
				<polyline class="st3" points="11,11 11,10 12,10 				"/>
				<polyline class="st3" points="12,11 12,10 13,10 				"/>
				<polyline class="st3" points="13,11 13,10 14,10 				"/>
				<polyline class="st3" points="14,11 14,10 15,10 				"/>
				<polyline class="st3" points="15,11 15,10 16,10 				"/>
				<polyline class="st3" points="16,11 16,10 17,10 				"/>
				<polyline class="st3" points="17,11 17,10 18,10 				"/>
				<polyline class="st3" points="18,11 18,10 19,10 				"/>
				<polyline class="st3" points="19,11 19,10 20,10 				"/>
				<polyline class="st3" points="20,11 20,10 21,10 				"/>
				<polyline class="st3" points="21,11 21,10 21.8,10 22,10 				"/>
				<polyline class="st3" points="22,11 22,10 23,10 				"/>
				<polyline class="st3" points="23,11 23,10 24,10 24,11 				"/>
				<polyline class="st3" points="0,12 0,11 1,11 				"/>
				<polyline class="st3" points="1,12 1,11 2,11 				"/>
				<polyline class="st3" points="2,12 2,11 2,11 3,11 				"/>
				<polyline class="st3" points="3,12 3,11 4,11 				"/>
				<polyline class="st3" points="4,12 4,11 5,11 				"/>
				<polyline class="st3" points="5,12 5,11 6,11 				"/>
				<polyline class="st3" points="6,12 6,11 7,11 				"/>
				<polyline class="st3" points="7,12 7,11 8,11 				"/>
				<polyline class="st3" points="8,12 8,11 9,11 				"/>
				<polyline class="st3" points="9,12 9,11 10,11 				"/>
				<polyline class="st3" points="10,12 10,11 11,11 				"/>
				<polyline class="st3" points="11,12 11,11 12,11 				"/>
				<polyline class="st3" points="12,12 12,11 13,11 				"/>
				<polyline class="st3" points="13,12 13,11 14,11 				"/>
				<polyline class="st3" points="14,12 14,11 15,11 				"/>
				<polyline class="st3" points="15,12 15,11 16,11 				"/>
				<polyline class="st3" points="16,12 16,11 17,11 				"/>
				<polyline class="st3" points="17,12 17,11 18,11 				"/>
				<polyline class="st3" points="18,12 18,11 19,11 				"/>
				<polyline class="st3" points="19,12 19,11 20,11 				"/>
				<polyline class="st3" points="20,12 20,11 21,11 				"/>
				<polyline class="st3" points="21,12 21,11 22,11 22,11 				"/>
				<polyline class="st3" points="22,12 22,11 23,11 				"/>
				<polyline class="st3" points="23,12 23,11 24,11 24,12 				"/>
				<polyline class="st3" points="0,13 0,12 1,12 				"/>
				<polyline class="st3" points="1,13 1,12 2,12 				"/>
				<polyline class="st3" points="2,13 2,12 3,12 				"/>
				<polyline class="st3" points="3,13 3,12 4,12 				"/>
				<polyline class="st3" points="4,13 4,12 5,12 				"/>
				<polyline class="st3" points="5,13 5,12 6,12 				"/>
				<polyline class="st3" points="6,13 6,12 7,12 				"/>
				<polyline class="st3" points="7,13 7,12 8,12 				"/>
				<polyline class="st3" points="8,13 8,12 9,12 				"/>
				<polyline class="st3" points="9,13 9,12 10,12 				"/>
				<polyline class="st3" points="10,13 10,12 11,12 				"/>
				<polyline class="st3" points="11,13 11,12 12,12 				"/>
				<polyline class="st3" points="12,13 12,12 13,12 				"/>
				<polyline class="st3" points="13,13 13,12 14,12 				"/>
				<polyline class="st3" points="14,13 14,12 15,12 				"/>
				<polyline class="st3" points="15,13 15,12 16,12 				"/>
				<polyline class="st3" points="16,13 16,12 17,12 				"/>
				<polyline class="st3" points="17,13 17,12 18,12 				"/>
				<polyline class="st3" points="18,13 18,12 19,12 				"/>
				<polyline class="st3" points="19,13 19,12 20,12 				"/>
				<polyline class="st3" points="20,13 20,12 21,12 				"/>
				<polyline class="st3" points="21,13 21,12 22,12 				"/>
				<polyline class="st3" points="22,13 22,12 23,12 				"/>
				<polyline class="st3" points="23,13 23,12 24,12 24,13 				"/>
				<polyline class="st3" points="0,14 0,13 1,13 				"/>
				<polyline class="st3" points="1,14 1,13 2,13 				"/>
				<polyline class="st3" points="2,14 2,13 2,13 3,13 				"/>
				<polyline class="st3" points="3,14 3,13 4,13 				"/>
				<polyline class="st3" points="4,14 4,13 5,13 				"/>
				<polyline class="st3" points="5,14 5,13 6,13 				"/>
				<polyline class="st3" points="6,14 6,13 7,13 				"/>
				<polyline class="st3" points="7,14 7,13 8,13 				"/>
				<polyline class="st3" points="8,14 8,13 9,13 				"/>
				<polyline class="st3" points="9,14 9,13 10,13 				"/>
				<polyline class="st3" points="10,14 10,13 11,13 				"/>
				<polyline class="st3" points="11,14 11,13 12,13 				"/>
				<polyline class="st3" points="12,14 12,13 13,13 				"/>
				<polyline class="st3" points="13,14 13,13 14,13 				"/>
				<polyline class="st3" points="14,14 14,13 15,13 				"/>
				<polyline class="st3" points="15,14 15,13 16,13 				"/>
				<polyline class="st3" points="16,14 16,13 17,13 				"/>
				<polyline class="st3" points="17,14 17,13 18,13 				"/>
				<polyline class="st3" points="18,14 18,13 19,13 				"/>
				<polyline class="st3" points="19,14 19,13 20,13 				"/>
				<polyline class="st3" points="20,14 20,13 21,13 				"/>
				<polyline class="st3" points="21,14 21,13 22,13 22,13 				"/>
				<polyline class="st3" points="22,14 22,13 23,13 				"/>
				<polyline class="st3" points="23,14 23,13 24,13 24,14 				"/>
				<polyline class="st3" points="0,15 0,14 1,14 				"/>
				<polyline class="st3" points="1,15 1,14 2,14 				"/>
				<polyline class="st3" points="2,15 2,14 2.2,14 3,14 				"/>
				<polyline class="st3" points="3,15 3,14 4,14 				"/>
				<polyline class="st3" points="4,15 4,14 5,14 				"/>
				<polyline class="st3" points="5,15 5,14 6,14 				"/>
				<polyline class="st3" points="6,15 6,14 7,14 				"/>
				<polyline class="st3" points="7,15 7,14 8,14 				"/>
				<polyline class="st3" points="8,15 8,14 9,14 				"/>
				<polyline class="st3" points="9,15 9,14 10,14 				"/>
				<polyline class="st3" points="10,15 10,14 11,14 				"/>
				<polyline class="st3" points="11,15 11,14 12,14 				"/>
				<polyline class="st3" points="12,15 12,14 13,14 				"/>
				<polyline class="st3" points="13,15 13,14 14,14 				"/>
				<polyline class="st3" points="14,15 14,14 15,14 				"/>
				<polyline class="st3" points="15,15 15,14 16,14 				"/>
				<polyline class="st3" points="16,15 16,14 17,14 				"/>
				<polyline class="st3" points="17,15 17,14 18,14 				"/>
				<polyline class="st3" points="18,15 18,14 19,14 				"/>
				<polyline class="st3" points="19,15 19,14 20,14 				"/>
				<polyline class="st3" points="20,15 20,14 21,14 				"/>
				<polyline class="st3" points="21,15 21,14 21.8,14 22,14 				"/>
				<polyline class="st3" points="22,15 22,14 23,14 				"/>
				<polyline class="st3" points="23,15 23,14 24,14 24,15 				"/>
				<polyline class="st3" points="0,16 0,15 1,15 				"/>
				<polyline class="st3" points="1,16 1,15 2,15 				"/>
				<polyline class="st3" points="2,16 2,15 2.5,15 3,15 				"/>
				<polyline class="st3" points="3,16 3,15 4,15 				"/>
				<polyline class="st3" points="4,16 4,15 5,15 				"/>
				<polyline class="st3" points="5,16 5,15 6,15 				"/>
				<polyline class="st3" points="6,16 6,15 7,15 				"/>
				<polyline class="st3" points="7,16 7,15 8,15 				"/>
				<polyline class="st3" points="8,16 8,15 9,15 				"/>
				<polyline class="st3" points="9,16 9,15 10,15 				"/>
				<polyline class="st3" points="10,16 10,15 11,15 				"/>
				<polyline class="st3" points="11,16 11,15 12,15 				"/>
				<polyline class="st3" points="12,16 12,15 13,15 				"/>
				<polyline class="st3" points="13,16 13,15 14,15 				"/>
				<polyline class="st3" points="14,16 14,15 15,15 				"/>
				<polyline class="st3" points="15,16 15,15 16,15 				"/>
				<polyline class="st3" points="16,16 16,15 17,15 				"/>
				<polyline class="st3" points="17,16 17,15 18,15 				"/>
				<polyline class="st3" points="18,16 18,15 19,15 				"/>
				<polyline class="st3" points="19,16 19,15 20,15 				"/>
				<polyline class="st3" points="20,16 20,15 21,15 				"/>
				<polyline class="st3" points="21,16 21,15 21.5,15 22,15 				"/>
				<polyline class="st3" points="22,16 22,15 23,15 				"/>
				<polyline class="st3" points="23,16 23,15 24,15 24,16 				"/>
				<polyline class="st3" points="0,17 0,16 1,16 				"/>
				<polyline class="st3" points="1,17 1,16 2,16 				"/>
				<polyline class="st3" points="2,17 2,16 2.8,16 3,16 				"/>
				<polyline class="st3" points="3,17 3,16.4 3,16 4,16 				"/>
				<polyline class="st3" points="4,17 4,16 5,16 				"/>
				<polyline class="st3" points="5,17 5,16 6,16 				"/>
				<polyline class="st3" points="6,17 6,16 7,16 				"/>
				<polyline class="st3" points="7,17 7,16 8,16 				"/>
				<polyline class="st3" points="8,17 8,16 9,16 				"/>
				<polyline class="st3" points="9,17 9,16 10,16 				"/>
				<polyline class="st3" points="10,17 10,16 11,16 				"/>
				<polyline class="st3" points="11,17 11,16 12,16 				"/>
				<polyline class="st3" points="12,17 12,16 13,16 				"/>
				<polyline class="st3" points="13,17 13,16 14,16 				"/>
				<polyline class="st3" points="14,17 14,16 15,16 				"/>
				<polyline class="st3" points="15,17 15,16 16,16 				"/>
				<polyline class="st3" points="16,17 16,16 17,16 				"/>
				<polyline class="st3" points="17,17 17,16 18,16 				"/>
				<polyline class="st3" points="18,17 18,16 19,16 				"/>
				<polyline class="st3" points="19,17 19,16 20,16 				"/>
				<polyline class="st3" points="20,17 20,16 21,16 				"/>
				<polyline class="st3" points="21,17 21,16.4 21,16 21.2,16 22,16 				"/>
				<polyline class="st3" points="22,17 22,16 23,16 				"/>
				<polyline class="st3" points="23,17 23,16 24,16 24,17 				"/>
				<polyline class="st3" points="0,18 0,17 1,17 				"/>
				<polyline class="st3" points="1,18 1,17 2,17 				"/>
				<polyline class="st3" points="2,18 2,17 3,17 				"/>
				<polyline class="st3" points="3,18 3,17 3.3,17 4,17 				"/>
				<polyline class="st3" points="4,18 4,17 5,17 				"/>
				<polyline class="st3" points="5,18 5,17 6,17 				"/>
				<polyline class="st3" points="6,18 6,17 7,17 				"/>
				<polyline class="st3" points="7,18 7,17 8,17 				"/>
				<polyline class="st3" points="8,18 8,17 9,17 				"/>
				<polyline class="st3" points="9,18 9,17 10,17 				"/>
				<polyline class="st3" points="10,18 10,17 11,17 				"/>
				<polyline class="st3" points="11,18 11,17 12,17 				"/>
				<polyline class="st3" points="12,18 12,17 13,17 				"/>
				<polyline class="st3" points="13,18 13,17 14,17 				"/>
				<polyline class="st3" points="14,18 14,17 15,17 				"/>
				<polyline class="st3" points="15,18 15,17 16,17 				"/>
				<polyline class="st3" points="16,18 16,17 17,17 				"/>
				<polyline class="st3" points="17,18 17,17 18,17 				"/>
				<polyline class="st3" points="18,18 18,17 19,17 				"/>
				<polyline class="st3" points="19,18 19,17 20,17 				"/>
				<polyline class="st3" points="20,18 20,17 20.7,17 21,17 				"/>
				<polyline class="st3" points="21,18 21,17 22,17 				"/>
				<polyline class="st3" points="22,18 22,17 23,17 				"/>
				<polyline class="st3" points="23,18 23,17 24,17 24,18 				"/>
				<polyline class="st3" points="0,19 0,18 1,18 				"/>
				<polyline class="st3" points="1,19 1,18 2,18 				"/>
				<polyline class="st3" points="2,19 2,18 3,18 				"/>
				<polyline class="st3" points="3,19 3,18 4,18 				"/>
				<line class="st3" x1="4" y1="18" x2="5" y2="18"/>
				<line class="st3" x1="4" y1="19" x2="4" y2="18"/>
				<polyline class="st3" points="5,19 5,18 6,18 				"/>
				<polyline class="st3" points="6,19 6,18 7,18 				"/>
				<polyline class="st3" points="7,19 7,18 8,18 				"/>
				<polyline class="st3" points="8,19 8,18 9,18 				"/>
				<polyline class="st3" points="9,19 9,18 10,18 				"/>
				<polyline class="st3" points="10,19 10,18 11,18 				"/>
				<polyline class="st3" points="11,19 11,18 12,18 				"/>
				<polyline class="st3" points="12,19 12,18 13,18 				"/>
				<polyline class="st3" points="13,19 13,18 14,18 				"/>
				<polyline class="st3" points="14,19 14,18 15,18 				"/>
				<polyline class="st3" points="15,19 15,18 16,18 				"/>
				<polyline class="st3" points="16,19 16,18 17,18 				"/>
				<polyline class="st3" points="17,19 17,18 18,18 				"/>
				<polyline class="st3" points="18,19 18,18 19,18 				"/>
				<polyline class="st3" points="19,19 19,18 20,18 				"/>
				<polyline class="st3" points="20,19 20,18 21,18 				"/>
				<polyline class="st3" points="21,19 21,18 22,18 				"/>
				<polyline class="st3" points="22,19 22,18 23,18 				"/>
				<polyline class="st3" points="23,19 23,18 24,18 24,19 				"/>
				<polyline class="st3" points="0,20 0,19 1,19 				"/>
				<polyline class="st3" points="1,20 1,19 2,19 				"/>
				<polyline class="st3" points="2,20 2,19 3,19 				"/>
				<polyline class="st3" points="3,20 3,19 4,19 				"/>
				<polyline class="st3" points="4,20 4,19 4.9,19 5,19 				"/>
				<polyline class="st3" points="5,20 5,19.1 5,19 6,19 				"/>
				<polyline class="st3" points="6,20 6,19 7,19 				"/>
				<polyline class="st3" points="7,20 7,19 8,19 				"/>
				<polyline class="st3" points="8,20 8,19 9,19 				"/>
				<polyline class="st3" points="9,20 9,19 10,19 				"/>
				<polyline class="st3" points="10,20 10,19 11,19 				"/>
				<polyline class="st3" points="11,20 11,19 12,19 				"/>
				<polyline class="st3" points="12,20 12,19 13,19 				"/>
				<polyline class="st3" points="13,20 13,19 14,19 				"/>
				<polyline class="st3" points="14,20 14,19 15,19 				"/>
				<polyline class="st3" points="15,20 15,19 16,19 				"/>
				<polyline class="st3" points="16,20 16,19 17,19 				"/>
				<polyline class="st3" points="17,20 17,19 18,19 				"/>
				<polyline class="st3" points="18,20 18,19 19,19 				"/>
				<polyline class="st3" points="19,20 19,19.1 19,19 19.1,19 20,19 				"/>
				<polyline class="st3" points="20,20 20,19 21,19 				"/>
				<polyline class="st3" points="21,20 21,19 22,19 				"/>
				<polyline class="st3" points="22,20 22,19 23,19 				"/>
				<polyline class="st3" points="23,20 23,19 24,19 24,20 				"/>
				<polyline class="st3" points="0,21 0,20 1,20 				"/>
				<polyline class="st3" points="1,21 1,20 2,20 				"/>
				<polyline class="st3" points="2,21 2,20 3,20 				"/>
				<polyline class="st3" points="3,21 3,20 4,20 				"/>
				<polyline class="st3" points="4,21 4,20 5,20 				"/>
				<polyline class="st3" points="5,21 5,20 6,20 				"/>
				<line class="st3" x1="6" y1="20" x2="7" y2="20"/>
				<line class="st3" x1="6" y1="21" x2="6" y2="20"/>
				<polyline class="st3" points="7,21 7,20.7 7,20 8,20 				"/>
				<polyline class="st3" points="8,21 8,20 9,20 				"/>
				<polyline class="st3" points="9,21 9,20 10,20 				"/>
				<polyline class="st3" points="10,21 10,20 11,20 				"/>
				<polyline class="st3" points="11,21 11,20 12,20 				"/>
				<polyline class="st3" points="12,21 12,20 13,20 				"/>
				<polyline class="st3" points="13,21 13,20 14,20 				"/>
				<polyline class="st3" points="14,21 14,20 15,20 				"/>
				<polyline class="st3" points="15,21 15,20 16,20 				"/>
				<polyline class="st3" points="16,21 16,20 17,20 				"/>
				<polyline class="st3" points="17,21 17,20.7 17,20 18,20 				"/>
				<polyline class="st3" points="18,21 18,20 19,20 				"/>
				<polyline class="st3" points="19,21 19,20 20,20 				"/>
				<polyline class="st3" points="20,21 20,20 21,20 				"/>
				<polyline class="st3" points="21,21 21,20 22,20 				"/>
				<polyline class="st3" points="22,21 22,20 23,20 				"/>
				<polyline class="st3" points="23,21 23,20 24,20 24,21 				"/>
				<polyline class="st3" points="0,22 0,21 1,21 				"/>
				<polyline class="st3" points="1,22 1,21 2,21 				"/>
				<polyline class="st3" points="2,22 2,21 3,21 				"/>
				<polyline class="st3" points="3,22 3,21 4,21 				"/>
				<polyline class="st3" points="4,22 4,21 5,21 				"/>
				<polyline class="st3" points="5,22 5,21 6,21 				"/>
				<polyline class="st3" points="6,22 6,21 7,21 				"/>
				<polyline class="st3" points="7,22 7,21 7.7,21 8,21 				"/>
				<polyline class="st3" points="8,22 8,21.2 8,21 9,21 				"/>
				<polyline class="st3" points="9,22 9,21.5 9,21 10,21 				"/>
				<polyline class="st3" points="10,22 10,21.8 10,21 11,21 				"/>
				<polyline class="st3" points="11,22 11,22 11,21 12,21 				"/>
				<polyline class="st3" points="12,22 12,21 13,21 				"/>
				<polyline class="st3" points="13,22 13,22 13,21 14,21 				"/>
				<polyline class="st3" points="14,22 14,21.8 14,21 15,21 				"/>
				<polyline class="st3" points="15,22 15,21.5 15,21 16,21 				"/>
				<polyline class="st3" points="16,22 16,21.2 16,21 16.4,21 17,21 				"/>
				<polyline class="st3" points="17,22 17,21 18,21 				"/>
				<polyline class="st3" points="18,22 18,21 19,21 				"/>
				<polyline class="st3" points="19,22 19,21 20,21 				"/>
				<polyline class="st3" points="20,22 20,21 21,21 				"/>
				<polyline class="st3" points="21,22 21,21 22,21 				"/>
				<polyline class="st3" points="22,22 22,21 23,21 				"/>
				<polyline class="st3" points="23,22 23,21 24,21 24,22 				"/>
				<polyline class="st3" points="0,23 0,22 1,22 				"/>
				<polyline class="st3" points="1,23 1,22 2,22 				"/>
				<polyline class="st3" points="2,23 2,22 3,22 				"/>
				<polyline class="st3" points="3,23 3,22 4,22 				"/>
				<polyline class="st3" points="4,23 4,22 5,22 				"/>
				<polyline class="st3" points="5,23 5,22 6,22 				"/>
				<polyline class="st3" points="6,23 6,22 7,22 				"/>
				<polyline class="st3" points="7,23 7,22 8,22 				"/>
				<polyline class="st3" points="8,23 8,22 9,22 				"/>
				<polyline class="st3" points="9,23 9,22 10,22 				"/>
				<polyline class="st3" points="10,23 10,22 11,22 				"/>
				<polyline class="st3" points="11,23 11,22 12,22 				"/>
				<polyline class="st3" points="12,23 12,22 13,22 				"/>
				<polyline class="st3" points="13,23 13,22 14,22 				"/>
				<polyline class="st3" points="14,23 14,22 15,22 				"/>
				<polyline class="st3" points="15,23 15,22 16,22 				"/>
				<polyline class="st3" points="16,23 16,22 17,22 				"/>
				<polyline class="st3" points="17,23 17,22 18,22 				"/>
				<polyline class="st3" points="18,23 18,22 19,22 				"/>
				<polyline class="st3" points="19,23 19,22 20,22 				"/>
				<polyline class="st3" points="20,23 20,22 21,22 				"/>
				<polyline class="st3" points="21,23 21,22 22,22 				"/>
				<polyline class="st3" points="22,23 22,22 23,22 				"/>
				<polyline class="st3" points="23,23 23,22 24,22 24,23 				"/>
				<polyline class="st3" points="1,24 0,24 0,23 1,23 				"/>
				<polyline class="st3" points="2,24 1,24 1,23 2,23 				"/>
				<polyline class="st3" points="3,24 2,24 2,23 3,23 				"/>
				<polyline class="st3" points="4,24 3,24 3,23 4,23 				"/>
				<polyline class="st3" points="5,24 4,24 4,23 5,23 				"/>
				<polyline class="st3" points="6,24 5,24 5,23 6,23 				"/>
				<polyline class="st3" points="7,24 6,24 6,23 7,23 				"/>
				<polyline class="st3" points="8,24 7,24 7,23 8,23 				"/>
				<polyline class="st3" points="9,24 8,24 8,23 9,23 				"/>
				<polyline class="st3" points="10,24 9,24 9,23 10,23 				"/>
				<polyline class="st3" points="11,24 10,24 10,23 11,23 				"/>
				<polyline class="st3" points="12,24 11,24 11,23 12,23 				"/>
				<polyline class="st3" points="13,24 12,24 12,23 13,23 				"/>
				<polyline class="st3" points="14,24 13,24 13,23 14,23 				"/>
				<polyline class="st3" points="15,24 14,24 14,23 15,23 				"/>
				<polyline class="st3" points="16,24 15,24 15,23 16,23 				"/>
				<polyline class="st3" points="17,24 16,24 16,23 17,23 				"/>
				<polyline class="st3" points="18,24 17,24 17,23 18,23 				"/>
				<polyline class="st3" points="19,24 18,24 18,23 19,23 				"/>
				<polyline class="st3" points="20,24 19,24 19,23 20,23 				"/>
				<polyline class="st3" points="21,24 20,24 20,23 21,23 				"/>
				<polyline class="st3" points="22,24 21,24 21,23 22,23 				"/>
				<polyline class="st3" points="23,24 22,24 22,23 23,23 				"/>
				<rect x="23" y="23" class="st3" width="1" height="1"/>
				<path class="st3" d="M22,12c0,0.3,0,0.7,0,1c0,0.3-0.1,0.7-0.2,1c-0.1,0.3-0.2,0.7-0.3,1c-0.1,0.3-0.2,0.7-0.4,1
					c0,0.1-0.1,0.2-0.2,0.4c-0.1,0.2-0.2,0.4-0.3,0.6c-0.2,0.4-0.4,0.7-0.7,1c0,0,0,0,0,0h0c-0.3,0.4-0.5,0.7-0.9,1c0,0,0,0-0.1,0.1
					s0,0.1-0.1,0.1c-0.3,0.3-0.6,0.6-1,0.9v0c0,0,0,0,0,0c-0.3,0.2-0.6,0.5-1,0.7c-0.2,0.1-0.4,0.2-0.6,0.3
					c-0.1,0.1-0.2,0.1-0.4,0.2c-0.3,0.1-0.7,0.3-1,0.4c-0.3,0.1-0.7,0.2-1,0.3c-0.3,0.1-0.7,0.1-1,0.2c-0.3,0-0.7,0-1,0s-0.7,0-1,0
					c-0.3,0-0.7-0.1-1-0.2c-0.3-0.1-0.7-0.2-1-0.3c-0.3-0.1-0.7-0.2-1-0.4c-0.1,0-0.2-0.1-0.3-0.2c-0.2-0.1-0.4-0.2-0.7-0.3
					c-0.3-0.2-0.7-0.4-1-0.7c0,0,0,0,0,0v0c-0.3-0.3-0.7-0.5-1-0.9c0,0-0.1,0-0.1-0.1s0,0-0.1-0.1c-0.3-0.3-0.6-0.6-0.8-1h0
					c0,0,0,0,0,0c-0.2-0.3-0.5-0.6-0.7-1c-0.1-0.2-0.2-0.4-0.3-0.6c-0.1-0.1-0.1-0.2-0.2-0.4c-0.1-0.3-0.3-0.7-0.4-1
					c-0.1-0.3-0.2-0.7-0.3-1c-0.1-0.3-0.1-0.7-0.2-1c0-0.3,0-0.7,0-1s0-0.7,0-1c0-0.3,0.1-0.7,0.2-1c0.1-0.3,0.2-0.7,0.3-1
					c0.1-0.3,0.2-0.7,0.4-1C2.9,7.9,2.9,7.8,3,7.7C3.1,7.4,3.2,7.2,3.3,7C3.5,6.7,3.8,6.3,4,6c0,0,0,0,0,0h0c0.3-0.3,0.5-0.7,0.8-1
					c0,0,0-0.1,0.1-0.1S5,4.9,5,4.9C5.3,4.6,5.7,4.3,6,4v0c0,0,0,0,0,0c0.3-0.2,0.6-0.5,1-0.7C7.2,3.2,7.4,3.1,7.7,3
					C7.8,2.9,7.9,2.9,8,2.8c0.3-0.1,0.7-0.3,1-0.4c0.3-0.1,0.7-0.2,1-0.3c0.3-0.1,0.7-0.1,1-0.2c0.3,0,0.7,0,1,0c0.1,0,0.2,0,0.2,0
					c0.3,0,0.5,0,0.8,0c0.3,0,0.7,0.1,1,0.2c0.3,0.1,0.7,0.2,1,0.3c0.3,0.1,0.7,0.2,1,0.4c0.1,0.1,0.2,0.1,0.4,0.2
					c0.2,0.1,0.4,0.2,0.6,0.3c0.4,0.2,0.7,0.4,1,0.7c0,0,0,0,0,0v0c0.4,0.3,0.7,0.5,1,0.8c0,0,0,0,0.1,0.1S19.1,5,19.1,5
					c0.3,0.3,0.6,0.7,0.9,1h0c0,0,0,0,0,0c0.2,0.3,0.5,0.6,0.7,1c0.1,0.2,0.2,0.4,0.3,0.7c0.1,0.1,0.1,0.2,0.2,0.3
					c0.1,0.3,0.3,0.7,0.4,1c0.1,0.3,0.2,0.7,0.3,1c0.1,0.3,0.1,0.7,0.2,1C22,11.3,22,11.6,22,12C22,12,22,12,22,12z"/>
				<polyline class="st3" points="22,2 21,3 20,4 19.1,4.9 19,5 18,6 17,7 16,8 15,9 14,10 13,11 12,12 11,13 10,14 9,15 8,16 7,17 
					6,18 5,19 4.9,19.1 4,20 3,21 2,22 				"/>
				<polyline class="st3" points="2,2 3,3 4,4 4.9,4.9 5,5 6,6 7,7 8,8 9,9 10,10 11,11 12,12 13,13 14,14 15,15 16,16 17,17 18,18 
					19,19 19.1,19.1 20,20 21,21 22,22 				"/>
			</g>
		</g>
	</g>
</g>
<g>
	<path class="st4" d="M1.2,3.4h1V24h19.6V3.4h1V0H1.2V3.4z"/>
	<path class="st5" d="M20.8,0.9H3.1h-1v1.6h1v20.6h7.7v-3.4h2.3v3.4h7.7V2.5h1V0.9H20.8z M7.6,21.8h-2v-2h2V21.8z M7.6,18.5h-2v-2h2
		V18.5z M7.6,15.1h-2v-2h2V15.1z M7.6,11.8h-2v-2h2V11.8z M7.6,8.5h-2v-2h2V8.5z M7.6,5.2h-2v-2h2V5.2z M11.2,18.5h-2v-2h2V18.5z
		 M11.2,15.1h-2v-2h2V15.1z M11.2,11.8h-2v-2h2V11.8z M11.2,8.5h-2v-2h2V8.5z M11.2,5.2h-2v-2h2V5.2z M14.8,18.5h-2v-2h2V18.5z
		 M14.8,15.1h-2v-2h2V15.1z M14.8,11.8h-2v-2h2V11.8z M14.8,8.5h-2v-2h2V8.5z M14.8,5.2h-2v-2h2V5.2z M18.4,21.8h-2v-2h2V21.8z
		 M18.4,18.5h-2v-2h2V18.5z M18.4,15.1h-2v-2h2V15.1z M18.4,11.8h-2v-2h2V11.8z M18.4,8.5h-2v-2h2V8.5z M18.4,5.2h-2v-2h2V5.2z"/>
</g>
</svg>
