<?xml version="1.0" encoding="utf-8"?>
<!-- Generator: Adobe Illustrator 21.1.0, SVG Export Plug-In . SVG Version: 6.00 Build 0)  -->
<svg version="1.1" id="Layer_1" xmlns="http://www.w3.org/2000/svg" xmlns:xlink="http://www.w3.org/1999/xlink" x="0px" y="0px"
	 viewBox="0 0 24 24" style="enable-background:new 0 0 24 24;" xml:space="preserve">
<style type="text/css">
	.st0{display:none;}
	.st1{display:inline;}
	.st2{fill:#CCCCCC;}
	.st3{fill:none;stroke:#CCCCCC;stroke-width:5.000000e-02;stroke-miterlimit:10;}
	.st4{fill:#FFFFFF;}
	.st5{fill:#1B60AA;}
	.st6{fill-rule:evenodd;clip-rule:evenodd;fill:#F5893D;}
	.st7{fill:#D2AF1F;}
	.st8{fill:#9D7B55;}
	.st9{fill:#F5893D;}
	.st10{fill:#007078;}
	.st11{fill:none;}
	.st12{fill:#D2AF1F;stroke:#FFFFFF;stroke-width:0.75;stroke-linejoin:round;stroke-miterlimit:10;}
	.st13{fill-rule:evenodd;clip-rule:evenodd;fill:#D2AF1F;}
	.st14{fill:#FFFFFF;stroke:#FFFFFF;stroke-width:2;stroke-linejoin:round;stroke-miterlimit:10;}
</style>
<g>
	<polygon class="st4" points="4.5,1.7 4.5,0.4 0,0.4 0,23.6 4.5,23.6 4.5,20.7 24,20.7 24,6.2 24,6 24,1.7 	"/>
	<path class="st5" d="M23.1,5.3V2.6H3.6V1.4H0.9v21.3h2.7V5.3H9v2.2h-3v12.3h17.1V7.5h-3V5.3H23.1z M19.2,12.7l-0.7-0.4v5.4h-3h-2
		h-3v-5.4l-0.7,0.4l-0.3-0.5l5-2.7l5,2.7L19.2,12.7z M18.8,7.5h-8.6V5.3h8.6V7.5z"/>
</g>
</svg>
