<?xml version="1.0" encoding="utf-8"?>
<!-- Generator: Adobe Illustrator 21.1.0, SVG Export Plug-In . SVG Version: 6.00 Build 0)  -->
<svg version="1.1" id="Layer_1" xmlns="http://www.w3.org/2000/svg" xmlns:xlink="http://www.w3.org/1999/xlink" x="0px" y="0px"
	 viewBox="0 0 24 24" style="enable-background:new 0 0 24 24;" xml:space="preserve">
<style type="text/css">
	.st0{display:none;}
	.st1{display:inline;}
	.st2{fill:#CCCCCC;}
	.st3{fill:none;stroke:#CCCCCC;stroke-width:5.000000e-02;stroke-miterlimit:10;}
	.st4{fill:#FFFFFF;}
	.st5{fill:#1B60AA;}
	.st6{fill-rule:evenodd;clip-rule:evenodd;fill:#F5893D;}
	.st7{fill:#D2AF1F;}
	.st8{fill:#9D7B55;}
	.st9{fill:#F5893D;}
	.st10{fill:#007078;}
	.st11{fill:none;}
	.st12{fill:#D2AF1F;stroke:#FFFFFF;stroke-width:0.75;stroke-linejoin:round;stroke-miterlimit:10;}
	.st13{fill-rule:evenodd;clip-rule:evenodd;fill:#D2AF1F;}
	.st14{fill:#FFFFFF;stroke:#FFFFFF;stroke-width:2;stroke-linejoin:round;stroke-miterlimit:10;}
</style>
<g>
	<path class="st4" d="M19.2,4.7c0.1-0.3,0.1-0.5,0.1-0.8c0-2.2-1.8-3.9-3.9-3.9c-2.2,0-3.9,1.8-3.9,3.9c0,0.1,0,0.2,0,0.3
		c-0.5,0.3-1,0.8-1.3,1.3C8.9,7.2,8.9,9.3,10,11l-2.8,4l-0.9-0.6l-1.1,1.5l0,0L3.7,18l0.9,0.6l-0.7,1l3,2.1l6.1-8.7
		c0.2,0.1,0.4,0.2,0.6,0.3v4.9h-1.1v4.5h1.1V24h3.6V13.4c1.9-0.7,3.1-2.5,3.1-4.6c0-1.3-0.5-2.5-1.3-3.4c0,0,0,0,0-0.1L19.2,4.7z
		 M15.3,2.4c0.8,0,1.5,0.7,1.5,1.5c0,0,0,0,0,0l-1.2-0.4c-0.5-0.1-1-0.2-1.4-0.2c-0.1,0-0.1,0-0.2,0C14.1,2.8,14.7,2.4,15.3,2.4z"/>
	<path class="st5" d="M18,5.8c-0.5,0.7-1.2,1.2-2.1,1.4l0,0c0,0.1-0.1,0.1-0.2,0.2c0,0-0.1,0-0.1,0.1c0,0,0,0-0.1,0
		c-0.1,0-0.1,0-0.2,0c-0.3,0-0.6-0.2-0.7-0.5c0.2,0,0.4,0.1,0.6,0.1c0.3,0,0.5,0,0.7-0.1c0.7-0.2,1.4-0.6,1.8-1.2
		c0.3-0.5,0.5-1.1,0.5-1.7c0-1.7-1.3-3-3-3c-1.7,0-3,1.3-3,3c0,0.3,0,0.5,0.1,0.8C11.8,5,11.3,5.4,10.8,6c-1.1,1.6-0.9,3.6,0.3,5
		l-3.7,5.3l-0.9-0.6l-0.4,0.6L7,16.9l-0.6,0.9l-0.9-0.6L5,17.8l0.9,0.6l-0.7,1l1.5,1l5.9-8.5c-0.9-0.8-1.5-2-1.5-3.3
		c0-1.4,0.6-2.6,1.7-3.4c0.2-0.1,0.3-0.2,0.5-0.3c0.6-0.4,1.3-0.6,2.1-0.6c-0.8-0.2-1.6-0.2-2.3,0c0-0.2-0.1-0.4-0.1-0.5
		c0-1.3,1.1-2.4,2.4-2.4s2.4,1.1,2.4,2.4c0,0.5-0.2,1-0.4,1.3c-0.6-0.3-1.2-0.5-1.9-0.5c-0.7,0-1.4,0.2-2,0.5
		c-0.2,0.1-0.3,0.2-0.5,0.3c-0.9,0.7-1.5,1.9-1.5,3.1c0,1.9,1.3,3.5,3.1,3.9v6.5h-1.1V20h1.1V21h-1.1v0.8h1.1v1.3h1.8V12.7
		c1.8-0.4,3.1-2,3.1-3.9C19.4,7.6,18.8,6.5,18,5.8z M15.4,6c0.2,0,0.4,0.1,0.5,0.3c-0.2,0-0.4,0.1-0.6,0.1c-0.2,0-0.3,0-0.5-0.1
		C14.9,6.1,15.1,6,15.4,6z"/>
</g>
</svg>
