<?xml version="1.0" encoding="utf-8"?>
<!-- Generator: Adobe Illustrator 21.1.0, SVG Export Plug-In . SVG Version: 6.00 Build 0)  -->
<svg version="1.1" id="Layer_1" xmlns="http://www.w3.org/2000/svg" xmlns:xlink="http://www.w3.org/1999/xlink" x="0px" y="0px"
	 viewBox="0 0 24 24" style="enable-background:new 0 0 24 24;" xml:space="preserve">
<style type="text/css">
	.st0{display:none;}
	.st1{display:inline;}
	.st2{fill:#CCCCCC;}
	.st3{fill:none;stroke:#CCCCCC;stroke-width:5.000000e-02;stroke-miterlimit:10;}
	.st4{fill:#FFFFFF;}
	.st5{fill:#1B60AA;}
	.st6{fill-rule:evenodd;clip-rule:evenodd;fill:#F5893D;}
	.st7{fill:#D2AF1F;}
	.st8{fill:#9D7B55;}
	.st9{fill:#F5893D;}
	.st10{fill:#007078;}
	.st11{fill:none;}
	.st12{fill:#D2AF1F;stroke:#FFFFFF;stroke-width:0.75;stroke-linejoin:round;stroke-miterlimit:10;}
	.st13{fill-rule:evenodd;clip-rule:evenodd;fill:#007078;}
	.st14{fill:#FFFFFF;stroke:#FFFFFF;stroke-width:2;stroke-linejoin:round;stroke-miterlimit:10;}
	.st15{fill-rule:evenodd;clip-rule:evenodd;fill:#D2AF1F;}
</style>
<g>
	<path class="st4" d="M23,20.9c0.1-0.2,0.2-0.4,0.2-0.6v-0.7c0-0.1,0-0.3-0.1-0.4c0-0.1,0.1-0.2,0.1-0.4v-1.1c0-0.4-0.2-0.8-0.6-1.1
		l-0.5-0.3c0,0-0.1,0-0.1-0.1c0,0,0,0,0-0.1v-2.1c0.3,0,0.6-0.2,0.8-0.4c0.2-0.3,0.4-0.6,0.3-1L23,11c-0.1-0.7-0.6-1.2-1.3-1.2
		c0,0,0,0,0,0h-0.6c0-0.1-0.1-0.2-0.1-0.3l0-0.1c0.3,0,0.6-0.2,0.8-0.5c0.2-0.3,0.2-0.6,0-0.9c-0.4-0.7-1.3-2.2-2-3.5
		c0.2-0.1,0.4-0.2,0.5-0.4c0.2-0.3,0.1-0.7,0-0.9l-1.5-2.3c-0.2-0.3-0.5-0.4-0.8-0.4c-0.3,0-0.6,0.2-0.8,0.4l-1.5,2.3
		c-0.2,0.3-0.2,0.6,0,0.9c0.1,0.2,0.3,0.4,0.5,0.4l-2,3.5C14,8.2,14,8.2,14,8.3l-1.4,0c-0.5,0-1,0.3-1.2,0.7l-0.3,0.5
		C11.1,9.6,11,9.7,11,9.8h-0.7c0-0.1-0.1-0.2-0.1-0.3L9.9,9.1c0.3,0,0.6-0.2,0.8-0.5c0.2-0.3,0.2-0.7,0-0.9L8.7,4.6
		c0.2-0.1,0.4-0.2,0.5-0.4c0.2-0.3,0.1-0.7,0-0.9L7.6,0.9c-0.3-0.5-1.2-0.5-1.5,0L4.5,3.2c-0.2,0.3-0.2,0.6,0,0.9
		C4.6,4.4,4.8,4.5,5,4.6L3,7.7C2.8,8,2.8,8.3,3,8.6c0.2,0.3,0.4,0.5,0.8,0.5L3.5,9.5C3.4,9.6,3.4,9.7,3.4,9.8h-1
		c-0.9,0-1.7,0.7-1.7,1.7V17c0,0.2,0,0.3,0.1,0.4c-0.1,0.2-0.1,0.5,0,0.7l0.6,1.1c0.1,0.1,0.2,0.2,0.3,0.3c0,0.1,0,0.3,0.1,0.4
		l0.4,0.7c0,0.1,0.1,0.1,0.1,0.1h-1c-0.7,0-1.3,0.6-1.3,1.3c0,0.7,0.6,1.3,1.3,1.3h21.4c0.7,0,1.3-0.6,1.3-1.3
		C24,21.6,23.6,21.1,23,20.9z"/>
	<g>
		<g>
			<path class="st10" d="M22.7,21.8H1.3c-0.2,0-0.4,0.2-0.4,0.4s0.2,0.4,0.4,0.4h21.4c0.2,0,0.4-0.2,0.4-0.4S22.9,21.8,22.7,21.8z"
				/>
			<path class="st10" d="M17.5,9.9c0-0.3-0.2-0.6-0.5-0.6h-4.4c-0.2,0-0.3,0.1-0.4,0.3L11.9,10h5.6V9.9z"/>
			<circle class="st10" cx="8.3" cy="20.7" r="1.1"/>
			<path class="st10" d="M3.5,13h2.2c0.2,0,0.4,0.2,0.4,0.4v1.5c0,0.2-0.2,0.4-0.4,0.4H3.5c-0.2,0-0.4-0.2-0.4-0.4v-1.5
				C3.1,13.1,3.3,13,3.5,13z"/>
			<circle class="st10" cx="19.4" cy="20.7" r="1.1"/>
			<path class="st10" d="M3.8,8.2h0.9c0.1,0,0.3,0.1,0.3,0.2c0.1,0.1,0.1,0.3,0,0.4L4.3,10h5.1L9.2,9.8C9,9.4,8.8,9.1,8.6,8.7
				c-0.1-0.1-0.1-0.3,0-0.4c0.1-0.1,0.2-0.2,0.3-0.2h1C9.3,7.3,8.2,5.5,7.4,4.3C7.4,4.2,7.4,4,7.4,3.9c0.1-0.1,0.2-0.2,0.3-0.2h0.6
				L6.8,1.4L5.3,3.7h0.6c0.1,0,0.3,0.1,0.3,0.2s0.1,0.3,0,0.4L3.8,8.2z"/>
			<path class="st10" d="M8.7,13h1.1c0.2,0,0.4,0.2,0.4,0.4v1.5c0,0.2-0.2,0.4-0.4,0.4H8.7c-0.2,0-0.4-0.2-0.4-0.4v-1.5
				C8.3,13.1,8.5,13,8.7,13z"/>
			<path class="st10" d="M19.4,14.4v1.5c0,0.2,0.2,0.4,0.4,0.4h1.5v-2.2h-1.5C19.5,14.1,19.4,14.2,19.4,14.4z"/>
			<path class="st10" d="M13.8,13.7c-0.6,0-1.1,0.5-1.1,1.1v4.1H15v-4.1C15,14.2,14.5,13.7,13.8,13.7z"/>
			<path class="st10" d="M12,14.8c0-1,0.8-1.8,1.8-1.8s1.8,0.8,1.8,1.8V17h2.2c0.2,0,0.4,0.2,0.4,0.4s-0.2,0.4-0.4,0.4h-2.2v1.1h1.1
				c0.2,0,0.4,0.2,0.4,0.4s-0.2,0.4-0.4,0.4h-5.9c-0.2,0-0.4-0.2-0.4-0.4s0.2-0.4,0.4-0.4H12v-1.1H1.7l0.6,1.1h3.5
				c0.2,0,0.4,0.2,0.4,0.4s-0.2,0.4-0.4,0.4H2.6L3,20.3h3.5c0.2-0.9,0.9-1.5,1.8-1.5s1.6,0.6,1.8,1.5h7.5c0.2-0.9,0.9-1.5,1.8-1.5
				s1.6,0.6,1.8,1.5h1.1v-0.7h-0.7c-0.2,0-0.4-0.2-0.4-0.4s0.2-0.4,0.4-0.4h0.7v-1.1c0-0.1-0.1-0.2-0.2-0.3l-0.5-0.3
				c-0.1,0-0.1-0.1-0.2-0.2h-1.8c-0.6,0-1.1-0.5-1.1-1.1v-1.5c0-0.6,0.5-1.1,1.1-1.1H22c0.1,0,0.2,0,0.3-0.1
				c0.1-0.1,0.1-0.2,0.1-0.3l-0.2-1.8c0-0.2-0.2-0.3-0.4-0.3H2.4c-0.4,0-0.7,0.3-0.7,0.7V17H12V14.8z M18.3,11.9h2.6
				c0.2,0,0.4,0.2,0.4,0.4s-0.2,0.4-0.4,0.4h-2.6c-0.2,0-0.4-0.2-0.4-0.4S18.1,11.9,18.3,11.9z M15.7,11.9h1.1
				c0.2,0,0.4,0.2,0.4,0.4s-0.2,0.4-0.4,0.4h-1.1c-0.2,0-0.4-0.2-0.4-0.4S15.5,11.9,15.7,11.9z M6.8,14.8c0,0.6-0.5,1.1-1.1,1.1H3.5
				c-0.6,0-1.1-0.5-1.1-1.1v-1.5c0-0.6,0.5-1.1,1.1-1.1h2.2c0.6,0,1.1,0.5,1.1,1.1V14.8z M10.9,14.8c0,0.6-0.5,1.1-1.1,1.1H8.7
				c-0.6,0-1.1-0.5-1.1-1.1v-1.5c0-0.6,0.5-1.1,1.1-1.1h1.1c0.6,0,1.1,0.5,1.1,1.1V14.8z"/>
			<path class="st10" d="M14.9,8.5H17c0.7,0,1.3,0.6,1.3,1.4V10h2c-0.2-0.3-0.4-0.6-0.6-0.9c-0.1-0.1-0.1-0.3,0-0.4
				c0.1-0.1,0.2-0.2,0.3-0.2h1c-0.5-1-1.7-3-2.5-4.2c-0.1-0.1-0.1-0.3,0-0.4s0.2-0.2,0.3-0.2h0.6l-1.5-2.3l-1.5,2.3H17
				c0.1,0,0.3,0.1,0.3,0.2s0.1,0.3,0,0.4L14.9,8.5z"/>
		</g>
	</g>
</g>
</svg>
