<?xml version="1.0" encoding="utf-8"?>
<!-- Generator: Adobe Illustrator 21.1.0, SVG Export Plug-In . SVG Version: 6.00 Build 0)  -->
<svg version="1.1" id="Layer_1" xmlns="http://www.w3.org/2000/svg" xmlns:xlink="http://www.w3.org/1999/xlink" x="0px" y="0px"
	 viewBox="0 0 24 24" style="enable-background:new 0 0 24 24;" xml:space="preserve">
<style type="text/css">
	.st0{display:none;}
	.st1{display:inline;}
	.st2{fill:#CCCCCC;}
	.st3{fill:none;stroke:#CCCCCC;stroke-width:5.000000e-02;stroke-miterlimit:10;}
	.st4{fill:#FFFFFF;}
	.st5{fill:#1B60AA;}
	.st6{fill-rule:evenodd;clip-rule:evenodd;fill:#F5893D;}
	.st7{fill:#D2AF1F;}
	.st8{fill:#9D7B55;}
	.st9{fill:#F5893D;}
	.st10{fill:#007078;}
	.st11{fill:none;}
	.st12{fill:#D2AF1F;stroke:#FFFFFF;stroke-width:0.75;stroke-linejoin:round;stroke-miterlimit:10;}
	.st13{fill-rule:evenodd;clip-rule:evenodd;fill:#D2AF1F;}
	.st14{fill:#FFFFFF;stroke:#FFFFFF;stroke-width:2;stroke-linejoin:round;stroke-miterlimit:10;}
</style>
<g>
	<path class="st4" d="M22.5,15.5c-0.1-0.2-0.3-0.3-0.6-0.4l-2.6-0.5v-3.3c0-1-0.8-1.8-1.8-1.8l-2.4,0c0.2-0.4,0.3-0.8,0.3-1.2
		c0-0.7-0.3-1.3-0.8-1.8c-1-1-2.7-1-3.7,0c-0.4,0.5-0.7,1-0.7,1.6L8.8,7v0c0-1-0.8-1.8-1.8-1.8c-0.1,0-0.3,0-0.4,0L6.3,4.9
		c0.1-0.3,0-0.6-0.2-0.9L4.4,1.9C4.3,1.8,4.1,1.7,3.9,1.6L1.7,1C1.4,1,0.8,0.9,0.4,1.4C0.1,1.6,0,2,0,2.4c0,0.5,0.3,0.9,0.6,1.2
		l4.7,3.8v3.9c0,1,0.8,1.8,1.8,1.8h2.2v2.2c-1.3,0.9-2,1.9-2,2.9c0,0.2,0,0.5,0.2,1c0,0-0.1,0-0.1,0c-0.3,0-0.7,0.1-1.3,0.3
		c-0.4,0.1-0.6,0.2-0.7,0.2c-0.5,0-0.9,0.4-0.9,0.9V22c0,0,0,0.1,0,0.1c0,0.3,0.2,0.6,0.5,0.8C5,23,5.2,23,5.3,23
		c0.2,0,0.3,0,0.4-0.1c0.1,0,0.2-0.1,0.3-0.1c0.1,0,0.3-0.1,0.5-0.2c0.7-0.2,0.8-0.2,1.5,0c1,0.3,1.5,0.4,2.6,0
		c0.7-0.2,0.8-0.2,1.5,0c1.1,0.4,1.6,0.3,2.6,0c0.7-0.2,0.8-0.2,1.5,0c1,0.3,1.5,0.4,2.6,0c0.7-0.2,0.8-0.2,1.5,0
		c0.5,0.2,0.8,0.2,1.2,0.3c0.3,0,0.5-0.1,0.7-0.2c0.2-0.2,0.3-0.4,0.3-0.7v-1.4c0-0.2-0.1-0.4-0.2-0.5c0,0,0.1,0,0.1,0
		c0.3-0.2,1.2-1,1.3-1.2c0.2-0.3,0.3-0.6,0.3-0.9c0-0.3-0.2-0.6-0.4-0.8L22.5,15.5z"/>
	<g>
		<g>
			<path class="st10" d="M20.6,20.4c-0.9-0.3-1.1-0.3-2,0c-0.9,0.3-1.2,0.3-2.1,0c-0.9-0.3-1.1-0.3-2,0c-0.9,0.3-1.2,0.3-2.1,0
				c-0.9-0.3-1.1-0.3-2,0c-0.9,0.3-1.2,0.3-2.1,0c-0.4-0.1-0.8-0.2-1-0.2c-0.2,0-0.6,0.1-1,0.2c-0.4,0.1-0.7,0.2-1,0.2V22l0,0.1
				c0.1-0.1,0.5-0.2,0.9-0.3c0.9-0.3,1.2-0.3,2.1,0c0.8,0.3,1.1,0.3,2,0c0.9-0.3,1.2-0.3,2.1,0c0.9,0.3,1.1,0.3,2,0
				c0.9-0.3,1.2-0.3,2.1,0c0.8,0.3,1.1,0.3,2,0c0.9-0.3,1.2-0.3,2.1,0c0.4,0.1,0.7,0.2,0.9,0.2v-1.4C21.4,20.7,21,20.6,20.6,20.4z"
				/>
			<path class="st10" d="M11.7,9.5c-0.3-0.3-0.5-0.7-0.5-1.2c0-0.5,0.2-0.8,0.5-1.2c0.3-0.3,0.7-0.5,1.2-0.5c0.5,0,0.8,0.2,1.2,0.5
				c0.3,0.3,0.5,0.7,0.5,1.2c0,0.5-0.2,0.8-0.5,1.2c-0.3,0.3-0.7,0.5-1.2,0.5C12.5,10,12.1,9.9,11.7,9.5z"/>
		</g>
		<g>
			<path class="st10" d="M22.9,17.7L21.7,16l-3.5-0.7c0.1-0.1,0.2-0.3,0.2-0.5v-3.5c0-0.5-0.4-0.9-0.9-0.9l-3.4,0l1,1.7h1.6v2.3
				l-3.5-2.8v-1.2h-0.7v0.6L7.9,7.4V7c0-0.5-0.4-0.9-0.9-0.9c-0.2,0-0.4,0.1-0.5,0.2L4.9,5l0.4-0.4L3.7,2.5L1.5,2
				C1.3,1.9,1.2,1.9,1,2C0.9,2.2,0.9,2.7,1.2,2.9l5,4.1v4.4c0,0.5,0.4,0.9,0.9,0.9h3.1v3.7c-1,0.7-2,1.5-2,2.4
				c0,0.3,0.1,0.7,0.3,1.3c0.7,0.2,1.1,0.2,1.9-0.1c0.9-0.3,1.1-0.3,2,0c0.9,0.3,1.2,0.3,2.1,0c0.8-0.3,1.1-0.3,2,0
				c0.3,0.1,0.5,0.2,0.7,0.2c0.2-0.6,0.4-1.1,0.4-1.4c0-1.7-3.3-3.2-4.4-3.6v-2l8.2,6.7c0.1,0.1,0.2,0.1,0.2,0.1
				c0.1,0,0.1,0,0.2-0.1c0.4-0.3,1.1-1,1.2-1C23.1,18.1,23.1,17.9,22.9,17.7z M7.9,10.5V8.4l2.6,2.1L7.9,10.5z M12.5,14.7
				c-0.4,0.2-1,0.4-1.7,0.8v-3l0.6-1.3l1.1,0.9L12.5,14.7L12.5,14.7z"/>
		</g>
	</g>
</g>
</svg>
