<?xml version="1.0" encoding="utf-8"?>
<!-- Generator: Adobe Illustrator 21.1.0, SVG Export Plug-In . SVG Version: 6.00 Build 0)  -->
<svg version="1.1" id="Layer_1" xmlns="http://www.w3.org/2000/svg" xmlns:xlink="http://www.w3.org/1999/xlink" x="0px" y="0px"
	 viewBox="0 0 24 24" style="enable-background:new 0 0 24 24;" xml:space="preserve">
<style type="text/css">
	.st0{display:none;}
	.st1{display:inline;}
	.st2{fill:#CCCCCC;}
	.st3{fill:none;stroke:#CCCCCC;stroke-width:5.000000e-02;stroke-miterlimit:10;}
	.st4{fill:#FFFFFF;}
	.st5{fill:#1B60AA;}
	.st6{fill-rule:evenodd;clip-rule:evenodd;fill:#F5893D;}
	.st7{fill:#D2AF1F;}
	.st8{fill:#9D7B55;}
	.st9{fill:#F5893D;}
	.st10{fill:#007078;}
	.st11{fill:none;}
	.st12{fill:#D2AF1F;stroke:#FFFFFF;stroke-width:0.75;stroke-linejoin:round;stroke-miterlimit:10;}
	.st13{fill-rule:evenodd;clip-rule:evenodd;fill:#D2AF1F;}
	.st14{fill:#FFFFFF;stroke:#FFFFFF;stroke-width:2;stroke-linejoin:round;stroke-miterlimit:10;}
</style>
<g>
	<path class="st4" d="M23.1,17.5c-0.2-0.1-0.4-0.3-0.6-0.4L22.3,17c-0.4-0.2-0.7-0.3-1.1-0.5c-2.1-0.7-4.3-1-7.3-1.2
		c-1.1,0-2.2,0-3.3,0c-0.3,0-0.6,0-0.9,0v-1.4c0-1.8,0-3.7,0-5.5c1.9-0.7,3.8-1.3,5.6-2L16.5,6c0.1,0,0.1-0.1,0.2-0.1l0.1-0.1
		c0.4-0.1,0.6-0.5,0.6-0.9c0-0.4-0.3-0.7-0.6-0.8L8.1,1.1C7.8,1,7.5,1,7.3,1.2C7,1.4,6.9,1.7,6.9,2v13.6c0,0,0,0,0,0l-1.1,0.2
		C5,16,4.2,16.2,3.4,16.4c-0.9,0.2-1.7,0.6-2.4,1.1c-0.9,0.6-1,1.3-1,1.8c0,0.5,0.2,1.1,1.1,1.7c0.5,0.4,1.2,0.7,1.8,0.9
		c2.6,0.9,5.2,1.1,7.4,1.2c0.6,0,1.2,0,1.8,0c1.4,0,2.6-0.1,3.8-0.2c1.3-0.1,3-0.4,4.7-0.9c0.8-0.2,1.6-0.5,2.4-1.1
		c0.8-0.6,0.9-1.2,0.9-1.7C24,18.7,23.8,18.1,23.1,17.5z"/>
	<g>
		<g>
			<path class="st10" d="M7,16.5c0.1,0.7,0.2,1.2,0.2,1.8c0,0.1,0,0.2,0.1,0.4c0,0.2,0,0.3-0.2,0.4c-0.2,0.1-0.2,0.2,0,0.3
				c0.2,0.1,0.4,0.1,0.6,0.2c0-5.9,0-11.7,0-17.5c2.9,1,5.8,2,8.7,3.1c-0.2,0.1-0.2,0.1-0.3,0.1C13.8,6,11.4,6.9,9,7.7
				C8.8,7.8,8.7,7.9,8.7,8.2c0,2.6,0,5.2,0,7.9c0,0.1,0,0.2,0,0.3c0.2,0,0.4,0,0.5,0c1.5,0,3-0.1,4.5,0c2.4,0.1,4.8,0.3,7.1,1.1
				c0.4,0.1,0.8,0.3,1.2,0.5c0.2,0.1,0.3,0.2,0.4,0.3c0.8,0.6,0.8,1.3,0,1.8c-0.6,0.5-1.3,0.7-2.1,1c-1.5,0.5-3,0.7-4.6,0.8
				C14,22,12.2,22.1,10.4,22c-2.4-0.1-4.9-0.3-7.2-1.1c-0.6-0.2-1.1-0.4-1.6-0.8c-0.9-0.6-0.9-1.3,0-2c0.6-0.4,1.3-0.7,2-0.9
				C4.7,17,5.9,16.7,7,16.5z M16,19.1c0,0.5,0.4,0.9,0.9,0.9c0.5,0,0.9-0.4,0.9-0.9c0-0.5-0.4-0.9-0.9-0.9
				C16.4,18.2,16,18.6,16,19.1z M8.7,19.5c0.2-0.1,0.4-0.1,0.6-0.2c0.2-0.1,0.2-0.2,0-0.3c-0.2-0.1-0.4-0.1-0.6-0.2
				C8.7,19,8.7,19.2,8.7,19.5z"/>
		</g>
	</g>
</g>
</svg>
