<?xml version="1.0" encoding="utf-8"?>
<!-- Generator: Adobe Illustrator 21.1.0, SVG Export Plug-In . SVG Version: 6.00 Build 0)  -->
<svg version="1.1" id="Layer_1" xmlns="http://www.w3.org/2000/svg" xmlns:xlink="http://www.w3.org/1999/xlink" x="0px" y="0px"
	 viewBox="0 0 24 24" style="enable-background:new 0 0 24 24;" xml:space="preserve">
<style type="text/css">
	.st0{display:none;}
	.st1{display:inline;}
	.st2{fill:#CCCCCC;}
	.st3{fill:none;stroke:#CCCCCC;stroke-width:5.000000e-02;stroke-miterlimit:10;}
	.st4{fill:#FFFFFF;}
	.st5{fill:#1B60AA;}
	.st6{fill-rule:evenodd;clip-rule:evenodd;fill:#F5893D;}
	.st7{fill:#D2AF1F;}
	.st8{fill:#9D7B55;}
	.st9{fill:#F5893D;}
	.st10{fill:#007078;}
	.st11{fill:none;}
	.st12{fill:#D2AF1F;stroke:#FFFFFF;stroke-width:0.75;stroke-linejoin:round;stroke-miterlimit:10;}
	.st13{fill-rule:evenodd;clip-rule:evenodd;fill:#007078;}
	.st14{fill:#FFFFFF;stroke:#FFFFFF;stroke-width:2;stroke-linejoin:round;stroke-miterlimit:10;}
	.st15{fill-rule:evenodd;clip-rule:evenodd;fill:#D2AF1F;}
</style>
<g>
	<path class="st4" d="M24,20c0-1.5-0.8-2.3-1.7-2.9c-0.5-0.3-1.1-0.6-1.7-0.8c-0.3-0.1-0.5-0.2-0.8-0.3c-0.9-0.4-1.4-0.8-1.8-1.3
		c-0.4-0.5-0.7-1.3-0.8-2.4l4-4c0.3-0.3,0.4-0.7,0.4-1.1c0-0.4-0.2-0.8-0.4-1l-5.8-5.7c-0.3-0.3-0.6-0.4-1-0.4c-0.3,0-0.7,0.1-1,0.4
		L9.2,4.7C6.7,4.8,5.3,6,4,7.2L3.3,8c-1,1-1.9,1.9-2.8,2.8c-0.8,0.9-0.5,1.7,0,2.2l8.8,8H2.4c-0.8,0-1.5,0.6-1.5,1.4
		c0,0.4,0.1,0.8,0.4,1.1C1.6,23.8,1.9,24,2.4,24h7.9c0,0,0,0,0,0c0.4,0,0.7-0.1,1-0.4c0.1-0.1,0.3-0.3,0.3-0.5
		c0.9,0.6,1.7,0.9,2.8,0.9h8c0.6,0,1-0.3,1.2-0.5c0.3-0.3,0.4-0.7,0.4-1.1l0-0.8L24,20z M7.7,8C7.7,8,7.7,8,7.7,8C7.7,8,7.7,8,7.7,8
		L7.7,8z"/>
	<g transform="translate(0,-952.36218)">
		<path class="st13" d="M2.4,974.3c-0.3,0-0.6,0.2-0.6,0.5c0,0.3,0.2,0.6,0.5,0.6c0,0,0,0,0,0h7.9c0.3,0,0.6-0.2,0.6-0.5
			c0-0.3-0.2-0.6-0.5-0.6c0,0,0,0,0,0H2.4z"/>
		<path class="st13" d="M14.5,953.3c-0.1,0-0.3,0.1-0.4,0.2l-4.5,4.5c0,0-0.1,0-0.1,0c-2.3,0-3.6,1.2-4.8,2.3
			c-1.2,1.2-2.5,2.5-3.5,3.5c-0.4,0.4-0.3,0.7,0,0.9l10.2,9.4c1.2,1.1,2.1,1.3,3,1.4h8c0.5,0,0.7-0.3,0.7-0.6c0-0.8,0-1.7,0-2.5
			c0-1.1-0.6-1.6-1.3-2.1c-0.7-0.4-1.5-0.7-2.3-1.1c-0.8-0.4-1.5-0.8-2.1-1.5c-0.5-0.7-0.9-1.7-1-3c0-0.1,0-0.2,0-0.3l4.3-4.3
			c0.2-0.2,0.2-0.6,0-0.8l-5.7-5.7C14.7,953.3,14.6,953.3,14.5,953.3z M8.7,959.1c-0.5,2.9,2.1,6.3,6.5,6c0,0.3,0.1,0.5,0.1,0.7
			l-1.2,0.4c-0.3,0.1-0.4,0.4-0.3,0.7c0.1,0.3,0.4,0.4,0.7,0.3l1.1-0.4c0.1,0.3,0.2,0.5,0.4,0.8l-1,0.3c-0.3,0.1-0.4,0.4-0.3,0.7
			c0.1,0.3,0.4,0.4,0.7,0.3l1.3-0.5c0.7,0.7,1.4,1.1,2.2,1.5c0.9,0.4,1.7,0.7,2.2,1.1c0.3,0.2,0.6,0.4,0.7,0.6h-6.6
			c-0.9,0-1.4-0.3-2.3-1.1l-2.7-2.4c0.7-1.7,0.5-4-1.2-5.5c-1-0.8-1.9-1.7-2.9-2.5C6.9,959.7,7.6,959.2,8.7,959.1L8.7,959.1z
			 M4.2,962.3l1.6,1.4c0.8,0.7,1,1.1,1,1.4c0,0,0,0,0,0.1L4,962.6C4.1,962.5,4.2,962.4,4.2,962.3z M3.2,963.4l9.1,8.2
			c0.9,0.8,1.8,1.3,3,1.3H22v1.4h-7.5c-0.9,0-1.7-0.5-2.3-1.1c-3.3-3-6.6-6-9.9-9C2.6,963.9,2.9,963.7,3.2,963.4L3.2,963.4z"/>
	</g>
</g>
</svg>
