<?xml version="1.0" encoding="utf-8"?>
<!-- Generator: Adobe Illustrator 21.1.0, SVG Export Plug-In . SVG Version: 6.00 Build 0)  -->
<svg version="1.1" id="Layer_1" xmlns="http://www.w3.org/2000/svg" xmlns:xlink="http://www.w3.org/1999/xlink" x="0px" y="0px"
	 viewBox="0 0 24 24" style="enable-background:new 0 0 24 24;" xml:space="preserve">
<style type="text/css">
	.st0{display:none;}
	.st1{display:inline;}
	.st2{fill:#CCCCCC;}
	.st3{fill:none;stroke:#CCCCCC;stroke-width:5.000000e-02;stroke-miterlimit:10;}
	.st4{fill:#FFFFFF;}
	.st5{fill:#1B60AA;}
	.st6{fill-rule:evenodd;clip-rule:evenodd;fill:#F5893D;}
	.st7{fill:#D2AF1F;}
	.st8{fill:#9D7B55;}
	.st9{fill:#F5893D;}
	.st10{fill:#007078;}
	.st11{fill:none;}
	.st12{fill:#D2AF1F;stroke:#FFFFFF;stroke-width:0.75;stroke-linejoin:round;stroke-miterlimit:10;}
	.st13{fill-rule:evenodd;clip-rule:evenodd;fill:#D2AF1F;}
	.st14{fill:#FFFFFF;stroke:#FFFFFF;stroke-width:2;stroke-linejoin:round;stroke-miterlimit:10;}
</style>
<g>
	<path class="st4" d="M15.5,4.3c0.1-0.3,0.2-0.6,0.2-1C15.7,1.5,14,0,12,0S8.3,1.5,8.3,3.3c0,0.3,0.1,0.7,0.2,1
		c-4,1.5-6.6,5.2-6.6,9.5C1.8,19.4,6.4,24,12,24s10.2-4.6,10.2-10.2C22.2,9.5,19.5,5.8,15.5,4.3z"/>
	<path id="compass-10" class="st10" d="M13,12.3l-1-4l-1,4c-0.3,0.2-0.5,0.4-0.6,0.7l-3.9,0.9l3.9,0.9c0.1,0.3,0.4,0.5,0.6,0.7l1,4
		l1-4c0.3-0.2,0.5-0.4,0.6-0.7l3.9-0.9L13.6,13C13.5,12.7,13.3,12.5,13,12.3z M12,14.8c-0.5,0-0.9-0.4-0.9-0.9s0.4-0.9,0.9-0.9
		c0.5,0,0.9,0.4,0.9,0.9S12.5,14.8,12,14.8z M15.2,17.1l-1.6-1c0.2-0.2,0.4-0.4,0.6-0.6L15.2,17.1z M13.6,11.6l1.6-1l-1,1.6
		C14.1,12,13.9,11.8,13.6,11.6z M10.4,16.1l-1.6,1l1-1.6C9.9,15.7,10.1,15.9,10.4,16.1z M9.8,12.2l-1-1.6l1.6,1
		C10.1,11.8,9.9,12,9.8,12.2z M14.1,4.9c0.4-0.4,0.6-0.9,0.6-1.5c0-1.3-1.2-2.4-2.8-2.4c-1.5,0-2.8,1.1-2.8,2.4
		c0,0.6,0.2,1.1,0.6,1.5c-4.1,1-7.1,4.6-7.1,9c0,5.1,4.1,9.2,9.2,9.2c5.1,0,9.2-4.1,9.2-9.2C21.2,9.5,18.2,5.8,14.1,4.9z M12,2.3
		c0.7,0,1.4,0.5,1.4,1s-0.6,1-1.4,1c-0.8,0-1.4-0.5-1.4-1S11.3,2.3,12,2.3z M12,21.2c-4.1,0-7.4-3.3-7.4-7.4S7.9,6.5,12,6.5
		c4.1,0,7.4,3.3,7.4,7.4S16.1,21.2,12,21.2z"/>
</g>
</svg>
