<?xml version="1.0" encoding="utf-8"?>
<!-- Generator: Adobe Illustrator 21.1.0, SVG Export Plug-In . SVG Version: 6.00 Build 0)  -->
<svg version="1.1" id="Layer_1" xmlns="http://www.w3.org/2000/svg" xmlns:xlink="http://www.w3.org/1999/xlink" x="0px" y="0px"
	 viewBox="0 0 24 24" style="enable-background:new 0 0 24 24;" xml:space="preserve">
<style type="text/css">
	.st0{display:none;}
	.st1{display:inline;}
	.st2{fill:#CCCCCC;}
	.st3{fill:none;stroke:#CCCCCC;stroke-width:5.000000e-02;stroke-miterlimit:10;}
	.st4{fill:#FFFFFF;}
	.st5{fill:#1B60AA;}
	.st6{fill-rule:evenodd;clip-rule:evenodd;fill:#F5893D;}
	.st7{fill:#D2AF1F;}
	.st8{fill:#9D7B55;}
	.st9{fill:#F5893D;}
	.st10{fill:#007078;}
	.st11{fill:none;}
	.st12{fill:#D2AF1F;stroke:#FFFFFF;stroke-width:0.75;stroke-linejoin:round;stroke-miterlimit:10;}
	.st13{fill-rule:evenodd;clip-rule:evenodd;fill:#D2AF1F;}
	.st14{fill:#FFFFFF;stroke:#FFFFFF;stroke-width:2;stroke-linejoin:round;stroke-miterlimit:10;}
</style>
<g>
	<path class="st4" d="M23.7,9.2L23,8.5c-0.2-0.2-0.4-0.3-0.7-0.3s-0.5,0.1-0.7,0.3l-1.2,1.2c0-0.2-0.1-0.4-0.3-0.5l-0.7-0.7
		c-0.1-0.1-0.2-0.1-0.3-0.2h1.4c0.5,0,0.9-0.4,0.9-0.9v-1c0-0.5-0.4-0.9-0.9-0.9h-2.1V3.4c0-0.5-0.4-0.9-0.9-0.9h-1
		c-0.5,0-0.9,0.4-0.9,0.9v1.5c0-0.2-0.1-0.3-0.2-0.4l-0.7-0.7c-0.1-0.1-0.3-0.2-0.5-0.3l1.2-1.2c0.2-0.2,0.3-0.4,0.3-0.7
		S15.7,1.1,15.5,1l-0.7-0.7c-0.4-0.4-0.9-0.4-1.3,0L12,1.7l-1.5-1.5c-0.4-0.4-0.9-0.4-1.3,0L8.5,1C8.3,1.1,8.2,1.4,8.2,1.6
		s0.1,0.5,0.3,0.7l1.2,1.2c-0.2,0-0.4,0.1-0.5,0.3L8.5,4.5C8.5,4.5,8.4,4.6,8.4,4.7V3.4c0-0.5-0.4-0.9-0.9-0.9h-1
		c-0.5,0-0.9,0.4-0.9,0.9v2.1H3.4c-0.5,0-0.9,0.4-0.9,0.9v1c0,0.5,0.4,0.9,0.9,0.9h1.3c-0.1,0-0.2,0.1-0.3,0.2L3.8,9.2
		C3.6,9.4,3.5,9.6,3.5,9.8L2.3,8.5c-0.3-0.3-1-0.3-1.3,0L0.3,9.2c-0.4,0.4-0.4,0.9,0,1.3L1.7,12l-1.5,1.5C0.1,13.7,0,13.9,0,14.1
		s0.1,0.5,0.3,0.7L1,15.5c0.4,0.4,0.9,0.4,1.3,0l1.2-1.2c0,0.2,0.1,0.4,0.3,0.5l0.7,0.7c0.1,0.1,0.2,0.1,0.3,0.2H3.4
		c-0.5,0-0.9,0.4-0.9,0.9v1c0,0.5,0.4,0.9,0.9,0.9h2.1v2.1c0,0.5,0.4,0.9,0.9,0.9h1c0.5,0,0.9-0.4,0.9-0.9v-1.3
		c0,0.1,0.1,0.1,0.1,0.2l0.7,0.7c0.1,0.1,0.3,0.2,0.5,0.3l-1.2,1.2c-0.4,0.4-0.4,0.9,0,1.3l0.7,0.7c0.3,0.3,1,0.3,1.3,0l1.5-1.5
		l1.5,1.5c0.2,0.2,0.4,0.3,0.7,0.3c0.2,0,0.5-0.1,0.7-0.3l0.7-0.7c0.2-0.2,0.3-0.4,0.3-0.7c0-0.2-0.1-0.5-0.3-0.7l-1.2-1.2
		c0.2,0,0.4-0.1,0.5-0.3l0.7-0.7c0.1-0.1,0.2-0.3,0.2-0.4v1.5c0,0.5,0.4,0.9,0.9,0.9h1c0.5,0,0.9-0.4,0.9-0.9v-2.1h2.1
		c0.5,0,0.9-0.4,0.9-0.9v-1c0-0.5-0.4-0.9-0.9-0.9h-1.4c0.1,0,0.2-0.1,0.3-0.2l0.7-0.7c0.1-0.1,0.2-0.3,0.3-0.5l1.2,1.2
		c0.4,0.4,0.9,0.4,1.3,0l0.7-0.7c0.2-0.2,0.3-0.4,0.3-0.7s-0.1-0.5-0.3-0.7L22.3,12l1.5-1.5C24.1,10.2,24.1,9.6,23.7,9.2z"/>
	<polygon class="st10" points="23.1,9.9 22.4,9.2 20,11.5 17.9,11.5 19.6,9.9 18.9,9.2 16.5,11.5 13.2,11.5 17.4,7.4 20.7,7.4 
		20.7,6.4 17.6,6.4 17.6,3.4 16.6,3.4 16.6,6.7 12.5,10.8 12.5,7.4 14.8,5.1 14.1,4.4 12.5,6 12.5,3.9 14.8,1.6 14.1,0.9 12,3.1 
		9.9,0.9 9.2,1.6 11.5,4 11.5,6.1 9.9,4.4 9.2,5.1 11.5,7.5 11.5,10.8 7.4,6.7 7.4,3.4 6.5,3.4 6.5,6.4 3.4,6.4 3.4,7.4 6.7,7.4 
		10.8,11.5 7.5,11.5 5.1,9.2 4.4,9.9 6.1,11.5 4,11.5 1.6,9.2 0.9,9.9 3.1,12 0.9,14.1 1.6,14.8 4,12.5 6.1,12.5 4.4,14.1 5.1,14.8 
		7.5,12.5 10.8,12.5 6.7,16.6 3.4,16.6 3.4,17.6 6.5,17.6 6.5,20.6 7.4,20.6 7.4,17.3 11.5,13.2 11.5,16.5 9.2,18.9 9.9,19.6 
		11.5,17.9 11.5,20 9.2,22.4 9.9,23.1 12,20.9 14.1,23.1 14.8,22.4 12.5,20.1 12.5,18 14.1,19.6 14.8,18.9 12.5,16.6 12.5,13.2 
		16.6,17.3 16.6,20.6 17.6,20.6 17.6,17.6 20.7,17.6 20.7,16.6 17.4,16.6 13.2,12.5 16.5,12.5 18.9,14.8 19.6,14.1 17.9,12.5 
		20,12.5 22.4,14.8 23.1,14.1 20.9,12 	"/>
</g>
</svg>
