<?xml version="1.0" encoding="UTF-8"?>
<svg width="48px" height="46px" viewBox="0 0 48 46" version="1.1" xmlns="http://www.w3.org/2000/svg" xmlns:xlink="http://www.w3.org/1999/xlink">
    <!-- Generator: Sketch 43.2 (39069) - http://www.bohemiancoding.com/sketch -->
    <title>events</title>
    <desc>Created with Sketch.</desc>
    <defs></defs>
    <g id="Page-1" stroke="none" stroke-width="1" fill="none" fill-rule="evenodd" stroke-linejoin="round">
        <g id="events" transform="translate(1.000000, 1.000000)" stroke="#FFFFFF" stroke-width="2">
            <polygon id="Stroke-1" points="39.984 35 45.984 30 38.984 30 35 22 31.016 30 24.016 30 30.016 35 27.016 44 35 38.518 42.984 44"></polygon>
            <polyline id="Stroke-3" stroke-linecap="round" points="40 22 40 4 32 4"></polyline>
            <polyline id="Stroke-5" stroke-linecap="round" points="8 4 0 4 0 36 23 36"></polyline>
            <polygon id="Stroke-7" stroke-linecap="round" points="8 0 14 0 14 8 8 8"></polygon>
            <polygon id="Stroke-9" stroke-linecap="round" points="26 0 32 0 32 8 26 8"></polygon>
            <path d="M14,4 L26,4" id="Stroke-11" stroke-linecap="round"></path>
            <path d="M0,14 L40,14" id="Stroke-13" stroke-linecap="round"></path>
        </g>
    </g>
</svg>