<?xml version="1.0" encoding="UTF-8" standalone="no"?>
<svg width="66px" height="66px" viewBox="0 0 66 66" version="1.1" xmlns="http://www.w3.org/2000/svg" xmlns:xlink="http://www.w3.org/1999/xlink">
    <!-- Generator: Sketch 39.1 (31720) - http://www.bohemiancoding.com/sketch -->
    <title>Combined Shape</title>
    <desc>Created with Sketch.</desc>
    <defs></defs>
    <g id="Page-1" stroke="none" stroke-width="1" fill="none" fill-rule="evenodd">
        <g id="Icons" transform="translate(-1023.000000, -202.000000)" fill="#4F5858">
            <g id="search.3.3.1" transform="translate(1023.000000, 202.000000)">
                <g id="Group">
                    <path d="M47.1875,24.0208333 C47.1875,11.2262366 36.81543,0.854166667 24.0208333,0.854166667 C11.2262366,0.854166667 0.854166667,11.2262366 0.854166667,24.0208333 C0.854166667,36.81543 11.2262366,47.1875 24.0208333,47.1875 C36.81543,47.1875 47.1875,36.81543 47.1875,24.0208333 Z M3.85416667,24.0208333 C3.85416667,12.8830909 12.8830909,3.85416667 24.0208333,3.85416667 C35.1585758,3.85416667 44.1875,12.8830909 44.1875,24.0208333 C44.1875,35.1585758 35.1585758,44.1875 24.0208333,44.1875 C12.8830909,44.1875 3.85416667,35.1585758 3.85416667,24.0208333 Z M63.5851732,65.7064935 L65.7064935,63.5851732 L40.3998268,38.2785065 L38.2785065,40.3998268 L63.5851732,65.7064935 Z" id="Combined-Shape"></path>
                </g>
            </g>
        </g>
    </g>
</svg>