<?xml version="1.0" encoding="UTF-8"?>
<svg width="257px" height="257px" viewBox="0 0 257 257" version="1.1" xmlns="http://www.w3.org/2000/svg" xmlns:xlink="http://www.w3.org/1999/xlink">
    <!-- Generator: Sketch 41 (35326) - http://www.bohemiancoding.com/sketch -->
    <title>default-location-outdoors</title>
    <desc>Created with Sketch.</desc>
    <defs></defs>
    <g id="Page-1" stroke="none" stroke-width="1" fill="none" fill-rule="evenodd">
        <g id="Default-Location-Icons">
            <g id="default-location-outdoors">
                <rect id="Rectangle" fill="#006E75" x="0.726364851" y="0.635694287" width="256" height="256"></rect>
                <g id="Outdoors-Shapes" transform="translate(54.000000, 55.000000)" stroke="#FFFFFF" stroke-width="5">
                    <path d="M14.6810253,47.23169 L33.2325139,7.01222379 C38.4132583,-1.90830772 51.2746407,-1.90830772 56.4553851,7.01222379 L68.3583633,26.180308 C69.3368739,19.2972232 78.920916,18.3120105 81.3001713,24.813074 L91.7554899,47.23169 L14.6810253,47.23169 Z" id="Shape"></path>
                    <path d="M57.8336442,68.7120082 C60.7970731,81.5145717 66.786246,97.2902424 78.8822979,107.761127 C100.173288,126.189191 137.866996,114.340102 144.396233,153.597252" id="Shape" stroke-dasharray="10.49999952316284,10.49999952316284"></path>
                    <path d="M33.3598543,95.8087091 C37.4883647,99.8299855 43.3795347,93.1881773 38.8891093,89.5623264 L24.7342164,74.1340293 L10.4452809,89.5891349 C5.96825978,93.2350922 11.9197489,99.8634962 16.0281529,95.7751985 L4.77528111,110.003815 C0.827728099,113.917857 6.87304697,119.862644 10.7334723,115.821261 L1.79953657,127.241686 C-0.814293103,129.842112 1.00868554,134.359346 4.7484726,134.359346 L44.7266623,134.359346 C48.4798536,134.359346 50.2760237,129.822005 47.6621941,127.228282 L38.9293221,115.894985 C42.816556,119.795623 48.7613429,113.844134 44.7936835,109.963602 L33.3598543,95.8087091 Z" id="Shape"></path>
                    <path d="M24.2553191,134.359346 L24.2553191,147.85743" id="Shape"></path>
                    <path d="M133.891765,48.8938176 C138.020275,52.915094 143.911445,46.2732858 139.42102,42.6474349 L125.266127,27.2191378 L110.977191,42.6742434 C106.50017,46.3202007 112.451659,52.9486047 116.560063,48.860307 L105.307191,63.0889234 C101.359638,67.0029657 107.404957,72.9477527 111.265383,68.9063699 L102.331447,80.3267949 C99.7109151,82.9339225 101.540596,87.4444542 105.273681,87.4444542 L145.25187,87.4444542 C149.005062,87.4444542 150.801232,82.907114 148.187402,80.3133907 L139.45453,68.9800933 C143.341764,72.8807314 149.286551,66.9292423 145.318892,63.0487106 L133.891765,48.8938176 Z" id="Shape"></path>
                    <path d="M124.468085,87.4444542 L124.468085,100.942539" id="Shape"></path>
                </g>
            </g>
        </g>
    </g>
</svg>