<?xml version="1.0" encoding="UTF-8"?>
<svg width="253px" height="253px" viewBox="0 0 253 253" version="1.1" xmlns="http://www.w3.org/2000/svg" xmlns:xlink="http://www.w3.org/1999/xlink">
    <!-- Generator: Sketch 41 (35326) - http://www.bohemiancoding.com/sketch -->
    <title>Shape</title>
    <desc>Created with Sketch.</desc>
    <defs></defs>
    <g id="Page-1" stroke="none" stroke-width="1" fill="none" fill-rule="evenodd">
        <g id="Artboard" transform="translate(-1.000000, -1.000000)" fill="#000000">
            <path d="M95.875,190.75 C118.339292,190.75 138.979875,182.854292 155.256208,169.751 L235.984292,250.890208 C240.085,255.022542 246.747333,255.033083 250.890208,250.921833 C255.022542,246.810583 255.033083,240.137708 250.932375,236.015917 L170.098875,154.781833 C182.991333,138.589833 190.75,118.128458 190.75,95.875 C190.75,43.5567083 148.193292,1 95.875,1 C43.5567083,1 1,43.5567083 1,95.875 C1,148.18275 43.5567083,190.75 95.875,190.75 Z M95.875,22.0833333 C136.555292,22.0833333 169.666667,55.1841667 169.666667,95.875 C169.666667,136.555292 136.555292,169.666667 95.875,169.666667 C55.1841667,169.666667 22.0833333,136.555292 22.0833333,95.875 C22.0833333,55.1841667 55.1841667,22.0833333 95.875,22.0833333 Z" id="Shape"></path>
        </g>
    </g>
</svg>