<svg width="48" height="42" xmlns="http://www.w3.org/2000/svg"><g fill="none" fill-rule="evenodd"><path d="M41.904.504A3.969 3.969 0 0 0 40 0H4c-.692 0-1.334.194-1.902.504L22 12.824 41.904.504z" fill="#1F61A8"/><path d="M35 16c-7.168 0-13 5.832-13 13s5.832 13 13 13 13-5.832 13-13-5.832-13-13-13zm8.194 9.8l-8.192 8.714a1.005 1.005 0 0 1-.706.314h-.024c-.26 0-.51-.1-.696-.282l-5.852-5.682a1 1 0 0 1 1.394-1.434l5.122 4.97 7.494-7.974a.997.997 0 0 1 1.412-.042c.404.382.424 1.014.048 1.416z" fill="#7ED321"/><path d="M43.404 1.926L22.494 14.85a.968.968 0 0 1-.986 0L.596 1.926A3.972 3.972 0 0 0 0 4v22c0 2.204 1.794 4 4 4h16.05c-.022-.332-.05-.662-.05-1 0-8.27 6.73-15 15-15 3.38 0 6.49 1.136 9 3.03V4c0-.762-.226-1.466-.596-2.074z" fill="#1F61A8"/></g></svg>