<svg width="257" height="257" xmlns="http://www.w3.org/2000/svg"><g fill="none" fill-rule="evenodd"><path fill="#006E75" d="M.726.636h256v256h-256z"/><g stroke="#FFF" stroke-width="5"><path d="M68.681 102.232l18.552-40.22c5.18-8.92 18.042-8.92 23.222 0l11.903 19.168c.979-6.883 10.563-7.868 12.942-1.367l10.455 22.419H68.681z"/><path d="M111.834 123.712c2.963 12.803 8.952 28.578 21.048 39.05 21.291 18.427 58.985 6.578 65.514 45.835" stroke-dasharray="10.49999952316284,10.49999952316284"/><path d="M87.36 150.809c4.128 4.021 10.02-2.62 5.53-6.247l-14.156-15.428-14.289 15.455c-4.477 3.646 1.475 10.274 5.583 6.186l-11.253 14.229c-3.947 3.914 2.098 9.859 5.958 5.817l-8.933 11.42c-2.614 2.601-.791 7.118 2.948 7.118h39.979c3.753 0 5.549-4.537 2.935-7.13l-8.733-11.334c3.888 3.9 9.832-2.05 5.865-5.931L87.36 150.809zM78.255 189.36v13.497M187.892 103.894c4.128 4.021 10.02-2.62 5.529-6.247L179.266 82.22l-14.289 15.455c-4.477 3.646 1.475 10.275 5.583 6.186l-11.253 14.229c-3.947 3.914 2.098 9.859 5.958 5.817l-8.934 11.42c-2.62 2.608-.79 7.118 2.943 7.118h39.978c3.753 0 5.55-4.537 2.935-7.13l-8.732-11.334c3.887 3.9 9.832-2.05 5.864-5.931l-11.427-14.155zM178.468 142.444v13.499"/></g></g></svg>