<svg width="48" height="48" xmlns="http://www.w3.org/2000/svg"><g stroke="#FFF" stroke-width="2" fill="none" fill-rule="evenodd" stroke-linecap="round" stroke-linejoin="round"><path d="M39 17.5l8 5.5v21c0 1.656-1.344 3-3 3H4c-1.656 0-3-1.344-3-3V23l8-5.5"/><path d="M7 41l10-8h14l10 8M47 23l-12 8M1 23l12 8M39 28.334V1H9v27.334"/><path d="M26.49 13.51a3.522 3.522 0 1 1-4.98 4.98 3.522 3.522 0 0 1 4.98-4.98"/><path d="M29.086 23.436A8.958 8.958 0 0 1 24 25a9 9 0 1 1 9-9v.784a2.738 2.738 0 0 1-5.478 0V16"/></g></svg>