<svg viewBox="0 0 40 39" xmlns="http://www.w3.org/2000/svg"><g fill="none" stroke="#F2F2F2" stroke-linejoin="round"><path d="M22.274 27.718h16.473V14.22H22.274zM30.835 37.988h7.912v-10.27h-7.912zM1 27.717v10.271h5.19l7.345-10.27z"/><path d="M13.535 27.717L6.19 37.988h24.646v-10.27zM16.695 6.924C16.695 3.652 14.075 1 10.84 1 7.607 1 4.986 3.652 4.986 6.924c0 1.487 5.854 15.799 5.854 15.799S16.695 8.41 16.695 6.924z"/><path d="M13.234 6.942c0 1.337-1.071 2.422-2.393 2.422-1.323 0-2.394-1.085-2.394-2.422 0-1.337 1.071-2.422 2.394-2.422 1.322 0 2.393 1.085 2.393 2.422zM20.069 2.987h6.399M20.069 6.942h12.366M20.069 10.424h17.554M4.503 14.22H1v13.497h21.273V14.22h-4.799z"/></g></svg>