<svg viewBox="0 0 46 46" xmlns="http://www.w3.org/2000/svg"><g fill="none" stroke="#1F61A8" stroke-linecap="round" stroke-linejoin="round"><path d="M4.983 40.779h36.034v3.77H4.983zM6.88 25.697h32.24v15.082H6.88zM44.81 44.55H1.19M39.12 14.385H6.88M41.017 25.697H4.983M10.672 14.385h24.656v11.312H10.672zM10.672 13.443c0-6.768 5.52-12.254 12.328-12.254 6.809 0 12.328 5.486 12.328 12.254v.942H10.672v-.942z"/><path d="M27.741 34.18c0-2.603-2.122-4.713-4.741-4.713-2.62 0-4.741 2.11-4.741 4.713v6.599h9.482V34.18zM10.672 29.467h3.794v3.77h-3.794zM31.535 29.467h3.793v3.77h-3.793zM25.845 18.156h5.727M25.845 21.926h5.727M14.466 18.156h5.727M14.466 21.926h5.727"/></g></svg>