<svg viewBox="0 0 48 46" xmlns="http://www.w3.org/2000/svg"><g fill="none" stroke="#1F61A8" stroke-linejoin="round"><path d="M15.229 16.715c-7.75 0-14.034 6.379-14.034 14.247s6.283 14.246 14.034 14.246c7.75 0 14.034-6.378 14.034-14.246S22.98 16.715 15.23 16.715zM15.313 16.025l6.692-7.013c.621-.82.992-1.845.992-2.96 0-2.68-2.142-4.854-4.783-4.854-1.13 0-2.168.399-2.986 1.064a4.718 4.718 0 0 0-2.985-1.064C9.6 1.198 7.46 3.37 7.46 6.052c0 1.115.37 2.14.992 2.96l6.86 7.013z"/><path d="M26.432 43.865c.84.411 1.733.743 2.672.985 7.512 1.93 15.147-2.688 17.048-10.316 1.902-7.628-2.648-15.376-10.161-17.307a13.786 13.786 0 0 0-9.607 1.011M36.24 16.58l8.18-5.133a4.84 4.84 0 0 0 1.678-2.621c.647-2.6-.904-5.24-3.463-5.898a4.693 4.693 0 0 0-3.153.288 4.751 4.751 0 0 0-2.638-1.775c-2.56-.658-5.16.916-5.809 3.515a4.894 4.894 0 0 0 .248 3.116l4.956 8.507z"/></g></svg>