<svg viewBox="0 0 45 47" xmlns="http://www.w3.org/2000/svg"><g fill="none" stroke="#F2F2F2" stroke-linejoin="round"><path stroke-linecap="round" d="M1.714 14.375L6.987 2.873c1.472-2.551 5.127-2.551 6.6 0l3.383 5.482c.278-1.969 3.001-2.25 3.678-.391l2.971 6.411H1.714z"/><path stroke-linecap="round" stroke-width="2" d="M20.048 18.693s.005.35.066.949"/><path stroke-dasharray="1.905" stroke-linecap="round" d="M20.754 22.393c.75 2.83 2.266 6.32 5.327 8.634 5.387 4.075 14.926 1.455 16.578 10.136"/><path stroke-linecap="round" stroke-width="2" d="M42.903 44.083c.017.307.027.627.027.959"/><path d="M42.434 17.474l-3.684-5.69h1.842l-3.684-5.69-3.684 5.69h1.842l-3.684 5.69h2.763L30 23.164h13.816l-4.145-5.69z"/><path stroke-linecap="round" d="M36.908 23.164v4.741"/><path d="M9.355 37.944a3.655 3.655 0 0 1-2.343.843c-1.81 0-3.313-1.305-3.584-3.01l-.04-.298A3.308 3.308 0 0 1 1.31 32.42c0-1.358.832-2.526 2.023-3.035l.05-.275c0-1.406 1.16-2.546 2.592-2.546l.259-.255c0-1.828 1.507-3.31 3.369-3.31 1.861 0 3.369 1.482 3.369 3.31l.259.255c1.431 0 2.591 1.14 2.591 2.546l.31.4a3.299 3.299 0 0 1 1.763 2.91c0 1.371-.847 2.548-2.056 3.05l-.06.307c-.272 1.704-1.775 3.009-3.585 3.009a3.656 3.656 0 0 1-2.324-.827l-.516-.016z"/><path stroke-linecap="round" d="M9.604 29.62v15.278M9.604 35.222c2.29 0 4.146-1.824 4.146-4.074M9.604 33.185c-1.718 0-3.11-1.368-3.11-3.055"/></g></svg>