<svg viewBox="0 0 512 512" xmlns="http://www.w3.org/2000/svg"><path fill="#006E75" d="M0 256v256h512V0H0v256zm405.8-128c23 4.7 43.3 15 60.2 30.7l6 5.5V216h-38.6l-2.7-17.2c-2.6-17-2.7-17.3-5.9-20.1-4.7-3.9-16.1-9.4-23.8-11.4-8.2-2.1-29.1-2.4-37-.4-14 3.4-26.3 11.4-34.4 22.2-15.3 20.3-21.7 49.5-18.7 84.9 3.5 41.6 21.5 68.5 51.2 76.6 8.8 2.4 28.8 2.4 38.4 0 8.4-2.2 19.7-7.4 24.3-11.3 3.3-2.8 3.3-3.1 5.9-20.1l2.7-17.2H472v51.7l-5.7 5.5c-16.9 16-39 27-63.3 31.4-13.8 2.5-38.4 2.3-51-.3-23.1-5-39-13.4-55.6-29.8-20-19.6-30.8-40.6-36-70-2.4-13.9-2.5-49-.1-62.5 6-33.3 20-58.5 43-77.4 14.6-12.1 33.9-20.9 51.7-23.5 4.1-.6 8.6-1.3 10-1.5 6.1-1.1 31 .4 40.8 2.4zm-171 16.7l-.3 15.6-13.5 2.6-13.5 2.6-.5 81.5c-.6 81.4-.6 81.5-2.8 89-12 38.9-49 60.6-95.9 56.1-15.4-1.5-25.8-4.2-36.8-9.6-24.2-11.7-36.9-32-37.7-59.8l-.3-9.2 25.1-.3 25.1-.2 1.1 8.2c3 21 14.4 31.1 35.2 31.2 7.4.1 9.3-.3 14.2-2.7 7.2-3.5 14.9-11.9 18-19.5l2.3-5.7.3-79.6.3-79.5-13.3-2.5-13.3-2.4-.3-15.8-.3-15.7h107.2l-.3 15.7z"/></svg>