<svg viewBox="0 0 40 30" xmlns="http://www.w3.org/2000/svg"><g fill="#4F5858"><path d="M38.537.5c.673 0 1.22.448 1.22 1s-.547 1-1.22 1H2.049c-.674 0-1.22-.448-1.22-1s.546-1 1.22-1h36.488zM38.631 9.5c.675 0 1.223.448 1.223 1s-.548 1-1.223 1H2.051c-.674 0-1.222-.448-1.222-1s.548-1 1.223-1h36.58zM38.631 18.5c.675 0 1.223.448 1.223 1s-.548 1-1.223 1H2.051c-.674 0-1.222-.448-1.222-1s.548-1 1.223-1h36.58zM38.631 27.5c.675 0 1.223.448 1.223 1s-.548 1-1.223 1H2.051c-.674 0-1.222-.448-1.222-1s.548-1 1.223-1h36.58z"/></g></svg>