<svg viewBox="0 0 35 32" xmlns="http://www.w3.org/2000/svg"><g fill-rule="evenodd"><path fill="rgba(0,0,0,0.2)" d="M12.96 31.877c1.108 0 17.499-3.615 20.265-5.743 2.767-2.128-.721-3.853-7.79-3.853-7.07 0-15.043 1.725-17.81 3.853-2.766 2.128 4.227 5.743 5.335 5.743z"/><path fill="#1F61A8" d="M12.8 31.877c1.108 0 12.8-12.008 12.8-19.077C25.6 5.73 19.87 0 12.8 0S0 5.73 0 12.8s11.692 19.077 12.8 19.077z"/><path fill="#FFF" d="M19.066 6.042A8.862 8.862 0 1 1 6.534 18.574 8.862 8.862 0 0 1 19.066 6.042"/></g></svg>