<svg viewBox="0 0 40 38" xmlns="http://www.w3.org/2000/svg"><g fill="none" stroke="#F2F2F2" stroke-linejoin="round"><path d="M12.754 13.921c-6.402 0-11.593 5.245-11.593 11.714 0 6.47 5.19 11.714 11.593 11.714s11.594-5.244 11.594-11.714c0-6.47-5.191-11.714-11.594-11.714zM12.824 13.354l5.528-5.767c.513-.673.82-1.517.82-2.433 0-2.204-1.77-3.991-3.952-3.991-.933 0-1.79.328-2.466.874a3.908 3.908 0 0 0-2.467-.874c-2.182 0-3.95 1.787-3.95 3.99 0 .917.306 1.76.82 2.434l5.667 5.767z"/><path d="M22.009 36.244c.694.339 1.432.612 2.207.81 6.206 1.588 12.513-2.21 14.083-8.482 1.571-6.271-2.187-12.642-8.394-14.23a11.437 11.437 0 0 0-7.935.832M30.11 13.81l6.76-4.22a3.978 3.978 0 0 0 1.385-2.155c.534-2.137-.747-4.309-2.86-4.85a3.894 3.894 0 0 0-2.606.237 3.926 3.926 0 0 0-2.179-1.46c-2.114-.54-4.263.754-4.798 2.89-.223.889-.13 1.781.204 2.563l4.095 6.995z"/></g></svg>