<svg viewBox="0 0 47 48" xmlns="http://www.w3.org/2000/svg"><g fill="none" stroke="#F2F2F2" stroke-linecap="round" stroke-linejoin="round"><path d="M38.34 1C42.571 1 46 4.218 46 8.188c0 3.97-3.429 7.187-7.66 7.187V1zM6.745 4.833c-.01 2.408 1.164 3.777 3.83 3.834C8.1 8.657 6.87 9.985 6.744 12.5c-.022-2.372-1.083-3.836-3.83-3.833 2.457-.034 3.82-1.222 3.83-3.834zM16.798 1.958c-.006 1.505.728 2.36 2.394 2.396-1.547-.006-2.316.824-2.394 2.396-.014-1.483-.677-2.398-2.394-2.396 1.536-.02 2.388-.764 2.394-2.396zM8.938 31v15.748h28.167V31"/><path d="M1.256 32.877L23.021 8.92l21.765 23.958"/><path d="M19.18 24.529h7.682v7.565H19.18z"/></g></svg>