<svg viewBox="0 0 44 40" xmlns="http://www.w3.org/2000/svg"><g fill="none" stroke="#F2F2F2" stroke-linejoin="round"><path stroke-linecap="round" d="M22.33 2.763s-20.217 27.783 0 27.783c20.216 0 0-27.783 0-27.783zM22.124 2.763v36.12"/><path stroke-linecap="round" d="M15.393 15.011l6.936 4.766 6.937-4.766M13.526 21.18l8.803 5.036 8.803-5.035M18.505 8.77l3.824 2.878 3.824-2.878"/><path d="M32.003 28.805c.607.064 1.26.097 1.96.097 20.216 0 0-27.782 0-27.782s-2.567 3.529-4.957 8.071"/><path stroke-linecap="round" d="M33.805 1.12v37.762M33.963 18.133L40.9 13.37M33.963 24.572l8.803-5.034M30.139 7.127l3.824 2.878 3.825-2.878"/><path d="M12 28.805c-.606.064-1.26.097-1.96.097-20.216 0 0-27.782 0-27.782s2.567 3.529 4.957 8.071"/><path stroke-linecap="round" d="M9.947 1.12v37.762M10.04 18.133l-6.937-4.765M10.04 24.572l-8.804-5.034M13.864 7.127l-3.824 2.878-3.825-2.878"/><path d="M1.055 38.66h41.893"/></g></svg>