<svg viewBox="0 0 38 38" xmlns="http://www.w3.org/2000/svg"><g fill="none" stroke="#F2F2F2" stroke-linecap="round" stroke-linejoin="round"><path d="M4.259 33.86H33.74v3.115H4.26zM5.81 21.402h26.38V33.86H5.81zM36.845 36.975H1.155M32.19 12.057H5.81M33.741 21.402H4.26M8.914 12.057h20.172v9.345H8.914zM8.914 11.279C8.914 5.688 13.429 1.156 19 1.156c5.57 0 10.086 4.532 10.086 10.123v.778H8.914v-.778z"/><path d="M22.88 28.41A3.886 3.886 0 0 0 19 24.516a3.886 3.886 0 0 0-3.88 3.894v5.45h7.76v-5.45zM8.914 24.516h3.103v3.115H8.914zM25.983 24.516h3.103v3.115h-3.103zM21.328 15.172h4.686M21.328 18.287h4.686M12.017 15.172h4.686M12.017 18.287h4.686"/></g></svg>