<svg viewBox="0 0 48 48" xmlns="http://www.w3.org/2000/svg"><path fill="#1F61A8" d="M15.078 8.138a.99.99 0 1 0-.002 1.98.99.99 0 0 0 .002-1.98zM19.043 6.155a.99.99 0 1 0-.002 1.981.99.99 0 0 0 .002-1.98zM28.957 6.155a.99.99 0 1 0-.002 1.981.99.99 0 0 0 .002-1.98zM24 8.138a.99.99 0 1 0-.002 1.98.99.99 0 0 0 .002-1.98zM33.006 8.138a.99.99 0 1 0-.002 1.98.99.99 0 0 0 .002-1.98z"/><path fill="none" stroke="#1F61A8" stroke-linecap="round" stroke-linejoin="round" d="M24 32.922l11.897 5.949 5.948-5.949"/><path fill="none" stroke="#1F61A8" stroke-linecap="round" stroke-linejoin="round" d="M46.802 36.888a3.966 3.966 0 0 1-3.966 3.965H5.164a3.966 3.966 0 0 1 0-7.931h37.672a3.964 3.964 0 0 1 3.966 3.966z"/><path fill="none" stroke="#1F61A8" stroke-linecap="round" stroke-linejoin="round" d="M42.836 24.991a3.966 3.966 0 0 1 0 7.931H5.164a3.966 3.966 0 0 1 0-7.931M5.164 40.853v1.983a3.967 3.967 0 0 0 3.965 3.966h29.742a3.966 3.966 0 0 0 3.965-3.966v-1.983H5.164zM42.836 19.043C42.836 8.64 34.402 1.198 24 1.198c-10.404 0-18.836 7.442-18.836 17.845h37.672z"/><path fill="none" stroke="#1F61A8" stroke-linecap="round" stroke-linejoin="round" d="M5.164 19.043s-3.966.783-3.966 2.974c0 2.19 1.777 2.974 3.966 2.974 1.057 0 2.264-.319 2.974-.991 1.013 1.83 2.712 2.974 4.957 2.974 2.439 0 4.039-.87 4.957-2.974.916 2.104 3.507 2.974 5.948 2.974 2.439 0 5.03-.87 5.948-2.974.916 2.104 2.516 2.974 4.957 2.974 2.243 0 3.942-1.144 4.957-2.974.71.672 1.917.991 2.974.991 2.191 0 3.966-.785 3.966-2.974 0-2.19-3.966-2.974-3.966-2.974"/></svg>