<svg width="256" height="257" xmlns="http://www.w3.org/2000/svg"><g fill="none" fill-rule="evenodd"><path fill="#DF7E40" d="M.044.636h256v256h-256z"/><g stroke="#FFF" stroke-linejoin="round"><path d="M200.48 97.366v-3.87c0-17.093-17.524-30.948-39.137-30.948H92.31c-21.615 0-39.134 13.855-39.134 30.948v3.87H200.48zM53.172 165.315v3.867c0 17.095 17.524 30.951 39.136 30.951h69.034c21.614 0 39.136-13.856 39.136-30.951v-3.867H53.172h0z" stroke-width="7" stroke-linecap="round"/><path d="M53.175 134.94a6.195 6.195 0 0 0 6.195 6.194h134.914a6.194 6.194 0 0 0 6.195-6.195v-4.473a6.194 6.194 0 0 0-6.195-6.195H59.37a6.195 6.195 0 0 0-6.195 6.195v4.473h0z" stroke-width="3" stroke-linecap="round"/><path d="M200.48 114.29c-14.724 0-14.724-4.13-29.45-4.13-14.731 0-14.731 4.13-29.462 4.13-14.724 0-14.724-4.13-29.452-4.13-14.733 0-14.733 4.13-29.47 4.13-14.737 0-14.737-4.13-29.47-4.13M200.478 153.88c-14.724 0-14.724-4.13-29.45-4.13-14.73 0-14.73 4.13-29.462 4.13-14.726 0-14.726-4.13-29.45-4.13-14.735 0-14.735 4.13-29.472 4.13-14.738 0-14.738-4.13-29.47-4.13" stroke-width="3"/><path d="M79.432 82h11.303M108.598 74h11.303M131.202 85h11.303M162.92 78h11.304M79.432 185h11.303M108.598 177h11.303M131.202 187h11.303M162.92 180h11.304" stroke-width="7" stroke-linecap="round"/></g></g></svg>