<svg width="256" height="257" xmlns="http://www.w3.org/2000/svg"><g fill="none" fill-rule="evenodd"><path fill="#1F61A8" d="M.044.636h256v256h-256z"/><path stroke="#FFF" stroke-width="7" stroke-linecap="square" d="M27.526 182.266h199.446V75.363H27.526z"/><path d="M59.438 95.308l132.83.399M80.579 159.488h90.548" stroke="#FFF" stroke-width="3" stroke-linecap="square"/><path d="M73.27 138.864l5.514-20.506H74.36l-3.36 14.13h-.058l-3.504-14.13h-4.221l-3.562 13.958H59.6l-3.246-13.958h-4.509l5.428 20.506h4.567l3.418-13.958h.057l3.475 13.958h4.48zm7.582-20.506v20.506h15.566v-3.791H85.361v-5.026h9.937v-3.504h-9.937v-4.394h10.827v-3.791H80.852zm18.61 0v20.506h14.504v-3.791h-9.994v-16.715h-4.51zm30.702 6.892h4.366c-.134-1.187-.46-2.24-.977-3.159a7.683 7.683 0 0 0-1.967-2.312 8.669 8.669 0 0 0-2.7-1.421 10.332 10.332 0 0 0-3.202-.489c-1.57 0-2.982.278-4.236.833-1.254.555-2.312 1.321-3.174 2.298-.861.976-1.522 2.12-1.981 3.432-.46 1.311-.69 2.733-.69 4.265 0 1.493.23 2.886.69 4.179.46 1.292 1.12 2.417 1.981 3.374.862.958 1.92 1.71 3.174 2.255 1.254.545 2.666.818 4.236.818 1.264 0 2.422-.191 3.475-.574a8.057 8.057 0 0 0 2.757-1.666 8.323 8.323 0 0 0 1.896-2.642c.479-1.034.775-2.192.89-3.475h-4.365c-.173 1.378-.646 2.489-1.422 3.331-.775.843-1.852 1.264-3.23 1.264-1.016 0-1.877-.196-2.586-.589a4.931 4.931 0 0 1-1.723-1.565 6.791 6.791 0 0 1-.962-2.197 10.439 10.439 0 0 1-.302-2.513c0-.9.1-1.771.302-2.614a6.922 6.922 0 0 1 .962-2.254 4.88 4.88 0 0 1 1.723-1.58c.709-.392 1.57-.589 2.585-.589.555 0 1.087.091 1.594.273.507.182.962.436 1.364.761.402.326.737.704 1.005 1.135.269.43.44.904.517 1.421zm11.23 3.447c0-.9.1-1.771.302-2.614a6.922 6.922 0 0 1 .962-2.254 4.88 4.88 0 0 1 1.723-1.58c.708-.392 1.57-.589 2.585-.589s1.876.197 2.585.59a4.88 4.88 0 0 1 1.723 1.579c.44.66.76 1.412.962 2.254.2.843.301 1.714.301 2.614 0 .861-.1 1.7-.301 2.513a6.791 6.791 0 0 1-.962 2.197 4.931 4.931 0 0 1-1.723 1.565c-.709.393-1.57.589-2.585.589s-1.877-.196-2.585-.589a4.931 4.931 0 0 1-1.723-1.565 6.791 6.791 0 0 1-.962-2.197 10.439 10.439 0 0 1-.302-2.513zm-4.51 0c0 1.493.23 2.886.69 4.179.46 1.292 1.12 2.417 1.982 3.374.862.958 1.92 1.71 3.174 2.255 1.254.545 2.666.818 4.236.818 1.589 0 3.006-.273 4.25-.818 1.245-.546 2.298-1.297 3.16-2.255.861-.957 1.522-2.082 1.981-3.374.46-1.293.69-2.686.69-4.18 0-1.53-.23-2.953-.69-4.264-.46-1.312-1.12-2.456-1.981-3.432a9.093 9.093 0 0 0-3.16-2.298c-1.244-.555-2.661-.833-4.25-.833-1.57 0-2.982.278-4.236.833-1.255.555-2.312 1.321-3.174 2.298-.862.976-1.522 2.12-1.982 3.432-.46 1.311-.69 2.733-.69 4.265zm23.236-10.34v20.507h4.221v-14.389h.058l5.026 14.389h3.475l5.026-14.533h.058v14.533h4.221v-20.506h-6.347l-4.538 14.101h-.057l-4.796-14.101h-6.347zm26.049 0v20.507h15.566v-3.791h-11.057v-5.026h9.937v-3.504h-9.937v-4.394h10.827v-3.791H186.17z" fill="#FFF"/></g></svg>