<svg width="142" height="125" xmlns="http://www.w3.org/2000/svg" xmlns:xlink="http://www.w3.org/1999/xlink"><defs><path id="a" d="M0 125.562h141.994V.895H0z"/></defs><g fill="none" fill-rule="evenodd"><g transform="translate(0 -.573)"><mask id="b" fill="#fff"><use xlink:href="#a"/></mask><path d="M71.078 125.562c-12.805 0-25.111-3.839-35.59-11.101-9.417-6.524-16.784-15.388-21.434-25.752H0V50.033h10.016c2.845-13.138 9.938-25.096 20.213-33.965A62.528 62.528 0 0 1 71.078.895c15.039 0 29.57 5.41 40.917 15.232 10.236 8.86 17.304 20.799 20.143 33.906h9.856v38.676H128.1c-4.64 10.345-11.989 19.196-21.379 25.716-10.492 7.285-22.817 11.137-35.642 11.137" fill="#FFF" mask="url(#b)"/></g><path d="M19.853 50.387c.396.213 1.084.269 1.702.348.735.094 1.388-.066 1.971-.176 1.896-.353 3.384-.89 4.847-1.423.741-.271 1.368-.58 2.104-.85 1.195-.44 2.445-.86 3.65-1.297.26-.095.409-.223.643-.326a130.26 130.26 0 0 1 2.375-1.037c.458-.192 1.084-.304 1.772-.376.27-.028.526-.072.822-.111.173.055.344.104.486.161.55.223 1.39.437 2.152.35 1.656-.187 1.522.34 1.994.254.049.062.182.116.258.176.433.336.86.674 1.29 1.01.052.04.098.086.185.116.791.266 1.575.535 2.394.792.266.083.657.12.981.038.488-.12 1.012-.237 1.387-.394.623-.26 1.16-.546 1.693-.831.368-.196.846-.337 1.49-.384A17.313 17.313 0 0 0 56.825 46c1.053-.248 2.182-.207 3.32-.182.22.006.41.099.632.141.956.18 1.33.247 2.262-.078a17.98 17.98 0 0 0 1.7-.7c.677-.316 1.513-.591 2.268-.888.38-.148.722-.308 1.105-.455.469-.18.958-.353 1.441-.527.352-.127.714-.25 1.068-.377.463-.167.95-.328 1.376-.505.753-.312 1.473-.634 2.203-.953.098-.042.158-.098.272-.135 1.116-.35 1.72-.81 2.337-1.271.426-.32 1.073-.681 2.221-.565 1.89.192 6.673 1.453 6.673 1.453.38.054.701.238.84.388.401.429 1.352.74 1.868 1.141.42.328 1.07.617 1.854.818 1.14.288 1.677.742 2.727 1.038.408.115.909.191 1.411.295l-.164.174 1.02.295c.074.02.159.05.24.051 1.161.032 1.58.405 2.37.604.925.23 1.375.599 2.248.837.473.13.937.263 1.413.396.838-.228 1.737-.392 2.162-.746.248-.207.893-.221 1.348-.055.693.256 1.34.527 2.01.79.123.048.26.096.405.137.931.264 1.824.542 2.992.691.463.058.88.18 1.247.299 1.49.473 2.95.956 4.204 1.51.293.128.682.23 1.029.344.117.039.293.064.36.109.43.297 1.301.444 1.912.679.633.243 1.38.23 2.192.159a337.29 337.29 0 0 1 1.66-.142C118.832 26.686 97.143 8.34 71.01 8.34c-25.936 0-47.501 18.08-51.95 41.903.297.004.593.038.794.145" fill="#195FAB"/><path d="M91.535 52.69c.623-.345 1.207-.701 1.847-1.042.421-.227 1.003-.414 1.273-.683.27-.267.686-.518 1.038-.775.172-.13.338-.26.52-.387.193-.138.31-.264-.058-.395-.362-.128-.663-.064-1.022.001-.776.143-1.613.005-1.927-.3-.16-.153-.322-.31-.518-.459-.253-.189-.584-.214-1.045-.076-.216.064-.363.156-.582.22-.26.076-.538.16-.853.196-.514.06-.99-.074-1.074-.26-.196-.456.293-.865.751-1.27.178-.158.242-.28.01-.437-.3-.203-.495-.425-.73-.638-.41.028-.789.041-1.142.082-.186.02-.387.078-.48.136-.89.568-1.498 1.168-1.563 1.823a.405.405 0 0 1-.05.164c-.076.136-.29.23-.72.207-.377-.021-.638-.107-.622-.252.023-.187.086-.376.118-.562a.426.426 0 0 0-.015-.263c-.136-.296-.287-.36-1.166-.373-.529-.008-.744-.095-.875-.244-.115-.136-.22-.275-.353-.436-.259-.024-.555-.053-.868-.084-.13.06-.228.102-.32.144-.61.287-1.317.411-2.386.269-1.01-.134-1.151-.109-1.729.211-.536.296-.968.616-1.443.927-.077.047-.122.103-.22.145-.674.299-1.057.656-1.623.971-.711.4-1.675.754-3.074.9-1.08.113-1.955.028-2.605-.294-.52-.257-1.007-.525-1.391-.808-.149-.107.026-.268.071-.407.048-.161.14-.324.147-.485 0-.051-.213-.103-.368-.17-1.036.486-2.005.934-2.947 1.389-.35.17-.624.358-.943.535-.097.055-.21.139-.344.147-.97.051-1.966.101-2.89-.05-.344-.055-.593-.187-.862-.291-.633-.246-1.216-.508-1.883-.74-.518-.18-.988-.154-1.63-.02-.773.16-1.213.378-1.353.682-.225.49-1.148.859-1.942 1.24-1.454.696-3.021 1.363-4.303 2.106-.571.33-1.19.65-1.818.97h43.762c.219-.145.436-.29.67-.43.473-.286 1.028-.554 1.53-.834M41.605 52.332c-.035-.16-.33-.239-.699-.282-.955-.113-1.824-.248-2.217-.611-.129-.122-.637-.143-.999-.065-.16.036-.343.08-.419.134-.406.298-1.141.516-1.528.828-.576.464-1.372.898-2.509 1.237-.257.078-.424.193-.629.29-.06.029-.115.06-.17.09h7.941l.354-.224c.686-.436.99-.9.875-1.397M115.033 52.952c-.354-.258-.927-.439-1.551-.617-.731-.21-1.383-.451-2.055-.685-.577-.2-1.127-.411-1.708-.613a2.442 2.442 0 0 0-.995-.155c-.271.008-.57-.08-.893-.13-1.548.212-2.244.145-3.576-.363-.105-.04-.196-.084-.287-.124-1.076-.017-1.816.158-2.299.456-.336.209-.555.44-.831.662-.457.363-.88.732-1.386 1.086-.587.414-1.303.8-1.756 1.244a2.439 2.439 0 0 1-.296.24h22.19a3.216 3.216 0 0 1-.2-.018c-1.38-.168-2.719-.367-3.811-.717a2.015 2.015 0 0 1-.546-.266" fill="#195FAB"/><path d="M20.618 83.645c8.624 19.092 27.856 32.378 50.199 32.378 22.35 0 41.582-13.286 50.198-32.378H20.618zm50.353 22.883h-2.426l-9.09-11.702v11.702h-2.85v-16.45h2.684l8.833 11.373V90.078h2.849v16.45zm10.868.282c-4.805 0-8.383-3.737-8.383-8.46v-.047c0-4.676 3.508-8.506 8.5-8.506 3.04 0 4.876 1.057 6.454 2.561l-1.861 2.139c-1.318-1.223-2.731-2.045-4.616-2.045-3.132 0-5.44 2.585-5.44 5.805v.046c0 3.22 2.285 5.829 5.44 5.829 2.026 0 3.32-.8 4.734-2.116l1.86 1.88c-1.719 1.786-3.603 2.914-6.688 2.914z" fill="#9E7B55"/><path d="M137.753 52.789h-9.38c-2.261-13.175-9.07-25.232-19.258-34.051a58.29 58.29 0 0 0-38.15-14.202A58.3 58.3 0 0 0 32.88 18.684c-10.22 8.82-17.053 20.902-19.318 34.105H4.24v1.282h10.526v-.517c2.118-13.115 8.844-25.133 18.973-33.877A56.983 56.983 0 0 1 70.965 5.851a56.974 56.974 0 0 1 37.288 13.88c10.236 8.86 16.982 21.063 18.998 34.361l.14-.021h10.362v-1.282zM137.753 83.297h-13.707v.002l-.024-.01c-4.12 10.537-11.235 19.536-20.579 26.025-9.558 6.637-20.788 10.146-32.478 10.146-11.668 0-22.883-3.497-32.43-10.113-9.322-6.46-16.432-15.42-20.569-25.916v-.134H4.241v1.282h12.778c4.266 10.45 11.428 19.378 20.765 25.848 9.77 6.77 21.243 10.347 33.181 10.347 11.96 0 23.452-3.59 33.23-10.382 9.316-6.468 16.458-15.383 20.718-25.813h12.84v-1.282zM14.512 57.86c7.262 0 8.64 3.125 8.64 6.685 0 4.123-3.757 6.184-8.234 6.184H12.54v4.843h1.91v4.124H4.37v-4.124h1.753v-13.62H4.368V57.86h10.144zm-1.973 9.496h1.408c1.816 0 3.07-.937 3.07-2.593 0-1.842-1.096-2.841-2.913-2.841h-1.565v5.434zM33.984 57.86v4.124h-1.658V75.54h4.038v-3.967h5.259v8.123h-17.53V75.54h1.72V61.984h-1.72V57.86zM55.148 79.696v-4.092h2.973l-.657-2.124h-6.417l-.657 2.124h2.441v4.092h-9.955v-4.092h2.128l4.227-13.714h-1.283v-4.03h12.021l5.54 17.744h2.192v4.092H55.148zm1.159-9.966l-2.068-6.747-2.034 6.747h4.102z" fill="#F58A3D"/><g fill="#F58A3D"><path d="M75.983 67.7c.125-.626.814-1.937 1.157-2.686l1.724-3.156H77.14v-3.999h8.422v3.999h-1.69L78.08 72.01v3.624h1.752v4.06H69.816v-4.06H71.6v-3.686l-6.073-10.091h-1.534v-3.999h10.706v3.999h-1.628l1.816 3.312c.188.593.845 1.998.97 2.53h.126zM90.888 68.668c0-6.747 4.508-11.402 10.989-11.402 7.669 0 11.237 4.593 11.237 11.621 0 7.06-3.943 11.371-11.019 11.371-6.543 0-11.207-3.78-11.207-11.59m14.4.22c0-3.78-1.032-6.811-3.443-6.811-1.91-.03-3.225 2.717-3.225 6.591 0 4.093 1.473 6.685 3.475 6.685 1.973 0 3.194-2.592 3.194-6.466"/></g><path fill="#F58A3D" d="M135.559 61.89v17.805h-6.732l-7.983-11.902v7.874h2.41v4.028h-9.61v-4.028h1.846V61.889h-1.816v-4.028h8.985l7.672 11.464V61.89h-2.13v-4.028h9.423v4.028z"/><path d="M31.026 43.02l-.318-1.145c.678-.085 1.155-.29 1.46-.807.342-.579.189-1.202-.638-1.688l-4.026-2.37.658-1.113 4.061 2.39c.73.43 1.146.969 1.293 1.541.148.571.028 1.198-.335 1.812-.56.947-1.363 1.302-2.155 1.38M30.94 31.995l.729-.904 7.575 2.063-.832 1.03-1.797-.516-2.12 2.625.881 1.65-.806 1-3.63-6.948zm4.52 1.333l-3-.83 1.457 2.741 1.543-1.91zM37.04 30.408l-.013-.016c-1.358-1.507-1.337-3.756.274-5.198.979-.878 1.878-1.067 2.824-1.038l.02 1.227c-.78-.013-1.475.13-2.081.674-1.01.905-1.005 2.405-.072 3.443l.014.016c.933 1.037 2.427 1.218 3.445.308.653-.586.84-1.217.914-2.05l1.144.07c-.036 1.072-.316 1.98-1.311 2.87-1.55 1.388-3.788 1.218-5.158-.306M41.307 22.081l1.06-.671 1.927 3.024.94-4.844 1.308-.83-.866 4.18 4.81 1.762-1.29.82-3.783-1.4-.326 1.557 1.112 1.744-1.059.672z" fill="#FEFEFE"/><g fill="#FEFEFE"><path d="M50.31 23.684l.33-1.123c.864.267 1.635.296 2.44-.056.71-.31 1.011-.843.798-1.328l-.008-.019c-.205-.466-.578-.602-1.915-.351-1.54.273-2.506.206-3.036-.997l-.008-.018c-.492-1.12.103-2.303 1.402-2.871.954-.418 1.839-.46 2.736-.218l-.236 1.136c-.782-.18-1.473-.156-2.072.106-.673.295-.914.812-.726 1.241l.008.019c.223.503.62.596 2.014.342 1.53-.27 2.458-.086 2.934.997l.008.018c.537 1.223-.106 2.371-1.48 2.973a4.416 4.416 0 0 1-3.19.149M55.747 18.612l-.006-.02c-.482-1.947.62-3.95 2.75-4.474 2.13-.525 4.015.72 4.497 2.667l.005.02c.481 1.947-.62 3.95-2.75 4.474-2.13.525-4.014-.72-4.496-2.667m5.973-1.473l-.005-.02c-.334-1.344-1.59-2.219-2.967-1.879-1.377.339-2.066 1.673-1.734 3.018l.006.02c.332 1.344 1.586 2.21 2.964 1.87 1.376-.34 2.068-1.664 1.736-3.009"/></g><path fill="#FEFEFE" d="M64.68 13.026l1.162-.062 4.088 4.717-.265-4.922 1.233-.066.383 7.119-1.05.056-4.206-4.854.273 5.065-1.235.066z"/><g fill="#FEFEFE"><path d="M76.115 16.595l.004-.02c.372-1.991 2.17-3.346 4.298-2.95 1.294.24 1.992.836 2.544 1.602L82 15.99c-.465-.624-1.002-1.086-1.804-1.236-1.334-.248-2.523.67-2.78 2.042l-.003.02c-.256 1.37.51 2.663 1.854 2.913.863.16 1.477-.078 2.184-.526l.644.948c-.875.625-1.767.957-3.082.712-2.045-.38-3.273-2.256-2.898-4.268M83.644 18.063l.008-.018c.707-1.878 2.752-2.904 4.806-2.134 2.053.772 2.898 2.865 2.19 4.741l-.007.019c-.708 1.878-2.754 2.904-4.807 2.133-2.053-.772-2.899-2.864-2.19-4.74m5.757 2.163l.008-.019c.49-1.295-.05-2.728-1.377-3.227-1.327-.499-2.653.211-3.142 1.506l-.007.02c-.49 1.297.053 2.719 1.38 3.217 1.328.5 2.65-.2 3.138-1.497M91.925 21.955l2.123-3.515 1.076.647-2.097 3.47c-.686 1.135-.464 2.089.498 2.668.952.572 1.88.358 2.56-.767l2.123-3.516 1.076.648-2.092 3.462c-1.102 1.822-2.687 2.118-4.286 1.156-1.59-.957-2.052-2.483-.981-4.253"/></g><path fill="#FEFEFE" d="M101.462 23.174l.876.764-.372 6.225 3.251-3.71.93.813-4.705 5.363-.79-.69.382-6.405-3.347 3.816-.93-.811zM108.221 31.347l-1.44-1.746.9-.737 3.682 4.467-.898.738-1.44-1.746-4.619 3.792-.804-.976zM109.944 39.125l2.289-4.631.757 1.282-1.709 3.308 3.744.141.73 1.237-5.142-.264-2.455 1.442-.642-1.09z"/></g></svg>