<svg width="253" height="253" xmlns="http://www.w3.org/2000/svg"><path d="M94.875 189.75c22.464 0 43.105-7.896 59.381-20.999l80.728 81.14c4.101 4.132 10.763 4.142 14.906.03 4.133-4.11 4.143-10.783.042-14.905L169.1 153.782c12.892-16.192 20.651-36.654 20.651-58.907C189.75 42.557 147.193 0 94.875 0S0 42.557 0 94.875c0 52.308 42.557 94.875 94.875 94.875zm0-168.667c40.68 0 73.792 33.101 73.792 73.792 0 40.68-33.112 73.792-73.792 73.792-40.69 0-73.792-33.112-73.792-73.792 0-40.69 33.101-73.792 73.792-73.792z" fill="#000" fill-rule="evenodd"/></svg>